  0
SECTION
  2
HEADER
  9
$ACADVER
  1
AC1012
  9
$DWGCODEPAGE
  3
ansi_1251
  9
$INSBASE
 10
0.0
 20
0.0
 30
0.0
  9
$EXTMIN
 10
0.0
 20
0.0
 30
0.0
  9
$EXTMAX
 10
210.0
 20
297.0
 30
0.0
  9
$LIMMIN
 10
0.0
 20
0.0
  9
$LIMMAX
 10
210.0
 20
297.0
  9
$ORTHOMODE
 70
     0
  9
$REGENMODE
 70
     1
  9
$FILLMODE
 70
     1
  9
$QTEXTMODE
 70
     0
  9
$MIRRTEXT
 70
     1
  9
$DRAGMODE
 70
     2
  9
$LTSCALE
 40
1.0
  9
$OSMODE
 70
    37
  9
$ATTMODE
 70
     1
  9
$TEXTSIZE
 40
3.5
  9
$TRACEWID
 40
1.0
  9
$TEXTSTYLE
  7
STANDARD
  9
$CLAYER
  8
0
  9
$CELTYPE
  6
BYLAYER
  9
$CECOLOR
 62
   256
  9
$CELTSCALE
 40
1.0
  9
$DELOBJ
 70
     1
  9
$DISPSILH
 70
     0
  9
$DIMSCALE
 40
1.0
  9
$DIMASZ
 40
3.302
  9
$DIMEXO
 40
1.0
  9
$DIMDLI
 40
3.75
  9
$DIMRND
 40
0.0
  9
$DIMDLE
 40
0.0
  9
$DIMEXE
 40
1.0
  9
$DIMTP
 40
0.0
  9
$DIMTM
 40
0.0
  9
$DIMTXT
 40
3.5
  9
$DIMCEN
 40
2.5
  9
$DIMTSZ
 40
0.0
  9
$DIMTOL
 70
     0
  9
$DIMLIM
 70
     0
  9
$DIMTIH
 70
     1
  9
$DIMTOH
 70
     1
  9
$DIMSE1
 70
     0
  9
$DIMSE2
 70
     0
  9
$DIMTAD
 70
     1
  9
$DIMZIN
 70
     0
  9
$DIMBLK
  1

  9
$DIMASO
 70
     1
  9
$DIMSHO
 70
     1
  9
$DIMPOST
  1

  9
$DIMAPOST
  1

  9
$DIMALT
 70
     0
  9
$DIMALTD
 70
     3
  9
$DIMALTF
 40
0.0393700787
  9
$DIMLFAC
 40
1.0
  9
$DIMTOFL
 70
     1
  9
$DIMTVP
 40
0.0
  9
$DIMTIX
 70
     0
  9
$DIMSOXD
 70
     0
  9
$DIMSAH
 70
     0
  9
$DIMBLK1
  1

  9
$DIMBLK2
  1

  9
$DIMSTYLE
  2
ISO-25
  9
$DIMCLRD
 70
     0
  9
$DIMCLRE
 70
     0
  9
$DIMCLRT
 70
     0
  9
$DIMTFAC
 40
1.0
  9
$DIMGAP
 40
1.524
  9
$DIMJUST
 70
     0
  9
$DIMSD1
 70
     0
  9
$DIMSD2
 70
     0
  9
$DIMTOLJ
 70
     0
  9
$DIMTZIN
 70
     0
  9
$DIMALTZ
 70
     0
  9
$DIMALTTZ
 70
     0
  9
$DIMFIT
 70
     3
  9
$DIMUPT
 70
     0
  9
$DIMUNIT
 70
     2
  9
$DIMDEC
 70
     3
  9
$DIMTDEC
 70
     3
  9
$DIMALTU
 70
     2
  9
$DIMALTTD
 70
     3
  9
$DIMTXSTY
  7
STANDARD
  9
$DIMAUNIT
 70
     0
  9
$LUNITS
 70
     2
  9
$LUPREC
 70
     2
  9
$SKETCHINC
 40
1.0
  9
$FILLETRAD
 40
10.0
  9
$AUNITS
 70
     0
  9
$AUPREC
 70
     2
  9
$MENU
  1
.
  9
$ELEVATION
 40
0.0
  9
$PELEVATION
 40
0.0
  9
$THICKNESS
 40
0.0
  9
$LIMCHECK
 70
     0
  9
$CHAMFERA
 40
10.0
  9
$CHAMFERB
 40
10.0
  9
$CHAMFERC
 40
20.0
  9
$CHAMFERD
 40
0.0
  9
$SKPOLY
 70
     0
  9
$TDCREATE
 40
2456563.7127914
  9
$TDUPDATE
 40
2456563.712791412
  9
$TDINDWG
 40
0.0000000116
  9
$TDUSRTIMER
 40
0.0000000116
  9
$USRTIMER
 70
     1
  9
$ANGBASE
 50
0.0
  9
$ANGDIR
 70
     0
  9
$PDMODE
 70
     0
  9
$PDSIZE
 40
-1.0
  9
$PLINEWID
 40
0.0
  9
$COORDS
 70
     1
  9
$SPLFRAME
 70
     0
  9
$SPLINETYPE
 70
     6
  9
$SPLINESEGS
 70
     8
  9
$ATTDIA
 70
     0
  9
$ATTREQ
 70
     1
  9
$HANDLING
 70
     1
  9
$HANDSEED
  5
148
  9
$SURFTAB1
 70
     6
  9
$SURFTAB2
 70
     6
  9
$SURFTYPE
 70
     6
  9
$SURFU
 70
     6
  9
$SURFV
 70
     6
  9
$UCSNAME
  2

  9
$UCSORG
 10
0.0
 20
0.0
 30
0.0
  9
$UCSXDIR
 10
1.0
 20
0.0
 30
0.0
  9
$UCSYDIR
 10
0.0
 20
1.0
 30
0.0
  9
$PUCSNAME
  2

  9
$PUCSORG
 10
0.0
 20
0.0
 30
0.0
  9
$PUCSXDIR
 10
1.0
 20
0.0
 30
0.0
  9
$PUCSYDIR
 10
0.0
 20
1.0
 30
0.0
  9
$USERI1
 70
     0
  9
$USERI2
 70
     0
  9
$USERI3
 70
     0
  9
$USERI4
 70
     0
  9
$USERI5
 70
     0
  9
$USERR1
 40
0.0
  9
$USERR2
 40
0.0
  9
$USERR3
 40
0.0
  9
$USERR4
 40
0.0
  9
$USERR5
 40
0.0
  9
$WORLDVIEW
 70
     1
  9
$SHADEDGE
 70
     3
  9
$SHADEDIF
 70
    70
  9
$TILEMODE
 70
     1
  9
$MAXACTVP
 70
    64
  9
$PINSBASE
 10
0.0
 20
0.0
 30
0.0
  9
$PLIMCHECK
 70
     0
  9
$PEXTMIN
 10
1.0000000000E+20
 20
1.0000000000E+20
 30
1.0000000000E+20
  9
$PEXTMAX
 10
-1.0000000000E+20
 20
-1.0000000000E+20
 30
-1.0000000000E+20
  9
$PLIMMIN
 10
0.0
 20
0.0
  9
$PLIMMAX
 10
420.0
 20
297.0
  9
$UNITMODE
 70
     0
  9
$VISRETAIN
 70
     1
  9
$PLINEGEN
 70
     0
  9
$PSLTSCALE
 70
     1
  9
$TREEDEPTH
 70
  3020
  9
$PICKSTYLE
 70
     1
  9
$CMLSTYLE
  2
STANDARD
  9
$CMLJUST
 70
     0
  9
$CMLSCALE
 40
20.0
  9
$SAVEIMAGES
 70
     1
  0
ENDSEC
  0
SECTION
  2
CLASSES
  0
CLASS
  1
ACDBDICTIONARYWDFLT
  2
AcDbDictionaryWithDefault
  3
ObjectDBX Classes
 90
    32768
280
     0
281
     0
  0
CLASS
  1
VISUALSTYLE
  2
AcDbVisualStyle
  3
ObjectDBX Classes
 90
     4095
280
     0
281
     0
  0
CLASS
  1
DICTIONARYVAR
  2
AcDbDictionaryVar
  3
ObjectDBX Classes
 90
        0
280
     0
281
     0
  0
CLASS
  1
XRECORD
  2
AcDbXrecord
  3
AutoCAD 2000
 90
    32768
280
     0
281
     0
  0
CLASS
  1
LWPOLYLINE
  2
AcDbPolyline
  3
AutoCAD 2000
 90
    32768
280
     0
281
     1
  0
CLASS
  1
HATCH
  2
AcDbHatch
  3
AutoCAD 2000
 90
    32768
280
     0
281
     1
  0
CLASS
  1
ACDBPLACEHOLDER
  2
AcDbPlaceHolder
  3
ObjectDBX Classes
 90
        0
280
     0
281
     0
  0
CLASS
  1
LAYOUT
  2
AcDbLayout
  3
ObjectDBX Classes
 90
        0
280
     0
281
     0
  0
ENDSEC
  0
SECTION
  2
TABLES
  0
TABLE
  2
VPORT
  5
8
330
0
100
AcDbSymbolTable
 70
     1
  0
VPORT
  5
29
330
8
100
AcDbSymbolTableRecord
100
AcDbViewportTableRecord
  2
*ACTIVE
 70
     0
 10
0.0
 20
0.0
 11
1.0
 21
1.0
 12
105.0
 22
148.5
 13
0.0
 23
0.0
 14
10.0
 24
10.0
 15
10.0
 25
10.0
 16
0.0
 26
0.0
 36
1.0
 17
0.0
 27
0.0
 37
0.0
 40
297.0
 41
0.7070707071
 42
50.0
 43
0.0
 44
0.0
 50
0.0
 51
0.0
 71
     0
 72
  2000
 73
     1
 74
     3
 75
     0
 76
     0
 77
     0
 78
     0
  0
ENDTAB
  0
TABLE
  2
LTYPE
  5
5
330
0
100
AcDbSymbolTable
 70
     6
  0
LTYPE
  5
14
330
5
100
AcDbSymbolTableRecord
100
AcDbLinetypeTableRecord
  2
BYBLOCK
 70
     0
  3

 72
    65
 73
     0
 40
0.0
  0
LTYPE
  5
15
330
5
100
AcDbSymbolTableRecord
100
AcDbLinetypeTableRecord
  2
BYLAYER
 70
     0
  3

 72
    65
 73
     0
 40
0.0
  0
LTYPE
  5
16
330
5
100
AcDbSymbolTableRecord
100
AcDbLinetypeTableRecord
  2
CONTINUOUS
 70
     0
  3
Solid line
 72
    65
 73
     0
 40
0.0
  0
LTYPE
  5
3B
330
5
100
AcDbSymbolTableRecord
100
AcDbLinetypeTableRecord
  2
HIDDEN
 70
     0
  3
Hidden __ __ __ __ __ __ __ __ __ __ __ __ __ __
 72
    65
 73
     2
 40
1.905
 49
1.27
 74
     0
 49
-0.635
 74
     0
  0
LTYPE
  5
3C
330
5
100
AcDbSymbolTableRecord
100
AcDbLinetypeTableRecord
  2
PHANTOM
 70
     0
  3
Phantom ______  __  __  ______  __  __  ______
 72
    65
 73
     6
 40
12.7
 49
6.35
 74
     0
 49
-1.27
 74
     0
 49
1.27
 74
     0
 49
-1.27
 74
     0
 49
1.27
 74
     0
 49
-1.27
 74
     0
  0
LTYPE
  5
3D
330
5
100
AcDbSymbolTableRecord
100
AcDbLinetypeTableRecord
  2
CENTER
 70
     0
  3
Center ____ _ ____ _ ____ _ ____ _ ____ _ ____
 72
    65
 73
     4
 40
10.16
 49
6.35
 74
     0
 49
-1.27
 74
     0
 49
1.27
 74
     0
 49
-1.27
 74
     0
  0
LTYPE
  5
3E
330
5
100
AcDbSymbolTableRecord
100
AcDbLinetypeTableRecord
  2
CENTERX2
 70
     0
  3
Center (2x) ________  __  ________  __  _____
 72
    65
 73
     4
 40
20.32
 49
12.7
 74
     0
 49
-2.54
 74
     0
 49
2.54
 74
     0
 49
-2.54
 74
     0
  0
LTYPE
  5
3F
330
5
100
AcDbSymbolTableRecord
100
AcDbLinetypeTableRecord
  2
DOT2
 70
     0
  3
Dot (.5x) ........................................
 72
    65
 73
     2
 40
0.635
 49
0.0
 74
     0
 49
-0.635
 74
     0
  0
ENDTAB
  0
TABLE
  2
LAYER
  5
2
330
0
100
AcDbSymbolTable
 70
     2
  0
LAYER
  5
10
330
2
100
AcDbSymbolTableRecord
100
AcDbLayerTableRecord
  2
0
 70
     0
 62
     7
  6
CONTINUOUS
  0
LAYER
  5
40
330
2
100
AcDbSymbolTableRecord
100
AcDbLayerTableRecord
  2
DEFPOINTS
 70
     0
 62
     7
  6
CONTINUOUS
  0
ENDTAB
  0
TABLE
  2
STYLE
  5
3
330
0
100
AcDbSymbolTable
 70
     1
  0
STYLE
  5
11
330
3
100
AcDbSymbolTableRecord
100
AcDbTextStyleTableRecord
  2
STANDARD
 70
     0
 40
0.0
 41
1.0
 50
0.0
 71
     0
 42
2.5
  3
txt
  4

  0
ENDTAB
  0
TABLE
  2
VIEW
  5
6
330
0
100
AcDbSymbolTable
 70
     0
  0
ENDTAB
  0
TABLE
  2
UCS
  5
7
330
0
100
AcDbSymbolTable
 70
     0
  0
ENDTAB
  0
TABLE
  2
APPID
  5
9
330
0
100
AcDbSymbolTable
 70
     1
  0
APPID
  5
12
330
9
100
AcDbSymbolTableRecord
100
AcDbRegAppTableRecord
  2
ACAD
 70
     0
  0
ENDTAB
  0
TABLE
  2
DIMSTYLE
  5
A
330
0
100
AcDbSymbolTable
 70
     1
  0
DIMSTYLE
105
27
330
A
100
AcDbSymbolTableRecord
100
AcDbDimStyleTableRecord
  2
ISO-25
 70
     0
  3

  4

  5

  6

  7

 40
1.0
 41
2.5
 42
0.625
 43
3.75
 44
1.25
 45
0.0
 46
0.0
 47
0.0
 48
0.0
140
2.5
141
2.5
142
0.0
143
0.0393700787
144
1.0
145
0.0
146
1.0
147
0.625
 71
     0
 72
     0
 73
     0
 74
     0
 75
     0
 76
     0
 77
     1
 78
     8
170
     0
171
     3
172
     1
173
     0
174
     0
175
     0
176
     0
177
     0
178
     0
270
     2
271
     2
272
     2
273
     2
274
     3
340
11
275
     0
280
     0
281
     0
282
     0
283
     0
284
     8
285
     0
286
     0
287
     3
288
     0
  0
ENDTAB
  0
TABLE
  2
BLOCK_RECORD
  5
1
330
0
100
AcDbSymbolTable
 70
     1
  0
BLOCK_RECORD
  5
1F
330
1
100
AcDbSymbolTableRecord
100
AcDbBlockTableRecord
  2
*MODEL_SPACE
  0
BLOCK_RECORD
  5
1B
330
1
100
AcDbSymbolTableRecord
100
AcDbBlockTableRecord
  2
*PAPER_SPACE
  0
ENDTAB
  0
ENDSEC
  0
SECTION
  2
BLOCKS
  0
BLOCK
  5
20
330
1F
100
AcDbEntity
  8
0
100
AcDbBlockBegin
  2
*MODEL_SPACE
 70
     0
 10
0.0
 20
0.0
 30
0.0
  3
*MODEL_SPACE
  1

  0
ENDBLK
  5
21
330
1F
100
AcDbEntity
  8
0
100
AcDbBlockEnd
  0
BLOCK
  5
1C
330
1B
100
AcDbEntity
 67
     1
  8
0
100
AcDbBlockBegin
  2
*PAPER_SPACE
 70
     0
 10
0.0
 20
0.0
 30
0.0
  3
*PAPER_SPACE
  1

  0
ENDBLK
  5
1D
330
1B
100
AcDbEntity
 67
     1
  8
0
100
AcDbBlockEnd
  0
ENDSEC
  0
SECTION
  2
ENTITIES
  0
ARC
  5
41
330
1F
100
AcDbEntity
  8
0
  6
CONTINUOUS
 62
     7
100
AcDbCircle
 10
115.6263139124
 20
229.0078359096
 30
0.0
 40
25.61999999857224
100
AcDbArc
 50
319.0936974654
 51
322.156302534
  0
ARC
  5
42
330
1F
100
AcDbEntity
  8
0
  6
CONTINUOUS
 62
     7
100
AcDbCircle
 10
134.5359656181
 20
212.6241405909
 30
0.0
 40
0.599999999999996
100
AcDbArc
 50
250.0
 51
319.0936974654
  0
LINE
  5
43
330
1F
100
AcDbEntity
  8
0
  6
CONTINUOUS
 62
     7
100
AcDbLine
 10
133.6345711359
 20
212.3137128161
 30
0.0
 11
134.3307533869
 21
212.06031857
 31
0.0
  0
ARC
  5
44
330
1F
100
AcDbEntity
  8
0
  6
CONTINUOUS
 62
     7
100
AcDbCircle
 10
133.2925577691
 20
211.374019601
 30
0.0
 40
0.9999999999999876
100
AcDbArc
 50
70.0
 51
135.0
  0
LINE
  5
45
330
1F
100
AcDbEntity
  8
0
  6
CONTINUOUS
 62
     7
100
AcDbLine
 10
132.5530299553
 20
212.0486956643
 30
0.0
 11
132.585454882
 21
212.081120591
 31
0.0
  0
ARC
  5
46
330
1F
100
AcDbEntity
  8
0
  6
CONTINUOUS
 62
     7
100
AcDbCircle
 10
133.260130221
 20
211.3415920529
 30
0.0
 40
0.9999999999999973
100
AcDbArc
 50
135.0
 51
200.0
  0
LINE
  5
47
330
1F
100
AcDbEntity
  8
0
  6
CONTINUOUS
 62
     7
100
AcDbLine
 10
132.5738319763
 20
210.3033971594
 30
0.0
 11
132.3204377302
 21
210.9995645093
 31
0.0
  0
ARC
  5
48
330
1F
100
AcDbEntity
  8
0
  6
CONTINUOUS
 62
     7
100
AcDbCircle
 10
132.0100092317
 20
210.0981842024
 30
0.0
 40
0.5999999999999663
100
AcDbArc
 50
310.9063025333
 51
20.0
  0
ARC
  5
49
330
1F
100
AcDbEntity
  8
0
  6
CONTINUOUS
 62
     7
100
AcDbCircle
 10
115.6263139124
 20
229.0078359096
 30
0.0
 40
25.62000000009704
100
AcDbArc
 50
307.8436974667
 51
310.9063025333
  0
ARC
  5
4A
330
1F
100
AcDbEntity
  8
0
  6
CONTINUOUS
 62
     7
100
AcDbCircle
 10
130.9763215688
 20
209.2498586611
 30
0.0
 40
0.6000000000000204
100
AcDbArc
 50
238.75
 51
307.8436974667
  0
LINE
  5
4B
330
1F
100
AcDbEntity
  8
0
  6
CONTINUOUS
 62
     7
100
AcDbLine
 10
130.0316938766
 20
209.1212433384
 30
0.0
 11
130.665052832
 21
208.7369125889
 31
0.0
  0
ARC
  5
4C
330
1F
100
AcDbEntity
  8
0
  6
CONTINUOUS
 62
     7
100
AcDbCircle
 10
129.5129189451
 20
208.266335234
 30
0.0
 40
1.000000000000329
100
AcDbArc
 50
58.75
 51
123.75
  0
LINE
  5
4D
330
1F
100
AcDbEntity
  8
0
  6
CONTINUOUS
 62
     7
100
AcDbLine
 10
128.9192178854
 20
209.0723228262
 30
0.0
 11
128.9573499569
 21
209.0978038119
 31
0.0
  0
ARC
  5
4E
330
1F
100
AcDbEntity
  8
0
  6
CONTINUOUS
 62
     7
100
AcDbCircle
 10
129.4747881824
 20
208.2408570729
 30
0.0
 40
0.9999999999999882
100
AcDbArc
 50
123.75
 51
188.75
  0
LINE
  5
4F
330
1F
100
AcDbEntity
  8
0
  6
CONTINUOUS
 62
     7
100
AcDbLine
 10
128.5991260418
 20
207.3564988183
 30
0.0
 11
128.4864285597
 21
208.0887269782
 31
0.0
  0
ARC
  5
50
330
1F
100
AcDbEntity
  8
0
  6
CONTINUOUS
 62
     7
100
AcDbCircle
 10
128.0061110794
 20
207.265227462
 30
0.0
 40
0.6000000000000429
100
AcDbArc
 50
299.6563025334
 51
8.75
  0
ARC
  5
51
330
1F
100
AcDbEntity
  8
0
  6
CONTINUOUS
 62
     7
100
AcDbCircle
 10
115.6263139124
 20
229.0078359096
 30
0.0
 40
25.62000000007772
100
AcDbArc
 50
296.5936974667
 51
299.6563025333
  0
ARC
  5
52
330
1F
100
AcDbEntity
  8
0
  6
CONTINUOUS
 62
     7
100
AcDbCircle
 10
126.8267853321
 20
206.6348647171
 30
0.0
 40
0.6000000000000698
100
AcDbArc
 50
227.5
 51
296.5936974667
  0
LINE
  5
53
330
1F
100
AcDbEntity
  8
0
  6
CONTINUOUS
 62
     7
100
AcDbLine
 10
125.8752161273
 20
206.6930097149
 30
0.0
 11
126.421433092
 21
206.1924946116
 31
0.0
  0
ARC
  5
54
330
1F
100
AcDbEntity
  8
0
  6
CONTINUOUS
 62
     7
100
AcDbCircle
 10
125.1996256773
 20
205.955735106
 30
0.0
 40
0.9999999999992022
100
AcDbArc
 50
47.5
 51
112.4999999998
  0
LINE
  5
55
330
1F
100
AcDbEntity
  8
0
  6
CONTINUOUS
 62
     7
100
AcDbLine
 10
124.774571658
 20
206.8620633887
 30
0.0
 11
124.8169431099
 21
206.8796169566
 31
0.0
  0
ARC
  5
56
330
1F
100
AcDbEntity
  8
0
  6
CONTINUOUS
 62
     7
100
AcDbCircle
 10
125.1572570439
 20
205.9381854434
 30
0.0
 40
0.999999999999562
100
AcDbArc
 50
112.4999999998
 51
177.5000000001
  0
LINE
  5
57
330
1F
100
AcDbEntity
  8
0
  6
CONTINUOUS
 62
     7
100
AcDbLine
 10
124.1258943089
 20
205.2416515158
 30
0.0
 11
124.158207477
 21
205.9818070935
 31
0.0
  0
ARC
  5
58
330
1F
100
AcDbEntity
  8
0
  6
CONTINUOUS
 62
     7
100
AcDbCircle
 10
123.5264642646
 20
205.2678269708
 30
0.0
 40
0.5999999999999953
100
AcDbArc
 50
288.4063025334
 51
357.5
  0
ARC
  5
59
330
1F
100
AcDbEntity
  8
0
  6
CONTINUOUS
 62
     7
100
AcDbCircle
 10
115.6263139124
 20
229.0078359096
 30
0.0
 40
25.62000000003885
100
AcDbArc
 50
285.3436974655
 51
288.4063025334
  0
ARC
  5
5A
330
1F
100
AcDbEntity
  8
0
  6
CONTINUOUS
 62
     7
100
AcDbCircle
 10
122.2468212594
 20
204.879651509
 30
0.0
 40
0.6000000000000235
100
AcDbArc
 50
216.2499999988
 51
285.3436974655
  0
LINE
  5
5B
330
1F
100
AcDbEntity
  8
0
  6
CONTINUOUS
 62
     7
100
AcDbLine
 10
121.3248783358
 20
205.122323017
 30
0.0
 11
121.7629575738
 21
204.5248609589
 31
0.0
  0
ARC
  5
5C
330
1F
100
AcDbEntity
  8
0
  6
CONTINUOUS
 62
     7
100
AcDbCircle
 10
120.5184354067
 20
204.5310142839
 30
0.0
 40
1.00000000000005
100
AcDbArc
 50
36.2499999988
 51
101.2499999981
  0
LINE
  5
5D
330
1F
100
AcDbEntity
  8
0
  6
CONTINUOUS
 62
     7
100
AcDbLine
 10
120.2783697852
 20
205.5028539704
 30
0.0
 11
120.3233414897
 21
205.5117946671
 31
0.0
  0
ARC
  5
5E
330
1F
100
AcDbEntity
  8
0
  6
CONTINUOUS
 62
     7
100
AcDbCircle
 10
120.4734571054
 20
204.5220675435
 30
0.0
 40
1.000000000000035
100
AcDbArc
 50
101.2499999981
 51
166.2499999988
  0
LINE
  5
5F
330
1F
100
AcDbEntity
  8
0
  6
CONTINUOUS
 62
     7
100
AcDbLine
 10
119.3260216721
 20
204.0401261853
 30
0.0
 11
119.5021161445
 21
204.7597479628
 31
0.0
  0
ARC
  5
60
330
1F
100
AcDbEntity
  8
0
  6
CONTINUOUS
 62
     7
100
AcDbCircle
 10
118.7432191018
 20
204.1827417096
 30
0.0
 40
0.600000000000011
100
AcDbArc
 50
277.1563025322
 51
346.2499999988
  0
ARC
  5
61
330
1F
100
AcDbEntity
  8
0
  6
CONTINUOUS
 62
     7
100
AcDbCircle
 10
115.6263139124
 20
229.0078359096
 30
0.0
 40
25.62000000001221
100
AcDbArc
 50
274.093697463
 51
277.1563025322
  0
ARC
  5
62
330
1F
100
AcDbEntity
  8
0
  6
CONTINUOUS
 62
     7
100
AcDbCircle
 10
117.4124348017
 20
204.0516708964
 30
0.0
 40
0.599999999999972
100
AcDbArc
 50
205.0
 51
274.093697463
  0
LINE
  5
63
330
1F
100
AcDbEntity
  8
0
  6
CONTINUOUS
 62
     7
100
AcDbLine
 10
116.5555530795
 20
204.4695478486
 30
0.0
 11
116.8686488279
 21
203.7981015252
 31
0.0
  0
ARC
  5
64
330
1F
100
AcDbEntity
  8
0
  6
CONTINUOUS
 62
     7
100
AcDbCircle
 10
115.64924365
 20
204.0469239905
 30
0.0
 40
1.0
100
AcDbArc
 50
25.0
 51
90.0
  0
LINE
  5
65
330
1F
100
AcDbEntity
  8
0
  6
CONTINUOUS
 62
     7
100
AcDbLine
 10
115.6033837804
 20
205.0469231413
 30
0.0
 11
115.6492421039
 21
205.0469231413
 31
0.0
  0
ARC
  5
66
330
1F
100
AcDbEntity
  8
0
  6
CONTINUOUS
 62
     7
100
AcDbCircle
 10
115.6033841716
 20
204.0469239905
 30
0.0
 40
1.0
100
AcDbArc
 50
90.0
 51
155.0
  0
LINE
  5
67
330
1F
100
AcDbEntity
  8
0
  6
CONTINUOUS
 62
     7
100
AcDbLine
 10
114.3839770564
 20
203.7981015252
 30
0.0
 11
114.6970728048
 21
204.4695478486
 31
0.0
  0
ARC
  5
68
330
1F
100
AcDbEntity
  8
0
  6
CONTINUOUS
 62
     7
100
AcDbCircle
 10
113.8401930199
 20
204.0516708966
 30
0.0
 40
0.6000000000000236
100
AcDbArc
 50
265.9063025297
 51
335.0
  0
ARC
  5
69
330
1F
100
AcDbEntity
  8
0
  6
CONTINUOUS
 62
     7
100
AcDbCircle
 10
115.6263139124
 20
229.0078359096
 30
0.0
 40
25.6200000000068
100
AcDbArc
 50
262.8436974665
 51
265.9063025297
  0
ARC
  5
6A
330
1F
100
AcDbEntity
  8
0
  6
CONTINUOUS
 62
     7
100
AcDbCircle
 10
112.5094087225
 20
204.1827417097
 30
0.0
 40
0.5999999999999875
100
AcDbArc
 50
193.7499999999
 51
262.8436974665
  0
LINE
  5
6B
330
1F
100
AcDbEntity
  8
0
  6
CONTINUOUS
 62
     7
100
AcDbLine
 10
111.7505097398
 20
204.7597479628
 30
0.0
 11
111.9266042122
 21
204.0401261853
 31
0.0
  0
ARC
  5
6C
330
1F
100
AcDbEntity
  8
0
  6
CONTINUOUS
 62
     7
100
AcDbCircle
 10
110.7791707189
 20
204.5220675436
 30
0.0
 40
1.000000000000028
100
AcDbArc
 50
13.7499999999
 51
78.7499999992
  0
LINE
  5
6D
330
1F
100
AcDbEntity
  8
0
  6
CONTINUOUS
 62
     7
100
AcDbLine
 10
110.9292843946
 20
205.5117946671
 30
0.0
 11
110.9742635497
 21
205.5028539704
 31
0.0
  0
ARC
  5
6E
330
1F
100
AcDbEntity
  8
0
  6
CONTINUOUS
 62
     7
100
AcDbCircle
 10
110.7341924175
 20
204.531014284
 30
0.0
 40
1.000000000000064
100
AcDbArc
 50
78.7499999992
 51
143.7499999999
  0
LINE
  5
6F
330
1F
100
AcDbEntity
  8
0
  6
CONTINUOUS
 62
     7
100
AcDbLine
 10
109.4896757611
 20
204.5248609589
 30
0.0
 11
109.9277475485
 21
205.122323017
 31
0.0
  0
ARC
  5
70
330
1F
100
AcDbEntity
  8
0
  6
CONTINUOUS
 62
     7
100
AcDbCircle
 10
109.0058065649
 20
204.8796515092
 30
0.0
 40
0.6000000000000207
100
AcDbArc
 50
254.6563025333
 51
323.7499999999
  0
ARC
  5
71
330
1F
100
AcDbEntity
  8
0
  6
CONTINUOUS
 62
     7
100
AcDbCircle
 10
115.6263139124
 20
229.0078359096
 30
0.0
 40
25.62000000000974
100
AcDbArc
 50
251.5936974664
 51
254.6563025333
  0
ARC
  5
72
330
1F
100
AcDbEntity
  8
0
  6
CONTINUOUS
 62
     7
100
AcDbCircle
 10
107.7261635601
 20
205.2678269709
 30
0.0
 40
0.6000000000000177
100
AcDbArc
 50
182.4999999999
 51
251.5936974664
  0
LINE
  5
73
330
1F
100
AcDbEntity
  8
0
  6
CONTINUOUS
 62
     7
100
AcDbLine
 10
107.0944184073
 20
205.9818070935
 30
0.0
 11
107.1267315754
 21
205.2416515158
 31
0.0
  0
ARC
  5
74
330
1F
100
AcDbEntity
  8
0
  6
CONTINUOUS
 62
     7
100
AcDbCircle
 10
106.0953707809
 20
205.9381854434
 30
0.0
 40
0.9999999999999873
100
AcDbArc
 50
2.4999999999
 51
67.4999999987
  0
LINE
  5
75
330
1F
100
AcDbEntity
  8
0
  6
CONTINUOUS
 62
     7
100
AcDbLine
 10
106.4356827744
 20
206.8796169566
 30
0.0
 11
106.4780542263
 21
206.8620633887
 31
0.0
  0
ARC
  5
76
330
1F
100
AcDbEntity
  8
0
  6
CONTINUOUS
 62
     7
100
AcDbCircle
 10
106.0530021474
 20
205.955735106
 30
0.0
 40
1.000000000000051
100
AcDbArc
 50
67.4999999987
 51
132.4999999999
  0
LINE
  5
77
330
1F
100
AcDbEntity
  8
0
  6
CONTINUOUS
 62
     7
100
AcDbLine
 10
104.8312002429
 20
206.1924946116
 30
0.0
 11
105.377409757
 21
206.6930097149
 31
0.0
  0
ARC
  5
78
330
1F
100
AcDbEntity
  8
0
  6
CONTINUOUS
 62
     7
100
AcDbCircle
 10
104.4258424928
 20
206.6348647172
 30
0.0
 40
0.5999999999999975
100
AcDbArc
 50
243.4063025332
 51
312.4999999999
  0
ARC
  5
79
330
1F
100
AcDbEntity
  8
0
  6
CONTINUOUS
 62
     7
100
AcDbCircle
 10
115.6263139124
 20
229.0078359096
 30
0.0
 40
25.62000000001544
100
AcDbArc
 50
240.3436974667
 51
243.4063025332
  0
ARC
  5
7A
330
1F
100
AcDbEntity
  8
0
  6
CONTINUOUS
 62
     7
100
AcDbCircle
 10
103.2465167455
 20
207.265227462
 30
0.0
 40
0.5999999999999781
100
AcDbArc
 50
171.25
 51
240.3436974667
  0
LINE
  5
7B
330
1F
100
AcDbEntity
  8
0
  6
CONTINUOUS
 62
     7
100
AcDbLine
 10
102.7662047752
 20
208.0887269782
 30
0.0
 11
102.6534998425
 21
207.3564988183
 31
0.0
  0
ARC
  5
7C
330
1F
100
AcDbEntity
  8
0
  6
CONTINUOUS
 62
     7
100
AcDbCircle
 10
101.7778396425
 20
208.2408570729
 30
0.0
 40
1.000000000000614
100
AcDbArc
 50
351.25
 51
56.250000002
  0
LINE
  5
7D
330
1F
100
AcDbEntity
  8
0
  6
CONTINUOUS
 62
     7
100
AcDbLine
 10
102.2952759274
 20
209.0978038119
 30
0.0
 11
102.3334079989
 21
209.0723228262
 31
0.0
  0
ARC
  5
7E
330
1F
100
AcDbEntity
  8
0
  6
CONTINUOUS
 62
     7
100
AcDbCircle
 10
101.7397088797
 20
208.266335234
 30
0.0
 40
1.000000000000645
100
AcDbArc
 50
56.250000002
 51
121.25
  0
LINE
  5
7F
330
1F
100
AcDbEntity
  8
0
  6
CONTINUOUS
 62
     7
100
AcDbLine
 10
100.5875730523
 20
208.7369125889
 30
0.0
 11
101.2209320077
 21
209.1212433384
 31
0.0
  0
ARC
  5
80
330
1F
100
AcDbEntity
  8
0
  6
CONTINUOUS
 62
     7
100
AcDbCircle
 10
100.2763062561
 20
209.2498586611
 30
0.0
 40
0.6000000000000251
100
AcDbArc
 50
232.1563025334
 51
301.25
  0
ARC
  5
81
330
1F
100
AcDbEntity
  8
0
  6
CONTINUOUS
 62
     7
100
AcDbCircle
 10
115.6263139124
 20
229.0078359096
 30
0.0
 40
25.62000000001893
100
AcDbArc
 50
229.0936974666
 51
232.1563025334
  0
ARC
  5
82
330
1F
100
AcDbEntity
  8
0
  6
CONTINUOUS
 62
     7
100
AcDbCircle
 10
99.2426185932
 20
210.0981842024
 30
0.0
 40
0.6000000000000263
100
AcDbArc
 50
160.0
 51
229.0936974666
  0
LINE
  5
83
330
1F
100
AcDbEntity
  8
0
  6
CONTINUOUS
 62
     7
100
AcDbLine
 10
98.9321881541
 20
210.9995645093
 30
0.0
 11
98.6788013586
 21
210.3033971594
 31
0.0
  0
ARC
  5
84
330
1F
100
AcDbEntity
  8
0
  6
CONTINUOUS
 62
     7
100
AcDbCircle
 10
97.9924976038
 20
211.3415920529
 30
0.0
 40
0.999999999999998
100
AcDbArc
 50
340.0
 51
45.0
  0
LINE
  5
85
330
1F
100
AcDbEntity
  8
0
  6
CONTINUOUS
 62
     7
100
AcDbLine
 10
98.6671784528
 20
212.081120591
 30
0.0
 11
98.6996033796
 21
212.0486956643
 31
0.0
  0
ARC
  5
86
330
1F
100
AcDbEntity
  8
0
  6
CONTINUOUS
 62
     7
100
AcDbCircle
 10
97.9600700557
 20
211.374019601
 30
0.0
 40
0.9999999999999973
100
AcDbArc
 50
45.0
 51
110.0
  0
LINE
  5
87
330
1F
100
AcDbEntity
  8
0
  6
CONTINUOUS
 62
     7
100
AcDbLine
 10
96.9218724974
 20
212.06031857
 30
0.0
 11
97.6180472978
 21
212.3137128161
 31
0.0
  0
ARC
  5
88
330
1F
100
AcDbEntity
  8
0
  6
CONTINUOUS
 62
     7
100
AcDbCircle
 10
96.7166622052
 20
212.6241405904
 30
0.0
 40
0.5999999999999814
100
AcDbArc
 50
220.9063025334
 51
290.0
  0
ARC
  5
89
330
1F
100
AcDbEntity
  8
0
  6
CONTINUOUS
 62
     7
100
AcDbCircle
 10
115.6263139124
 20
229.0078359096
 30
0.0
 40
25.62000000001487
100
AcDbArc
 50
217.8436974666
 51
220.9063025334
  0
ARC
  5
8A
330
1F
100
AcDbEntity
  8
0
  6
CONTINUOUS
 62
     7
100
AcDbCircle
 10
95.8683366639
 20
213.6578282533
 30
0.0
 40
0.6000000000000824
100
AcDbArc
 50
148.75
 51
217.8436974666
  0
LINE
  5
8B
330
1F
100
AcDbEntity
  8
0
  6
CONTINUOUS
 62
     7
100
AcDbLine
 10
95.739726127
 20
214.6024566697
 30
0.0
 11
95.3553879269
 21
213.9690977143
 31
0.0
  0
ARC
  5
8C
330
1F
100
AcDbEntity
  8
0
  6
CONTINUOUS
 62
     7
100
AcDbCircle
 10
94.8848132368
 20
215.1212308769
 30
0.0
 40
0.9999999999999802
100
AcDbArc
 50
328.75
 51
33.7499999996
  0
LINE
  5
8D
330
1F
100
AcDbEntity
  8
0
  6
CONTINUOUS
 62
     7
100
AcDbLine
 10
95.6908056148
 20
215.7149326609
 30
0.0
 11
95.7162791499
 21
215.6768005894
 31
0.0
  0
ARC
  5
8E
330
1F
100
AcDbEntity
  8
0
  6
CONTINUOUS
 62
     7
100
AcDbCircle
 10
94.8593350757
 20
215.1593616397
 30
0.0
 40
0.9999999999999695
100
AcDbArc
 50
33.7499999996
 51
98.75
  0
LINE
  5
8F
330
1F
100
AcDbEntity
  8
0
  6
CONTINUOUS
 62
     7
100
AcDbLine
 10
93.9749816068
 20
216.0350245045
 30
0.0
 11
94.7072097667
 21
216.1477219866
 31
0.0
  0
ARC
  5
90
330
1F
100
AcDbEntity
  8
0
  6
CONTINUOUS
 62
     7
100
AcDbCircle
 10
93.8837054648
 20
216.6280387427
 30
0.0
 40
0.6000000000000646
100
AcDbArc
 50
209.6563025334
 51
278.75
  0
ARC
  5
91
330
1F
100
AcDbEntity
  8
0
  6
CONTINUOUS
 62
     7
100
AcDbCircle
 10
115.6263139124
 20
229.0078359096
 30
0.0
 40
25.62000000000678
100
AcDbArc
 50
206.5936974666
 51
209.6563025334
  0
ARC
  5
92
330
1F
100
AcDbEntity
  8
0
  6
CONTINUOUS
 62
     7
100
AcDbCircle
 10
93.2533427199
 20
217.80736449
 30
0.0
 40
0.6000000000000064
100
AcDbArc
 50
137.5
 51
206.5936974666
  0
LINE
  5
93
330
1F
100
AcDbEntity
  8
0
  6
CONTINUOUS
 62
     7
100
AcDbLine
 10
93.3114925035
 20
218.7589269684
 30
0.0
 11
92.8109774002
 21
218.2127249049
 31
0.0
  0
ARC
  5
94
330
1F
100
AcDbEntity
  8
0
  6
CONTINUOUS
 62
     7
100
AcDbCircle
 10
92.5742131087
 20
219.4345241447
 30
0.0
 40
1.000000000000004
100
AcDbArc
 50
317.5
 51
22.4999999992
  0
LINE
  5
95
330
1F
100
AcDbEntity
  8
0
  6
CONTINUOUS
 62
     7
100
AcDbLine
 10
93.4805461773
 20
219.8595714377
 30
0.0
 11
93.4980922946
 21
219.8172074364
 31
0.0
  0
ARC
  5
96
330
1F
100
AcDbEntity
  8
0
  6
CONTINUOUS
 62
     7
100
AcDbCircle
 10
92.5566634461
 20
219.4768927782
 30
0.0
 40
1.000000000000011
100
AcDbArc
 50
22.4999999992
 51
87.5
  0
LINE
  5
97
330
1F
100
AcDbEntity
  8
0
  6
CONTINUOUS
 62
     7
100
AcDbLine
 10
91.8601343044
 20
220.5082636879
 30
0.0
 11
92.6002824315
 21
220.4759430693
 31
0.0
  0
ARC
  5
98
330
1F
100
AcDbEntity
  8
0
  6
CONTINUOUS
 62
     7
100
AcDbCircle
 10
91.8863049737
 20
221.1076855574
 30
0.0
 40
0.5999999999999996
100
AcDbArc
 50
198.4063025334
 51
267.5
  0
ARC
  5
99
330
1F
100
AcDbEntity
  8
0
  6
CONTINUOUS
 62
     7
100
AcDbCircle
 10
115.6263139124
 20
229.0078359096
 30
0.0
 40
25.62000000000136
100
AcDbArc
 50
195.3436974666
 51
198.4063025334
  0
ARC
  5
9A
330
1F
100
AcDbEntity
  8
0
  6
CONTINUOUS
 62
     7
100
AcDbCircle
 10
91.498129512
 20
222.3873285621
 30
0.0
 40
0.6000000000000208
100
AcDbArc
 50
126.25
 51
195.3436974667
  0
LINE
  5
9B
330
1F
100
AcDbEntity
  8
0
  6
CONTINUOUS
 62
     7
100
AcDbLine
 10
91.740798355
 20
223.3092647599
 30
0.0
 11
91.1433437475
 21
222.8712004231
 31
0.0
  0
ARC
  5
9C
330
1F
100
AcDbEntity
  8
0
  6
CONTINUOUS
 62
     7
100
AcDbCircle
 10
91.1494922868
 20
224.1157144148
 30
0.0
 40
1.000000000000293
100
AcDbArc
 50
306.25
 51
11.250000001
  0
LINE
  5
9D
330
1F
100
AcDbEntity
  8
0
  6
CONTINUOUS
 62
     7
100
AcDbLine
 10
92.1213293084
 20
224.3557882117
 30
0.0
 11
92.1302774557
 21
224.310801606
 31
0.0
  0
ARC
  5
9E
330
1F
100
AcDbEntity
  8
0
  6
CONTINUOUS
 62
     7
100
AcDbCircle
 10
91.1405455464
 20
224.1606927162
 30
0.0
 40
1.000000000000316
100
AcDbArc
 50
11.250000001
 51
76.25
  0
LINE
  5
9F
330
1F
100
AcDbEntity
  8
0
  6
CONTINUOUS
 62
     7
100
AcDbLine
 10
90.6586089739
 20
225.3081214236
 30
0.0
 11
91.3782307514
 21
225.1320344018
 31
0.0
  0
ARC
  5
A0
330
1F
100
AcDbEntity
  8
0
  6
CONTINUOUS
 62
     7
100
AcDbCircle
 10
90.8012197124
 20
225.8909307197
 30
0.0
 40
0.6000000000000242
100
AcDbArc
 50
187.1563025334
 51
256.25
  0
ARC
  5
A1
330
1F
100
AcDbEntity
  8
0
  6
CONTINUOUS
 62
     7
100
AcDbCircle
 10
115.6263139124
 20
229.0078359096
 30
0.0
 40
25.62000000000003
100
AcDbArc
 50
184.0936974666
 51
187.1563025334
  0
ARC
  5
A2
330
1F
100
AcDbEntity
  8
0
  6
CONTINUOUS
 62
     7
100
AcDbCircle
 10
90.6701488993
 20
227.2217150187
 30
0.0
 40
0.6000000000000293
100
AcDbArc
 50
115.0
 51
184.0936974666
  0
LINE
  5
A3
330
1F
100
AcDbEntity
  8
0
  6
CONTINUOUS
 62
     7
100
AcDbLine
 10
91.0880231866
 20
228.0786049174
 30
0.0
 11
90.4165768632
 21
227.7655017184
 31
0.0
  0
ARC
  5
A4
330
1F
100
AcDbEntity
  8
0
  6
CONTINUOUS
 62
     7
100
AcDbCircle
 10
90.6654019932
 20
228.9849061704
 30
0.0
 40
0.9999999999999858
100
AcDbArc
 50
295.0
 51
0.0
  0
LINE
  5
A5
330
1F
100
AcDbEntity
  8
0
  6
CONTINUOUS
 62
     7
100
AcDbLine
 10
91.6653984793
 20
229.0307593154
 30
0.0
 11
91.6653984793
 21
228.9849084424
 31
0.0
  0
ARC
  5
A6
330
1F
100
AcDbEntity
  8
0
  6
CONTINUOUS
 62
     7
100
AcDbCircle
 10
90.6654019932
 20
229.0307656488
 30
0.0
 40
1.0
100
AcDbArc
 50
0.0
 51
65.0
  0
LINE
  5
A7
330
1F
100
AcDbEntity
  8
0
  6
CONTINUOUS
 62
     7
100
AcDbLine
 10
90.4165768632
 20
230.2501660393
 30
0.0
 11
91.0880231866
 21
229.9370777415
 31
0.0
  0
ARC
  5
A8
330
1F
100
AcDbEntity
  8
0
  6
CONTINUOUS
 62
     7
100
AcDbCircle
 10
90.6701488993
 20
230.7939568005
 30
0.0
 40
0.6000000000000175
100
AcDbArc
 50
175.9063025334
 51
245.0
  0
ARC
  5
A9
330
1F
100
AcDbEntity
  8
0
  6
CONTINUOUS
 62
     7
100
AcDbCircle
 10
115.6263139124
 20
229.0078359096
 30
0.0
 40
25.62000000000212
100
AcDbArc
 50
172.8436974669
 51
175.9063025334
  0
ARC
  5
AA
330
1F
100
AcDbEntity
  8
0
  6
CONTINUOUS
 62
     7
100
AcDbCircle
 10
90.8012197124
 20
232.1247410994
 30
0.0
 40
0.600000000000019
100
AcDbArc
 50
103.7500000003
 51
172.8436974669
  0
LINE
  5
AB
330
1F
100
AcDbEntity
  8
0
  6
CONTINUOUS
 62
     7
100
AcDbLine
 10
91.3782307514
 20
232.883633356
 30
0.0
 11
90.6586089739
 21
232.7075463341
 31
0.0
  0
ARC
  5
AC
330
1F
100
AcDbEntity
  8
0
  6
CONTINUOUS
 62
     7
100
AcDbCircle
 10
91.1405455464
 20
233.854979103
 30
0.0
 40
0.9999999999999831
100
AcDbArc
 50
283.7500000003
 51
348.7500000003
  0
LINE
  5
AD
330
1F
100
AcDbEntity
  8
0
  6
CONTINUOUS
 62
     7
100
AcDbLine
 10
92.1302774557
 20
233.7048661517
 30
0.0
 11
92.1213293084
 21
233.6598944472
 31
0.0
  0
ARC
  5
AE
330
1F
100
AcDbEntity
  8
0
  6
CONTINUOUS
 62
     7
100
AcDbCircle
 10
91.1494922868
 20
233.8999574043
 30
0.0
 40
1.000000000000036
100
AcDbArc
 50
348.7500000003
 51
53.7500000003
  0
LINE
  5
AF
330
1F
100
AcDbEntity
  8
0
  6
CONTINUOUS
 62
     7
100
AcDbLine
 10
91.1433437475
 20
235.1444822358
 30
0.0
 11
91.740798355
 21
234.7064029978
 31
0.0
  0
ARC
  5
B0
330
1F
100
AcDbEntity
  8
0
  6
CONTINUOUS
 62
     7
100
AcDbCircle
 10
91.4981295119
 20
235.628343257
 30
0.0
 40
0.5999999999999631
100
AcDbArc
 50
164.6563025337
 51
233.7500000003
  0
ARC
  5
B1
330
1F
100
AcDbEntity
  8
0
  6
CONTINUOUS
 62
     7
100
AcDbCircle
 10
115.6263139124
 20
229.0078359096
 30
0.0
 40
25.62000000001942
100
AcDbArc
 50
161.5936974674
 51
164.6563025337
  0
ARC
  5
B2
330
1F
100
AcDbEntity
  8
0
  6
CONTINUOUS
 62
     7
100
AcDbCircle
 10
91.8863049735
 20
236.9079862615
 30
0.0
 40
0.5999999999999911
100
AcDbArc
 50
92.5000000008
 51
161.5936974674
  0
LINE
  5
B3
330
1F
100
AcDbEntity
  8
0
  6
CONTINUOUS
 62
     7
100
AcDbLine
 10
92.6002824315
 20
237.5397246884
 30
0.0
 11
91.8601343044
 21
237.5074189709
 31
0.0
  0
ARC
  5
B4
330
1F
100
AcDbEntity
  8
0
  6
CONTINUOUS
 62
     7
100
AcDbCircle
 10
92.556663446
 20
238.5387790408
 30
0.0
 40
0.9999999999999839
100
AcDbArc
 50
272.5000000008
 51
337.5000000008
  0
LINE
  5
B5
330
1F
100
AcDbEntity
  8
0
  6
CONTINUOUS
 62
     7
100
AcDbLine
 10
93.4980922946
 20
238.1984603213
 30
0.0
 11
93.4805461773
 21
238.15609632
 31
0.0
  0
ARC
  5
B6
330
1F
100
AcDbEntity
  8
0
  6
CONTINUOUS
 62
     7
100
AcDbCircle
 10
92.5742131086
 20
238.5811476742
 30
0.0
 40
1.000000000000009
100
AcDbArc
 50
337.5000000008
 51
42.5000000008
  0
LINE
  5
B7
330
1F
100
AcDbEntity
  8
0
  6
CONTINUOUS
 62
     7
100
AcDbLine
 10
92.8109774002
 20
239.802957754
 30
0.0
 11
93.3114925035
 21
239.2567407893
 31
0.0
  0
ARC
  5
B8
330
1F
100
AcDbEntity
  8
0
  6
CONTINUOUS
 62
     7
100
AcDbCircle
 10
93.2533427197
 20
240.2083073289
 30
0.0
 40
0.5999999999999898
100
AcDbArc
 50
153.4063025341
 51
222.5000000008
  0
ARC
  5
B9
330
1F
100
AcDbEntity
  8
0
  6
CONTINUOUS
 62
     7
100
AcDbCircle
 10
115.6263139124
 20
229.0078359096
 30
0.0
 40
25.62000000005822
100
AcDbArc
 50
150.3436974674
 51
153.4063025341
  0
ARC
  5
BA
330
1F
100
AcDbEntity
  8
0
  6
CONTINUOUS
 62
     7
100
AcDbCircle
 10
93.8837054646
 20
241.3876330763
 30
0.0
 40
0.6000000000000316
100
AcDbArc
 50
81.2500000007
 51
150.3436974674
  0
LINE
  5
BB
330
1F
100
AcDbEntity
  8
0
  6
CONTINUOUS
 62
     7
100
AcDbLine
 10
94.7072097667
 20
241.8679457711
 30
0.0
 11
93.9749816068
 21
241.9806432532
 31
0.0
  0
ARC
  5
BC
330
1F
100
AcDbEntity
  8
0
  6
CONTINUOUS
 62
     7
100
AcDbCircle
 10
94.8593350755
 20
242.8563101793
 30
0.0
 40
0.9999999999999715
100
AcDbArc
 50
261.2500000007
 51
326.2500000007
  0
LINE
  5
BD
330
1F
100
AcDbEntity
  8
0
  6
CONTINUOUS
 62
     7
100
AcDbLine
 10
95.7162791499
 20
242.3388671683
 30
0.0
 11
95.6908056148
 21
242.3007350968
 31
0.0
  0
ARC
  5
BE
330
1F
100
AcDbEntity
  8
0
  6
CONTINUOUS
 62
     7
100
AcDbCircle
 10
94.8848132366
 20
242.8944409421
 30
0.0
 40
1.000000000000031
100
AcDbArc
 50
326.2500000007
 51
31.2500000007
  0
LINE
  5
BF
330
1F
100
AcDbEntity
  8
0
  6
CONTINUOUS
 62
     7
100
AcDbLine
 10
95.3553879269
 20
244.0465849446
 30
0.0
 11
95.739726127
 21
243.413211088
 31
0.0
  0
ARC
  5
C0
330
1F
100
AcDbEntity
  8
0
  6
CONTINUOUS
 62
     7
100
AcDbCircle
 10
95.8683366637
 20
244.3578435658
 30
0.0
 40
0.5999999999999834
100
AcDbArc
 50
142.156302534
 51
211.2500000007
  0
ARC
  5
C1
330
1F
100
AcDbEntity
  8
0
  6
CONTINUOUS
 62
     7
100
AcDbCircle
 10
115.6263139124
 20
229.0078359096
 30
0.0
 40
25.62000000009705
100
AcDbArc
 50
139.0936974667
 51
142.156302534
  0
ARC
  5
C2
330
1F
100
AcDbEntity
  8
0
  6
CONTINUOUS
 62
     7
100
AcDbCircle
 10
96.7166622051
 20
245.3915312289
 30
0.0
 40
0.5999999999999862
100
AcDbArc
 50
70.0
 51
139.0936974667
  0
LINE
  5
C3
330
1F
100
AcDbEntity
  8
0
  6
CONTINUOUS
 62
     7
100
AcDbLine
 10
97.6180472978
 20
245.7019549416
 30
0.0
 11
96.9218724974
 21
245.9553491877
 31
0.0
  0
ARC
  5
C4
330
1F
100
AcDbEntity
  8
0
  6
CONTINUOUS
 62
     7
100
AcDbCircle
 10
97.9600700557
 20
246.6416522182
 30
0.0
 40
0.9999999999999803
100
AcDbArc
 50
250.0
 51
315.0
  0
LINE
  5
C5
330
1F
100
AcDbEntity
  8
0
  6
CONTINUOUS
 62
     7
100
AcDbLine
 10
98.6996033796
 20
245.9669720934
 30
0.0
 11
98.6671784528
 21
245.9345471667
 31
0.0
  0
ARC
  5
C6
330
1F
100
AcDbEntity
  8
0
  6
CONTINUOUS
 62
     7
100
AcDbCircle
 10
97.9924976038
 20
246.6740797664
 30
0.0
 40
1.000000000000008
100
AcDbArc
 50
315.0
 51
20.0
  0
LINE
  5
C7
330
1F
100
AcDbEntity
  8
0
  6
CONTINUOUS
 62
     7
100
AcDbLine
 10
98.6788013586
 20
247.7122705983
 30
0.0
 11
98.9321881541
 21
247.0161032485
 31
0.0
  0
ARC
  5
C8
330
1F
100
AcDbEntity
  8
0
  6
CONTINUOUS
 62
     7
100
AcDbCircle
 10
99.2426185931
 20
247.9174876169
 30
0.0
 40
0.6000000000000064
100
AcDbArc
 50
130.9063025333
 51
200.0
  0
ARC
  5
C9
330
1F
100
AcDbEntity
  8
0
  6
CONTINUOUS
 62
     7
100
AcDbCircle
 10
115.6263139124
 20
229.0078359096
 30
0.0
 40
25.62000000009706
100
AcDbArc
 50
127.8436974667
 51
130.9063025333
  0
ARC
  5
CA
330
1F
100
AcDbEntity
  8
0
  6
CONTINUOUS
 62
     7
100
AcDbCircle
 10
100.276306256
 20
248.7658131582
 30
0.0
 40
0.6000000000000286
100
AcDbArc
 50
58.75
 51
127.8436974667
  0
LINE
  5
CB
330
1F
100
AcDbEntity
  8
0
  6
CONTINUOUS
 62
     7
100
AcDbLine
 10
101.2209320077
 20
248.8944244193
 30
0.0
 11
100.5875730523
 21
249.2787551688
 31
0.0
  0
ARC
  5
CC
330
1F
100
AcDbEntity
  8
0
  6
CONTINUOUS
 62
     7
100
AcDbCircle
 10
101.7397088797
 20
249.7493365853
 30
0.0
 40
1.000000000000012
100
AcDbArc
 50
238.75
 51
303.75
  0
LINE
  5
CD
330
1F
100
AcDbEntity
  8
0
  6
CONTINUOUS
 62
     7
100
AcDbLine
 10
102.3334079989
 20
248.9433449315
 30
0.0
 11
102.2952759274
 21
248.9178639458
 31
0.0
  0
ARC
  5
CE
330
1F
100
AcDbEntity
  8
0
  6
CONTINUOUS
 62
     7
100
AcDbCircle
 10
101.7778396424
 20
249.7748147463
 30
0.0
 40
1.000000000000023
100
AcDbArc
 50
303.75
 51
8.75
  0
LINE
  5
CF
330
1F
100
AcDbEntity
  8
0
  6
CONTINUOUS
 62
     7
100
AcDbLine
 10
102.6534998425
 20
250.6591689395
 30
0.0
 11
102.7662047752
 21
249.9269407795
 31
0.0
  0
ARC
  5
D0
330
1F
100
AcDbEntity
  8
0
  6
CONTINUOUS
 62
     7
100
AcDbCircle
 10
103.2465167454
 20
250.7504443573
 30
0.0
 40
0.6000000000000062
100
AcDbArc
 50
119.6563025333
 51
188.75
  0
ARC
  5
D1
330
1F
100
AcDbEntity
  8
0
  6
CONTINUOUS
 62
     7
100
AcDbCircle
 10
115.6263139124
 20
229.0078359096
 30
0.0
 40
25.62000000007763
100
AcDbArc
 50
116.5936974667
 51
119.6563025333
  0
ARC
  5
D2
330
1F
100
AcDbEntity
  8
0
  6
CONTINUOUS
 62
     7
100
AcDbCircle
 10
104.4258424928
 20
251.3808071022
 30
0.0
 40
0.6000000000000258
100
AcDbArc
 50
47.5
 51
116.5936974667
  0
LINE
  5
D3
330
1F
100
AcDbEntity
  8
0
  6
CONTINUOUS
 62
     7
100
AcDbLine
 10
105.377409757
 20
251.3226580428
 30
0.0
 11
104.8312002429
 21
251.8231731461
 31
0.0
  0
ARC
  5
D4
330
1F
100
AcDbEntity
  8
0
  6
CONTINUOUS
 62
     7
100
AcDbCircle
 10
106.0530021475
 20
252.0599367133
 30
0.0
 40
0.9999999999999944
100
AcDbArc
 50
227.5
 51
292.5
  0
LINE
  5
D5
330
1F
100
AcDbEntity
  8
0
  6
CONTINUOUS
 62
     7
100
AcDbLine
 10
106.4780542263
 20
251.153604369
 30
0.0
 11
106.4356827744
 21
251.1360508011
 31
0.0
  0
ARC
  5
D6
330
1F
100
AcDbEntity
  8
0
  6
CONTINUOUS
 62
     7
100
AcDbCircle
 10
106.0953707809
 20
252.0774863759
 30
0.0
 40
1.000000000000033
100
AcDbArc
 50
292.5
 51
357.5
  0
LINE
  5
D7
330
1F
100
AcDbEntity
  8
0
  6
CONTINUOUS
 62
     7
100
AcDbLine
 10
107.1267315754
 20
252.7740162419
 30
0.0
 11
107.0944184073
 21
252.0338606642
 31
0.0
  0
ARC
  5
D8
330
1F
100
AcDbEntity
  8
0
  6
CONTINUOUS
 62
     7
100
AcDbCircle
 10
107.7261635602
 20
252.7478448484
 30
0.0
 40
0.6000000000000013
100
AcDbArc
 50
108.4063025334
 51
177.5
  0
ARC
  5
D9
330
1F
100
AcDbEntity
  8
0
  6
CONTINUOUS
 62
     7
100
AcDbCircle
 10
115.6263139124
 20
229.0078359096
 30
0.0
 40
25.62000000003857
100
AcDbArc
 50
105.3436974693
 51
108.4063025334
  0
ARC
  5
DA
330
1F
100
AcDbEntity
  8
0
  6
CONTINUOUS
 62
     7
100
AcDbCircle
 10
109.0058065638
 20
253.1360203098
 30
0.0
 40
0.6000000000000003
100
AcDbArc
 50
36.2500000026
 51
105.3436974693
  0
LINE
  5
DB
330
1F
100
AcDbEntity
  8
0
  6
CONTINUOUS
 62
     7
100
AcDbLine
 10
109.9277475485
 20
252.8933447407
 30
0.0
 11
109.4896757611
 21
253.4908067988
 31
0.0
  0
ARC
  5
DC
330
1F
100
AcDbEntity
  8
0
  6
CONTINUOUS
 62
     7
100
AcDbCircle
 10
110.7341924165
 20
253.484657535
 30
0.0
 40
1.000000000000044
100
AcDbArc
 50
216.2500000026
 51
281.2500000026
  0
LINE
  5
DD
330
1F
100
AcDbEntity
  8
0
  6
CONTINUOUS
 62
     7
100
AcDbLine
 10
110.9742635497
 20
252.5128137873
 30
0.0
 11
110.9292843946
 21
252.5038730906
 31
0.0
  0
ARC
  5
DE
330
1F
100
AcDbEntity
  8
0
  6
CONTINUOUS
 62
     7
100
AcDbCircle
 10
110.7791707178
 20
253.4936042754
 30
0.0
 40
0.9999999999999651
100
AcDbArc
 50
281.2500000026
 51
346.2500000026
  0
LINE
  5
DF
330
1F
100
AcDbEntity
  8
0
  6
CONTINUOUS
 62
     7
100
AcDbLine
 10
111.9266042122
 20
253.9755415724
 30
0.0
 11
111.7505097398
 21
253.2559197949
 31
0.0
  0
ARC
  5
E0
330
1F
100
AcDbEntity
  8
0
  6
CONTINUOUS
 62
     7
100
AcDbCircle
 10
112.5094087214
 20
253.8329301095
 30
0.0
 40
0.5999999999999885
100
AcDbArc
 50
97.156302536
 51
166.2500000026
  0
ARC
  5
E1
330
1F
100
AcDbEntity
  8
0
  6
CONTINUOUS
 62
     7
100
AcDbCircle
 10
115.6263139124
 20
229.0078359096
 30
0.0
 40
25.62000000001156
100
AcDbArc
 50
94.0936974703
 51
97.156302536
  0
ARC
  5
E2
330
1F
100
AcDbEntity
  8
0
  6
CONTINUOUS
 62
     7
100
AcDbCircle
 10
113.8401930199
 20
253.9640009227
 30
0.0
 40
0.5999999999999983
100
AcDbArc
 50
25.0
 51
94.0936974703
  0
LINE
  5
E3
330
1F
100
AcDbEntity
  8
0
  6
CONTINUOUS
 62
     7
100
AcDbLine
 10
114.6970728048
 20
253.5461348103
 30
0.0
 11
114.3839770564
 21
254.2175662325
 31
0.0
  0
ARC
  5
E4
330
1F
100
AcDbEntity
  8
0
  6
CONTINUOUS
 62
     7
100
AcDbCircle
 10
115.6033841716
 20
253.9687478288
 30
0.0
 40
1.000000000000028
100
AcDbArc
 50
205.0
 51
270.0000000039
  0
LINE
  5
E5
330
1F
100
AcDbEntity
  8
0
  6
CONTINUOUS
 62
     7
100
AcDbLine
 10
115.6492421039
 20
252.9687446164
 30
0.0
 11
115.6033837804
 21
252.9687446164
 31
0.0
  0
ARC
  5
E6
330
1F
100
AcDbEntity
  8
0
  6
CONTINUOUS
 62
     7
100
AcDbCircle
 10
115.6492436499
 20
253.9687478288
 30
0.0
 40
1.000000000000012
100
AcDbArc
 50
270.0000000039
 51
335.0
  0
LINE
  5
E7
330
1F
100
AcDbEntity
  8
0
  6
CONTINUOUS
 62
     7
100
AcDbLine
 10
116.8686488279
 20
254.2175662325
 30
0.0
 11
116.5555530795
 21
253.5461348103
 31
0.0
  0
ARC
  5
E8
330
1F
100
AcDbEntity
  8
0
  6
CONTINUOUS
 62
     7
100
AcDbCircle
 10
117.4124348017
 20
253.9640009229
 30
0.0
 40
0.6000000000000217
100
AcDbArc
 50
85.9063025371
 51
155.0
  0
ARC
  5
E9
330
1F
100
AcDbEntity
  8
0
  6
CONTINUOUS
 62
     7
100
AcDbCircle
 10
115.6263139124
 20
229.0078359096
 30
0.0
 40
25.6200000000065
100
AcDbArc
 50
82.8436974632
 51
85.9063025371
  0
ARC
  5
EA
330
1F
100
AcDbEntity
  8
0
  6
CONTINUOUS
 62
     7
100
AcDbCircle
 10
118.7432191038
 20
253.8329301094
 30
0.0
 40
0.60000000000001
100
AcDbArc
 50
13.7499999966
 51
82.8436974632
  0
LINE
  5
EB
330
1F
100
AcDbEntity
  8
0
  6
CONTINUOUS
 62
     7
100
AcDbLine
 10
119.5021161445
 20
253.2559197949
 30
0.0
 11
119.3260216721
 21
253.9755415724
 31
0.0
  0
ARC
  5
EC
330
1F
100
AcDbEntity
  8
0
  6
CONTINUOUS
 62
     7
100
AcDbCircle
 10
120.4734571073
 20
253.4936042753
 30
0.0
 40
1.000000000000012
100
AcDbArc
 50
193.7499999966
 51
258.7499999965
  0
LINE
  5
ED
330
1F
100
AcDbEntity
  8
0
  6
CONTINUOUS
 62
     7
100
AcDbLine
 10
120.3233414897
 20
252.5038730906
 30
0.0
 11
120.2783697852
 21
252.5128137873
 31
0.0
  0
ARC
  5
EE
330
1F
100
AcDbEntity
  8
0
  6
CONTINUOUS
 62
     7
100
AcDbCircle
 10
120.5184354087
 20
253.4846575349
 30
0.0
 40
1.000000000000018
100
AcDbArc
 50
258.7499999965
 51
323.7499999966
  0
LINE
  5
EF
330
1F
100
AcDbEntity
  8
0
  6
CONTINUOUS
 62
     7
100
AcDbLine
 10
121.7629575738
 20
253.4908067988
 30
0.0
 11
121.3248783358
 21
252.8933447407
 31
0.0
  0
ARC
  5
F0
330
1F
100
AcDbEntity
  8
0
  6
CONTINUOUS
 62
     7
100
AcDbCircle
 10
122.2468212614
 20
253.1360203097
 30
0.0
 40
0.6000000000000064
100
AcDbArc
 50
74.65630253
 51
143.7499999966
  0
ARC
  5
F1
330
1F
100
AcDbEntity
  8
0
  6
CONTINUOUS
 62
     7
100
AcDbCircle
 10
115.6263139124
 20
229.0078359096
 30
0.0
 40
25.6200000000125
100
AcDbArc
 50
71.5936974698
 51
74.65630253
  0
ARC
  5
F2
330
1F
100
AcDbEntity
  8
0
  6
CONTINUOUS
 62
     7
100
AcDbCircle
 10
123.5264642633
 20
252.7478448488
 30
0.0
 40
0.6000000000000614
100
AcDbArc
 50
2.5000000032
 51
71.5936974698
  0
LINE
  5
F3
330
1F
100
AcDbEntity
  8
0
  6
CONTINUOUS
 62
     7
100
AcDbLine
 10
124.158207477
 20
252.0338606642
 30
0.0
 11
124.1258943089
 21
252.7740162419
 31
0.0
  0
ARC
  5
F4
330
1F
100
AcDbEntity
  8
0
  6
CONTINUOUS
 62
     7
100
AcDbCircle
 10
125.1572570426
 20
252.0774863764
 30
0.0
 40
0.9999999999999952
100
AcDbArc
 50
182.5000000032
 51
247.5000000023
  0
LINE
  5
F5
330
1F
100
AcDbEntity
  8
0
  6
CONTINUOUS
 62
     7
100
AcDbLine
 10
124.8169431099
 20
251.1360508011
 30
0.0
 11
124.774571658
 21
251.153604369
 31
0.0
  0
ARC
  5
F6
330
1F
100
AcDbEntity
  8
0
  6
CONTINUOUS
 62
     7
100
AcDbCircle
 10
125.1996256761
 20
252.0599367138
 30
0.0
 40
1.000000000000021
100
AcDbArc
 50
247.5000000023
 51
312.5000000032
  0
LINE
  5
F7
330
1F
100
AcDbEntity
  8
0
  6
CONTINUOUS
 62
     7
100
AcDbLine
 10
126.421433092
 20
251.8231731461
 30
0.0
 11
125.8752161273
 21
251.3226580428
 31
0.0
  0
ARC
  5
F8
330
1F
100
AcDbEntity
  8
0
  6
CONTINUOUS
 62
     7
100
AcDbCircle
 10
126.8267853308
 20
251.3808071027
 30
0.0
 40
0.5999999999999851
100
AcDbArc
 50
63.4063025365
 51
132.5000000032
  0
ARC
  5
F9
330
1F
100
AcDbEntity
  8
0
  6
CONTINUOUS
 62
     7
100
AcDbCircle
 10
115.6263139124
 20
229.0078359096
 30
0.0
 40
25.62000000002535
100
AcDbArc
 50
60.3436974639
 51
63.4063025365
  0
ARC
  5
FA
330
1F
100
AcDbEntity
  8
0
  6
CONTINUOUS
 62
     7
100
AcDbCircle
 10
128.0061110804
 20
250.7504443567
 30
0.0
 40
0.6000000000000427
100
AcDbArc
 50
351.2499999973
 51
60.3436974639
  0
LINE
  5
FB
330
1F
100
AcDbEntity
  8
0
  6
CONTINUOUS
 62
     7
100
AcDbLine
 10
128.4864285597
 20
249.9269407795
 30
0.0
 11
128.5991260418
 21
250.6591689395
 31
0.0
  0
ARC
  5
FC
330
1F
100
AcDbEntity
  8
0
  6
CONTINUOUS
 62
     7
100
AcDbCircle
 10
129.4747881834
 20
249.7748147457
 30
0.0
 40
0.9999999999999264
100
AcDbArc
 50
171.2499999973
 51
236.2499999973
  0
LINE
  5
FD
330
1F
100
AcDbEntity
  8
0
  6
CONTINUOUS
 62
     7
100
AcDbLine
 10
128.9573499569
 20
248.9178639458
 30
0.0
 11
128.9192178854
 21
248.9433449315
 31
0.0
  0
ARC
  5
FE
330
1F
100
AcDbEntity
  8
0
  6
CONTINUOUS
 62
     7
100
AcDbCircle
 10
129.5129189461
 20
249.7493365846
 30
0.0
 40
0.9999999999999838
100
AcDbArc
 50
236.2499999973
 51
301.2499999973
  0
LINE
  5
FF
330
1F
100
AcDbEntity
  8
0
  6
CONTINUOUS
 62
     7
100
AcDbLine
 10
130.665052832
 20
249.2787551688
 30
0.0
 11
130.0316938766
 21
248.8944244193
 31
0.0
  0
ARC
  5
100
330
1F
100
AcDbEntity
  8
0
  6
CONTINUOUS
 62
     7
100
AcDbCircle
 10
130.9763215697
 20
248.7658131574
 30
0.0
 40
0.5999999999999834
100
AcDbArc
 50
52.1563025306
 51
121.2499999973
  0
ARC
  5
101
330
1F
100
AcDbEntity
  8
0
  6
CONTINUOUS
 62
     7
100
AcDbCircle
 10
115.6263139124
 20
229.0078359096
 30
0.0
 40
25.62000000003271
100
AcDbArc
 50
49.0936974666
 51
52.1563025306
  0
ARC
  5
102
330
1F
100
AcDbEntity
  8
0
  6
CONTINUOUS
 62
     7
100
AcDbCircle
 10
132.0100092317
 20
247.9174876168
 30
0.0
 40
0.5999999999999849
100
AcDbArc
 50
340.0
 51
49.0936974666
  0
LINE
  5
103
330
1F
100
AcDbEntity
  8
0
  6
CONTINUOUS
 62
     7
100
AcDbLine
 10
132.3204377302
 20
247.0161032485
 30
0.0
 11
132.5738319763
 21
247.7122705983
 31
0.0
  0
ARC
  5
104
330
1F
100
AcDbEntity
  8
0
  6
CONTINUOUS
 62
     7
100
AcDbCircle
 10
133.260130221
 20
246.6740797664
 30
0.0
 40
1.000000000000024
100
AcDbArc
 50
160.0
 51
225.0
  0
LINE
  5
105
330
1F
100
AcDbEntity
  8
0
  6
CONTINUOUS
 62
     7
100
AcDbLine
 10
132.585454882
 20
245.9345471667
 30
0.0
 11
132.5530299553
 21
245.9669720934
 31
0.0
  0
ARC
  5
106
330
1F
100
AcDbEntity
  8
0
  6
CONTINUOUS
 62
     7
100
AcDbCircle
 10
133.2925577691
 20
246.6416522182
 30
0.0
 40
1.000000000000008
100
AcDbArc
 50
225.0
 51
290.0
  0
LINE
  5
107
330
1F
100
AcDbEntity
  8
0
  6
CONTINUOUS
 62
     7
100
AcDbLine
 10
134.3307533869
 20
245.9553491877
 30
0.0
 11
133.6345711359
 21
245.7019549416
 31
0.0
  0
ARC
  5
108
330
1F
100
AcDbEntity
  8
0
  6
CONTINUOUS
 62
     7
100
AcDbCircle
 10
134.5359656196
 20
245.3915312289
 30
0.0
 40
0.6000000000000761
100
AcDbArc
 50
40.9063025334
 51
110.0
  0
ARC
  5
109
330
1F
100
AcDbEntity
  8
0
  6
CONTINUOUS
 62
     7
100
AcDbCircle
 10
115.6263139124
 20
229.0078359096
 30
0.0
 40
25.62000000002082
100
AcDbArc
 50
37.8436974666
 51
40.9063025334
  0
ARC
  5
10A
330
1F
100
AcDbEntity
  8
0
  6
CONTINUOUS
 62
     7
100
AcDbCircle
 10
135.3842911609
 20
244.357843566
 30
0.0
 40
0.6000000000000533
100
AcDbArc
 50
328.75
 51
37.8436974666
  0
LINE
  5
10B
330
1F
100
AcDbEntity
  8
0
  6
CONTINUOUS
 62
     7
100
AcDbLine
 10
135.5129072078
 20
243.413211088
 30
0.0
 11
135.8972379574
 21
244.0465849446
 31
0.0
  0
ARC
  5
10C
330
1F
100
AcDbEntity
  8
0
  6
CONTINUOUS
 62
     7
100
AcDbCircle
 10
136.367814588
 20
242.8944409423
 30
0.0
 40
1.000000000000002
100
AcDbArc
 50
148.75
 51
213.7500000007
  0
LINE
  5
10D
330
1F
100
AcDbEntity
  8
0
  6
CONTINUOUS
 62
     7
100
AcDbLine
 10
135.56182772
 20
242.3007350968
 30
0.0
 11
135.5363467344
 21
242.3388671683
 31
0.0
  0
ARC
  5
10E
330
1F
100
AcDbEntity
  8
0
  6
CONTINUOUS
 62
     7
100
AcDbCircle
 10
136.3932927491
 20
242.8563101796
 30
0.0
 40
0.9999999999999988
100
AcDbArc
 50
213.7500000007
 51
278.75
  0
LINE
  5
10F
330
1F
100
AcDbEntity
  8
0
  6
CONTINUOUS
 62
     7
100
AcDbLine
 10
137.277651728
 20
241.9806432532
 30
0.0
 11
136.5454235681
 21
241.8679457711
 31
0.0
  0
ARC
  5
110
330
1F
100
AcDbEntity
  8
0
  6
CONTINUOUS
 62
     7
100
AcDbCircle
 10
137.36892236
 20
241.3876330766
 30
0.0
 40
0.5999999999999935
100
AcDbArc
 50
29.6563025334
 51
98.75
  0
ARC
  5
111
330
1F
100
AcDbEntity
  8
0
  6
CONTINUOUS
 62
     7
100
AcDbCircle
 10
115.6263139124
 20
229.0078359096
 30
0.0
 40
25.62000000000684
100
AcDbArc
 50
26.5936974666
 51
29.6563025334
  0
ARC
  5
112
330
1F
100
AcDbEntity
  8
0
  6
CONTINUOUS
 62
     7
100
AcDbCircle
 10
137.9992851049
 20
240.2083073292
 30
0.0
 40
0.6000000000000122
100
AcDbArc
 50
317.5
 51
26.5936974666
  0
LINE
  5
113
330
1F
100
AcDbEntity
  8
0
  6
CONTINUOUS
 62
     7
100
AcDbLine
 10
137.9411408314
 20
239.2567407893
 30
0.0
 11
138.4416559347
 21
239.802957754
 31
0.0
  0
ARC
  5
114
330
1F
100
AcDbEntity
  8
0
  6
CONTINUOUS
 62
     7
100
AcDbCircle
 10
138.6784147161
 20
238.5811476746
 30
0.0
 40
0.9999999999999714
100
AcDbArc
 50
137.5
 51
202.499999999
  0
LINE
  5
115
330
1F
100
AcDbEntity
  8
0
  6
CONTINUOUS
 62
     7
100
AcDbLine
 10
137.7720871576
 20
238.15609632
 30
0.0
 11
137.7545335897
 21
238.1984603213
 31
0.0
  0
ARC
  5
116
330
1F
100
AcDbEntity
  8
0
  6
CONTINUOUS
 62
     7
100
AcDbCircle
 10
138.6959643787
 20
238.5387790411
 30
0.0
 40
0.9999999999996936
100
AcDbArc
 50
202.499999999
 51
267.5
  0
LINE
  5
117
330
1F
100
AcDbEntity
  8
0
  6
CONTINUOUS
 62
     7
100
AcDbLine
 10
139.3924990305
 20
237.5074189709
 30
0.0
 11
138.6523434528
 21
237.5397246884
 31
0.0
  0
ARC
  5
118
330
1F
100
AcDbEntity
  8
0
  6
CONTINUOUS
 62
     7
100
AcDbCircle
 10
139.3663228512
 20
236.9079862618
 30
0.0
 40
0.6000000000007154
100
AcDbArc
 50
18.4063025335
 51
87.5
  0
ARC
  5
119
330
1F
100
AcDbEntity
  8
0
  6
CONTINUOUS
 62
     7
100
AcDbCircle
 10
115.6263139124
 20
229.0078359096
 30
0.0
 40
25.62000000000172
100
AcDbArc
 50
15.3436974666
 51
18.4063025334
  0
ARC
  5
11A
330
1F
100
AcDbEntity
  8
0
  6
CONTINUOUS
 62
     7
100
AcDbCircle
 10
139.7544983128
 20
235.6283432571
 30
0.0
 40
0.5999999999999963
100
AcDbArc
 50
306.25
 51
15.3436974666
  0
LINE
  5
11B
330
1F
100
AcDbEntity
  8
0
  6
CONTINUOUS
 62
     7
100
AcDbLine
 10
139.5118275293
 20
234.7064029978
 30
0.0
 11
140.1092895874
 21
235.1444822358
 31
0.0
  0
ARC
  5
11C
330
1F
100
AcDbEntity
  8
0
  6
CONTINUOUS
 62
     7
100
AcDbCircle
 10
140.103135538
 20
233.8999574045
 30
0.0
 40
0.9999999999999777
100
AcDbArc
 50
126.25
 51
191.25
  0
LINE
  5
11D
330
1F
100
AcDbEntity
  8
0
  6
CONTINUOUS
 62
     7
100
AcDbLine
 10
139.1312965759
 20
233.6598944472
 30
0.0
 11
139.1223558792
 21
233.7048661517
 31
0.0
  0
ARC
  5
11E
330
1F
100
AcDbEntity
  8
0
  6
CONTINUOUS
 62
     7
100
AcDbCircle
 10
140.1120822784
 20
233.8549791031
 30
0.0
 40
1.000000000000021
100
AcDbArc
 50
191.25
 51
256.25
  0
LINE
  5
11F
330
1F
100
AcDbEntity
  8
0
  6
CONTINUOUS
 62
     7
100
AcDbLine
 10
140.594024361
 20
232.7075463341
 30
0.0
 11
139.8744025835
 21
232.883633356
 31
0.0
  0
ARC
  5
120
330
1F
100
AcDbEntity
  8
0
  6
CONTINUOUS
 62
     7
100
AcDbCircle
 10
140.4514081115
 20
232.1247410997
 30
0.0
 40
0.600000000000039
100
AcDbArc
 50
7.1563025341
 51
76.25
  0
ARC
  5
121
330
1F
100
AcDbEntity
  8
0
  6
CONTINUOUS
 62
     7
100
AcDbCircle
 10
115.6263139124
 20
229.0078359096
 30
0.0
 40
25.61999999917794
100
AcDbArc
 50
4.0936974659
 51
7.1563025341
  0
ARC
  5
122
330
1F
100
AcDbEntity
  8
0
  6
CONTINUOUS
 62
     7
100
AcDbCircle
 10
140.5824789248
 20
230.7939568001
 30
0.0
 40
0.5999999999999858
100
AcDbArc
 50
295.0
 51
4.0936974659
  0
LINE
  5
123
330
1F
100
AcDbEntity
  8
0
  6
CONTINUOUS
 62
     7
100
AcDbLine
 10
140.1646026977
 20
229.9370777415
 30
0.0
 11
140.8360490211
 21
230.2501660393
 31
0.0
  0
ARC
  5
124
330
1F
100
AcDbEntity
  8
0
  6
CONTINUOUS
 62
     7
100
AcDbCircle
 10
140.5872258316
 20
229.0307656488
 30
0.0
 40
1.0
100
AcDbArc
 50
115.0
 51
180.0
  0
LINE
  5
125
330
1F
100
AcDbEntity
  8
0
  6
CONTINUOUS
 62
     7
100
AcDbLine
 10
139.587227405
 20
228.9849084424
 30
0.0
 11
139.587227405
 21
229.0307593154
 31
0.0
  0
ARC
  5
126
330
1F
100
AcDbEntity
  8
0
  6
CONTINUOUS
 62
     7
100
AcDbCircle
 10
140.5872258316
 20
228.9849061704
 30
0.0
 40
1.000000000000039
100
AcDbArc
 50
180.0
 51
245.0
  0
LINE
  5
127
330
1F
100
AcDbEntity
  8
0
  6
CONTINUOUS
 62
     7
100
AcDbLine
 10
140.8360490211
 20
227.7655017184
 30
0.0
 11
140.1646026977
 21
228.0786049174
 31
0.0
  0
ARC
  5
128
330
1F
100
AcDbEntity
  8
0
  6
CONTINUOUS
 62
     7
100
AcDbCircle
 10
140.5824789232
 20
227.2217150198
 30
0.0
 40
0.5999999999999795
100
AcDbArc
 50
355.9063025355
 51
65.0
  0
ARC
  5
129
330
1F
100
AcDbEntity
  8
0
  6
CONTINUOUS
 62
     7
100
AcDbCircle
 10
115.6263139124
 20
229.0078359096
 30
0.0
 40
25.6199999975607
100
AcDbArc
 50
352.8436974634
 51
355.9063025355
  0
ARC
  5
12A
330
1F
100
AcDbEntity
  8
0
  6
CONTINUOUS
 62
     7
100
AcDbCircle
 10
140.4514081098
 20
225.8909307187
 30
0.0
 40
0.6000000000002027
100
AcDbArc
 50
283.749999999
 51
352.8436974634
  0
LINE
  5
12B
330
1F
100
AcDbEntity
  8
0
  6
CONTINUOUS
 62
     7
100
AcDbLine
 10
139.8744025835
 20
225.1320344018
 30
0.0
 11
140.594024361
 21
225.3081214236
 31
0.0
  0
ARC
  5
12C
330
1F
100
AcDbEntity
  8
0
  6
CONTINUOUS
 62
     7
100
AcDbCircle
 10
140.1120822783
 20
224.1606927157
 30
0.0
 40
0.9999999999989007
100
AcDbArc
 50
103.7499999989
 51
168.7499999989
  0
LINE
  5
12D
330
1F
100
AcDbEntity
  8
0
  6
CONTINUOUS
 62
     7
100
AcDbLine
 10
139.1223558792
 20
224.310801606
 30
0.0
 11
139.1312965759
 21
224.3557882117
 31
0.0
  0
ARC
  5
12E
330
1F
100
AcDbEntity
  8
0
  6
CONTINUOUS
 62
     7
100
AcDbCircle
 10
140.1031355379
 20
224.1157144144
 30
0.0
 40
0.9999999999993322
100
AcDbArc
 50
168.7499999989
 51
233.7499999991
  0
LINE
  5
12F
330
1F
100
AcDbEntity
  8
0
  6
CONTINUOUS
 62
     7
100
AcDbLine
 10
140.1092895874
 20
222.8712004231
 30
0.0
 11
139.5118275293
 21
223.3092647599
 31
0.0
  0
ARC
  5
130
330
1F
100
AcDbEntity
  8
0
  6
CONTINUOUS
 62
     7
100
AcDbCircle
 10
139.7544983101
 20
222.3873285636
 30
0.0
 40
0.5999999999999941
100
AcDbArc
 50
344.6563025351
 51
53.749999999
  0
ARC
  5
131
330
1F
100
AcDbEntity
  8
0
  6
CONTINUOUS
 62
     7
100
AcDbCircle
 10
115.6263139124
 20
229.0078359096
 30
0.0
 40
25.61999999692667
100
AcDbArc
 50
341.5936974634
 51
344.6563025351
  0
ARC
  5
132
330
1F
100
AcDbEntity
  8
0
  6
CONTINUOUS
 62
     7
100
AcDbCircle
 10
139.3663228478
 20
221.1076855571
 30
0.0
 40
0.6000000000000192
100
AcDbArc
 50
272.4999999995
 51
341.5936974635
  0
LINE
  5
133
330
1F
100
AcDbEntity
  8
0
  6
CONTINUOUS
 62
     7
100
AcDbLine
 10
138.6523434528
 20
220.4759430693
 30
0.0
 11
139.3924990305
 21
220.5082636879
 31
0.0
  0
ARC
  5
134
330
1F
100
AcDbEntity
  8
0
  6
CONTINUOUS
 62
     7
100
AcDbCircle
 10
138.6959643786
 20
219.476892778
 30
0.0
 40
0.9999999999995661
100
AcDbArc
 50
92.4999999995
 51
157.4999999995
  0
LINE
  5
135
330
1F
100
AcDbEntity
  8
0
  6
CONTINUOUS
 62
     7
100
AcDbLine
 10
137.7545335897
 20
219.8172074364
 30
0.0
 11
137.7720871576
 21
219.8595714377
 31
0.0
  0
ARC
  5
136
330
1F
100
AcDbEntity
  8
0
  6
CONTINUOUS
 62
     7
100
AcDbCircle
 10
138.678414716
 20
219.4345241445
 30
0.0
 40
0.9999999999997581
100
AcDbArc
 50
157.4999999995
 51
222.4999999995
  0
LINE
  5
137
330
1F
100
AcDbEntity
  8
0
  6
CONTINUOUS
 62
     7
100
AcDbLine
 10
138.4416559347
 20
218.2127249049
 30
0.0
 11
137.9411408314
 21
218.7589269684
 31
0.0
  0
ARC
  5
138
330
1F
100
AcDbEntity
  8
0
  6
CONTINUOUS
 62
     7
100
AcDbCircle
 10
137.999285103
 20
217.8073644918
 30
0.0
 40
0.5999999999999721
100
AcDbArc
 50
333.4063025351
 51
42.4999999995
  0
ARC
  5
139
330
1F
100
AcDbEntity
  8
0
  6
CONTINUOUS
 62
     7
100
AcDbCircle
 10
115.6263139124
 20
229.0078359096
 30
0.0
 40
25.6199999974856
100
AcDbArc
 50
330.3436974637
 51
333.4063025351
  0
ARC
  5
13A
330
1F
100
AcDbEntity
  8
0
  6
CONTINUOUS
 62
     7
100
AcDbCircle
 10
137.3689223572
 20
216.6280387428
 30
0.0
 40
0.6000000000001018
100
AcDbArc
 50
261.2499999993
 51
330.3436974637
  0
LINE
  5
13B
330
1F
100
AcDbEntity
  8
0
  6
CONTINUOUS
 62
     7
100
AcDbLine
 10
136.5454235681
 20
216.1477219866
 30
0.0
 11
137.277651728
 21
216.0350245045
 31
0.0
  0
ARC
  5
13C
330
1F
100
AcDbEntity
  8
0
  6
CONTINUOUS
 62
     7
100
AcDbCircle
 10
136.393292749
 20
215.1593616394
 30
0.0
 40
0.9999999999999066
100
AcDbArc
 50
81.2499999993
 51
146.2499999993
  0
LINE
  5
13D
330
1F
100
AcDbEntity
  8
0
  6
CONTINUOUS
 62
     7
100
AcDbLine
 10
135.5363467344
 20
215.6768005894
 30
0.0
 11
135.56182772
 21
215.7149326609
 31
0.0
  0
ARC
  5
13E
330
1F
100
AcDbEntity
  8
0
  6
CONTINUOUS
 62
     7
100
AcDbCircle
 10
136.3678145879
 20
215.1212308767
 30
0.0
 40
0.99999999999995
100
AcDbArc
 50
146.2499999993
 51
211.2499999993
  0
LINE
  5
13F
330
1F
100
AcDbEntity
  8
0
  6
CONTINUOUS
 62
     7
100
AcDbLine
 10
135.8972379574
 20
213.9690977143
 30
0.0
 11
135.5129072078
 21
214.6024566697
 31
0.0
  0
ARC
  5
140
330
1F
100
AcDbEntity
  8
0
  6
CONTINUOUS
 62
     7
100
AcDbCircle
 10
135.3842911599
 20
213.6578282544
 30
0.0
 40
0.6000000000001109
100
AcDbArc
 50
322.156302534
 51
31.2499999993
  0
ENDSEC
  0
SECTION
  2
OBJECTS
  0
DICTIONARY
  5
C
330
0
100
AcDbDictionary
  3
ACAD_GROUP
350
D
  3
ACAD_LAYOUT
350
1A
  3
ACAD_MLEADERSTYLE
350
143
  3
ACAD_MLINESTYLE
350
17
  3
ACAD_PLOTSETTINGS
350
19
  3
ACAD_VISUALSTYLE
350
2A
  3
ACDBVARIABLEDICTIONARY
350
141
1001
ACAD
1000
TREAT_AS_HARD
1070
     0
  0
DICTIONARY
  5
D
102
{ACAD_REACTORS
330
C
102
}
330
C
100
AcDbDictionary
1001
ACAD
1000
TREAT_AS_HARD
1070
     0
  0
DICTIONARY
  5
1A
102
{ACAD_REACTORS
330
C
102
}
330
C
100
AcDbDictionary
1001
ACAD
1000
TREAT_AS_HARD
1070
     0
  0
DICTIONARY
  5
143
102
{ACAD_REACTORS
330
C
102
}
330
C
100
AcDbDictionary
1001
ACAD
1000
TREAT_AS_HARD
1070
     0
  0
DICTIONARY
  5
17
102
{ACAD_REACTORS
330
C
102
}
330
C
100
AcDbDictionary
  3
STANDARD
350
18
1001
ACAD
1000
TREAT_AS_HARD
1070
     0
  0
DICTIONARY
  5
19
102
{ACAD_REACTORS
330
C
102
}
330
C
100
AcDbDictionary
1001
ACAD
1000
TREAT_AS_HARD
1070
     0
  0
DICTIONARY
  5
2A
102
{ACAD_REACTORS
330
C
102
}
330
C
100
AcDbDictionary
  3
2DWIREFRAME
350
2F
  3
3D_HIDDEN
350
31
  3
3DWIREFRAME
350
30
  3
BASIC
350
32
  3
BRIGHTEN
350
36
  3
COLORCHANGE
350
3A
  3
CONCEPTUAL
350
34
  3
DIM
350
35
  3
FACEPATTERN
350
39
  3
FLAT
350
2B
  3
FLATWITHEDGES
350
2C
  3
GOURAUD
350
2D
  3
GOURAUDWITHEDGES
350
2E
  3
LINEPATTERN
350
38
  3
REALISTIC
350
33
  3
THICKEN
350
37
1001
ACAD
1000
TREAT_AS_HARD
1070
     0
  0
DICTIONARY
  5
141
102
{ACAD_REACTORS
330
C
102
}
330
C
100
AcDbDictionary
  3
DIMASSOC
350
146
  3
HIDETEXT
350
147
  3
PSOLHEIGHT
350
145
  3
PSOLWIDTH
350
144
1001
ACAD
1000
TREAT_AS_HARD
1070
     0
  0
MLINESTYLE
  5
18
102
{ACAD_REACTORS
330
17
102
}
330
17
100
AcDbMlineStyle
  2
Standard
 70
     0
  3

 62
   256
 51
90.0
 52
90.0
 71
     2
 49
0.5
 62
   256
  6
BYLAYER
 49
-0.5
 62
   256
  6
BYLAYER
  0
ACAD_PROXY_OBJECT
  5
2F
102
{ACAD_REACTORS
330
2A
102
}
330
2A
100
AcDbZombieObject
 90
      499
 91
      501
 93
      436
310
42CC9915DA5C99599C985B595049028333333333333E3BF0000000000000FB0107901411070040501600405405064090741402480A0340
1001
ACAD
1000
AcDbSavedByObjectVersion
1070
     0
  0
ACAD_PROXY_OBJECT
  5
31
102
{ACAD_REACTORS
330
2A
102
}
330
2A
100
AcDbZombieObject
 90
      499
 91
      501
 93
      500
310
424CD108121A5919195B90640502408333333333333E3BF0000000000000FB01079024090700405020000000000001110200405405064090740C02480A0340
1001
ACAD
1000
AcDbSavedByObjectVersion
1070
     0
  0
ACAD_PROXY_OBJECT
  5
30
102
{ACAD_REACTORS
330
2A
102
}
330
2A
100
AcDbZombieObject
 90
      499
 91
      501
 93
      436
310
42CCD915DA5C99599C985B595059028333333333333E3BF0000000000000FB0107901411070040501600405405064090741402480A0340
1001
ACAD
1000
AcDbSavedByObjectVersion
1070
     0
  0
ACAD_PROXY_OBJECT
  5
32
102
{ACAD_REACTORS
330
2A
102
}
330
2A
100
AcDbZombieObject
 90
      499
 91
      501
 93
      388
310
4150985CDA58D07406404333333333333E3BF0000000000000FB0107A41107004050150841D405064090741402480A0350
1001
ACAD
1000
AcDbSavedByObjectVersion
1070
     0
  0
ACAD_PROXY_OBJECT
  5
36
102
{ACAD_REACTORS
330
2A
102
}
330
2A
100
AcDbZombieObject
 90
      499
 91
      501
 93
      428
310
42109C9A59DA1D195B90C409028333333333333E3BF0000000000000FB010790141107004050150841D405064090741402480A029950
1001
ACAD
1000
AcDbSavedByObjectVersion
1070
     0
  0
ACAD_PROXY_OBJECT
  5
3A
102
{ACAD_REACTORS
330
2A
102
}
330
2A
100
AcDbZombieObject
 90
      499
 91
      501
 93
      452
310
42D0DBDB1BDC90DA185B99D95104090240C333333333333E3BF0000000000000FB0108901411070040501508421405064090741402480A0350
1001
ACAD
1000
AcDbSavedByObjectVersion
1070
     0
  0
ACAD_PROXY_OBJECT
  5
34
102
{ACAD_REACTORS
330
2A
102
}
330
2A
100
AcDbZombieObject
 90
      499
 91
      501
 93
      500
310
4290DBDB98D95C1D1D585B10940D028333333333333E3BF0000000000000FB0107902409070040501000000000000111010841D405064090740C02480A0340
1001
ACAD
1000
AcDbSavedByObjectVersion
1070
     0
  0
ACAD_PROXY_OBJECT
  5
35
102
{ACAD_REACTORS
330
2A
102
}
330
2A
100
AcDbZombieObject
 90
      499
 91
      501
 93
      412
310
40D11A5B50B409028333333333333E3BF0000000000000FB010790141107004050150841D405064090741402480A02677FFFFFD0
1001
ACAD
1000
AcDbSavedByObjectVersion
1070
     0
  0
ACAD_PROXY_OBJECT
  5
39
102
{ACAD_REACTORS
330
2A
102
}
330
2A
100
AcDbZombieObject
 90
      499
 91
      501
 93
      444
310
42D19858D95C185D1D195C9B90F409028333333333333E3BF0000000000000FB010790141107004050150841D405064090741402480A0350
1001
ACAD
1000
AcDbSavedByObjectVersion
1070
     0
  0
ACAD_PROXY_OBJECT
  5
2B
102
{ACAD_REACTORS
330
2A
102
}
330
2A
100
AcDbZombieObject
 90
      499
 91
      501
 93
      388
310
41119B185D240901404333333333333E3BF0000000000000F9010740A41107004050150841D405064090741402480A1B50
1001
ACAD
1000
AcDbSavedByObjectVersion
1070
     0
  0
ACAD_PROXY_OBJECT
  5
2C
102
{ACAD_REACTORS
330
2A
102
}
330
2A
100
AcDbZombieObject
 90
      499
 91
      501
 93
      476
310
43519B185D15DA5D1A115919D95CD0140901404333333333333E3BF0000000000000F9010740901411070040501600405405064090741402480A1B50
1001
ACAD
1000
AcDbSavedByObjectVersion
1070
     0
  0
ACAD_PROXY_OBJECT
  5
2D
102
{ACAD_REACTORS
330
2A
102
}
330
2A
100
AcDbZombieObject
 90
      499
 91
      501
 93
      412
310
41D1DBDD5C985D5910240902404333333333333E3BF0000000000000F9010740A411070040501641D405064090741402480A1B50
1001
ACAD
1000
AcDbSavedByObjectVersion
1070
     0
  0
ACAD_PROXY_OBJECT
  5
2E
102
{ACAD_REACTORS
330
2A
102
}
330
2A
100
AcDbZombieObject
 90
      499
 91
      501
 93
      500
310
4411DBDD5C985D5915DA5D1A115919D95CD0340902404333333333333E3BF0000000000000F9010740901411070040501600405405064090741402480A1B50
1001
ACAD
1000
AcDbSavedByObjectVersion
1070
     0
  0
ACAD_PROXY_OBJECT
  5
38
102
{ACAD_REACTORS
330
2A
102
}
330
2A
100
AcDbZombieObject
 90
      499
 91
      501
 93
      444
310
42D31A5B995C185D1D195C9B90E409028333333333333E3BF0000000000000FB010790141107004050750841D405064090741402483A0350
1001
ACAD
1000
AcDbSavedByObjectVersion
1070
     0
  0
ACAD_PROXY_OBJECT
  5
33
102
{ACAD_REACTORS
330
2A
102
}
330
2A
100
AcDbZombieObject
 90
      499
 91
      501
 93
      420
310
425499585B1A5CDD1A58D08409028333333333333E3BF0000000000000FB01079019070040501508421405064090741402480A1B40
1001
ACAD
1000
AcDbSavedByObjectVersion
1070
     0
  0
ACAD_PROXY_OBJECT
  5
37
102
{ACAD_REACTORS
330
2A
102
}
330
2A
100
AcDbZombieObject
 90
      499
 91
      501
 93
      412
310
41D51A1A58DAD95B90D409028333333333333E3BF0000000000000FB010790141107004050150C41D405064090741402480A0350
1001
ACAD
1000
AcDbSavedByObjectVersion
1070
     0
  0
DICTIONARYVAR
  5
146
102
{ACAD_REACTORS
330
141
102
}
330
141
100
DictionaryVariables
280
     0
  1
2
  0
DICTIONARYVAR
  5
147
102
{ACAD_REACTORS
330
141
102
}
330
141
100
DictionaryVariables
280
     0
  1
1
  0
DICTIONARYVAR
  5
145
102
{ACAD_REACTORS
330
141
102
}
330
141
100
DictionaryVariables
280
     0
  1
80.000000
  0
DICTIONARYVAR
  5
144
102
{ACAD_REACTORS
330
141
102
}
330
141
100
DictionaryVariables
280
     0
  1
5.000000
  0
ENDSEC
  0
EOF
