  0
SECTION
  2
HEADER
  9
$ACADVER
  1
AC1012
  9
$DWGCODEPAGE
  3
ansi_1251
  9
$INSBASE
 10
0.0
 20
0.0
 30
0.0
  9
$EXTMIN
 10
0.0
 20
0.0
 30
0.0
  9
$EXTMAX
 10
210.0
 20
297.0
 30
0.0
  9
$LIMMIN
 10
0.0
 20
0.0
  9
$LIMMAX
 10
210.0
 20
297.0
  9
$ORTHOMODE
 70
     0
  9
$REGENMODE
 70
     1
  9
$FILLMODE
 70
     1
  9
$QTEXTMODE
 70
     0
  9
$MIRRTEXT
 70
     1
  9
$DRAGMODE
 70
     2
  9
$LTSCALE
 40
1.0
  9
$OSMODE
 70
    37
  9
$ATTMODE
 70
     1
  9
$TEXTSIZE
 40
3.5
  9
$TRACEWID
 40
1.0
  9
$TEXTSTYLE
  7
STANDARD
  9
$CLAYER
  8
0
  9
$CELTYPE
  6
BYLAYER
  9
$CECOLOR
 62
   256
  9
$CELTSCALE
 40
1.0
  9
$DELOBJ
 70
     1
  9
$DISPSILH
 70
     0
  9
$DIMSCALE
 40
1.0
  9
$DIMASZ
 40
3.302
  9
$DIMEXO
 40
1.0
  9
$DIMDLI
 40
3.75
  9
$DIMRND
 40
0.0
  9
$DIMDLE
 40
0.0
  9
$DIMEXE
 40
1.0
  9
$DIMTP
 40
0.0
  9
$DIMTM
 40
0.0
  9
$DIMTXT
 40
3.5
  9
$DIMCEN
 40
2.5
  9
$DIMTSZ
 40
0.0
  9
$DIMTOL
 70
     0
  9
$DIMLIM
 70
     0
  9
$DIMTIH
 70
     1
  9
$DIMTOH
 70
     1
  9
$DIMSE1
 70
     0
  9
$DIMSE2
 70
     0
  9
$DIMTAD
 70
     1
  9
$DIMZIN
 70
     0
  9
$DIMBLK
  1

  9
$DIMASO
 70
     1
  9
$DIMSHO
 70
     1
  9
$DIMPOST
  1

  9
$DIMAPOST
  1

  9
$DIMALT
 70
     0
  9
$DIMALTD
 70
     3
  9
$DIMALTF
 40
0.0393700787
  9
$DIMLFAC
 40
1.0
  9
$DIMTOFL
 70
     1
  9
$DIMTVP
 40
0.0
  9
$DIMTIX
 70
     0
  9
$DIMSOXD
 70
     0
  9
$DIMSAH
 70
     0
  9
$DIMBLK1
  1

  9
$DIMBLK2
  1

  9
$DIMSTYLE
  2
ISO-25
  9
$DIMCLRD
 70
     0
  9
$DIMCLRE
 70
     0
  9
$DIMCLRT
 70
     0
  9
$DIMTFAC
 40
1.0
  9
$DIMGAP
 40
1.524
  9
$DIMJUST
 70
     0
  9
$DIMSD1
 70
     0
  9
$DIMSD2
 70
     0
  9
$DIMTOLJ
 70
     0
  9
$DIMTZIN
 70
     0
  9
$DIMALTZ
 70
     0
  9
$DIMALTTZ
 70
     0
  9
$DIMFIT
 70
     3
  9
$DIMUPT
 70
     0
  9
$DIMUNIT
 70
     2
  9
$DIMDEC
 70
     3
  9
$DIMTDEC
 70
     3
  9
$DIMALTU
 70
     2
  9
$DIMALTTD
 70
     3
  9
$DIMTXSTY
  7
STANDARD
  9
$DIMAUNIT
 70
     0
  9
$LUNITS
 70
     2
  9
$LUPREC
 70
     2
  9
$SKETCHINC
 40
1.0
  9
$FILLETRAD
 40
10.0
  9
$AUNITS
 70
     0
  9
$AUPREC
 70
     2
  9
$MENU
  1
.
  9
$ELEVATION
 40
0.0
  9
$PELEVATION
 40
0.0
  9
$THICKNESS
 40
0.0
  9
$LIMCHECK
 70
     0
  9
$CHAMFERA
 40
10.0
  9
$CHAMFERB
 40
10.0
  9
$CHAMFERC
 40
20.0
  9
$CHAMFERD
 40
0.0
  9
$SKPOLY
 70
     0
  9
$TDCREATE
 40
2456563.722998993
  9
$TDUPDATE
 40
2456563.722999005
  9
$TDINDWG
 40
0.0000000116
  9
$TDUSRTIMER
 40
0.0000000116
  9
$USRTIMER
 70
     1
  9
$ANGBASE
 50
0.0
  9
$ANGDIR
 70
     0
  9
$PDMODE
 70
     0
  9
$PDSIZE
 40
-1.0
  9
$PLINEWID
 40
0.0
  9
$COORDS
 70
     1
  9
$SPLFRAME
 70
     0
  9
$SPLINETYPE
 70
     6
  9
$SPLINESEGS
 70
     8
  9
$ATTDIA
 70
     0
  9
$ATTREQ
 70
     1
  9
$HANDLING
 70
     1
  9
$HANDSEED
  5
148
  9
$SURFTAB1
 70
     6
  9
$SURFTAB2
 70
     6
  9
$SURFTYPE
 70
     6
  9
$SURFU
 70
     6
  9
$SURFV
 70
     6
  9
$UCSNAME
  2

  9
$UCSORG
 10
0.0
 20
0.0
 30
0.0
  9
$UCSXDIR
 10
1.0
 20
0.0
 30
0.0
  9
$UCSYDIR
 10
0.0
 20
1.0
 30
0.0
  9
$PUCSNAME
  2

  9
$PUCSORG
 10
0.0
 20
0.0
 30
0.0
  9
$PUCSXDIR
 10
1.0
 20
0.0
 30
0.0
  9
$PUCSYDIR
 10
0.0
 20
1.0
 30
0.0
  9
$USERI1
 70
     0
  9
$USERI2
 70
     0
  9
$USERI3
 70
     0
  9
$USERI4
 70
     0
  9
$USERI5
 70
     0
  9
$USERR1
 40
0.0
  9
$USERR2
 40
0.0
  9
$USERR3
 40
0.0
  9
$USERR4
 40
0.0
  9
$USERR5
 40
0.0
  9
$WORLDVIEW
 70
     1
  9
$SHADEDGE
 70
     3
  9
$SHADEDIF
 70
    70
  9
$TILEMODE
 70
     1
  9
$MAXACTVP
 70
    64
  9
$PINSBASE
 10
0.0
 20
0.0
 30
0.0
  9
$PLIMCHECK
 70
     0
  9
$PEXTMIN
 10
1.0000000000E+20
 20
1.0000000000E+20
 30
1.0000000000E+20
  9
$PEXTMAX
 10
-1.0000000000E+20
 20
-1.0000000000E+20
 30
-1.0000000000E+20
  9
$PLIMMIN
 10
0.0
 20
0.0
  9
$PLIMMAX
 10
420.0
 20
297.0
  9
$UNITMODE
 70
     0
  9
$VISRETAIN
 70
     1
  9
$PLINEGEN
 70
     0
  9
$PSLTSCALE
 70
     1
  9
$TREEDEPTH
 70
  3020
  9
$PICKSTYLE
 70
     1
  9
$CMLSTYLE
  2
STANDARD
  9
$CMLJUST
 70
     0
  9
$CMLSCALE
 40
20.0
  9
$SAVEIMAGES
 70
     1
  0
ENDSEC
  0
SECTION
  2
CLASSES
  0
CLASS
  1
ACDBDICTIONARYWDFLT
  2
AcDbDictionaryWithDefault
  3
ObjectDBX Classes
 90
    32768
280
     0
281
     0
  0
CLASS
  1
VISUALSTYLE
  2
AcDbVisualStyle
  3
ObjectDBX Classes
 90
     4095
280
     0
281
     0
  0
CLASS
  1
DICTIONARYVAR
  2
AcDbDictionaryVar
  3
ObjectDBX Classes
 90
        0
280
     0
281
     0
  0
CLASS
  1
XRECORD
  2
AcDbXrecord
  3
AutoCAD 2000
 90
    32768
280
     0
281
     0
  0
CLASS
  1
LWPOLYLINE
  2
AcDbPolyline
  3
AutoCAD 2000
 90
    32768
280
     0
281
     1
  0
CLASS
  1
HATCH
  2
AcDbHatch
  3
AutoCAD 2000
 90
    32768
280
     0
281
     1
  0
CLASS
  1
ACDBPLACEHOLDER
  2
AcDbPlaceHolder
  3
ObjectDBX Classes
 90
        0
280
     0
281
     0
  0
CLASS
  1
LAYOUT
  2
AcDbLayout
  3
ObjectDBX Classes
 90
        0
280
     0
281
     0
  0
ENDSEC
  0
SECTION
  2
TABLES
  0
TABLE
  2
VPORT
  5
8
330
0
100
AcDbSymbolTable
 70
     1
  0
VPORT
  5
29
330
8
100
AcDbSymbolTableRecord
100
AcDbViewportTableRecord
  2
*ACTIVE
 70
     0
 10
0.0
 20
0.0
 11
1.0
 21
1.0
 12
105.0
 22
148.5
 13
0.0
 23
0.0
 14
10.0
 24
10.0
 15
10.0
 25
10.0
 16
0.0
 26
0.0
 36
1.0
 17
0.0
 27
0.0
 37
0.0
 40
297.0
 41
0.7070707071
 42
50.0
 43
0.0
 44
0.0
 50
0.0
 51
0.0
 71
     0
 72
  2000
 73
     1
 74
     3
 75
     0
 76
     0
 77
     0
 78
     0
  0
ENDTAB
  0
TABLE
  2
LTYPE
  5
5
330
0
100
AcDbSymbolTable
 70
     6
  0
LTYPE
  5
14
330
5
100
AcDbSymbolTableRecord
100
AcDbLinetypeTableRecord
  2
BYBLOCK
 70
     0
  3

 72
    65
 73
     0
 40
0.0
  0
LTYPE
  5
15
330
5
100
AcDbSymbolTableRecord
100
AcDbLinetypeTableRecord
  2
BYLAYER
 70
     0
  3

 72
    65
 73
     0
 40
0.0
  0
LTYPE
  5
16
330
5
100
AcDbSymbolTableRecord
100
AcDbLinetypeTableRecord
  2
CONTINUOUS
 70
     0
  3
Solid line
 72
    65
 73
     0
 40
0.0
  0
LTYPE
  5
3B
330
5
100
AcDbSymbolTableRecord
100
AcDbLinetypeTableRecord
  2
HIDDEN
 70
     0
  3
Hidden __ __ __ __ __ __ __ __ __ __ __ __ __ __
 72
    65
 73
     2
 40
1.905
 49
1.27
 74
     0
 49
-0.635
 74
     0
  0
LTYPE
  5
3C
330
5
100
AcDbSymbolTableRecord
100
AcDbLinetypeTableRecord
  2
PHANTOM
 70
     0
  3
Phantom ______  __  __  ______  __  __  ______
 72
    65
 73
     6
 40
12.7
 49
6.35
 74
     0
 49
-1.27
 74
     0
 49
1.27
 74
     0
 49
-1.27
 74
     0
 49
1.27
 74
     0
 49
-1.27
 74
     0
  0
LTYPE
  5
3D
330
5
100
AcDbSymbolTableRecord
100
AcDbLinetypeTableRecord
  2
CENTER
 70
     0
  3
Center ____ _ ____ _ ____ _ ____ _ ____ _ ____
 72
    65
 73
     4
 40
10.16
 49
6.35
 74
     0
 49
-1.27
 74
     0
 49
1.27
 74
     0
 49
-1.27
 74
     0
  0
LTYPE
  5
3E
330
5
100
AcDbSymbolTableRecord
100
AcDbLinetypeTableRecord
  2
CENTERX2
 70
     0
  3
Center (2x) ________  __  ________  __  _____
 72
    65
 73
     4
 40
20.32
 49
12.7
 74
     0
 49
-2.54
 74
     0
 49
2.54
 74
     0
 49
-2.54
 74
     0
  0
LTYPE
  5
3F
330
5
100
AcDbSymbolTableRecord
100
AcDbLinetypeTableRecord
  2
DOT2
 70
     0
  3
Dot (.5x) ........................................
 72
    65
 73
     2
 40
0.635
 49
0.0
 74
     0
 49
-0.635
 74
     0
  0
ENDTAB
  0
TABLE
  2
LAYER
  5
2
330
0
100
AcDbSymbolTable
 70
     2
  0
LAYER
  5
10
330
2
100
AcDbSymbolTableRecord
100
AcDbLayerTableRecord
  2
0
 70
     0
 62
     7
  6
CONTINUOUS
  0
LAYER
  5
40
330
2
100
AcDbSymbolTableRecord
100
AcDbLayerTableRecord
  2
DEFPOINTS
 70
     0
 62
     7
  6
CONTINUOUS
  0
ENDTAB
  0
TABLE
  2
STYLE
  5
3
330
0
100
AcDbSymbolTable
 70
     1
  0
STYLE
  5
11
330
3
100
AcDbSymbolTableRecord
100
AcDbTextStyleTableRecord
  2
STANDARD
 70
     0
 40
0.0
 41
1.0
 50
0.0
 71
     0
 42
2.5
  3
txt
  4

  0
ENDTAB
  0
TABLE
  2
VIEW
  5
6
330
0
100
AcDbSymbolTable
 70
     0
  0
ENDTAB
  0
TABLE
  2
UCS
  5
7
330
0
100
AcDbSymbolTable
 70
     0
  0
ENDTAB
  0
TABLE
  2
APPID
  5
9
330
0
100
AcDbSymbolTable
 70
     1
  0
APPID
  5
12
330
9
100
AcDbSymbolTableRecord
100
AcDbRegAppTableRecord
  2
ACAD
 70
     0
  0
ENDTAB
  0
TABLE
  2
DIMSTYLE
  5
A
330
0
100
AcDbSymbolTable
 70
     1
  0
DIMSTYLE
105
27
330
A
100
AcDbSymbolTableRecord
100
AcDbDimStyleTableRecord
  2
ISO-25
 70
     0
  3

  4

  5

  6

  7

 40
1.0
 41
2.5
 42
0.625
 43
3.75
 44
1.25
 45
0.0
 46
0.0
 47
0.0
 48
0.0
140
2.5
141
2.5
142
0.0
143
0.0393700787
144
1.0
145
0.0
146
1.0
147
0.625
 71
     0
 72
     0
 73
     0
 74
     0
 75
     0
 76
     0
 77
     1
 78
     8
170
     0
171
     3
172
     1
173
     0
174
     0
175
     0
176
     0
177
     0
178
     0
270
     2
271
     2
272
     2
273
     2
274
     3
340
11
275
     0
280
     0
281
     0
282
     0
283
     0
284
     8
285
     0
286
     0
287
     3
288
     0
  0
ENDTAB
  0
TABLE
  2
BLOCK_RECORD
  5
1
330
0
100
AcDbSymbolTable
 70
     1
  0
BLOCK_RECORD
  5
1F
330
1
100
AcDbSymbolTableRecord
100
AcDbBlockTableRecord
  2
*MODEL_SPACE
  0
BLOCK_RECORD
  5
1B
330
1
100
AcDbSymbolTableRecord
100
AcDbBlockTableRecord
  2
*PAPER_SPACE
  0
ENDTAB
  0
ENDSEC
  0
SECTION
  2
BLOCKS
  0
BLOCK
  5
20
330
1F
100
AcDbEntity
  8
0
100
AcDbBlockBegin
  2
*MODEL_SPACE
 70
     0
 10
0.0
 20
0.0
 30
0.0
  3
*MODEL_SPACE
  1

  0
ENDBLK
  5
21
330
1F
100
AcDbEntity
  8
0
100
AcDbBlockEnd
  0
BLOCK
  5
1C
330
1B
100
AcDbEntity
 67
     1
  8
0
100
AcDbBlockBegin
  2
*PAPER_SPACE
 70
     0
 10
0.0
 20
0.0
 30
0.0
  3
*PAPER_SPACE
  1

  0
ENDBLK
  5
1D
330
1B
100
AcDbEntity
 67
     1
  8
0
100
AcDbBlockEnd
  0
ENDSEC
  0
SECTION
  2
ENTITIES
  0
ARC
  5
41
330
1F
100
AcDbEntity
  8
0
  6
CONTINUOUS
 62
     7
100
AcDbCircle
 10
109.784453515
 20
151.1934869283
 30
0.0
 40
25.61999999857225
100
AcDbArc
 50
319.0936974654
 51
322.156302534
  0
ARC
  5
42
330
1F
100
AcDbEntity
  8
0
  6
CONTINUOUS
 62
     7
100
AcDbCircle
 10
128.6941052207
 20
134.8097916096
 30
0.0
 40
0.6000000000000058
100
AcDbArc
 50
250.0
 51
319.0936974654
  0
LINE
  5
43
330
1F
100
AcDbEntity
  8
0
  6
CONTINUOUS
 62
     7
100
AcDbLine
 10
127.7927107384
 20
134.4993638348
 30
0.0
 11
128.4888929894
 21
134.2459695887
 31
0.0
  0
ARC
  5
44
330
1F
100
AcDbEntity
  8
0
  6
CONTINUOUS
 62
     7
100
AcDbCircle
 10
127.4506973717
 20
133.5596706197
 30
0.0
 40
0.9999999999999779
100
AcDbArc
 50
70.0
 51
135.0
  0
LINE
  5
45
330
1F
100
AcDbEntity
  8
0
  6
CONTINUOUS
 62
     7
100
AcDbLine
 10
126.7111695578
 20
134.234346683
 30
0.0
 11
126.7435944846
 21
134.2667716097
 31
0.0
  0
ARC
  5
46
330
1F
100
AcDbEntity
  8
0
  6
CONTINUOUS
 62
     7
100
AcDbCircle
 10
127.4182698236
 20
133.5272430716
 30
0.0
 40
0.9999999999999669
100
AcDbArc
 50
135.0
 51
200.0
  0
LINE
  5
47
330
1F
100
AcDbEntity
  8
0
  6
CONTINUOUS
 62
     7
100
AcDbLine
 10
126.7319715788
 20
132.4890481781
 30
0.0
 11
126.4785773327
 21
133.1852155279
 31
0.0
  0
ARC
  5
48
330
1F
100
AcDbEntity
  8
0
  6
CONTINUOUS
 62
     7
100
AcDbCircle
 10
126.1681488342
 20
132.2838352211
 30
0.0
 40
0.5999999999999692
100
AcDbArc
 50
310.9063025333
 51
20.0
  0
ARC
  5
49
330
1F
100
AcDbEntity
  8
0
  6
CONTINUOUS
 62
     7
100
AcDbCircle
 10
109.784453515
 20
151.1934869283
 30
0.0
 40
25.62000000009706
100
AcDbArc
 50
307.8436974667
 51
310.9063025333
  0
ARC
  5
4A
330
1F
100
AcDbEntity
  8
0
  6
CONTINUOUS
 62
     7
100
AcDbCircle
 10
125.1344611714
 20
131.4355096798
 30
0.0
 40
0.6000000000000167
100
AcDbArc
 50
238.75
 51
307.8436974667
  0
LINE
  5
4B
330
1F
100
AcDbEntity
  8
0
  6
CONTINUOUS
 62
     7
100
AcDbLine
 10
124.1898334792
 20
131.3068943571
 30
0.0
 11
124.8231924346
 21
130.9225636076
 31
0.0
  0
ARC
  5
4C
330
1F
100
AcDbEntity
  8
0
  6
CONTINUOUS
 62
     7
100
AcDbCircle
 10
123.6710585477
 20
130.4519862527
 30
0.0
 40
1.000000000000336
100
AcDbArc
 50
58.75
 51
123.75
  0
LINE
  5
4D
330
1F
100
AcDbEntity
  8
0
  6
CONTINUOUS
 62
     7
100
AcDbLine
 10
123.0773574879
 20
131.2579738449
 30
0.0
 11
123.1154895594
 21
131.2834548306
 31
0.0
  0
ARC
  5
4E
330
1F
100
AcDbEntity
  8
0
  6
CONTINUOUS
 62
     7
100
AcDbCircle
 10
123.6329277849
 20
130.4265080916
 30
0.0
 40
0.9999999999999961
100
AcDbArc
 50
123.75
 51
188.75
  0
LINE
  5
4F
330
1F
100
AcDbEntity
  8
0
  6
CONTINUOUS
 62
     7
100
AcDbLine
 10
122.7572656443
 20
129.542149837
 30
0.0
 11
122.6445681622
 21
130.2743779969
 31
0.0
  0
ARC
  5
50
330
1F
100
AcDbEntity
  8
0
  6
CONTINUOUS
 62
     7
100
AcDbCircle
 10
122.1642506819
 20
129.4508784807
 30
0.0
 40
0.600000000000029
100
AcDbArc
 50
299.6563025334
 51
8.75
  0
ARC
  5
51
330
1F
100
AcDbEntity
  8
0
  6
CONTINUOUS
 62
     7
100
AcDbCircle
 10
109.784453515
 20
151.1934869283
 30
0.0
 40
25.62000000007772
100
AcDbArc
 50
296.5936974667
 51
299.6563025333
  0
ARC
  5
52
330
1F
100
AcDbEntity
  8
0
  6
CONTINUOUS
 62
     7
100
AcDbCircle
 10
120.9849249346
 20
128.8205157358
 30
0.0
 40
0.6000000000000488
100
AcDbArc
 50
227.5
 51
296.5936974667
  0
LINE
  5
53
330
1F
100
AcDbEntity
  8
0
  6
CONTINUOUS
 62
     7
100
AcDbLine
 10
120.0333557298
 20
128.8786607336
 30
0.0
 11
120.5795726946
 21
128.3781456303
 31
0.0
  0
ARC
  5
54
330
1F
100
AcDbEntity
  8
0
  6
CONTINUOUS
 62
     7
100
AcDbCircle
 10
119.3577652799
 20
128.1413861247
 30
0.0
 40
0.9999999999992119
100
AcDbArc
 50
47.5
 51
112.4999999998
  0
LINE
  5
55
330
1F
100
AcDbEntity
  8
0
  6
CONTINUOUS
 62
     7
100
AcDbLine
 10
118.9327112606
 20
129.0477144074
 30
0.0
 11
118.9750827124
 21
129.0652679753
 31
0.0
  0
ARC
  5
56
330
1F
100
AcDbEntity
  8
0
  6
CONTINUOUS
 62
     7
100
AcDbCircle
 10
119.3153966464
 20
128.1238364621
 30
0.0
 40
0.9999999999995608
100
AcDbArc
 50
112.4999999998
 51
177.5000000001
  0
LINE
  5
57
330
1F
100
AcDbEntity
  8
0
  6
CONTINUOUS
 62
     7
100
AcDbLine
 10
118.2840339115
 20
127.4273025345
 30
0.0
 11
118.3163470795
 21
128.1674581122
 31
0.0
  0
ARC
  5
58
330
1F
100
AcDbEntity
  8
0
  6
CONTINUOUS
 62
     7
100
AcDbCircle
 10
117.6846038672
 20
127.4534779895
 30
0.0
 40
0.5999999999999819
100
AcDbArc
 50
288.4063025334
 51
357.5
  0
ARC
  5
59
330
1F
100
AcDbEntity
  8
0
  6
CONTINUOUS
 62
     7
100
AcDbCircle
 10
109.784453515
 20
151.1934869283
 30
0.0
 40
25.62000000003886
100
AcDbArc
 50
285.3436974655
 51
288.4063025334
  0
ARC
  5
5A
330
1F
100
AcDbEntity
  8
0
  6
CONTINUOUS
 62
     7
100
AcDbCircle
 10
116.404960862
 20
127.0653025277
 30
0.0
 40
0.6000000000000235
100
AcDbArc
 50
216.2499999988
 51
285.3436974655
  0
LINE
  5
5B
330
1F
100
AcDbEntity
  8
0
  6
CONTINUOUS
 62
     7
100
AcDbLine
 10
115.4830179384
 20
127.3079740357
 30
0.0
 11
115.9210971763
 21
126.7105119776
 31
0.0
  0
ARC
  5
5C
330
1F
100
AcDbEntity
  8
0
  6
CONTINUOUS
 62
     7
100
AcDbCircle
 10
114.6765750093
 20
126.7166653026
 30
0.0
 40
1.000000000000053
100
AcDbArc
 50
36.2499999988
 51
101.2499999981
  0
LINE
  5
5D
330
1F
100
AcDbEntity
  8
0
  6
CONTINUOUS
 62
     7
100
AcDbLine
 10
114.4365093877
 20
127.6885049891
 30
0.0
 11
114.4814810922
 21
127.6974456858
 31
0.0
  0
ARC
  5
5E
330
1F
100
AcDbEntity
  8
0
  6
CONTINUOUS
 62
     7
100
AcDbCircle
 10
114.6315967079
 20
126.7077185622
 30
0.0
 40
1.000000000000018
100
AcDbArc
 50
101.2499999981
 51
166.2499999988
  0
LINE
  5
5F
330
1F
100
AcDbEntity
  8
0
  6
CONTINUOUS
 62
     7
100
AcDbLine
 10
113.4841612747
 20
126.225777204
 30
0.0
 11
113.6602557471
 21
126.9453989815
 31
0.0
  0
ARC
  5
60
330
1F
100
AcDbEntity
  8
0
  6
CONTINUOUS
 62
     7
100
AcDbCircle
 10
112.9013587044
 20
126.3683927283
 30
0.0
 40
0.6000000000000143
100
AcDbArc
 50
277.1563025322
 51
346.2499999988
  0
ARC
  5
61
330
1F
100
AcDbEntity
  8
0
  6
CONTINUOUS
 62
     7
100
AcDbCircle
 10
109.784453515
 20
151.1934869283
 30
0.0
 40
25.62000000001223
100
AcDbArc
 50
274.093697463
 51
277.1563025322
  0
ARC
  5
62
330
1F
100
AcDbEntity
  8
0
  6
CONTINUOUS
 62
     7
100
AcDbCircle
 10
111.5705744043
 20
126.2373219151
 30
0.0
 40
0.599999999999972
100
AcDbArc
 50
205.0
 51
274.093697463
  0
LINE
  5
63
330
1F
100
AcDbEntity
  8
0
  6
CONTINUOUS
 62
     7
100
AcDbLine
 10
110.713692682
 20
126.6551988673
 30
0.0
 11
111.0267884305
 21
125.9837525439
 31
0.0
  0
ARC
  5
64
330
1F
100
AcDbEntity
  8
0
  6
CONTINUOUS
 62
     7
100
AcDbCircle
 10
109.8073832525
 20
126.2325750092
 30
0.0
 40
1.0
100
AcDbArc
 50
25.0
 51
90.0
  0
LINE
  5
65
330
1F
100
AcDbEntity
  8
0
  6
CONTINUOUS
 62
     7
100
AcDbLine
 10
109.7615233829
 20
127.23257416
 30
0.0
 11
109.8073817065
 21
127.23257416
 31
0.0
  0
ARC
  5
66
330
1F
100
AcDbEntity
  8
0
  6
CONTINUOUS
 62
     7
100
AcDbCircle
 10
109.7615237741
 20
126.2325750092
 30
0.0
 40
1.0
100
AcDbArc
 50
90.0
 51
155.0
  0
LINE
  5
67
330
1F
100
AcDbEntity
  8
0
  6
CONTINUOUS
 62
     7
100
AcDbLine
 10
108.5421166589
 20
125.9837525439
 30
0.0
 11
108.8552124074
 21
126.6551988673
 31
0.0
  0
ARC
  5
68
330
1F
100
AcDbEntity
  8
0
  6
CONTINUOUS
 62
     7
100
AcDbCircle
 10
107.9983326225
 20
126.2373219153
 30
0.0
 40
0.6000000000000424
100
AcDbArc
 50
265.9063025297
 51
335.0
  0
ARC
  5
69
330
1F
100
AcDbEntity
  8
0
  6
CONTINUOUS
 62
     7
100
AcDbCircle
 10
109.784453515
 20
151.1934869283
 30
0.0
 40
25.62000000000682
100
AcDbArc
 50
262.8436974665
 51
265.9063025297
  0
ARC
  5
6A
330
1F
100
AcDbEntity
  8
0
  6
CONTINUOUS
 62
     7
100
AcDbCircle
 10
106.667548325
 20
126.3683927284
 30
0.0
 40
0.5999999999999875
100
AcDbArc
 50
193.7499999999
 51
262.8436974665
  0
LINE
  5
6B
330
1F
100
AcDbEntity
  8
0
  6
CONTINUOUS
 62
     7
100
AcDbLine
 10
105.9086493423
 20
126.9453989815
 30
0.0
 11
106.0847438147
 21
126.225777204
 31
0.0
  0
ARC
  5
6C
330
1F
100
AcDbEntity
  8
0
  6
CONTINUOUS
 62
     7
100
AcDbCircle
 10
104.9373103215
 20
126.7077185623
 30
0.0
 40
1.000000000000045
100
AcDbArc
 50
13.7499999999
 51
78.7499999992
  0
LINE
  5
6D
330
1F
100
AcDbEntity
  8
0
  6
CONTINUOUS
 62
     7
100
AcDbLine
 10
105.0874239972
 20
127.6974456858
 30
0.0
 11
105.1324031522
 21
127.6885049891
 31
0.0
  0
ARC
  5
6E
330
1F
100
AcDbEntity
  8
0
  6
CONTINUOUS
 62
     7
100
AcDbCircle
 10
104.8923320201
 20
126.7166653027
 30
0.0
 40
1.00000000000005
100
AcDbArc
 50
78.7499999992
 51
143.7499999999
  0
LINE
  5
6F
330
1F
100
AcDbEntity
  8
0
  6
CONTINUOUS
 62
     7
100
AcDbLine
 10
103.6478153637
 20
126.7105119776
 30
0.0
 11
104.085887151
 21
127.3079740357
 31
0.0
  0
ARC
  5
70
330
1F
100
AcDbEntity
  8
0
  6
CONTINUOUS
 62
     7
100
AcDbCircle
 10
103.1639461674
 20
127.0653025279
 30
0.0
 40
0.6000000000000009
100
AcDbArc
 50
254.6563025333
 51
323.7499999999
  0
ARC
  5
71
330
1F
100
AcDbEntity
  8
0
  6
CONTINUOUS
 62
     7
100
AcDbCircle
 10
109.784453515
 20
151.1934869283
 30
0.0
 40
25.62000000000974
100
AcDbArc
 50
251.5936974664
 51
254.6563025333
  0
ARC
  5
72
330
1F
100
AcDbEntity
  8
0
  6
CONTINUOUS
 62
     7
100
AcDbCircle
 10
101.8843031627
 20
127.4534779896
 30
0.0
 40
0.6000000000000042
100
AcDbArc
 50
182.4999999999
 51
251.5936974664
  0
LINE
  5
73
330
1F
100
AcDbEntity
  8
0
  6
CONTINUOUS
 62
     7
100
AcDbLine
 10
101.2525580099
 20
128.1674581122
 30
0.0
 11
101.2848711779
 21
127.4273025345
 31
0.0
  0
ARC
  5
74
330
1F
100
AcDbEntity
  8
0
  6
CONTINUOUS
 62
     7
100
AcDbCircle
 10
100.2535103834
 20
128.1238364621
 30
0.0
 40
1.000000000000014
100
AcDbArc
 50
2.4999999999
 51
67.4999999987
  0
LINE
  5
75
330
1F
100
AcDbEntity
  8
0
  6
CONTINUOUS
 62
     7
100
AcDbLine
 10
100.593822377
 20
129.0652679753
 30
0.0
 11
100.6361938288
 21
129.0477144074
 31
0.0
  0
ARC
  5
76
330
1F
100
AcDbEntity
  8
0
  6
CONTINUOUS
 62
     7
100
AcDbCircle
 10
100.21114175
 20
128.1413861247
 30
0.0
 40
1.000000000000024
100
AcDbArc
 50
67.4999999987
 51
132.4999999999
  0
LINE
  5
77
330
1F
100
AcDbEntity
  8
0
  6
CONTINUOUS
 62
     7
100
AcDbLine
 10
98.9893398454
 20
128.3781456303
 30
0.0
 11
99.5355493596
 21
128.8786607336
 31
0.0
  0
ARC
  5
78
330
1F
100
AcDbEntity
  8
0
  6
CONTINUOUS
 62
     7
100
AcDbCircle
 10
98.5839820953
 20
128.8205157359
 30
0.0
 40
0.6000000000000072
100
AcDbArc
 50
243.4063025332
 51
312.4999999999
  0
ARC
  5
79
330
1F
100
AcDbEntity
  8
0
  6
CONTINUOUS
 62
     7
100
AcDbCircle
 10
109.784453515
 20
151.1934869283
 30
0.0
 40
25.62000000001546
100
AcDbArc
 50
240.3436974667
 51
243.4063025332
  0
ARC
  5
7A
330
1F
100
AcDbEntity
  8
0
  6
CONTINUOUS
 62
     7
100
AcDbCircle
 10
97.404656348
 20
129.4508784807
 30
0.0
 40
0.6000000000000099
100
AcDbArc
 50
171.25
 51
240.3436974667
  0
LINE
  5
7B
330
1F
100
AcDbEntity
  8
0
  6
CONTINUOUS
 62
     7
100
AcDbLine
 10
96.9243443778
 20
130.2743779969
 30
0.0
 11
96.8116394451
 21
129.542149837
 31
0.0
  0
ARC
  5
7C
330
1F
100
AcDbEntity
  8
0
  6
CONTINUOUS
 62
     7
100
AcDbCircle
 10
95.935979245
 20
130.4265080916
 30
0.0
 40
1.000000000000614
100
AcDbArc
 50
351.25
 51
56.250000002
  0
LINE
  5
7D
330
1F
100
AcDbEntity
  8
0
  6
CONTINUOUS
 62
     7
100
AcDbLine
 10
96.45341553
 20
131.2834548306
 30
0.0
 11
96.4915476015
 21
131.2579738449
 31
0.0
  0
ARC
  5
7E
330
1F
100
AcDbEntity
  8
0
  6
CONTINUOUS
 62
     7
100
AcDbCircle
 10
95.8978484823
 20
130.4519862527
 30
0.0
 40
1.000000000000614
100
AcDbArc
 50
56.250000002
 51
121.25
  0
LINE
  5
7F
330
1F
100
AcDbEntity
  8
0
  6
CONTINUOUS
 62
     7
100
AcDbLine
 10
94.7457126548
 20
130.9225636076
 30
0.0
 11
95.3790716102
 21
131.3068943571
 31
0.0
  0
ARC
  5
80
330
1F
100
AcDbEntity
  8
0
  6
CONTINUOUS
 62
     7
100
AcDbCircle
 10
94.4344458587
 20
131.4355096798
 30
0.0
 40
0.6000000000000251
100
AcDbArc
 50
232.1563025334
 51
301.25
  0
ARC
  5
81
330
1F
100
AcDbEntity
  8
0
  6
CONTINUOUS
 62
     7
100
AcDbCircle
 10
109.784453515
 20
151.1934869283
 30
0.0
 40
25.62000000001892
100
AcDbArc
 50
229.0936974666
 51
232.1563025334
  0
ARC
  5
82
330
1F
100
AcDbEntity
  8
0
  6
CONTINUOUS
 62
     7
100
AcDbCircle
 10
93.4007581957
 20
132.2838352211
 30
0.0
 40
0.6000000000000164
100
AcDbArc
 50
160.0
 51
229.0936974666
  0
LINE
  5
83
330
1F
100
AcDbEntity
  8
0
  6
CONTINUOUS
 62
     7
100
AcDbLine
 10
93.0903277567
 20
133.1852155279
 30
0.0
 11
92.8369409611
 21
132.4890481781
 31
0.0
  0
ARC
  5
84
330
1F
100
AcDbEntity
  8
0
  6
CONTINUOUS
 62
     7
100
AcDbCircle
 10
92.1506372064
 20
133.5272430716
 30
0.0
 40
1.00000000000002
100
AcDbArc
 50
340.0
 51
45.0
  0
LINE
  5
85
330
1F
100
AcDbEntity
  8
0
  6
CONTINUOUS
 62
     7
100
AcDbLine
 10
92.8253180554
 20
134.2667716097
 30
0.0
 11
92.8577429822
 21
134.234346683
 31
0.0
  0
ARC
  5
86
330
1F
100
AcDbEntity
  8
0
  6
CONTINUOUS
 62
     7
100
AcDbCircle
 10
92.1182096582
 20
133.5596706197
 30
0.0
 40
0.999999999999988
100
AcDbArc
 50
45.0
 51
110.0
  0
LINE
  5
87
330
1F
100
AcDbEntity
  8
0
  6
CONTINUOUS
 62
     7
100
AcDbLine
 10
91.0800121
 20
134.2459695887
 30
0.0
 11
91.7761869004
 21
134.4993638348
 31
0.0
  0
ARC
  5
88
330
1F
100
AcDbEntity
  8
0
  6
CONTINUOUS
 62
     7
100
AcDbCircle
 10
90.8748018078
 20
134.8097916091
 30
0.0
 40
0.599999999999992
100
AcDbArc
 50
220.9063025334
 51
290.0
  0
ARC
  5
89
330
1F
100
AcDbEntity
  8
0
  6
CONTINUOUS
 62
     7
100
AcDbCircle
 10
109.784453515
 20
151.1934869283
 30
0.0
 40
25.62000000001486
100
AcDbArc
 50
217.8436974666
 51
220.9063025334
  0
ARC
  5
8A
330
1F
100
AcDbEntity
  8
0
  6
CONTINUOUS
 62
     7
100
AcDbCircle
 10
90.0264762665
 20
135.843479272
 30
0.0
 40
0.6000000000000703
100
AcDbArc
 50
148.75
 51
217.8436974666
  0
LINE
  5
8B
330
1F
100
AcDbEntity
  8
0
  6
CONTINUOUS
 62
     7
100
AcDbLine
 10
89.8978657296
 20
136.7881076884
 30
0.0
 11
89.5135275295
 21
136.154748733
 31
0.0
  0
ARC
  5
8C
330
1F
100
AcDbEntity
  8
0
  6
CONTINUOUS
 62
     7
100
AcDbCircle
 10
89.0429528393
 20
137.3068818956
 30
0.0
 40
0.9999999999999802
100
AcDbArc
 50
328.75
 51
33.7499999996
  0
LINE
  5
8D
330
1F
100
AcDbEntity
  8
0
  6
CONTINUOUS
 62
     7
100
AcDbLine
 10
89.8489452174
 20
137.9005836796
 30
0.0
 11
89.8744187524
 21
137.8624516081
 31
0.0
  0
ARC
  5
8E
330
1F
100
AcDbEntity
  8
0
  6
CONTINUOUS
 62
     7
100
AcDbCircle
 10
89.0174746782
 20
137.3450126583
 30
0.0
 40
0.9999999999999967
100
AcDbArc
 50
33.7499999996
 51
98.75
  0
LINE
  5
8F
330
1F
100
AcDbEntity
  8
0
  6
CONTINUOUS
 62
     7
100
AcDbLine
 10
88.1331212094
 20
138.2206755232
 30
0.0
 11
88.8653493693
 21
138.3333730053
 31
0.0
  0
ARC
  5
90
330
1F
100
AcDbEntity
  8
0
  6
CONTINUOUS
 62
     7
100
AcDbCircle
 10
88.0418450674
 20
138.8136897614
 30
0.0
 40
0.6000000000000624
100
AcDbArc
 50
209.6563025334
 51
278.75
  0
ARC
  5
91
330
1F
100
AcDbEntity
  8
0
  6
CONTINUOUS
 62
     7
100
AcDbCircle
 10
109.784453515
 20
151.1934869283
 30
0.0
 40
25.62000000000676
100
AcDbArc
 50
206.5936974666
 51
209.6563025334
  0
ARC
  5
92
330
1F
100
AcDbEntity
  8
0
  6
CONTINUOUS
 62
     7
100
AcDbCircle
 10
87.4114823225
 20
139.9930155087
 30
0.0
 40
0.600000000000032
100
AcDbArc
 50
137.5
 51
206.5936974666
  0
LINE
  5
93
330
1F
100
AcDbEntity
  8
0
  6
CONTINUOUS
 62
     7
100
AcDbLine
 10
87.4696321061
 20
140.9445779871
 30
0.0
 11
86.9691170027
 21
140.3983759236
 31
0.0
  0
ARC
  5
94
330
1F
100
AcDbEntity
  8
0
  6
CONTINUOUS
 62
     7
100
AcDbCircle
 10
86.7323527113
 20
141.6201751634
 30
0.0
 40
0.9999999999999931
100
AcDbArc
 50
317.5
 51
22.4999999992
  0
LINE
  5
95
330
1F
100
AcDbEntity
  8
0
  6
CONTINUOUS
 62
     7
100
AcDbLine
 10
87.6386857798
 20
142.0452224564
 30
0.0
 11
87.6562318971
 21
142.0028584551
 31
0.0
  0
ARC
  5
96
330
1F
100
AcDbEntity
  8
0
  6
CONTINUOUS
 62
     7
100
AcDbCircle
 10
86.7148030487
 20
141.6625437968
 30
0.0
 40
1.000000000000022
100
AcDbArc
 50
22.4999999992
 51
87.5
  0
LINE
  5
97
330
1F
100
AcDbEntity
  8
0
  6
CONTINUOUS
 62
     7
100
AcDbLine
 10
86.018273907
 20
142.6939147066
 30
0.0
 11
86.758422034
 21
142.661594088
 31
0.0
  0
ARC
  5
98
330
1F
100
AcDbEntity
  8
0
  6
CONTINUOUS
 62
     7
100
AcDbCircle
 10
86.0444445762
 20
143.2933365761
 30
0.0
 40
0.6000000000000162
100
AcDbArc
 50
198.4063025334
 51
267.5
  0
ARC
  5
99
330
1F
100
AcDbEntity
  8
0
  6
CONTINUOUS
 62
     7
100
AcDbCircle
 10
109.784453515
 20
151.1934869283
 30
0.0
 40
25.62000000000135
100
AcDbArc
 50
195.3436974666
 51
198.4063025334
  0
ARC
  5
9A
330
1F
100
AcDbEntity
  8
0
  6
CONTINUOUS
 62
     7
100
AcDbCircle
 10
85.6562691145
 20
144.5729795808
 30
0.0
 40
0.6000000000000071
100
AcDbArc
 50
126.25
 51
195.3436974667
  0
LINE
  5
9B
330
1F
100
AcDbEntity
  8
0
  6
CONTINUOUS
 62
     7
100
AcDbLine
 10
85.8989379575
 20
145.4949157786
 30
0.0
 11
85.3014833501
 21
145.0568514418
 31
0.0
  0
ARC
  5
9C
330
1F
100
AcDbEntity
  8
0
  6
CONTINUOUS
 62
     7
100
AcDbCircle
 10
85.3076318894
 20
146.3013654335
 30
0.0
 40
1.000000000000293
100
AcDbArc
 50
306.25
 51
11.250000001
  0
LINE
  5
9D
330
1F
100
AcDbEntity
  8
0
  6
CONTINUOUS
 62
     7
100
AcDbLine
 10
86.2794689109
 20
146.5414392304
 30
0.0
 11
86.2884170582
 21
146.4964526247
 31
0.0
  0
ARC
  5
9E
330
1F
100
AcDbEntity
  8
0
  6
CONTINUOUS
 62
     7
100
AcDbCircle
 10
85.298685149
 20
146.3463437349
 30
0.0
 40
1.000000000000302
100
AcDbArc
 50
11.250000001
 51
76.25
  0
LINE
  5
9F
330
1F
100
AcDbEntity
  8
0
  6
CONTINUOUS
 62
     7
100
AcDbLine
 10
84.8167485764
 20
147.4937724423
 30
0.0
 11
85.536370354
 21
147.3176854204
 31
0.0
  0
ARC
  5
A0
330
1F
100
AcDbEntity
  8
0
  6
CONTINUOUS
 62
     7
100
AcDbCircle
 10
84.959359315
 20
148.0765817384
 30
0.0
 40
0.6000000000000277
100
AcDbArc
 50
187.1563025334
 51
256.25
  0
ARC
  5
A1
330
1F
100
AcDbEntity
  8
0
  6
CONTINUOUS
 62
     7
100
AcDbCircle
 10
109.784453515
 20
151.1934869283
 30
0.0
 40
25.62000000000002
100
AcDbArc
 50
184.0936974666
 51
187.1563025334
  0
ARC
  5
A2
330
1F
100
AcDbEntity
  8
0
  6
CONTINUOUS
 62
     7
100
AcDbCircle
 10
84.8282885018
 20
149.4073660374
 30
0.0
 40
0.6000000000000151
100
AcDbArc
 50
115.0
 51
184.0936974666
  0
LINE
  5
A3
330
1F
100
AcDbEntity
  8
0
  6
CONTINUOUS
 62
     7
100
AcDbLine
 10
85.2461627891
 20
150.2642559361
 30
0.0
 11
84.5747164657
 21
149.9511527371
 31
0.0
  0
ARC
  5
A4
330
1F
100
AcDbEntity
  8
0
  6
CONTINUOUS
 62
     7
100
AcDbCircle
 10
84.8235415958
 20
151.1705571891
 30
0.0
 40
0.9999999999999858
100
AcDbArc
 50
295.0
 51
0.0
  0
LINE
  5
A5
330
1F
100
AcDbEntity
  8
0
  6
CONTINUOUS
 62
     7
100
AcDbLine
 10
85.8235380819
 20
151.216410334
 30
0.0
 11
85.8235380819
 21
151.1705594611
 31
0.0
  0
ARC
  5
A6
330
1F
100
AcDbEntity
  8
0
  6
CONTINUOUS
 62
     7
100
AcDbCircle
 10
84.8235415958
 20
151.2164166675
 30
0.0
 40
1.0
100
AcDbArc
 50
0.0
 51
65.0
  0
LINE
  5
A7
330
1F
100
AcDbEntity
  8
0
  6
CONTINUOUS
 62
     7
100
AcDbLine
 10
84.5747164657
 20
152.435817058
 30
0.0
 11
85.2461627891
 21
152.1227287602
 31
0.0
  0
ARC
  5
A8
330
1F
100
AcDbEntity
  8
0
  6
CONTINUOUS
 62
     7
100
AcDbCircle
 10
84.8282885018
 20
152.9796078192
 30
0.0
 40
0.6000000000000252
100
AcDbArc
 50
175.9063025334
 51
245.0
  0
ARC
  5
A9
330
1F
100
AcDbEntity
  8
0
  6
CONTINUOUS
 62
     7
100
AcDbCircle
 10
109.784453515
 20
151.1934869283
 30
0.0
 40
25.62000000000212
100
AcDbArc
 50
172.8436974669
 51
175.9063025334
  0
ARC
  5
AA
330
1F
100
AcDbEntity
  8
0
  6
CONTINUOUS
 62
     7
100
AcDbCircle
 10
84.959359315
 20
154.3103921181
 30
0.0
 40
0.6000000000000056
100
AcDbArc
 50
103.7500000003
 51
172.8436974669
  0
LINE
  5
AB
330
1F
100
AcDbEntity
  8
0
  6
CONTINUOUS
 62
     7
100
AcDbLine
 10
85.536370354
 20
155.0692843746
 30
0.0
 11
84.8167485764
 21
154.8931973528
 31
0.0
  0
ARC
  5
AC
330
1F
100
AcDbEntity
  8
0
  6
CONTINUOUS
 62
     7
100
AcDbCircle
 10
85.298685149
 20
156.0406301217
 30
0.0
 40
0.999999999999997
100
AcDbArc
 50
283.7500000003
 51
348.7500000003
  0
LINE
  5
AD
330
1F
100
AcDbEntity
  8
0
  6
CONTINUOUS
 62
     7
100
AcDbLine
 10
86.2884170582
 20
155.8905171704
 30
0.0
 11
86.2794689109
 21
155.8455454659
 31
0.0
  0
ARC
  5
AE
330
1F
100
AcDbEntity
  8
0
  6
CONTINUOUS
 62
     7
100
AcDbCircle
 10
85.3076318894
 20
156.085608423
 30
0.0
 40
1.000000000000036
100
AcDbArc
 50
348.7500000003
 51
53.7500000003
  0
LINE
  5
AF
330
1F
100
AcDbEntity
  8
0
  6
CONTINUOUS
 62
     7
100
AcDbLine
 10
85.3014833501
 20
157.3301332545
 30
0.0
 11
85.8989379575
 21
156.8920540165
 31
0.0
  0
ARC
  5
B0
330
1F
100
AcDbEntity
  8
0
  6
CONTINUOUS
 62
     7
100
AcDbCircle
 10
85.6562691145
 20
157.8139942757
 30
0.0
 40
0.5999999999999631
100
AcDbArc
 50
164.6563025337
 51
233.7500000003
  0
ARC
  5
B1
330
1F
100
AcDbEntity
  8
0
  6
CONTINUOUS
 62
     7
100
AcDbCircle
 10
109.784453515
 20
151.1934869283
 30
0.0
 40
25.62000000001942
100
AcDbArc
 50
161.5936974674
 51
164.6563025337
  0
ARC
  5
B2
330
1F
100
AcDbEntity
  8
0
  6
CONTINUOUS
 62
     7
100
AcDbCircle
 10
86.0444445761
 20
159.0936372802
 30
0.0
 40
0.5999999999999911
100
AcDbArc
 50
92.5000000008
 51
161.5936974674
  0
LINE
  5
B3
330
1F
100
AcDbEntity
  8
0
  6
CONTINUOUS
 62
     7
100
AcDbLine
 10
86.758422034
 20
159.7253757071
 30
0.0
 11
86.018273907
 21
159.6930699896
 31
0.0
  0
ARC
  5
B4
330
1F
100
AcDbEntity
  8
0
  6
CONTINUOUS
 62
     7
100
AcDbCircle
 10
86.7148030486
 20
160.7244300595
 30
0.0
 40
1.000000000000013
100
AcDbArc
 50
272.5000000008
 51
337.5000000008
  0
LINE
  5
B5
330
1F
100
AcDbEntity
  8
0
  6
CONTINUOUS
 62
     7
100
AcDbLine
 10
87.6562318971
 20
160.38411134
 30
0.0
 11
87.6386857798
 21
160.3417473387
 31
0.0
  0
ARC
  5
B6
330
1F
100
AcDbEntity
  8
0
  6
CONTINUOUS
 62
     7
100
AcDbCircle
 10
86.7323527112
 20
160.7667986929
 30
0.0
 40
0.9999999999999948
100
AcDbArc
 50
337.5000000008
 51
42.5000000008
  0
LINE
  5
B7
330
1F
100
AcDbEntity
  8
0
  6
CONTINUOUS
 62
     7
100
AcDbLine
 10
86.9691170027
 20
161.9886087727
 30
0.0
 11
87.4696321061
 21
161.442391808
 31
0.0
  0
ARC
  5
B8
330
1F
100
AcDbEntity
  8
0
  6
CONTINUOUS
 62
     7
100
AcDbCircle
 10
87.4114823223
 20
162.3939583476
 30
0.0
 40
0.5999999999999914
100
AcDbArc
 50
153.4063025341
 51
222.5000000008
  0
ARC
  5
B9
330
1F
100
AcDbEntity
  8
0
  6
CONTINUOUS
 62
     7
100
AcDbCircle
 10
109.784453515
 20
151.1934869283
 30
0.0
 40
25.62000000005821
100
AcDbArc
 50
150.3436974674
 51
153.4063025341
  0
ARC
  5
BA
330
1F
100
AcDbEntity
  8
0
  6
CONTINUOUS
 62
     7
100
AcDbCircle
 10
88.0418450672
 20
163.573284095
 30
0.0
 40
0.6000000000000338
100
AcDbArc
 50
81.2500000007
 51
150.3436974674
  0
LINE
  5
BB
330
1F
100
AcDbEntity
  8
0
  6
CONTINUOUS
 62
     7
100
AcDbLine
 10
88.8653493693
 20
164.0535967898
 30
0.0
 11
88.1331212094
 21
164.1662942719
 31
0.0
  0
ARC
  5
BC
330
1F
100
AcDbEntity
  8
0
  6
CONTINUOUS
 62
     7
100
AcDbCircle
 10
89.0174746781
 20
165.041961198
 30
0.0
 40
0.9999999999999597
100
AcDbArc
 50
261.2500000007
 51
326.2500000007
  0
LINE
  5
BD
330
1F
100
AcDbEntity
  8
0
  6
CONTINUOUS
 62
     7
100
AcDbLine
 10
89.8744187524
 20
164.524518187
 30
0.0
 11
89.8489452174
 21
164.4863861155
 31
0.0
  0
ARC
  5
BE
330
1F
100
AcDbEntity
  8
0
  6
CONTINUOUS
 62
     7
100
AcDbCircle
 10
89.0429528392
 20
165.0800919608
 30
0.0
 40
1.000000000000021
100
AcDbArc
 50
326.2500000007
 51
31.2500000007
  0
LINE
  5
BF
330
1F
100
AcDbEntity
  8
0
  6
CONTINUOUS
 62
     7
100
AcDbLine
 10
89.5135275295
 20
166.2322359633
 30
0.0
 11
89.8978657296
 21
165.5988621067
 31
0.0
  0
ARC
  5
C0
330
1F
100
AcDbEntity
  8
0
  6
CONTINUOUS
 62
     7
100
AcDbCircle
 10
90.0264762662
 20
166.5434945845
 30
0.0
 40
0.5999999999999946
100
AcDbArc
 50
142.156302534
 51
211.2500000007
  0
ARC
  5
C1
330
1F
100
AcDbEntity
  8
0
  6
CONTINUOUS
 62
     7
100
AcDbCircle
 10
109.784453515
 20
151.1934869283
 30
0.0
 40
25.62000000009705
100
AcDbArc
 50
139.0936974667
 51
142.156302534
  0
ARC
  5
C2
330
1F
100
AcDbEntity
  8
0
  6
CONTINUOUS
 62
     7
100
AcDbCircle
 10
90.8748018077
 20
167.5771822476
 30
0.0
 40
0.5999999999999862
100
AcDbArc
 50
70.0
 51
139.0936974667
  0
LINE
  5
C3
330
1F
100
AcDbEntity
  8
0
  6
CONTINUOUS
 62
     7
100
AcDbLine
 10
91.7761869004
 20
167.8876059603
 30
0.0
 11
91.0800121
 21
168.1410002064
 31
0.0
  0
ARC
  5
C4
330
1F
100
AcDbEntity
  8
0
  6
CONTINUOUS
 62
     7
100
AcDbCircle
 10
92.1182096582
 20
168.8273032369
 30
0.0
 40
0.9999999999999803
100
AcDbArc
 50
250.0
 51
315.0
  0
LINE
  5
C5
330
1F
100
AcDbEntity
  8
0
  6
CONTINUOUS
 62
     7
100
AcDbLine
 10
92.8577429822
 20
168.1526231121
 30
0.0
 11
92.8253180554
 21
168.1201981854
 31
0.0
  0
ARC
  5
C6
330
1F
100
AcDbEntity
  8
0
  6
CONTINUOUS
 62
     7
100
AcDbCircle
 10
92.1506372064
 20
168.8597307851
 30
0.0
 40
1.000000000000028
100
AcDbArc
 50
315.0
 51
20.0
  0
LINE
  5
C7
330
1F
100
AcDbEntity
  8
0
  6
CONTINUOUS
 62
     7
100
AcDbLine
 10
92.8369409611
 20
169.897921617
 30
0.0
 11
93.0903277567
 21
169.2017542671
 31
0.0
  0
ARC
  5
C8
330
1F
100
AcDbEntity
  8
0
  6
CONTINUOUS
 62
     7
100
AcDbCircle
 10
93.4007581957
 20
170.1031386356
 30
0.0
 40
0.6000000000000373
100
AcDbArc
 50
130.9063025333
 51
200.0
  0
ARC
  5
C9
330
1F
100
AcDbEntity
  8
0
  6
CONTINUOUS
 62
     7
100
AcDbCircle
 10
109.784453515
 20
151.1934869283
 30
0.0
 40
25.62000000009706
100
AcDbArc
 50
127.8436974667
 51
130.9063025333
  0
ARC
  5
CA
330
1F
100
AcDbEntity
  8
0
  6
CONTINUOUS
 62
     7
100
AcDbCircle
 10
94.4344458586
 20
170.9514641769
 30
0.0
 40
0.6000000000000286
100
AcDbArc
 50
58.75
 51
127.8436974667
  0
LINE
  5
CB
330
1F
100
AcDbEntity
  8
0
  6
CONTINUOUS
 62
     7
100
AcDbLine
 10
95.3790716102
 20
171.080075438
 30
0.0
 11
94.7457126548
 21
171.4644061875
 31
0.0
  0
ARC
  5
CC
330
1F
100
AcDbEntity
  8
0
  6
CONTINUOUS
 62
     7
100
AcDbCircle
 10
95.8978484823
 20
171.9349876039
 30
0.0
 40
1.000000000000017
100
AcDbArc
 50
238.75
 51
303.75
  0
LINE
  5
CD
330
1F
100
AcDbEntity
  8
0
  6
CONTINUOUS
 62
     7
100
AcDbLine
 10
96.4915476015
 20
171.1289959502
 30
0.0
 11
96.45341553
 21
171.1035149645
 31
0.0
  0
ARC
  5
CE
330
1F
100
AcDbEntity
  8
0
  6
CONTINUOUS
 62
     7
100
AcDbCircle
 10
95.935979245
 20
171.960465765
 30
0.0
 40
1.000000000000012
100
AcDbArc
 50
303.75
 51
8.75
  0
LINE
  5
CF
330
1F
100
AcDbEntity
  8
0
  6
CONTINUOUS
 62
     7
100
AcDbLine
 10
96.8116394451
 20
172.8448199581
 30
0.0
 11
96.9243443778
 21
172.1125917982
 31
0.0
  0
ARC
  5
D0
330
1F
100
AcDbEntity
  8
0
  6
CONTINUOUS
 62
     7
100
AcDbCircle
 10
97.404656348
 20
172.936095376
 30
0.0
 40
0.6000000000000019
100
AcDbArc
 50
119.6563025333
 51
188.75
  0
ARC
  5
D1
330
1F
100
AcDbEntity
  8
0
  6
CONTINUOUS
 62
     7
100
AcDbCircle
 10
109.784453515
 20
151.1934869283
 30
0.0
 40
25.6200000000776
100
AcDbArc
 50
116.5936974667
 51
119.6563025333
  0
ARC
  5
D2
330
1F
100
AcDbEntity
  8
0
  6
CONTINUOUS
 62
     7
100
AcDbCircle
 10
98.5839820953
 20
173.5664581209
 30
0.0
 40
0.6000000000000069
100
AcDbArc
 50
47.5
 51
116.5936974667
  0
LINE
  5
D3
330
1F
100
AcDbEntity
  8
0
  6
CONTINUOUS
 62
     7
100
AcDbLine
 10
99.5355493596
 20
173.5083090615
 30
0.0
 11
98.9893398454
 21
174.0088241648
 31
0.0
  0
ARC
  5
D4
330
1F
100
AcDbEntity
  8
0
  6
CONTINUOUS
 62
     7
100
AcDbCircle
 10
100.21114175
 20
174.245587732
 30
0.0
 40
0.999999999999989
100
AcDbArc
 50
227.5
 51
292.5
  0
LINE
  5
D5
330
1F
100
AcDbEntity
  8
0
  6
CONTINUOUS
 62
     7
100
AcDbLine
 10
100.6361938288
 20
173.3392553877
 30
0.0
 11
100.593822377
 21
173.3217018198
 31
0.0
  0
ARC
  5
D6
330
1F
100
AcDbEntity
  8
0
  6
CONTINUOUS
 62
     7
100
AcDbCircle
 10
100.2535103835
 20
174.2631373946
 30
0.0
 40
1.000000000000033
100
AcDbArc
 50
292.5
 51
357.5
  0
LINE
  5
D7
330
1F
100
AcDbEntity
  8
0
  6
CONTINUOUS
 62
     7
100
AcDbLine
 10
101.2848711779
 20
174.9596672606
 30
0.0
 11
101.2525580099
 21
174.2195116829
 31
0.0
  0
ARC
  5
D8
330
1F
100
AcDbEntity
  8
0
  6
CONTINUOUS
 62
     7
100
AcDbCircle
 10
101.8843031627
 20
174.9334958671
 30
0.0
 40
0.5999999999999871
100
AcDbArc
 50
108.4063025334
 51
177.5
  0
ARC
  5
D9
330
1F
100
AcDbEntity
  8
0
  6
CONTINUOUS
 62
     7
100
AcDbCircle
 10
109.784453515
 20
151.1934869283
 30
0.0
 40
25.62000000003853
100
AcDbArc
 50
105.3436974693
 51
108.4063025334
  0
ARC
  5
DA
330
1F
100
AcDbEntity
  8
0
  6
CONTINUOUS
 62
     7
100
AcDbCircle
 10
103.1639461663
 20
175.3216713285
 30
0.0
 40
0.5999999999999729
100
AcDbArc
 50
36.2500000026
 51
105.3436974693
  0
LINE
  5
DB
330
1F
100
AcDbEntity
  8
0
  6
CONTINUOUS
 62
     7
100
AcDbLine
 10
104.085887151
 20
175.0789957594
 30
0.0
 11
103.6478153637
 21
175.6764578175
 31
0.0
  0
ARC
  5
DC
330
1F
100
AcDbEntity
  8
0
  6
CONTINUOUS
 62
     7
100
AcDbCircle
 10
104.892332019
 20
175.6703085537
 30
0.0
 40
1.000000000000047
100
AcDbArc
 50
216.2500000026
 51
281.2500000026
  0
LINE
  5
DD
330
1F
100
AcDbEntity
  8
0
  6
CONTINUOUS
 62
     7
100
AcDbLine
 10
105.1324031522
 20
174.698464806
 30
0.0
 11
105.0874239972
 21
174.6895241093
 31
0.0
  0
ARC
  5
DE
330
1F
100
AcDbEntity
  8
0
  6
CONTINUOUS
 62
     7
100
AcDbCircle
 10
104.9373103204
 20
175.6792552941
 30
0.0
 40
0.9999999999999787
100
AcDbArc
 50
281.2500000026
 51
346.2500000026
  0
LINE
  5
DF
330
1F
100
AcDbEntity
  8
0
  6
CONTINUOUS
 62
     7
100
AcDbLine
 10
106.0847438147
 20
176.1611925911
 30
0.0
 11
105.9086493423
 21
175.4415708136
 31
0.0
  0
ARC
  5
E0
330
1F
100
AcDbEntity
  8
0
  6
CONTINUOUS
 62
     7
100
AcDbCircle
 10
106.6675483239
 20
176.0185811282
 30
0.0
 40
0.6000000000000092
100
AcDbArc
 50
97.156302536
 51
166.2500000026
  0
ARC
  5
E1
330
1F
100
AcDbEntity
  8
0
  6
CONTINUOUS
 62
     7
100
AcDbCircle
 10
109.784453515
 20
151.1934869283
 30
0.0
 40
25.62000000001153
100
AcDbArc
 50
94.0936974703
 51
97.156302536
  0
ARC
  5
E2
330
1F
100
AcDbEntity
  8
0
  6
CONTINUOUS
 62
     7
100
AcDbCircle
 10
107.9983326225
 20
176.1496519414
 30
0.0
 40
0.6000000000000097
100
AcDbArc
 50
25.0
 51
94.0936974703
  0
LINE
  5
E3
330
1F
100
AcDbEntity
  8
0
  6
CONTINUOUS
 62
     7
100
AcDbLine
 10
108.8552124074
 20
175.731785829
 30
0.0
 11
108.5421166589
 21
176.4032172512
 31
0.0
  0
ARC
  5
E4
330
1F
100
AcDbEntity
  8
0
  6
CONTINUOUS
 62
     7
100
AcDbCircle
 10
109.7615237741
 20
176.1543988475
 30
0.0
 40
1.000000000000028
100
AcDbArc
 50
205.0
 51
270.0000000039
  0
LINE
  5
E5
330
1F
100
AcDbEntity
  8
0
  6
CONTINUOUS
 62
     7
100
AcDbLine
 10
109.8073817065
 20
175.1543956351
 30
0.0
 11
109.7615233829
 21
175.1543956351
 31
0.0
  0
ARC
  5
E6
330
1F
100
AcDbEntity
  8
0
  6
CONTINUOUS
 62
     7
100
AcDbCircle
 10
109.8073832525
 20
176.1543988475
 30
0.0
 40
1.000000000000028
100
AcDbArc
 50
270.0000000039
 51
335.0
  0
LINE
  5
E7
330
1F
100
AcDbEntity
  8
0
  6
CONTINUOUS
 62
     7
100
AcDbLine
 10
111.0267884305
 20
176.4032172512
 30
0.0
 11
110.713692682
 21
175.731785829
 31
0.0
  0
ARC
  5
E8
330
1F
100
AcDbEntity
  8
0
  6
CONTINUOUS
 62
     7
100
AcDbCircle
 10
111.5705744042
 20
176.1496519416
 30
0.0
 40
0.5999999999999978
100
AcDbArc
 50
85.9063025371
 51
155.0
  0
ARC
  5
E9
330
1F
100
AcDbEntity
  8
0
  6
CONTINUOUS
 62
     7
100
AcDbCircle
 10
109.784453515
 20
151.1934869283
 30
0.0
 40
25.6200000000065
100
AcDbArc
 50
82.8436974632
 51
85.9063025371
  0
ARC
  5
EA
330
1F
100
AcDbEntity
  8
0
  6
CONTINUOUS
 62
     7
100
AcDbCircle
 10
112.9013587063
 20
176.0185811281
 30
0.0
 40
0.60000000000001
100
AcDbArc
 50
13.7499999966
 51
82.8436974632
  0
LINE
  5
EB
330
1F
100
AcDbEntity
  8
0
  6
CONTINUOUS
 62
     7
100
AcDbLine
 10
113.6602557471
 20
175.4415708136
 30
0.0
 11
113.4841612747
 21
176.1611925911
 31
0.0
  0
ARC
  5
EC
330
1F
100
AcDbEntity
  8
0
  6
CONTINUOUS
 62
     7
100
AcDbCircle
 10
114.6315967099
 20
175.679255294
 30
0.0
 40
1.00000000000003
100
AcDbArc
 50
193.7499999966
 51
258.7499999965
  0
LINE
  5
ED
330
1F
100
AcDbEntity
  8
0
  6
CONTINUOUS
 62
     7
100
AcDbLine
 10
114.4814810922
 20
174.6895241093
 30
0.0
 11
114.4365093877
 21
174.698464806
 31
0.0
  0
ARC
  5
EE
330
1F
100
AcDbEntity
  8
0
  6
CONTINUOUS
 62
     7
100
AcDbCircle
 10
114.6765750112
 20
175.6703085536
 30
0.0
 40
1.000000000000024
100
AcDbArc
 50
258.7499999965
 51
323.7499999966
  0
LINE
  5
EF
330
1F
100
AcDbEntity
  8
0
  6
CONTINUOUS
 62
     7
100
AcDbLine
 10
115.9210971763
 20
175.6764578175
 30
0.0
 11
115.4830179384
 21
175.0789957594
 31
0.0
  0
ARC
  5
F0
330
1F
100
AcDbEntity
  8
0
  6
CONTINUOUS
 62
     7
100
AcDbCircle
 10
116.4049608639
 20
175.3216713284
 30
0.0
 40
0.5999999999999828
100
AcDbArc
 50
74.65630253
 51
143.7499999966
  0
ARC
  5
F1
330
1F
100
AcDbEntity
  8
0
  6
CONTINUOUS
 62
     7
100
AcDbCircle
 10
109.784453515
 20
151.1934869283
 30
0.0
 40
25.62000000001247
100
AcDbArc
 50
71.5936974698
 51
74.65630253
  0
ARC
  5
F2
330
1F
100
AcDbEntity
  8
0
  6
CONTINUOUS
 62
     7
100
AcDbCircle
 10
117.6846038659
 20
174.9334958675
 30
0.0
 40
0.6000000000000298
100
AcDbArc
 50
2.5000000032
 51
71.5936974698
  0
LINE
  5
F3
330
1F
100
AcDbEntity
  8
0
  6
CONTINUOUS
 62
     7
100
AcDbLine
 10
118.3163470795
 20
174.2195116829
 30
0.0
 11
118.2840339115
 21
174.9596672606
 31
0.0
  0
ARC
  5
F4
330
1F
100
AcDbEntity
  8
0
  6
CONTINUOUS
 62
     7
100
AcDbCircle
 10
119.3153966452
 20
174.2631373951
 30
0.0
 40
1.0
100
AcDbArc
 50
182.5000000032
 51
247.5000000023
  0
LINE
  5
F5
330
1F
100
AcDbEntity
  8
0
  6
CONTINUOUS
 62
     7
100
AcDbLine
 10
118.9750827124
 20
173.3217018198
 30
0.0
 11
118.9327112606
 21
173.3392553877
 31
0.0
  0
ARC
  5
F6
330
1F
100
AcDbEntity
  8
0
  6
CONTINUOUS
 62
     7
100
AcDbCircle
 10
119.3577652786
 20
174.2455877325
 30
0.0
 40
1.000000000000021
100
AcDbArc
 50
247.5000000023
 51
312.5000000032
  0
LINE
  5
F7
330
1F
100
AcDbEntity
  8
0
  6
CONTINUOUS
 62
     7
100
AcDbLine
 10
120.5795726946
 20
174.0088241648
 30
0.0
 11
120.0333557298
 21
173.5083090615
 31
0.0
  0
ARC
  5
F8
330
1F
100
AcDbEntity
  8
0
  6
CONTINUOUS
 62
     7
100
AcDbCircle
 10
120.9849249333
 20
173.5664581214
 30
0.0
 40
0.6000000000000367
100
AcDbArc
 50
63.4063025365
 51
132.5000000032
  0
ARC
  5
F9
330
1F
100
AcDbEntity
  8
0
  6
CONTINUOUS
 62
     7
100
AcDbCircle
 10
109.784453515
 20
151.1934869283
 30
0.0
 40
25.62000000002536
100
AcDbArc
 50
60.3436974639
 51
63.4063025365
  0
ARC
  5
FA
330
1F
100
AcDbEntity
  8
0
  6
CONTINUOUS
 62
     7
100
AcDbCircle
 10
122.164250683
 20
172.9360953753
 30
0.0
 40
0.6000000000000384
100
AcDbArc
 50
351.2499999973
 51
60.3436974639
  0
LINE
  5
FB
330
1F
100
AcDbEntity
  8
0
  6
CONTINUOUS
 62
     7
100
AcDbLine
 10
122.6445681622
 20
172.1125917982
 30
0.0
 11
122.7572656443
 21
172.8448199581
 31
0.0
  0
ARC
  5
FC
330
1F
100
AcDbEntity
  8
0
  6
CONTINUOUS
 62
     7
100
AcDbCircle
 10
123.6329277859
 20
171.9604657644
 30
0.0
 40
0.9999999999999404
100
AcDbArc
 50
171.2499999973
 51
236.2499999973
  0
LINE
  5
FD
330
1F
100
AcDbEntity
  8
0
  6
CONTINUOUS
 62
     7
100
AcDbLine
 10
123.1154895594
 20
171.1035149645
 30
0.0
 11
123.0773574879
 21
171.1289959502
 31
0.0
  0
ARC
  5
FE
330
1F
100
AcDbEntity
  8
0
  6
CONTINUOUS
 62
     7
100
AcDbCircle
 10
123.6710585486
 20
171.9349876033
 30
0.0
 40
0.9999999999999838
100
AcDbArc
 50
236.2499999973
 51
301.2499999973
  0
LINE
  5
FF
330
1F
100
AcDbEntity
  8
0
  6
CONTINUOUS
 62
     7
100
AcDbLine
 10
124.8231924346
 20
171.4644061875
 30
0.0
 11
124.1898334792
 21
171.080075438
 31
0.0
  0
ARC
  5
100
330
1F
100
AcDbEntity
  8
0
  6
CONTINUOUS
 62
     7
100
AcDbCircle
 10
125.1344611722
 20
170.9514641761
 30
0.0
 40
0.5999999999999864
100
AcDbArc
 50
52.1563025306
 51
121.2499999973
  0
ARC
  5
101
330
1F
100
AcDbEntity
  8
0
  6
CONTINUOUS
 62
     7
100
AcDbCircle
 10
109.784453515
 20
151.1934869283
 30
0.0
 40
25.62000000003273
100
AcDbArc
 50
49.0936974666
 51
52.1563025306
  0
ARC
  5
102
330
1F
100
AcDbEntity
  8
0
  6
CONTINUOUS
 62
     7
100
AcDbCircle
 10
126.1681488342
 20
170.1031386355
 30
0.0
 40
0.5999999999999942
100
AcDbArc
 50
340.0
 51
49.0936974666
  0
LINE
  5
103
330
1F
100
AcDbEntity
  8
0
  6
CONTINUOUS
 62
     7
100
AcDbLine
 10
126.4785773327
 20
169.2017542671
 30
0.0
 11
126.7319715788
 21
169.897921617
 31
0.0
  0
ARC
  5
104
330
1F
100
AcDbEntity
  8
0
  6
CONTINUOUS
 62
     7
100
AcDbCircle
 10
127.4182698236
 20
168.8597307851
 30
0.0
 40
1.000000000000001
100
AcDbArc
 50
160.0
 51
225.0
  0
LINE
  5
105
330
1F
100
AcDbEntity
  8
0
  6
CONTINUOUS
 62
     7
100
AcDbLine
 10
126.7435944846
 20
168.1201981854
 30
0.0
 11
126.7111695578
 21
168.1526231121
 31
0.0
  0
ARC
  5
106
330
1F
100
AcDbEntity
  8
0
  6
CONTINUOUS
 62
     7
100
AcDbCircle
 10
127.4506973717
 20
168.8273032369
 30
0.0
 40
1.000000000000038
100
AcDbArc
 50
225.0
 51
290.0
  0
LINE
  5
107
330
1F
100
AcDbEntity
  8
0
  6
CONTINUOUS
 62
     7
100
AcDbLine
 10
128.4888929894
 20
168.1410002064
 30
0.0
 11
127.7927107384
 21
167.8876059603
 31
0.0
  0
ARC
  5
108
330
1F
100
AcDbEntity
  8
0
  6
CONTINUOUS
 62
     7
100
AcDbCircle
 10
128.6941052222
 20
167.5771822476
 30
0.0
 40
0.6000000000000761
100
AcDbArc
 50
40.9063025334
 51
110.0
  0
ARC
  5
109
330
1F
100
AcDbEntity
  8
0
  6
CONTINUOUS
 62
     7
100
AcDbCircle
 10
109.784453515
 20
151.1934869283
 30
0.0
 40
25.62000000002081
100
AcDbArc
 50
37.8436974666
 51
40.9063025334
  0
ARC
  5
10A
330
1F
100
AcDbEntity
  8
0
  6
CONTINUOUS
 62
     7
100
AcDbCircle
 10
129.5424307635
 20
166.5434945846
 30
0.0
 40
0.6000000000000358
100
AcDbArc
 50
328.75
 51
37.8436974666
  0
LINE
  5
10B
330
1F
100
AcDbEntity
  8
0
  6
CONTINUOUS
 62
     7
100
AcDbLine
 10
129.6710468104
 20
165.5988621067
 30
0.0
 11
130.0553775599
 21
166.2322359633
 31
0.0
  0
ARC
  5
10C
330
1F
100
AcDbEntity
  8
0
  6
CONTINUOUS
 62
     7
100
AcDbCircle
 10
130.5259541906
 20
165.080091961
 30
0.0
 40
1.000000000000026
100
AcDbArc
 50
148.75
 51
213.7500000007
  0
LINE
  5
10D
330
1F
100
AcDbEntity
  8
0
  6
CONTINUOUS
 62
     7
100
AcDbLine
 10
129.7199673226
 20
164.4863861155
 30
0.0
 11
129.694486337
 21
164.524518187
 31
0.0
  0
ARC
  5
10E
330
1F
100
AcDbEntity
  8
0
  6
CONTINUOUS
 62
     7
100
AcDbCircle
 10
130.5514323517
 20
165.0419611983
 30
0.0
 40
1.000000000000023
100
AcDbArc
 50
213.7500000007
 51
278.75
  0
LINE
  5
10F
330
1F
100
AcDbEntity
  8
0
  6
CONTINUOUS
 62
     7
100
AcDbLine
 10
131.4357913306
 20
164.1662942719
 30
0.0
 11
130.7035631707
 21
164.0535967898
 31
0.0
  0
ARC
  5
110
330
1F
100
AcDbEntity
  8
0
  6
CONTINUOUS
 62
     7
100
AcDbCircle
 10
131.5270619626
 20
163.5732840953
 30
0.0
 40
0.5999999999999781
100
AcDbArc
 50
29.6563025334
 51
98.75
  0
ARC
  5
111
330
1F
100
AcDbEntity
  8
0
  6
CONTINUOUS
 62
     7
100
AcDbCircle
 10
109.784453515
 20
151.1934869283
 30
0.0
 40
25.62000000000684
100
AcDbArc
 50
26.5936974666
 51
29.6563025334
  0
ARC
  5
112
330
1F
100
AcDbEntity
  8
0
  6
CONTINUOUS
 62
     7
100
AcDbCircle
 10
132.1574247074
 20
162.3939583479
 30
0.0
 40
0.5999999999999939
100
AcDbArc
 50
317.5
 51
26.5936974666
  0
LINE
  5
113
330
1F
100
AcDbEntity
  8
0
  6
CONTINUOUS
 62
     7
100
AcDbLine
 10
132.0992804339
 20
161.442391808
 30
0.0
 11
132.5997955372
 21
161.9886087727
 31
0.0
  0
ARC
  5
114
330
1F
100
AcDbEntity
  8
0
  6
CONTINUOUS
 62
     7
100
AcDbCircle
 10
132.8365543186
 20
160.7667986932
 30
0.0
 40
0.9999999999999312
100
AcDbArc
 50
137.5
 51
202.499999999
  0
LINE
  5
115
330
1F
100
AcDbEntity
  8
0
  6
CONTINUOUS
 62
     7
100
AcDbLine
 10
131.9302267602
 20
160.3417473387
 30
0.0
 11
131.9126731923
 21
160.38411134
 31
0.0
  0
ARC
  5
116
330
1F
100
AcDbEntity
  8
0
  6
CONTINUOUS
 62
     7
100
AcDbCircle
 10
132.8541039812
 20
160.7244300598
 30
0.0
 40
0.9999999999996936
100
AcDbArc
 50
202.499999999
 51
267.5
  0
LINE
  5
117
330
1F
100
AcDbEntity
  8
0
  6
CONTINUOUS
 62
     7
100
AcDbLine
 10
133.550638633
 20
159.6930699896
 30
0.0
 11
132.8104830554
 21
159.7253757071
 31
0.0
  0
ARC
  5
118
330
1F
100
AcDbEntity
  8
0
  6
CONTINUOUS
 62
     7
100
AcDbCircle
 10
133.5244624537
 20
159.0936372805
 30
0.0
 40
0.6000000000007167
100
AcDbArc
 50
18.4063025335
 51
87.5
  0
ARC
  5
119
330
1F
100
AcDbEntity
  8
0
  6
CONTINUOUS
 62
     7
100
AcDbCircle
 10
109.784453515
 20
151.1934869283
 30
0.0
 40
25.62000000000173
100
AcDbArc
 50
15.3436974666
 51
18.4063025334
  0
ARC
  5
11A
330
1F
100
AcDbEntity
  8
0
  6
CONTINUOUS
 62
     7
100
AcDbCircle
 10
133.9126379154
 20
157.8139942758
 30
0.0
 40
0.6000000000000131
100
AcDbArc
 50
306.25
 51
15.3436974666
  0
LINE
  5
11B
330
1F
100
AcDbEntity
  8
0
  6
CONTINUOUS
 62
     7
100
AcDbLine
 10
133.6699671319
 20
156.8920540165
 30
0.0
 11
134.2674291899
 21
157.3301332545
 31
0.0
  0
ARC
  5
11C
330
1F
100
AcDbEntity
  8
0
  6
CONTINUOUS
 62
     7
100
AcDbCircle
 10
134.2612751405
 20
156.0856084231
 30
0.0
 40
0.9999999999999521
100
AcDbArc
 50
126.25
 51
191.25
  0
LINE
  5
11D
330
1F
100
AcDbEntity
  8
0
  6
CONTINUOUS
 62
     7
100
AcDbLine
 10
133.2894361785
 20
155.8455454659
 30
0.0
 11
133.2804954817
 21
155.8905171704
 31
0.0
  0
ARC
  5
11E
330
1F
100
AcDbEntity
  8
0
  6
CONTINUOUS
 62
     7
100
AcDbCircle
 10
134.270221881
 20
156.0406301218
 30
0.0
 40
1.000000000000021
100
AcDbArc
 50
191.25
 51
256.25
  0
LINE
  5
11F
330
1F
100
AcDbEntity
  8
0
  6
CONTINUOUS
 62
     7
100
AcDbLine
 10
134.7521639636
 20
154.8931973528
 30
0.0
 11
134.032542186
 21
155.0692843746
 31
0.0
  0
ARC
  5
120
330
1F
100
AcDbEntity
  8
0
  6
CONTINUOUS
 62
     7
100
AcDbCircle
 10
134.6095477141
 20
154.3103921184
 30
0.0
 40
0.6000000000000424
100
AcDbArc
 50
7.1563025341
 51
76.25
  0
ARC
  5
121
330
1F
100
AcDbEntity
  8
0
  6
CONTINUOUS
 62
     7
100
AcDbCircle
 10
109.784453515
 20
151.1934869283
 30
0.0
 40
25.61999999917796
100
AcDbArc
 50
4.0936974659
 51
7.1563025341
  0
ARC
  5
122
330
1F
100
AcDbEntity
  8
0
  6
CONTINUOUS
 62
     7
100
AcDbCircle
 10
134.7406185273
 20
152.9796078188
 30
0.0
 40
0.5999999999999573
100
AcDbArc
 50
295.0
 51
4.0936974659
  0
LINE
  5
123
330
1F
100
AcDbEntity
  8
0
  6
CONTINUOUS
 62
     7
100
AcDbLine
 10
134.3227423003
 20
152.1227287602
 30
0.0
 11
134.9941886237
 21
152.435817058
 31
0.0
  0
ARC
  5
124
330
1F
100
AcDbEntity
  8
0
  6
CONTINUOUS
 62
     7
100
AcDbCircle
 10
134.7453654342
 20
151.2164166675
 30
0.0
 40
1.000000000000025
100
AcDbArc
 50
115.0
 51
180.0
  0
LINE
  5
125
330
1F
100
AcDbEntity
  8
0
  6
CONTINUOUS
 62
     7
100
AcDbLine
 10
133.7453670075
 20
151.1705594611
 30
0.0
 11
133.7453670075
 21
151.216410334
 31
0.0
  0
ARC
  5
126
330
1F
100
AcDbEntity
  8
0
  6
CONTINUOUS
 62
     7
100
AcDbCircle
 10
134.7453654342
 20
151.1705571891
 30
0.0
 40
1.000000000000051
100
AcDbArc
 50
180.0
 51
245.0
  0
LINE
  5
127
330
1F
100
AcDbEntity
  8
0
  6
CONTINUOUS
 62
     7
100
AcDbLine
 10
134.9941886237
 20
149.9511527371
 30
0.0
 11
134.3227423003
 21
150.2642559361
 31
0.0
  0
ARC
  5
128
330
1F
100
AcDbEntity
  8
0
  6
CONTINUOUS
 62
     7
100
AcDbCircle
 10
134.7406185257
 20
149.4073660385
 30
0.0
 40
0.5999999999999512
100
AcDbArc
 50
355.9063025355
 51
65.0
  0
ARC
  5
129
330
1F
100
AcDbEntity
  8
0
  6
CONTINUOUS
 62
     7
100
AcDbCircle
 10
109.784453515
 20
151.1934869283
 30
0.0
 40
25.61999999756068
100
AcDbArc
 50
352.8436974634
 51
355.9063025355
  0
ARC
  5
12A
330
1F
100
AcDbEntity
  8
0
  6
CONTINUOUS
 62
     7
100
AcDbCircle
 10
134.6095477123
 20
148.0765817374
 30
0.0
 40
0.6000000000001818
100
AcDbArc
 50
283.749999999
 51
352.8436974634
  0
LINE
  5
12B
330
1F
100
AcDbEntity
  8
0
  6
CONTINUOUS
 62
     7
100
AcDbLine
 10
134.032542186
 20
147.3176854204
 30
0.0
 11
134.7521639636
 21
147.4937724423
 31
0.0
  0
ARC
  5
12C
330
1F
100
AcDbEntity
  8
0
  6
CONTINUOUS
 62
     7
100
AcDbCircle
 10
134.2702218809
 20
146.3463437344
 30
0.0
 40
0.9999999999989007
100
AcDbArc
 50
103.7499999989
 51
168.7499999989
  0
LINE
  5
12D
330
1F
100
AcDbEntity
  8
0
  6
CONTINUOUS
 62
     7
100
AcDbLine
 10
133.2804954817
 20
146.4964526247
 30
0.0
 11
133.2894361785
 21
146.5414392304
 31
0.0
  0
ARC
  5
12E
330
1F
100
AcDbEntity
  8
0
  6
CONTINUOUS
 62
     7
100
AcDbCircle
 10
134.2612751405
 20
146.3013654331
 30
0.0
 40
0.9999999999993154
100
AcDbArc
 50
168.7499999989
 51
233.7499999991
  0
LINE
  5
12F
330
1F
100
AcDbEntity
  8
0
  6
CONTINUOUS
 62
     7
100
AcDbLine
 10
134.2674291899
 20
145.0568514418
 30
0.0
 11
133.6699671319
 21
145.4949157786
 31
0.0
  0
ARC
  5
130
330
1F
100
AcDbEntity
  8
0
  6
CONTINUOUS
 62
     7
100
AcDbCircle
 10
133.9126379126
 20
144.5729795823
 30
0.0
 40
0.5999999999999941
100
AcDbArc
 50
344.6563025351
 51
53.749999999
  0
ARC
  5
131
330
1F
100
AcDbEntity
  8
0
  6
CONTINUOUS
 62
     7
100
AcDbCircle
 10
109.784453515
 20
151.1934869283
 30
0.0
 40
25.61999999692665
100
AcDbArc
 50
341.5936974634
 51
344.6563025351
  0
ARC
  5
132
330
1F
100
AcDbEntity
  8
0
  6
CONTINUOUS
 62
     7
100
AcDbCircle
 10
133.5244624504
 20
143.2933365758
 30
0.0
 40
0.5999999999999922
100
AcDbArc
 50
272.4999999995
 51
341.5936974634
  0
LINE
  5
133
330
1F
100
AcDbEntity
  8
0
  6
CONTINUOUS
 62
     7
100
AcDbLine
 10
132.8104830554
 20
142.661594088
 30
0.0
 11
133.550638633
 21
142.6939147066
 31
0.0
  0
ARC
  5
134
330
1F
100
AcDbEntity
  8
0
  6
CONTINUOUS
 62
     7
100
AcDbCircle
 10
132.8541039811
 20
141.6625437966
 30
0.0
 40
0.9999999999995649
100
AcDbArc
 50
92.4999999995
 51
157.4999999995
  0
LINE
  5
135
330
1F
100
AcDbEntity
  8
0
  6
CONTINUOUS
 62
     7
100
AcDbLine
 10
131.9126731923
 20
142.0028584551
 30
0.0
 11
131.9302267602
 21
142.0452224564
 31
0.0
  0
ARC
  5
136
330
1F
100
AcDbEntity
  8
0
  6
CONTINUOUS
 62
     7
100
AcDbCircle
 10
132.8365543185
 20
141.6201751632
 30
0.0
 40
0.9999999999997983
100
AcDbArc
 50
157.4999999995
 51
222.4999999995
  0
LINE
  5
137
330
1F
100
AcDbEntity
  8
0
  6
CONTINUOUS
 62
     7
100
AcDbLine
 10
132.5997955372
 20
140.3983759236
 30
0.0
 11
132.0992804339
 21
140.9445779871
 31
0.0
  0
ARC
  5
138
330
1F
100
AcDbEntity
  8
0
  6
CONTINUOUS
 62
     7
100
AcDbCircle
 10
132.1574247055
 20
139.9930155105
 30
0.0
 40
0.5999999999999721
100
AcDbArc
 50
333.4063025351
 51
42.4999999995
  0
ARC
  5
139
330
1F
100
AcDbEntity
  8
0
  6
CONTINUOUS
 62
     7
100
AcDbCircle
 10
109.784453515
 20
151.1934869283
 30
0.0
 40
25.61999999748561
100
AcDbArc
 50
330.3436974637
 51
333.4063025351
  0
ARC
  5
13A
330
1F
100
AcDbEntity
  8
0
  6
CONTINUOUS
 62
     7
100
AcDbCircle
 10
131.5270619597
 20
138.8136897615
 30
0.0
 40
0.6000000000000694
100
AcDbArc
 50
261.2499999993
 51
330.3436974637
  0
LINE
  5
13B
330
1F
100
AcDbEntity
  8
0
  6
CONTINUOUS
 62
     7
100
AcDbLine
 10
130.7035631707
 20
138.3333730053
 30
0.0
 11
131.4357913306
 21
138.2206755232
 31
0.0
  0
ARC
  5
13C
330
1F
100
AcDbEntity
  8
0
  6
CONTINUOUS
 62
     7
100
AcDbCircle
 10
130.5514323515
 20
137.3450126581
 30
0.0
 40
0.9999999999999066
100
AcDbArc
 50
81.2499999993
 51
146.2499999993
  0
LINE
  5
13D
330
1F
100
AcDbEntity
  8
0
  6
CONTINUOUS
 62
     7
100
AcDbLine
 10
129.694486337
 20
137.8624516081
 30
0.0
 11
129.7199673226
 21
137.9005836796
 31
0.0
  0
ARC
  5
13E
330
1F
100
AcDbEntity
  8
0
  6
CONTINUOUS
 62
     7
100
AcDbCircle
 10
130.5259541904
 20
137.3068818954
 30
0.0
 40
0.99999999999995
100
AcDbArc
 50
146.2499999993
 51
211.2499999993
  0
LINE
  5
13F
330
1F
100
AcDbEntity
  8
0
  6
CONTINUOUS
 62
     7
100
AcDbLine
 10
130.0553775599
 20
136.154748733
 30
0.0
 11
129.6710468104
 21
136.7881076884
 31
0.0
  0
ARC
  5
140
330
1F
100
AcDbEntity
  8
0
  6
CONTINUOUS
 62
     7
100
AcDbCircle
 10
129.5424307625
 20
135.8434792731
 30
0.0
 40
0.6000000000000867
100
AcDbArc
 50
322.156302534
 51
31.2499999993
  0
ENDSEC
  0
SECTION
  2
OBJECTS
  0
DICTIONARY
  5
C
330
0
100
AcDbDictionary
  3
ACAD_GROUP
350
D
  3
ACAD_LAYOUT
350
1A
  3
ACAD_MLEADERSTYLE
350
143
  3
ACAD_MLINESTYLE
350
17
  3
ACAD_PLOTSETTINGS
350
19
  3
ACAD_VISUALSTYLE
350
2A
  3
ACDBVARIABLEDICTIONARY
350
141
1001
ACAD
1000
TREAT_AS_HARD
1070
     0
  0
DICTIONARY
  5
D
102
{ACAD_REACTORS
330
C
102
}
330
C
100
AcDbDictionary
1001
ACAD
1000
TREAT_AS_HARD
1070
     0
  0
DICTIONARY
  5
1A
102
{ACAD_REACTORS
330
C
102
}
330
C
100
AcDbDictionary
1001
ACAD
1000
TREAT_AS_HARD
1070
     0
  0
DICTIONARY
  5
143
102
{ACAD_REACTORS
330
C
102
}
330
C
100
AcDbDictionary
1001
ACAD
1000
TREAT_AS_HARD
1070
     0
  0
DICTIONARY
  5
17
102
{ACAD_REACTORS
330
C
102
}
330
C
100
AcDbDictionary
  3
STANDARD
350
18
1001
ACAD
1000
TREAT_AS_HARD
1070
     0
  0
DICTIONARY
  5
19
102
{ACAD_REACTORS
330
C
102
}
330
C
100
AcDbDictionary
1001
ACAD
1000
TREAT_AS_HARD
1070
     0
  0
DICTIONARY
  5
2A
102
{ACAD_REACTORS
330
C
102
}
330
C
100
AcDbDictionary
  3
2DWIREFRAME
350
2F
  3
3D_HIDDEN
350
31
  3
3DWIREFRAME
350
30
  3
BASIC
350
32
  3
BRIGHTEN
350
36
  3
COLORCHANGE
350
3A
  3
CONCEPTUAL
350
34
  3
DIM
350
35
  3
FACEPATTERN
350
39
  3
FLAT
350
2B
  3
FLATWITHEDGES
350
2C
  3
GOURAUD
350
2D
  3
GOURAUDWITHEDGES
350
2E
  3
LINEPATTERN
350
38
  3
REALISTIC
350
33
  3
THICKEN
350
37
1001
ACAD
1000
TREAT_AS_HARD
1070
     0
  0
DICTIONARY
  5
141
102
{ACAD_REACTORS
330
C
102
}
330
C
100
AcDbDictionary
  3
DIMASSOC
350
146
  3
HIDETEXT
350
147
  3
PSOLHEIGHT
350
145
  3
PSOLWIDTH
350
144
1001
ACAD
1000
TREAT_AS_HARD
1070
     0
  0
MLINESTYLE
  5
18
102
{ACAD_REACTORS
330
17
102
}
330
17
100
AcDbMlineStyle
  2
Standard
 70
     0
  3

 62
   256
 51
90.0
 52
90.0
 71
     2
 49
0.5
 62
   256
  6
BYLAYER
 49
-0.5
 62
   256
  6
BYLAYER
  0
ACAD_PROXY_OBJECT
  5
2F
102
{ACAD_REACTORS
330
2A
102
}
330
2A
100
AcDbZombieObject
 90
      499
 91
      501
 93
      436
310
42CC9915DA5C99599C985B595049028333333333333E3BF0000000000000FB0107901411070040501600405405064090741402480A0340
1001
ACAD
1000
AcDbSavedByObjectVersion
1070
     0
  0
ACAD_PROXY_OBJECT
  5
31
102
{ACAD_REACTORS
330
2A
102
}
330
2A
100
AcDbZombieObject
 90
      499
 91
      501
 93
      500
310
424CD108121A5919195B90640502408333333333333E3BF0000000000000FB01079024090700405020000000000001110200405405064090740C02480A0340
1001
ACAD
1000
AcDbSavedByObjectVersion
1070
     0
  0
ACAD_PROXY_OBJECT
  5
30
102
{ACAD_REACTORS
330
2A
102
}
330
2A
100
AcDbZombieObject
 90
      499
 91
      501
 93
      436
310
42CCD915DA5C99599C985B595059028333333333333E3BF0000000000000FB0107901411070040501600405405064090741402480A0340
1001
ACAD
1000
AcDbSavedByObjectVersion
1070
     0
  0
ACAD_PROXY_OBJECT
  5
32
102
{ACAD_REACTORS
330
2A
102
}
330
2A
100
AcDbZombieObject
 90
      499
 91
      501
 93
      388
310
4150985CDA58D07406404333333333333E3BF0000000000000FB0107A41107004050150841D405064090741402480A0350
1001
ACAD
1000
AcDbSavedByObjectVersion
1070
     0
  0
ACAD_PROXY_OBJECT
  5
36
102
{ACAD_REACTORS
330
2A
102
}
330
2A
100
AcDbZombieObject
 90
      499
 91
      501
 93
      428
310
42109C9A59DA1D195B90C409028333333333333E3BF0000000000000FB010790141107004050150841D405064090741402480A029950
1001
ACAD
1000
AcDbSavedByObjectVersion
1070
     0
  0
ACAD_PROXY_OBJECT
  5
3A
102
{ACAD_REACTORS
330
2A
102
}
330
2A
100
AcDbZombieObject
 90
      499
 91
      501
 93
      452
310
42D0DBDB1BDC90DA185B99D95104090240C333333333333E3BF0000000000000FB0108901411070040501508421405064090741402480A0350
1001
ACAD
1000
AcDbSavedByObjectVersion
1070
     0
  0
ACAD_PROXY_OBJECT
  5
34
102
{ACAD_REACTORS
330
2A
102
}
330
2A
100
AcDbZombieObject
 90
      499
 91
      501
 93
      500
310
4290DBDB98D95C1D1D585B10940D028333333333333E3BF0000000000000FB0107902409070040501000000000000111010841D405064090740C02480A0340
1001
ACAD
1000
AcDbSavedByObjectVersion
1070
     0
  0
ACAD_PROXY_OBJECT
  5
35
102
{ACAD_REACTORS
330
2A
102
}
330
2A
100
AcDbZombieObject
 90
      499
 91
      501
 93
      412
310
40D11A5B50B409028333333333333E3BF0000000000000FB010790141107004050150841D405064090741402480A02677FFFFFD0
1001
ACAD
1000
AcDbSavedByObjectVersion
1070
     0
  0
ACAD_PROXY_OBJECT
  5
39
102
{ACAD_REACTORS
330
2A
102
}
330
2A
100
AcDbZombieObject
 90
      499
 91
      501
 93
      444
310
42D19858D95C185D1D195C9B90F409028333333333333E3BF0000000000000FB010790141107004050150841D405064090741402480A0350
1001
ACAD
1000
AcDbSavedByObjectVersion
1070
     0
  0
ACAD_PROXY_OBJECT
  5
2B
102
{ACAD_REACTORS
330
2A
102
}
330
2A
100
AcDbZombieObject
 90
      499
 91
      501
 93
      388
310
41119B185D240901404333333333333E3BF0000000000000F9010740A41107004050150841D405064090741402480A1B50
1001
ACAD
1000
AcDbSavedByObjectVersion
1070
     0
  0
ACAD_PROXY_OBJECT
  5
2C
102
{ACAD_REACTORS
330
2A
102
}
330
2A
100
AcDbZombieObject
 90
      499
 91
      501
 93
      476
310
43519B185D15DA5D1A115919D95CD0140901404333333333333E3BF0000000000000F9010740901411070040501600405405064090741402480A1B50
1001
ACAD
1000
AcDbSavedByObjectVersion
1070
     0
  0
ACAD_PROXY_OBJECT
  5
2D
102
{ACAD_REACTORS
330
2A
102
}
330
2A
100
AcDbZombieObject
 90
      499
 91
      501
 93
      412
310
41D1DBDD5C985D5910240902404333333333333E3BF0000000000000F9010740A411070040501641D405064090741402480A1B50
1001
ACAD
1000
AcDbSavedByObjectVersion
1070
     0
  0
ACAD_PROXY_OBJECT
  5
2E
102
{ACAD_REACTORS
330
2A
102
}
330
2A
100
AcDbZombieObject
 90
      499
 91
      501
 93
      500
310
4411DBDD5C985D5915DA5D1A115919D95CD0340902404333333333333E3BF0000000000000F9010740901411070040501600405405064090741402480A1B50
1001
ACAD
1000
AcDbSavedByObjectVersion
1070
     0
  0
ACAD_PROXY_OBJECT
  5
38
102
{ACAD_REACTORS
330
2A
102
}
330
2A
100
AcDbZombieObject
 90
      499
 91
      501
 93
      444
310
42D31A5B995C185D1D195C9B90E409028333333333333E3BF0000000000000FB010790141107004050750841D405064090741402483A0350
1001
ACAD
1000
AcDbSavedByObjectVersion
1070
     0
  0
ACAD_PROXY_OBJECT
  5
33
102
{ACAD_REACTORS
330
2A
102
}
330
2A
100
AcDbZombieObject
 90
      499
 91
      501
 93
      420
310
425499585B1A5CDD1A58D08409028333333333333E3BF0000000000000FB01079019070040501508421405064090741402480A1B40
1001
ACAD
1000
AcDbSavedByObjectVersion
1070
     0
  0
ACAD_PROXY_OBJECT
  5
37
102
{ACAD_REACTORS
330
2A
102
}
330
2A
100
AcDbZombieObject
 90
      499
 91
      501
 93
      412
310
41D51A1A58DAD95B90D409028333333333333E3BF0000000000000FB010790141107004050150C41D405064090741402480A0350
1001
ACAD
1000
AcDbSavedByObjectVersion
1070
     0
  0
DICTIONARYVAR
  5
146
102
{ACAD_REACTORS
330
141
102
}
330
141
100
DictionaryVariables
280
     0
  1
2
  0
DICTIONARYVAR
  5
147
102
{ACAD_REACTORS
330
141
102
}
330
141
100
DictionaryVariables
280
     0
  1
1
  0
DICTIONARYVAR
  5
145
102
{ACAD_REACTORS
330
141
102
}
330
141
100
DictionaryVariables
280
     0
  1
80.000000
  0
DICTIONARYVAR
  5
144
102
{ACAD_REACTORS
330
141
102
}
330
141
100
DictionaryVariables
280
     0
  1
5.000000
  0
ENDSEC
  0
EOF
