  0
SECTION
  2
HEADER
  9
$ACADVER
  1
AC1021
  9
$ACADMAINTVER
 70
    25
  9
$DWGCODEPAGE
  3
ANSI_1251
  9
$INSBASE
 10
0.0
 20
0.0
 30
0.0
  9
$EXTMIN
 10
1.000000000000000E+20
 20
1.000000000000000E+20
 30
1.000000000000000E+20
  9
$EXTMAX
 10
-1.000000000000000E+20
 20
-1.000000000000000E+20
 30
-1.000000000000000E+20
  9
$LIMMIN
 10
0.0
 20
0.0
  9
$LIMMAX
 10
420.0
 20
297.0
  9
$ORTHOMODE
 70
     0
  9
$REGENMODE
 70
     1
  9
$FILLMODE
 70
     1
  9
$QTEXTMODE
 70
     0
  9
$MIRRTEXT
 70
     1
  9
$LTSCALE
 40
1.0
  9
$ATTMODE
 70
     1
  9
$TEXTSIZE
 40
2.5
  9
$TRACEWID
 40
1.0
  9
$TEXTSTYLE
  7
Standard
  9
$CLAYER
  8
0
  9
$CELTYPE
  6
ByLayer
  9
$CECOLOR
 62
   256
  9
$CELTSCALE
 40
1.0
  9
$DISPSILH
 70
     0
  9
$DIMSCALE
 40
1.0
  9
$DIMASZ
 40
2.5
  9
$DIMEXO
 40
0.625
  9
$DIMDLI
 40
3.75
  9
$DIMRND
 40
0.0
  9
$DIMDLE
 40
0.0
  9
$DIMEXE
 40
1.25
  9
$DIMTP
 40
0.0
  9
$DIMTM
 40
0.0
  9
$DIMTXT
 40
2.5
  9
$DIMCEN
 40
2.5
  9
$DIMTSZ
 40
0.0
  9
$DIMTOL
 70
     0
  9
$DIMLIM
 70
     0
  9
$DIMTIH
 70
     0
  9
$DIMTOH
 70
     0
  9
$DIMSE1
 70
     0
  9
$DIMSE2
 70
     0
  9
$DIMTAD
 70
     1
  9
$DIMZIN
 70
     8
  9
$DIMBLK
  1

  9
$DIMASO
 70
     1
  9
$DIMSHO
 70
     1
  9
$DIMPOST
  1

  9
$DIMAPOST
  1

  9
$DIMALT
 70
     0
  9
$DIMALTD
 70
     3
  9
$DIMALTF
 40
0.03937007874016
  9
$DIMLFAC
 40
1.0
  9
$DIMTOFL
 70
     1
  9
$DIMTVP
 40
0.0
  9
$DIMTIX
 70
     0
  9
$DIMSOXD
 70
     0
  9
$DIMSAH
 70
     0
  9
$DIMBLK1
  1

  9
$DIMBLK2
  1

  9
$DIMSTYLE
  2
ISO-25
  9
$DIMCLRD
 70
     0
  9
$DIMCLRE
 70
     0
  9
$DIMCLRT
 70
     0
  9
$DIMTFAC
 40
1.0
  9
$DIMGAP
 40
0.625
  9
$DIMJUST
 70
     0
  9
$DIMSD1
 70
     0
  9
$DIMSD2
 70
     0
  9
$DIMTOLJ
 70
     0
  9
$DIMTZIN
 70
     8
  9
$DIMALTZ
 70
     0
  9
$DIMALTTZ
 70
     0
  9
$DIMUPT
 70
     0
  9
$DIMDEC
 70
     2
  9
$DIMTDEC
 70
     2
  9
$DIMALTU
 70
     2
  9
$DIMALTTD
 70
     3
  9
$DIMTXSTY
  7
Standard
  9
$DIMAUNIT
 70
     0
  9
$DIMADEC
 70
     0
  9
$DIMALTRND
 40
0.0
  9
$DIMAZIN
 70
     0
  9
$DIMDSEP
 70
    44
  9
$DIMATFIT
 70
     3
  9
$DIMFRAC
 70
     0
  9
$DIMLDRBLK
  1

  9
$DIMLUNIT
 70
     2
  9
$DIMLWD
 70
    -2
  9
$DIMLWE
 70
    -2
  9
$DIMTMOVE
 70
     0
  9
$DIMFXL
 40
1.0
  9
$DIMFXLON
 70
     0
  9
$DIMJOGANG
 40
0.7853981633974483
  9
$DIMTFILL
 70
     0
  9
$DIMTFILLCLR
 70
     0
  9
$DIMARCSYM
 70
     0
  9
$DIMLTYPE
  6

  9
$DIMLTEX1
  6

  9
$DIMLTEX2
  6

  9
$LUNITS
 70
     2
  9
$LUPREC
 70
     4
  9
$SKETCHINC
 40
1.0
  9
$FILLETRAD
 40
10.0
  9
$AUNITS
 70
     0
  9
$AUPREC
 70
     0
  9
$MENU
  1
.
  9
$ELEVATION
 40
0.0
  9
$PELEVATION
 40
0.0
  9
$THICKNESS
 40
0.0
  9
$LIMCHECK
 70
     0
  9
$CHAMFERA
 40
10.0
  9
$CHAMFERB
 40
10.0
  9
$CHAMFERC
 40
20.0
  9
$CHAMFERD
 40
0.0
  9
$SKPOLY
 70
     0
  9
$TDCREATE
 40
2456566.619282662
  9
$TDUCREATE
 40
2456566.369282662
  9
$TDUPDATE
 40
2456566.619282674
  9
$TDUUPDATE
 40
2456566.369282674
  9
$TDINDWG
 40
0.0000000116
  9
$TDUSRTIMER
 40
0.0000000116
  9
$USRTIMER
 70
     1
  9
$ANGBASE
 50
0.0
  9
$ANGDIR
 70
     0
  9
$PDMODE
 70
     0
  9
$PDSIZE
 40
0.0
  9
$PLINEWID
 40
0.0
  9
$SPLFRAME
 70
     0
  9
$SPLINETYPE
 70
     6
  9
$SPLINESEGS
 70
     8
  9
$HANDSEED
  5
AC
  9
$SURFTAB1
 70
     6
  9
$SURFTAB2
 70
     6
  9
$SURFTYPE
 70
     6
  9
$SURFU
 70
     6
  9
$SURFV
 70
     6
  9
$UCSBASE
  2

  9
$UCSNAME
  2

  9
$UCSORG
 10
0.0
 20
0.0
 30
0.0
  9
$UCSXDIR
 10
1.0
 20
0.0
 30
0.0
  9
$UCSYDIR
 10
0.0
 20
1.0
 30
0.0
  9
$UCSORTHOREF
  2

  9
$UCSORTHOVIEW
 70
     0
  9
$UCSORGTOP
 10
0.0
 20
0.0
 30
0.0
  9
$UCSORGBOTTOM
 10
0.0
 20
0.0
 30
0.0
  9
$UCSORGLEFT
 10
0.0
 20
0.0
 30
0.0
  9
$UCSORGRIGHT
 10
0.0
 20
0.0
 30
0.0
  9
$UCSORGFRONT
 10
0.0
 20
0.0
 30
0.0
  9
$UCSORGBACK
 10
0.0
 20
0.0
 30
0.0
  9
$PUCSBASE
  2

  9
$PUCSNAME
  2

  9
$PUCSORG
 10
0.0
 20
0.0
 30
0.0
  9
$PUCSXDIR
 10
1.0
 20
0.0
 30
0.0
  9
$PUCSYDIR
 10
0.0
 20
1.0
 30
0.0
  9
$PUCSORTHOREF
  2

  9
$PUCSORTHOVIEW
 70
     0
  9
$PUCSORGTOP
 10
0.0
 20
0.0
 30
0.0
  9
$PUCSORGBOTTOM
 10
0.0
 20
0.0
 30
0.0
  9
$PUCSORGLEFT
 10
0.0
 20
0.0
 30
0.0
  9
$PUCSORGRIGHT
 10
0.0
 20
0.0
 30
0.0
  9
$PUCSORGFRONT
 10
0.0
 20
0.0
 30
0.0
  9
$PUCSORGBACK
 10
0.0
 20
0.0
 30
0.0
  9
$USERI1
 70
     0
  9
$USERI2
 70
     0
  9
$USERI3
 70
     0
  9
$USERI4
 70
     0
  9
$USERI5
 70
     0
  9
$USERR1
 40
0.0
  9
$USERR2
 40
0.0
  9
$USERR3
 40
0.0
  9
$USERR4
 40
0.0
  9
$USERR5
 40
0.0
  9
$WORLDVIEW
 70
     1
  9
$SHADEDGE
 70
     3
  9
$SHADEDIF
 70
    70
  9
$TILEMODE
 70
     1
  9
$MAXACTVP
 70
    64
  9
$PINSBASE
 10
0.0
 20
0.0
 30
0.0
  9
$PLIMCHECK
 70
     0
  9
$PEXTMIN
 10
1.000000000000000E+20
 20
1.000000000000000E+20
 30
1.000000000000000E+20
  9
$PEXTMAX
 10
-1.000000000000000E+20
 20
-1.000000000000000E+20
 30
-1.000000000000000E+20
  9
$PLIMMIN
 10
0.0
 20
0.0
  9
$PLIMMAX
 10
420.0
 20
297.0
  9
$UNITMODE
 70
     0
  9
$VISRETAIN
 70
     1
  9
$PLINEGEN
 70
     0
  9
$PSLTSCALE
 70
     1
  9
$TREEDEPTH
 70
  3020
  9
$CMLSTYLE
  2
Standard
  9
$CMLJUST
 70
     0
  9
$CMLSCALE
 40
20.0
  9
$PROXYGRAPHICS
 70
     1
  9
$MEASUREMENT
 70
     1
  9
$CELWEIGHT
370
    -1
  9
$ENDCAPS
280
     0
  9
$JOINSTYLE
280
     0
  9
$LWDISPLAY
290
     0
  9
$INSUNITS
 70
     4
  9
$HYPERLINKBASE
  1

  9
$STYLESHEET
  1

  9
$XEDIT
290
     1
  9
$CEPSNTYPE
380
     0
  9
$PSTYLEMODE
290
     1
  9
$FINGERPRINTGUID
  2
{79557302-C0F2-438D-8244-72C725D2FAEA}
  9
$VERSIONGUID
  2
{FAEB1C32-E019-11D5-929B-00C0DF256EC4}
  9
$EXTNAMES
290
     1
  9
$PSVPSCALE
 40
0.0
  9
$OLESTARTUP
290
     0
  9
$SORTENTS
280
   127
  9
$INDEXCTL
280
     0
  9
$HIDETEXT
280
     1
  9
$XCLIPFRAME
290
     0
  9
$HALOGAP
280
     0
  9
$OBSCOLOR
 70
   257
  9
$OBSLTYPE
280
     0
  9
$INTERSECTIONDISPLAY
280
     0
  9
$INTERSECTIONCOLOR
 70
   257
  9
$DIMASSOC
280
     2
  9
$PROJECTNAME
  1

  9
$CAMERADISPLAY
290
     0
  9
$LENSLENGTH
 40
50.0
  9
$CAMERAHEIGHT
 40
0.0
  9
$STEPSPERSEC
 40
2.0
  9
$STEPSIZE
 40
6.0
  9
$3DDWFPREC
 40
2.0
  9
$PSOLWIDTH
 40
5.0
  9
$PSOLHEIGHT
 40
80.0
  9
$LOFTANG1
 40
1.570796326794897
  9
$LOFTANG2
 40
1.570796326794897
  9
$LOFTMAG1
 40
0.0
  9
$LOFTMAG2
 40
0.0
  9
$LOFTPARAM
 70
     7
  9
$LOFTNORMALS
280
     1
  9
$LATITUDE
 40
37.795
  9
$LONGITUDE
 40
-122.394
  9
$NORTHDIRECTION
 40
0.0
  9
$TIMEZONE
 70
 -8000
  9
$LIGHTGLYPHDISPLAY
280
     1
  9
$TILEMODELIGHTSYNCH
280
     1
  9
$SOLIDHIST
280
     1
  9
$SHOWHIST
280
     1
  9
$DWFFRAME
280
     2
  9
$DGNFRAME
280
     2
  9
$REALWORLDSCALE
290
     1
  9
$INTERFERECOLOR
 62
   256
  9
$CSHADOW
280
     0
  9
$SHADOWPLANELOCATION
 40
0.0
  0
ENDSEC
  0
SECTION
  2
CLASSES
  0
CLASS
  1
ACDBDICTIONARYWDFLT
  2
AcDbDictionaryWithDefault
  3
ObjectDBX Classes
 90
        0
 91
        4
280
     0
281
     0
  0
CLASS
  1
VISUALSTYLE
  2
AcDbVisualStyle
  3
ObjectDBX Classes
 90
     4095
 91
        4
280
     0
281
     0
  0
ENDSEC
  0
SECTION
  2
TABLES
  0
TABLE
  2
VPORT
  5
8
330
0
100
AcDbSymbolTable
 70
     1
  0
VPORT
  5
29
330
8
100
AcDbSymbolTableRecord
100
AcDbViewportTableRecord
  2
*Active
 70
     0
 10
0.0
 20
0.0
 11
1.0
 21
1.0
 12
13.08992349217016
 22
0.0
 13
0.0
 23
0.0
 14
10.0
 24
10.0
 15
10.0
 25
10.0
 16
0.0
 26
0.0
 36
1.0
 17
0.0
 27
0.0
 37
0.0
 40
55.33172995345977
 41
1.482606344433612
 42
50.0
 43
0.0
 44
0.0
 50
0.0
 51
0.0
 71
     0
 72
   100
 73
     1
 74
     3
 75
     0
 76
     0
 77
     0
 78
     0
281
     0
 65
     1
110
0.0
120
0.0
130
0.0
111
1.0
121
0.0
131
0.0
112
0.0
122
1.0
132
0.0
 79
     0
146
0.0
 60
     3
 61
     5
292
     1
282
     1
141
0.0
142
0.0
 63
   250
  0
ENDTAB
  0
TABLE
  2
LTYPE
  5
5
330
0
100
AcDbSymbolTable
 70
     4
  0
LTYPE
  5
14
330
5
100
AcDbSymbolTableRecord
100
AcDbLinetypeTableRecord
  2
ByBlock
 70
     0
  3

 72
    65
 73
     0
 40
0.0
  0
LTYPE
  5
15
330
5
100
AcDbSymbolTableRecord
100
AcDbLinetypeTableRecord
  2
ByLayer
 70
     0
  3

 72
    65
 73
     0
 40
0.0
  0
LTYPE
  5
16
330
5
100
AcDbSymbolTableRecord
100
AcDbLinetypeTableRecord
  2
Continuous
 70
     0
  3
Solid line
 72
    65
 73
     0
 40
0.0
  0
LTYPE
  5
40
330
5
100
AcDbSymbolTableRecord
100
AcDbLinetypeTableRecord
  2
K5LT_THIN
 70
     0
  3

 72
    65
 73
     0
 40
0.0
  0
LTYPE
  5
A2
330
5
100
AcDbSymbolTableRecord
100
AcDbLinetypeTableRecord
  2
K5LT32768
 70
     0
  3

 72
    65
 73
     0
 40
0.0
  0
LTYPE
  5
A5
330
5
100
AcDbSymbolTableRecord
100
AcDbLinetypeTableRecord
  2
K5LT32769
 70
     0
  3

 72
    65
 73
     0
 40
0.0
  0
ENDTAB
  0
TABLE
  2
LAYER
  5
2
330
0
100
AcDbSymbolTable
 70
     4
  0
LAYER
  5
10
330
2
100
AcDbSymbolTableRecord
100
AcDbLayerTableRecord
  2
0
 70
     0
 62
     7
  6
Continuous
370
    -3
390
F
347
0
  0
LAYER
  5
3C
330
2
100
AcDbSymbolTableRecord
100
AcDbLayerTableRecord
  2
0 (1)
 70
     0
 62
     7
  6
Continuous
370
    -3
390
F
347
0
  0
LAYER
  5
3D
330
2
100
AcDbSymbolTableRecord
100
AcDbLayerTableRecord
  2
LAYER0VIEW0
 70
     0
 62
     7
  6
Continuous
370
    -3
390
F
347
0
  0
LAYER
  5
3E
330
2
100
AcDbSymbolTableRecord
100
AcDbLayerTableRecord
  2
LAYER1VIEW0
 70
     0
 62
     7
  6
Continuous
370
    -3
390
F
347
0
  0
ENDTAB
  0
TABLE
  2
STYLE
  5
3
330
0
100
AcDbSymbolTable
 70
     1
  0
STYLE
  5
11
330
3
100
AcDbSymbolTableRecord
100
AcDbTextStyleTableRecord
  2
Standard
 70
     0
 40
0.0
 41
1.0
 50
0.0
 71
     0
 42
2.5
  3
txt
  4

  0
ENDTAB
  0
TABLE
  2
VIEW
  5
6
330
0
100
AcDbSymbolTable
 70
     0
  0
ENDTAB
  0
TABLE
  2
UCS
  5
7
330
0
100
AcDbSymbolTable
 70
     0
  0
ENDTAB
  0
TABLE
  2
APPID
  5
9
330
0
100
AcDbSymbolTable
 70
     2
  0
APPID
  5
12
330
9
100
AcDbSymbolTableRecord
100
AcDbRegAppTableRecord
  2
ACAD
 70
     0
  0
APPID
  5
3B
330
9
100
AcDbSymbolTableRecord
100
AcDbRegAppTableRecord
  2
KOMPAS
 70
     0
  0
ENDTAB
  0
TABLE
  2
DIMSTYLE
  5
A
330
0
100
AcDbSymbolTable
 70
     1
100
AcDbDimStyleTable
  0
DIMSTYLE
105
27
330
A
100
AcDbSymbolTableRecord
100
AcDbDimStyleTableRecord
  2
ISO-25
 70
     0
 41
2.5
 42
0.625
 43
3.75
 44
1.25
 73
     0
 74
     0
 77
     1
 78
     8
140
2.5
141
2.5
143
0.03937007874016
147
0.625
171
     3
172
     1
271
     2
272
     2
274
     3
278
    44
283
     0
284
     8
340
11
  0
ENDTAB
  0
TABLE
  2
BLOCK_RECORD
  5
1
330
0
100
AcDbSymbolTable
 70
    15
  0
BLOCK_RECORD
  5
1F
330
1
100
AcDbSymbolTableRecord
100
AcDbBlockTableRecord
  2
*Model_Space
340
22
 70
     0
280
     1
281
     0
  0
BLOCK_RECORD
  5
1B
330
1
100
AcDbSymbolTableRecord
100
AcDbBlockTableRecord
  2
*Paper_Space
340
1E
 70
     0
280
     1
281
     0
  0
BLOCK_RECORD
  5
23
330
1
100
AcDbSymbolTableRecord
100
AcDbBlockTableRecord
  2
*Paper_Space0
340
26
 70
     0
280
     1
281
     0
  0
BLOCK_RECORD
  5
3F
330
1
100
AcDbSymbolTableRecord
100
AcDbBlockTableRecord
  2
KDIMARROW_00
340
0
 70
     0
280
     1
281
     0
  0
BLOCK_RECORD
  5
44
330
1
100
AcDbSymbolTableRecord
100
AcDbBlockTableRecord
  2
KDIMARROW_01
340
0
 70
     0
280
     1
281
     0
  0
BLOCK_RECORD
  5
4D
330
1
100
AcDbSymbolTableRecord
100
AcDbBlockTableRecord
  2
KDIMARROW_02
340
0
 70
     0
280
     1
281
     0
  0
BLOCK_RECORD
  5
57
330
1
100
AcDbSymbolTableRecord
100
AcDbBlockTableRecord
  2
KDIMARROW_03
340
0
 70
     0
280
     1
281
     0
  0
BLOCK_RECORD
  5
5D
330
1
100
AcDbSymbolTableRecord
100
AcDbBlockTableRecord
  2
KDIMARROW_04
340
0
 70
     0
280
     1
281
     0
  0
BLOCK_RECORD
  5
63
330
1
100
AcDbSymbolTableRecord
100
AcDbBlockTableRecord
  2
KDIMARROW_05
340
0
 70
     0
280
     1
281
     0
  0
BLOCK_RECORD
  5
6C
330
1
100
AcDbSymbolTableRecord
100
AcDbBlockTableRecord
  2
KDIMARROW_06
340
0
 70
     0
280
     1
281
     0
  0
BLOCK_RECORD
  5
76
330
1
100
AcDbSymbolTableRecord
100
AcDbBlockTableRecord
  2
KDIMARROW_07
340
0
 70
     0
280
     1
281
     0
  0
BLOCK_RECORD
  5
7C
330
1
100
AcDbSymbolTableRecord
100
AcDbBlockTableRecord
  2
KDIMARROW_08
340
0
 70
     0
280
     1
281
     0
  0
BLOCK_RECORD
  5
83
330
1
100
AcDbSymbolTableRecord
100
AcDbBlockTableRecord
  2
KDIMARROW_09
340
0
 70
     0
280
     1
281
     0
  0
BLOCK_RECORD
  5
89
330
1
100
AcDbSymbolTableRecord
100
AcDbBlockTableRecord
  2
KDIMARROW_10
340
0
 70
     0
280
     1
281
     0
  0
BLOCK_RECORD
  5
90
330
1
100
AcDbSymbolTableRecord
100
AcDbBlockTableRecord
  2
KDIMARROW_11
340
0
 70
     0
280
     1
281
     0
  0
BLOCK_RECORD
  5
96
330
1
100
AcDbSymbolTableRecord
100
AcDbBlockTableRecord
  2
KDIMARROW_12
340
0
 70
     0
280
     1
281
     0
  0
BLOCK_RECORD
  5
9C
330
1
100
AcDbSymbolTableRecord
100
AcDbBlockTableRecord
  2
KDIMARROW_13
340
0
 70
     0
280
     1
281
     0
  0
ENDTAB
  0
ENDSEC
  0
SECTION
  2
BLOCKS
  0
BLOCK
  5
20
330
1F
100
AcDbEntity
  8
0
100
AcDbBlockBegin
  2
*Model_Space
 70
     0
 10
0.0
 20
0.0
 30
0.0
  3
*Model_Space
  1

  0
ENDBLK
  5
21
330
1F
100
AcDbEntity
  8
0
100
AcDbBlockEnd
  0
BLOCK
  5
1C
330
1B
100
AcDbEntity
 67
     1
  8
0
100
AcDbBlockBegin
  2
*Paper_Space
 70
     0
 10
0.0
 20
0.0
 30
0.0
  3
*Paper_Space
  1

  0
ENDBLK
  5
1D
330
1B
100
AcDbEntity
 67
     1
  8
0
100
AcDbBlockEnd
  0
BLOCK
  5
24
330
23
100
AcDbEntity
  8
0
100
AcDbBlockBegin
  2
*Paper_Space0
 70
     0
 10
0.0
 20
0.0
 30
0.0
  3
*Paper_Space0
  1

  0
ENDBLK
  5
25
330
23
100
AcDbEntity
  8
0
100
AcDbBlockEnd
  0
BLOCK
  5
42
330
3F
100
AcDbEntity
  8
0
100
AcDbBlockBegin
  2
KDIMARROW_00
 70
     0
 10
0.0
 20
0.0
 30
0.0
  3
KDIMARROW_00
  1

  0
LINE
  5
41
330
3F
100
AcDbEntity
  8
LAYER1VIEW0
  6
K5LT_THIN
 62
     0
370
    18
100
AcDbLine
 10
0.0
 20
0.0
 30
0.0
 11
-1.0
 21
0.0
 31
0.0
  0
ENDBLK
  5
43
330
3F
100
AcDbEntity
  8
0
100
AcDbBlockEnd
  0
BLOCK
  5
4B
330
44
100
AcDbEntity
  8
0
100
AcDbBlockBegin
  2
KDIMARROW_01
 70
     0
 10
0.0
 20
0.0
 30
0.0
  3
KDIMARROW_01
  1

  0
LINE
  5
45
330
44
100
AcDbEntity
  8
0
  6
K5LT_THIN
 62
     0
370
    18
100
AcDbLine
 10
0.0
 20
0.0
 30
0.0
 11
-5.000000000000002
 21
-0.6582624912261958
 31
0.0
  0
LINE
  5
46
330
44
100
AcDbEntity
  8
0
  6
K5LT_THIN
 62
     0
370
    18
100
AcDbLine
 10
-5.0
 20
-0.6582624912261956
 30
0.0
 11
-4.5
 21
0.0000000000000004
 31
0.0
  0
LINE
  5
47
330
44
100
AcDbEntity
  8
0
  6
K5LT_THIN
 62
     0
370
    18
100
AcDbLine
 10
-4.5
 20
0.0000000000000006
 30
0.0
 11
-5.0
 21
0.658262491226197
 31
0.0
  0
LINE
  5
48
330
44
100
AcDbEntity
  8
0
  6
K5LT_THIN
 62
     0
370
    18
100
AcDbLine
 10
-5.0
 20
0.658262491226197
 30
0.0
 11
0.0000000000000018
 21
0.0
 31
0.0
  0
HATCH
  5
49
330
44
100
AcDbEntity
  8
0
 62
     0
100
AcDbHatch
 10
0.0
 20
0.0
 30
0.0
210
0.0
220
0.0
230
1.0
  2
SOLID
 70
     1
 71
     0
 91
        1
 92
        1
 93
        4
 72
     1
 10
-5.000000000000002
 20
-0.6582624912261958
 11
0.0
 21
0.0
 72
     1
 10
0.0000000000000018
 20
0.0
 11
-5.0
 21
0.658262491226197
 72
     1
 10
-5.0
 20
0.658262491226197
 11
-4.5
 21
0.0000000000000006
 72
     1
 10
-4.5
 20
0.0000000000000004
 11
-5.0
 21
-0.6582624912261956
 97
        0
 75
     0
 76
     1
 98
        0
  0
LINE
  5
4A
330
44
100
AcDbEntity
  8
LAYER1VIEW0
  6
K5LT_THIN
 62
     0
370
    18
100
AcDbLine
 10
0.0
 20
0.0
 30
0.0
 11
-1.0
 21
0.0
 31
0.0
  0
ENDBLK
  5
4C
330
44
100
AcDbEntity
  8
0
100
AcDbBlockEnd
  0
BLOCK
  5
55
330
4D
100
AcDbEntity
  8
0
100
AcDbBlockBegin
  2
KDIMARROW_02
 70
     0
 10
0.0
 20
0.0
 30
0.0
  3
KDIMARROW_02
  1

  0
LINE
  5
4E
330
4D
100
AcDbEntity
  8
0
  6
K5LT_THIN
 62
     0
370
    18
100
AcDbLine
 10
0.0
 20
0.0
 30
0.0
 11
5.000000000000002
 21
-0.658262491226197
 31
0.0
  0
LINE
  5
4F
330
4D
100
AcDbEntity
  8
0
  6
K5LT_THIN
 62
     0
370
    18
100
AcDbLine
 10
5.0
 20
-0.658262491226197
 30
0.0
 11
4.5
 21
-0.0000000000000006
 31
0.0
  0
LINE
  5
50
330
4D
100
AcDbEntity
  8
0
  6
K5LT_THIN
 62
     0
370
    18
100
AcDbLine
 10
4.5
 20
-0.0000000000000006
 30
0.0
 11
5.0
 21
0.6582624912261955
 31
0.0
  0
LINE
  5
51
330
4D
100
AcDbEntity
  8
0
  6
K5LT_THIN
 62
     0
370
    18
100
AcDbLine
 10
5.0
 20
0.6582624912261956
 30
0.0
 11
-0.0000000000000018
 21
-0.0000000000000002
 31
0.0
  0
LINE
  5
52
330
4D
100
AcDbEntity
  8
0
  6
K5LT_THIN
 62
     0
370
    18
100
AcDbLine
 10
0.0
 20
0.0
 30
0.0
 11
7.0
 21
-0.0000000000000009
 31
0.0
  0
HATCH
  5
53
330
4D
100
AcDbEntity
  8
0
 62
     0
100
AcDbHatch
 10
0.0
 20
0.0
 30
0.0
210
0.0
220
0.0
230
1.0
  2
SOLID
 70
     1
 71
     0
 91
        1
 92
        1
 93
        4
 72
     1
 10
4.5
 20
-0.0000000000000006
 11
5.0
 21
0.6582624912261955
 72
     1
 10
5.0
 20
0.6582624912261956
 11
-0.0000000000000018
 21
-0.0000000000000002
 72
     1
 10
0.0
 20
0.0
 11
5.000000000000002
 21
-0.658262491226197
 72
     1
 10
5.0
 20
-0.658262491226197
 11
4.5
 21
-0.0000000000000006
 97
        0
 75
     0
 76
     1
 98
        0
  0
LINE
  5
54
330
4D
100
AcDbEntity
  8
LAYER1VIEW0
  6
K5LT_THIN
 62
     0
370
    18
100
AcDbLine
 10
0.0
 20
0.0
 30
0.0
 11
-1.0
 21
0.0
 31
0.0
  0
ENDBLK
  5
56
330
4D
100
AcDbEntity
  8
0
100
AcDbBlockEnd
  0
BLOCK
  5
5B
330
57
100
AcDbEntity
  8
0
100
AcDbBlockBegin
  2
KDIMARROW_03
 70
     0
 10
0.0
 20
0.0
 30
0.0
  3
KDIMARROW_03
  1

  0
LINE
  5
58
330
57
100
AcDbEntity
  8
0
  6
K5LT_THIN
 62
     0
370
    18
100
AcDbLine
 10
-1.060500025749207
 20
-1.060500025749206
 30
0.0
 11
1.060500025749206
 21
1.060500025749206
 31
0.0
  0
LINE
  5
59
330
57
100
AcDbEntity
  8
0
  6
K5LT_THIN
 62
     0
370
    18
100
AcDbLine
 10
0.0
 20
0.0
 30
0.0
 11
2.0
 21
-0.0000000000000002
 31
0.0
  0
LINE
  5
5A
330
57
100
AcDbEntity
  8
LAYER1VIEW0
  6
K5LT_THIN
 62
     0
370
    18
100
AcDbLine
 10
0.0
 20
0.0
 30
0.0
 11
-1.0
 21
0.0
 31
0.0
  0
ENDBLK
  5
5C
330
57
100
AcDbEntity
  8
0
100
AcDbBlockEnd
  0
BLOCK
  5
61
330
5D
100
AcDbEntity
  8
0
100
AcDbBlockBegin
  2
KDIMARROW_04
 70
     0
 10
0.0
 20
0.0
 30
0.0
  3
KDIMARROW_04
  1

  0
LWPOLYLINE
  5
5E
330
5D
100
AcDbEntity
  8
0
  6
K5LT_THIN
 62
     7
100
AcDbPolyline
 90
       10
 70
     0
 43
0.18
 10
-0.3
 20
0.0
 10
0.0
 20
-0.3
 10
0.3
 20
0.0
 10
0.0
 20
0.3
 10
-0.3
 20
0.0
 10
-0.6
 20
0.0000000000000001
 10
-0.0000000000000001
 20
-0.6
 10
0.6
 20
-0.0000000000000001
 10
0.0000000000000001
 20
0.6
 10
-0.6
 20
0.0000000000000001
  0
LWPOLYLINE
  5
5F
330
5D
100
AcDbEntity
  8
0
  6
K5LT_THIN
 62
     7
100
AcDbPolyline
 90
       10
 70
     0
 43
0.18
 10
-0.3
 20
0.0
 10
0.0
 20
-0.3
 10
0.3
 20
0.0
 10
0.0
 20
0.3
 10
-0.3
 20
0.0
 10
-0.6
 20
0.0000000000000001
 10
-0.0000000000000001
 20
-0.6
 10
0.6
 20
-0.0000000000000001
 10
0.0000000000000001
 20
0.6
 10
-0.6
 20
0.0000000000000001
  0
LINE
  5
60
330
5D
100
AcDbEntity
  8
LAYER1VIEW0
  6
K5LT_THIN
 62
     0
370
    18
100
AcDbLine
 10
0.0
 20
0.0
 30
0.0
 11
-1.0
 21
0.0
 31
0.0
  0
ENDBLK
  5
62
330
5D
100
AcDbEntity
  8
0
100
AcDbBlockEnd
  0
BLOCK
  5
6A
330
63
100
AcDbEntity
  8
0
100
AcDbBlockBegin
  2
KDIMARROW_05
 70
     0
 10
0.0
 20
0.0
 30
0.0
  3
KDIMARROW_05
  1

  0
LINE
  5
64
330
63
100
AcDbEntity
  8
0
  6
K5LT_THIN
 62
     0
370
    18
100
AcDbLine
 10
0.0
 20
0.0
 30
0.0
 11
-5.000000000000002
 21
-0.6582624912261958
 31
0.0
  0
LINE
  5
65
330
63
100
AcDbEntity
  8
0
  6
K5LT_THIN
 62
     0
370
    18
100
AcDbLine
 10
-5.0
 20
-0.6582624912261956
 30
0.0
 11
-5.0
 21
0.0000000000000003
 31
0.0
  0
LINE
  5
66
330
63
100
AcDbEntity
  8
0
  6
K5LT_THIN
 62
     0
370
    18
100
AcDbLine
 10
-5.0
 20
0.0000000000000006
 30
0.0
 11
-5.0
 21
0.6582624912261966
 31
0.0
  0
LINE
  5
67
330
63
100
AcDbEntity
  8
0
  6
K5LT_THIN
 62
     0
370
    18
100
AcDbLine
 10
-5.0
 20
0.658262491226197
 30
0.0
 11
0.0000000000000018
 21
0.0
 31
0.0
  0
HATCH
  5
68
330
63
100
AcDbEntity
  8
0
 62
     0
100
AcDbHatch
 10
0.0
 20
0.0
 30
0.0
210
0.0
220
0.0
230
1.0
  2
SOLID
 70
     1
 71
     0
 91
        1
 92
        1
 93
        4
 72
     1
 10
0.0000000000000018
 20
0.0
 11
-5.0
 21
0.658262491226197
 72
     1
 10
-5.0
 20
0.6582624912261966
 11
-5.0
 21
0.0000000000000007
 72
     1
 10
-5.0
 20
0.0000000000000003
 11
-5.0
 21
-0.6582624912261956
 72
     1
 10
-5.000000000000002
 20
-0.6582624912261958
 11
0.0
 21
0.0
 97
        0
 75
     0
 76
     1
 98
        0
  0
LINE
  5
69
330
63
100
AcDbEntity
  8
LAYER1VIEW0
  6
K5LT_THIN
 62
     0
370
    18
100
AcDbLine
 10
0.0
 20
0.0
 30
0.0
 11
-1.0
 21
0.0
 31
0.0
  0
ENDBLK
  5
6B
330
63
100
AcDbEntity
  8
0
100
AcDbBlockEnd
  0
BLOCK
  5
74
330
6C
100
AcDbEntity
  8
0
100
AcDbBlockBegin
  2
KDIMARROW_06
 70
     0
 10
0.0
 20
0.0
 30
0.0
  3
KDIMARROW_06
  1

  0
LINE
  5
6D
330
6C
100
AcDbEntity
  8
0
  6
K5LT_THIN
 62
     0
370
    18
100
AcDbLine
 10
0.0
 20
0.0
 30
0.0
 11
5.000000000000002
 21
-0.658262491226197
 31
0.0
  0
LINE
  5
6E
330
6C
100
AcDbEntity
  8
0
  6
K5LT_THIN
 62
     0
370
    18
100
AcDbLine
 10
5.0
 20
-0.658262491226197
 30
0.0
 11
5.0
 21
-0.000000000000001
 31
0.0
  0
LINE
  5
6F
330
6C
100
AcDbEntity
  8
0
  6
K5LT_THIN
 62
     0
370
    18
100
AcDbLine
 10
5.0
 20
-0.0000000000000006
 30
0.0
 11
5.0
 21
0.6582624912261953
 31
0.0
  0
LINE
  5
70
330
6C
100
AcDbEntity
  8
0
  6
K5LT_THIN
 62
     0
370
    18
100
AcDbLine
 10
5.0
 20
0.6582624912261956
 30
0.0
 11
-0.0000000000000018
 21
-0.0000000000000002
 31
0.0
  0
LINE
  5
71
330
6C
100
AcDbEntity
  8
0
  6
K5LT_THIN
 62
     0
370
    18
100
AcDbLine
 10
0.0
 20
0.0
 30
0.0
 11
7.0
 21
-0.0000000000000009
 31
0.0
  0
HATCH
  5
72
330
6C
100
AcDbEntity
  8
0
 62
     0
100
AcDbHatch
 10
0.0
 20
0.0
 30
0.0
210
0.0
220
0.0
230
1.0
  2
SOLID
 70
     1
 71
     0
 91
        1
 92
        1
 93
        4
 72
     1
 10
5.0
 20
-0.0000000000000006
 11
5.0
 21
0.6582624912261953
 72
     1
 10
5.0
 20
0.6582624912261956
 11
-0.0000000000000018
 21
-0.0000000000000002
 72
     1
 10
0.0
 20
0.0
 11
5.000000000000002
 21
-0.658262491226197
 72
     1
 10
5.0
 20
-0.658262491226197
 11
5.0
 21
-0.000000000000001
 97
        0
 75
     0
 76
     1
 98
        0
  0
LINE
  5
73
330
6C
100
AcDbEntity
  8
LAYER1VIEW0
  6
K5LT_THIN
 62
     0
370
    18
100
AcDbLine
 10
0.0
 20
0.0
 30
0.0
 11
-1.0
 21
0.0
 31
0.0
  0
ENDBLK
  5
75
330
6C
100
AcDbEntity
  8
0
100
AcDbBlockEnd
  0
BLOCK
  5
7A
330
76
100
AcDbEntity
  8
0
100
AcDbBlockBegin
  2
KDIMARROW_07
 70
     0
 10
0.0
 20
0.0
 30
0.0
  3
KDIMARROW_07
  1

  0
LINE
  5
77
330
76
100
AcDbEntity
  8
0
  6
K5LT_THIN
 62
     0
370
    18
100
AcDbLine
 10
0.0
 20
0.0
 30
0.0
 11
-5.000000000000002
 21
-0.6582624912261958
 31
0.0
  0
LINE
  5
78
330
76
100
AcDbEntity
  8
0
  6
K5LT_THIN
 62
     0
370
    18
100
AcDbLine
 10
0.0
 20
0.0
 30
0.0
 11
-5.000000000000002
 21
0.658262491226197
 31
0.0
  0
LINE
  5
79
330
76
100
AcDbEntity
  8
LAYER1VIEW0
  6
K5LT_THIN
 62
     0
370
    18
100
AcDbLine
 10
0.0
 20
0.0
 30
0.0
 11
-1.0
 21
0.0
 31
0.0
  0
ENDBLK
  5
7B
330
76
100
AcDbEntity
  8
0
100
AcDbBlockEnd
  0
BLOCK
  5
81
330
7C
100
AcDbEntity
  8
0
100
AcDbBlockBegin
  2
KDIMARROW_08
 70
     0
 10
0.0
 20
0.0
 30
0.0
  3
KDIMARROW_08
  1

  0
LINE
  5
7D
330
7C
100
AcDbEntity
  8
0
  6
K5LT_THIN
 62
     0
370
    18
100
AcDbLine
 10
0.0
 20
0.0
 30
0.0
 11
5.000000000000002
 21
-0.658262491226197
 31
0.0
  0
LINE
  5
7E
330
7C
100
AcDbEntity
  8
0
  6
K5LT_THIN
 62
     0
370
    18
100
AcDbLine
 10
0.0
 20
0.0
 30
0.0
 11
5.000000000000002
 21
0.6582624912261958
 31
0.0
  0
LINE
  5
7F
330
7C
100
AcDbEntity
  8
0
  6
K5LT_THIN
 62
     0
370
    18
100
AcDbLine
 10
0.0
 20
0.0
 30
0.0
 11
7.0
 21
-0.0000000000000009
 31
0.0
  0
LINE
  5
80
330
7C
100
AcDbEntity
  8
LAYER1VIEW0
  6
K5LT_THIN
 62
     0
370
    18
100
AcDbLine
 10
0.0
 20
0.0
 30
0.0
 11
-1.0
 21
0.0
 31
0.0
  0
ENDBLK
  5
82
330
7C
100
AcDbEntity
  8
0
100
AcDbBlockEnd
  0
BLOCK
  5
87
330
83
100
AcDbEntity
  8
0
100
AcDbBlockBegin
  2
KDIMARROW_09
 70
     0
 10
0.0
 20
0.0
 30
0.0
  3
KDIMARROW_09
  1

  0
LINE
  5
84
330
83
100
AcDbEntity
  8
0
  6
K5LT_THIN
 62
     0
370
    18
100
AcDbLine
 10
0.0
 20
0.0
 30
0.0
 11
-2.0
 21
-2.0
 31
0.0
  0
LINE
  5
85
330
83
100
AcDbEntity
  8
0
  6
K5LT_THIN
 62
     0
370
    18
100
AcDbLine
 10
0.0
 20
0.0
 30
0.0
 11
-2.0
 21
2.0
 31
0.0
  0
LINE
  5
86
330
83
100
AcDbEntity
  8
LAYER1VIEW0
  6
K5LT_THIN
 62
     0
370
    18
100
AcDbLine
 10
0.0
 20
0.0
 30
0.0
 11
-1.0
 21
0.0
 31
0.0
  0
ENDBLK
  5
88
330
83
100
AcDbEntity
  8
0
100
AcDbBlockEnd
  0
BLOCK
  5
8E
330
89
100
AcDbEntity
  8
0
100
AcDbBlockBegin
  2
KDIMARROW_10
 70
     0
 10
0.0
 20
0.0
 30
0.0
  3
KDIMARROW_10
  1

  0
LINE
  5
8A
330
89
100
AcDbEntity
  8
0
  6
K5LT_THIN
 62
     0
370
    18
100
AcDbLine
 10
0.0
 20
0.0
 30
0.0
 11
2.0
 21
-2.0
 31
0.0
  0
LINE
  5
8B
330
89
100
AcDbEntity
  8
0
  6
K5LT_THIN
 62
     0
370
    18
100
AcDbLine
 10
0.0
 20
0.0
 30
0.0
 11
2.0
 21
2.0
 31
0.0
  0
LINE
  5
8C
330
89
100
AcDbEntity
  8
0
  6
K5LT_THIN
 62
     0
370
    18
100
AcDbLine
 10
0.0
 20
0.0
 30
0.0
 11
4.0
 21
-0.0000000000000005
 31
0.0
  0
LINE
  5
8D
330
89
100
AcDbEntity
  8
LAYER1VIEW0
  6
K5LT_THIN
 62
     0
370
    18
100
AcDbLine
 10
0.0
 20
0.0
 30
0.0
 11
-1.0
 21
0.0
 31
0.0
  0
ENDBLK
  5
8F
330
89
100
AcDbEntity
  8
0
100
AcDbBlockEnd
  0
BLOCK
  5
94
330
90
100
AcDbEntity
  8
0
100
AcDbBlockBegin
  2
KDIMARROW_11
 70
     0
 10
0.0
 20
0.0
 30
0.0
  3
KDIMARROW_11
  1

  0
CIRCLE
  5
91
330
90
100
AcDbEntity
  8
0
  6
K5LT_THIN
 62
     0
370
    18
100
AcDbCircle
 10
0.0
 20
0.0
 30
0.0
 40
2.5
  0
CIRCLE
  5
92
330
90
100
AcDbEntity
  8
0
  6
K5LT_THIN
 62
     0
370
    18
100
AcDbCircle
 10
0.0
 20
0.0
 30
0.0
 40
2.5
  0
LINE
  5
93
330
90
100
AcDbEntity
  8
LAYER1VIEW0
  6
K5LT_THIN
 62
     0
370
    18
100
AcDbLine
 10
0.0
 20
0.0
 30
0.0
 11
-1.0
 21
0.0
 31
0.0
  0
ENDBLK
  5
95
330
90
100
AcDbEntity
  8
0
100
AcDbBlockEnd
  0
BLOCK
  5
9A
330
96
100
AcDbEntity
  8
0
100
AcDbBlockBegin
  2
KDIMARROW_12
 70
     0
 10
0.0
 20
0.0
 30
0.0
  3
KDIMARROW_12
  1

  0
CIRCLE
  5
97
330
96
100
AcDbEntity
  8
0
  6
K5LT_THIN
 62
     0
370
    18
100
AcDbCircle
 10
0.0
 20
0.0
 30
0.0
 40
1.5
  0
CIRCLE
  5
98
330
96
100
AcDbEntity
  8
0
  6
K5LT_THIN
 62
     0
370
    18
100
AcDbCircle
 10
0.0
 20
0.0
 30
0.0
 40
1.5
  0
LINE
  5
99
330
96
100
AcDbEntity
  8
LAYER1VIEW0
  6
K5LT_THIN
 62
     0
370
    18
100
AcDbLine
 10
0.0
 20
0.0
 30
0.0
 11
-1.0
 21
0.0
 31
0.0
  0
ENDBLK
  5
9B
330
96
100
AcDbEntity
  8
0
100
AcDbBlockEnd
  0
BLOCK
  5
A0
330
9C
100
AcDbEntity
  8
0
100
AcDbBlockBegin
  2
KDIMARROW_13
 70
     0
 10
0.0
 20
0.0
 30
0.0
  3
KDIMARROW_13
  1

  0
LINE
  5
9D
330
9C
100
AcDbEntity
  8
0
  6
K5LT_THIN
 62
     0
370
    18
100
AcDbLine
 10
-1.060500025749206
 20
1.060500025749207
 30
0.0
 11
1.060500025749206
 21
-1.060500025749206
 31
0.0
  0
LINE
  5
9E
330
9C
100
AcDbEntity
  8
0
  6
K5LT_THIN
 62
     0
370
    18
100
AcDbLine
 10
0.0
 20
0.0
 30
0.0
 11
2.0
 21
-0.0000000000000002
 31
0.0
  0
LINE
  5
9F
330
9C
100
AcDbEntity
  8
LAYER1VIEW0
  6
K5LT_THIN
 62
     0
370
    18
100
AcDbLine
 10
0.0
 20
0.0
 30
0.0
 11
-1.0
 21
0.0
 31
0.0
  0
ENDBLK
  5
A1
330
9C
100
AcDbEntity
  8
0
100
AcDbBlockEnd
  0
ENDSEC
  0
SECTION
  2
ENTITIES
  0
LWPOLYLINE
  5
A3
330
1F
100
AcDbEntity
  8
LAYER1VIEW0
  6
K5LT32768
 62
     7
100
AcDbPolyline
 90
      576
 70
     1
 43
0.18
 10
24.0621689257275
 20
2.0862236750291
 10
24.2090289514887
 20
1.73572747452588
 10
24.6573549016894
 20
1.4868274437732
 10
25.0532429384527
 20
1.39101087087782
 10
25.4497077368666
 20
1.27281896106054
 10
25.846323556656
 20
1.13435544282848
 10
26.2427107137029
 20
0.977017078825708
 10
26.6385148567709
 20
0.801804934713214
 10
27.0333970360097
 20
0.609474541259587
 10
27.0333970360097
 20
-0.609474541259587
 10
26.6385148567709
 20
-0.801804934713214
 10
26.2427107137029
 20
-0.977017078825708
 10
25.846323556656
 20
-1.13435544282848
 10
25.4497077368666
 20
-1.27281896106054
 10
25.0532429384527
 20
-1.39101087087782
 10
24.6573549016894
 20
-1.4868274437732
 10
24.2090289514887
 20
-1.73572747452588
 10
24.0621689257275
 20
-2.0862236750291
 10
24.0068231454886
 20
-2.64815881202937
 10
24.0824828804132
 20
-3.02057129603724
 10
24.4736363860436
 20
-3.35215283648423
 10
24.8432246591281
 20
-3.52336224537318
 10
25.2090133998645
 20
-3.71662957597534
 10
25.5709954655296
 20
-3.92980846452959
 10
25.9290709624033
 20
-4.16145491409757
 10
26.2830876462309
 20
-4.41051796371744
 10
26.6328604767296
 20
-4.67619047409705
 10
26.3950553076996
 20
-5.87171779179288
 10
25.9702388804163
 20
-5.98331491916023
 10
25.5478578093566
 20
-6.07794285332721
 10
25.1283919282853
 20
-6.15492670667251
 10
24.7123840779014
 20
-6.21335377922796
 10
24.3004791416731
 20
-6.25192821944886
 10
23.8935050964673
 20
-6.26866977918886
 10
23.4052356165382
 20
-6.42532321165014
 10
23.1928190483704
 20
-6.74043375622391
 10
23.0289086149501
 20
-7.28077404104612
 10
23.0304604978555
 20
-7.66079120564954
 10
23.3494097490555
 20
-8.06231176314454
 10
23.678495188394
 20
-8.3023345264588
 10
23.9995508152832
 20
-8.56325012271637
 10
24.3129883590424
 20
-8.84295203645776
 10
24.6189915552091
 20
-9.14000452844289
 10
24.9176161171717
 20
-9.45334713024941
 10
25.208838025209
 20
-9.78215211197197
 10
24.7423664064323
 20
-10.9083142204848
 10
24.3039411881651
 20
-10.9348894667456
 10
23.8712150568004
 20
-10.945296692525
 10
23.4447902902752
 20
-10.9389675889018
 10
23.0253773576872
 20
-10.9151128961486
 10
22.6138615593447
 20
-10.8725874726682
 10
22.21144129002
 20
-10.8096106505008
 10
21.7019922026516
 20
-10.8679973811135
 10
21.4321821416673
 20
-11.1356127482458
 10
21.1660060410999
 20
-11.6335932067706
 10
21.0933904339962
 20
-12.0066112054499
 10
21.327878389911
 20
-12.4626405701437
 10
21.6038144266231
 20
-12.7622527476954
 10
21.8677989519737
 20
-13.0807897695674
 10
22.1206467447982
 20
-13.4162659208095
 10
22.3628181090377
 20
-13.7673088945337
 10
22.5945745746897
 20
-14.132889468064
 10
22.8160540656588
 20
-14.5121911300779
 10
22.1388422398446
 20
-15.5257102511367
 10
21.70365666586
 20
-15.4662423444806
 10
21.2772148967431
 20
-15.3920289180221
 10
20.8602185093996
 20
-15.3026300813333
 10
20.4535182983974
 20
-15.1974103457361
 10
20.0582059592904
 20
-15.0754192867303
 10
19.675804251117
 20
-14.9351442466135
 10
19.1647533990345
 20
-14.8930205060637
 10
18.847918494566
 20
-15.1028563872763
 10
18.4897057251231
 20
-15.5393399097531
 10
18.3457132050681
 20
-15.89102387001
 10
18.4867286250543
 20
-16.3840370891617
 10
18.6989111919958
 20
-16.731724752992
 10
18.8956798385428
 20
-17.0956420013654
 10
19.0782210815529
 20
-17.4740002297531
 10
19.2472541041489
 20
-17.8655433006034
 10
19.4032362024858
 20
-18.2693127894367
 10
19.546461943756
 20
-18.6845347815855
 10
18.6845347815855
 20
-19.5464619437559
 10
18.2693127894367
 20
-19.4032362024858
 10
17.8655433006035
 20
-19.2472541041489
 10
17.4740002297532
 20
-19.0782210815529
 10
17.0956420013654
 20
-18.8956798385428
 10
16.731724752992
 20
-18.6989111919958
 10
16.3840370891617
 20
-18.4867286250542
 10
15.8910238700101
 20
-18.3457132050681
 10
15.5393399097531
 20
-18.4897057251231
 10
15.1028563872763
 20
-18.847918494566
 10
14.8930205060638
 20
-19.1647533990345
 10
14.9351442466135
 20
-19.675804251117
 10
15.0754192867303
 20
-20.0582059592903
 10
15.1974103457361
 20
-20.4535182983974
 10
15.3026300813333
 20
-20.8602185093996
 10
15.3920289180221
 20
-21.277214896743
 10
15.4662423444806
 20
-21.7036566658599
 10
15.5257102511367
 20
-22.1388422398446
 10
14.5121911300779
 20
-22.8160540656588
 10
14.1328894680641
 20
-22.5945745746897
 10
13.7673088945338
 20
-22.3628181090377
 10
13.4162659208095
 20
-22.1206467447981
 10
13.0807897695674
 20
-21.8677989519737
 10
12.7622527476955
 20
-21.6038144266231
 10
12.4626405701438
 20
-21.327878389911
 10
12.00661120545
 20
-21.0933904339962
 10
11.6335932067706
 20
-21.1660060410999
 10
11.1356127482459
 20
-21.4321821416672
 10
10.8679973811135
 20
-21.7019922026516
 10
10.8096106505008
 20
-22.21144129002
 10
10.8725874726683
 20
-22.6138615593447
 10
10.9151128961486
 20
-23.0253773576872
 10
10.9389675889018
 20
-23.4447902902751
 10
10.945296692525
 20
-23.8712150568004
 10
10.9348894667456
 20
-24.3039411881651
 10
10.9083142204849
 20
-24.7423664064322
 10
9.78215211197201
 20
-25.2088380252089
 10
9.45334713024945
 20
-24.9176161171717
 10
9.14000452844293
 20
-24.6189915552091
 10
8.8429520364578
 20
-24.3129883590424
 10
8.56325012271641
 20
-23.9995508152832
 10
8.30233452645884
 20
-23.678495188394
 10
8.06231176314458
 20
-23.3494097490555
 10
7.66079120564958
 20
-23.0304604978555
 10
7.28077404104616
 20
-23.0289086149501
 10
6.74043375622395
 20
-23.1928190483704
 10
6.42532321165018
 20
-23.4052356165382
 10
6.2686697791889
 20
-23.8935050964673
 10
6.2519282194489
 20
-24.3004791416731
 10
6.213353779228
 20
-24.7123840779014
 10
6.15492670667255
 20
-25.1283919282853
 10
6.07794285332725
 20
-25.5478578093566
 10
5.98331491916027
 20
-25.9702388804163
 10
5.87171779179292
 20
-26.3950553076996
 10
4.67619047409709
 20
-26.6328604767295
 10
4.41051796371749
 20
-26.2830876462309
 10
4.16145491409762
 20
-25.9290709624033
 10
3.92980846452963
 20
-25.5709954655296
 10
3.71662957597538
 20
-25.2090133998645
 10
3.52336224537322
 20
-24.8432246591281
 10
3.35215283648427
 20
-24.4736363860436
 10
3.02057129603728
 20
-24.0824828804132
 10
2.64815881202941
 20
-24.0068231454886
 10
2.08622367502914
 20
-24.0621689257275
 10
1.73572747452592
 20
-24.2090289514887
 10
1.48682744377324
 20
-24.6573549016894
 10
1.39101087087786
 20
-25.0532429384527
 10
1.27281896106058
 20
-25.4497077368666
 10
1.13435544282852
 20
-25.846323556656
 10
0.97701707882575
 20
-26.2427107137029
 10
0.801804934713258
 20
-26.6385148567709
 10
0.609474541259631
 20
-27.0333970360097
 10
-0.609474541259544
 20
-27.0333970360097
 10
-0.801804934713171
 20
-26.6385148567709
 10
-0.977017078825665
 20
-26.2427107137029
 10
-1.13435544282844
 20
-25.846323556656
 10
-1.2728189610605
 20
-25.4497077368666
 10
-1.39101087087777
 20
-25.0532429384527
 10
-1.48682744377316
 20
-24.6573549016894
 10
-1.73572747452584
 20
-24.2090289514887
 10
-2.08622367502906
 20
-24.0621689257275
 10
-2.64815881202933
 20
-24.0068231454886
 10
-3.0205712960372
 20
-24.0824828804132
 10
-3.35215283648419
 20
-24.4736363860436
 10
-3.52336224537314
 20
-24.8432246591281
 10
-3.7166295759753
 20
-25.2090133998645
 10
-3.92980846452955
 20
-25.5709954655296
 10
-4.16145491409753
 20
-25.9290709624033
 10
-4.4105179637174
 20
-26.283087646231
 10
-4.67619047409701
 20
-26.6328604767296
 10
-5.87171779179284
 20
-26.3950553076996
 10
-5.98331491916019
 20
-25.9702388804163
 10
-6.07794285332717
 20
-25.5478578093566
 10
-6.15492670667247
 20
-25.1283919282853
 10
-6.21335377922792
 20
-24.7123840779014
 10
-6.25192821944882
 20
-24.3004791416731
 10
-6.26866977918882
 20
-23.8935050964673
 10
-6.42532321165011
 20
-23.4052356165382
 10
-6.74043375622387
 20
-23.1928190483704
 10
-7.28077404104608
 20
-23.0289086149502
 10
-7.6607912056495
 20
-23.0304604978555
 10
-8.06231176314451
 20
-23.3494097490555
 10
-8.30233452645876
 20
-23.6784951883941
 10
-8.56325012271633
 20
-23.9995508152832
 10
-8.84295203645772
 20
-24.3129883590424
 10
-9.14000452844285
 20
-24.6189915552091
 10
-9.45334713024937
 20
-24.9176161171718
 10
-9.78215211197193
 20
-25.208838025209
 10
-10.9083142204848
 20
-24.7423664064323
 10
-10.9348894667455
 20
-24.3039411881651
 10
-10.9452966925249
 20
-23.8712150568005
 10
-10.9389675889017
 20
-23.4447902902752
 10
-10.9151128961486
 20
-23.0253773576872
 10
-10.8725874726682
 20
-22.6138615593447
 10
-10.8096106505008
 20
-22.21144129002
 10
-10.8679973811134
 20
-21.7019922026516
 10
-11.1356127482458
 20
-21.4321821416673
 10
-11.6335932067706
 20
-21.1660060410999
 10
-12.0066112054499
 20
-21.0933904339963
 10
-12.4626405701437
 20
-21.327878389911
 10
-12.7622527476954
 20
-21.6038144266231
 10
-13.0807897695674
 20
-21.8677989519737
 10
-13.4162659208095
 20
-22.1206467447982
 10
-13.7673088945337
 20
-22.3628181090378
 10
-14.132889468064
 20
-22.5945745746898
 10
-14.5121911300779
 20
-22.8160540656589
 10
-15.5257102511366
 20
-22.1388422398447
 10
-15.4662423444805
 20
-21.70365666586
 10
-15.3920289180221
 20
-21.2772148967431
 10
-15.3026300813332
 20
-20.8602185093996
 10
-15.197410345736
 20
-20.4535182983974
 10
-15.0754192867302
 20
-20.0582059592904
 10
-14.9351442466135
 20
-19.675804251117
 10
-14.8930205060637
 20
-19.1647533990345
 10
-15.1028563872762
 20
-18.8479184945661
 10
-15.5393399097531
 20
-18.4897057251231
 10
-15.89102387001
 20
-18.3457132050682
 10
-16.3840370891616
 20
-18.4867286250543
 10
-16.7317247529919
 20
-18.6989111919958
 10
-17.0956420013653
 20
-18.8956798385429
 10
-17.4740002297531
 20
-19.078221081553
 10
-17.8655433006034
 20
-19.247254104149
 10
-18.2693127894367
 20
-19.4032362024859
 10
-18.6845347815855
 20
-19.546461943756
 10
-19.5464619437559
 20
-18.6845347815856
 10
-19.4032362024858
 20
-18.2693127894368
 10
-19.2472541041489
 20
-17.8655433006035
 10
-19.0782210815529
 20
-17.4740002297532
 10
-18.8956798385428
 20
-17.0956420013654
 10
-18.6989111919957
 20
-16.731724752992
 10
-18.4867286250542
 20
-16.3840370891617
 10
-18.3457132050681
 20
-15.8910238700101
 10
-18.4897057251231
 20
-15.5393399097532
 10
-18.847918494566
 20
-15.1028563872763
 10
-19.1647533990345
 20
-14.8930205060638
 10
-19.6758042511169
 20
-14.9351442466136
 10
-20.0582059592903
 20
-15.0754192867303
 10
-20.4535182983973
 20
-15.1974103457361
 10
-20.8602185093996
 20
-15.3026300813333
 10
-21.277214896743
 20
-15.3920289180222
 10
-21.7036566658599
 20
-15.4662423444806
 10
-22.1388422398446
 20
-15.5257102511367
 10
-22.8160540656588
 20
-14.512191130078
 10
-22.5945745746897
 20
-14.1328894680641
 10
-22.3628181090377
 20
-13.7673088945338
 10
-22.1206467447981
 20
-13.4162659208096
 10
-21.8677989519737
 20
-13.0807897695675
 10
-21.6038144266231
 20
-12.7622527476955
 10
-21.327878389911
 20
-12.4626405701438
 10
-21.0933904339962
 20
-12.00661120545
 10
-21.1660060410999
 20
-11.6335932067707
 10
-21.4321821416672
 20
-11.1356127482459
 10
-21.7019922026516
 20
-10.8679973811135
 10
-22.21144129002
 20
-10.8096106505009
 10
-22.6138615593447
 20
-10.8725874726683
 10
-23.0253773576871
 20
-10.9151128961487
 10
-23.4447902902751
 20
-10.9389675889019
 10
-23.8712150568004
 20
-10.945296692525
 10
-24.3039411881651
 20
-10.9348894667457
 10
-24.7423664064322
 20
-10.9083142204849
 10
-25.2088380252089
 20
-9.78215211197205
 10
-24.9176161171717
 20
-9.45334713024949
 10
-24.6189915552091
 20
-9.14000452844297
 10
-24.3129883590424
 20
-8.84295203645784
 10
-23.9995508152832
 20
-8.56325012271645
 10
-23.678495188394
 20
-8.30233452645887
 10
-23.3494097490554
 20
-8.06231176314462
 10
-23.0304604978555
 20
-7.66079120564961
 10
-23.0289086149501
 20
-7.2807740410462
 10
-23.1928190483704
 20
-6.74043375622399
 10
-23.4052356165382
 20
-6.42532321165022
 10
-23.8935050964673
 20
-6.26866977918894
 10
-24.3004791416731
 20
-6.25192821944894
 10
-24.7123840779014
 20
-6.21335377922804
 10
-25.1283919282853
 20
-6.15492670667259
 10
-25.5478578093566
 20
-6.07794285332729
 10
-25.9702388804163
 20
-5.98331491916032
 10
-26.3950553076996
 20
-5.87171779179296
 10
-26.6328604767295
 20
-4.67619047409714
 10
-26.2830876462309
 20
-4.41051796371753
 10
-25.9290709624033
 20
-4.16145491409766
 10
-25.5709954655296
 20
-3.92980846452967
 10
-25.2090133998645
 20
-3.71662957597542
 10
-24.843224659128
 20
-3.52336224537326
 10
-24.4736363860436
 20
-3.35215283648431
 10
-24.0824828804132
 20
-3.02057129603732
 10
-24.0068231454886
 20
-2.64815881202945
 10
-24.0621689257275
 20
-2.08622367502917
 10
-24.2090289514887
 20
-1.73572747452595
 10
-24.6573549016894
 20
-1.48682744377328
 10
-25.0532429384527
 20
-1.3910108708779
 10
-25.4497077368666
 20
-1.27281896106062
 10
-25.846323556656
 20
-1.13435544282856
 10
-26.2427107137029
 20
-0.977017078825792
 10
-26.6385148567709
 20
-0.801804934713301
 10
-27.0333970360096
 20
-0.609474541259675
 10
-27.0333970360097
 20
0.6094745412595
 10
-26.6385148567709
 20
0.801804934713128
 10
-26.2427107137029
 20
0.977017078825623
 10
-25.846323556656
 20
1.13435544282839
 10
-25.4497077368666
 20
1.27281896106045
 10
-25.0532429384527
 20
1.39101087087773
 10
-24.6573549016894
 20
1.48682744377312
 10
-24.2090289514887
 20
1.7357274745258
 10
-24.0621689257275
 20
2.08622367502902
 10
-24.0068231454886
 20
2.64815881202929
 10
-24.0824828804132
 20
3.02057129603716
 10
-24.4736363860436
 20
3.35215283648415
 10
-24.8432246591281
 20
3.5233622453731
 10
-25.2090133998645
 20
3.71662957597526
 10
-25.5709954655296
 20
3.92980846452951
 10
-25.9290709624033
 20
4.16145491409749
 10
-26.283087646231
 20
4.41051796371736
 10
-26.6328604767296
 20
4.67619047409696
 10
-26.3950553076996
 20
5.87171779179279
 10
-25.9702388804163
 20
5.98331491916015
 10
-25.5478578093566
 20
6.07794285332713
 10
-25.1283919282853
 20
6.15492670667243
 10
-24.7123840779014
 20
6.21335377922788
 10
-24.3004791416731
 20
6.25192821944878
 10
-23.8935050964673
 20
6.26866977918878
 10
-23.4052356165383
 20
6.42532321165007
 10
-23.1928190483704
 20
6.74043375622384
 10
-23.0289086149502
 20
7.28077404104605
 10
-23.0304604978555
 20
7.66079120564947
 10
-23.3494097490555
 20
8.06231176314447
 10
-23.6784951883941
 20
8.30233452645872
 10
-23.9995508152832
 20
8.56325012271629
 10
-24.3129883590424
 20
8.84295203645768
 10
-24.6189915552091
 20
9.14000452844281
 10
-24.9176161171718
 20
9.45334713024933
 10
-25.208838025209
 20
9.78215211197189
 10
-24.7423664064323
 20
10.9083142204848
 10
-24.3039411881651
 20
10.9348894667455
 10
-23.8712150568005
 20
10.9452966925249
 10
-23.4447902902752
 20
10.9389675889017
 10
-23.0253773576872
 20
10.9151128961485
 10
-22.6138615593447
 20
10.8725874726682
 10
-22.21144129002
 20
10.8096106505007
 10
-21.7019922026516
 20
10.8679973811134
 10
-21.4321821416673
 20
11.1356127482458
 10
-21.1660060410999
 20
11.6335932067705
 10
-21.0933904339963
 20
12.0066112054499
 10
-21.327878389911
 20
12.4626405701437
 10
-21.6038144266232
 20
12.7622527476954
 10
-21.8677989519738
 20
13.0807897695673
 10
-22.1206467447982
 20
13.4162659208094
 10
-22.3628181090378
 20
13.7673088945337
 10
-22.5945745746898
 20
14.132889468064
 10
-22.8160540656589
 20
14.5121911300778
 10
-22.1388422398447
 20
15.5257102511366
 10
-21.70365666586
 20
15.4662423444805
 10
-21.2772148967431
 20
15.392028918022
 10
-20.8602185093997
 20
15.3026300813332
 10
-20.4535182983974
 20
15.197410345736
 10
-20.0582059592904
 20
15.0754192867302
 10
-19.675804251117
 20
14.9351442466134
 10
-19.1647533990346
 20
14.8930205060637
 10
-18.8479184945661
 20
15.1028563872762
 10
-18.4897057251232
 20
15.539339909753
 10
-18.3457132050682
 20
15.89102387001
 10
-18.4867286250543
 20
16.3840370891616
 10
-18.6989111919959
 20
16.7317247529919
 10
-18.8956798385429
 20
17.0956420013653
 10
-19.078221081553
 20
17.4740002297531
 10
-19.247254104149
 20
17.8655433006034
 10
-19.4032362024859
 20
18.2693127894366
 10
-19.546461943756
 20
18.6845347815854
 10
-18.6845347815856
 20
19.5464619437559
 10
-18.2693127894368
 20
19.4032362024857
 10
-17.8655433006035
 20
19.2472541041488
 10
-17.4740002297532
 20
19.0782210815529
 10
-17.0956420013655
 20
18.8956798385428
 10
-16.731724752992
 20
18.6989111919957
 10
-16.3840370891617
 20
18.4867286250542
 10
-15.8910238700101
 20
18.3457132050681
 10
-15.5393399097532
 20
18.489705725123
 10
-15.1028563872764
 20
18.847918494566
 10
-14.8930205060638
 20
19.1647533990344
 10
-14.9351442466136
 20
19.6758042511169
 10
-15.0754192867303
 20
20.0582059592903
 10
-15.1974103457362
 20
20.4535182983973
 10
-15.3026300813334
 20
20.8602185093995
 10
-15.3920289180222
 20
21.277214896743
 10
-15.4662423444807
 20
21.7036566658599
 10
-15.5257102511368
 20
22.1388422398446
 10
-14.512191130078
 20
22.8160540656588
 10
-14.1328894680642
 20
22.5945745746897
 10
-13.7673088945338
 20
22.3628181090377
 10
-13.4162659208096
 20
22.1206467447981
 10
-13.0807897695675
 20
21.8677989519737
 10
-12.7622527476956
 20
21.6038144266231
 10
-12.4626405701438
 20
21.3278783899109
 10
-12.00661120545
 20
21.0933904339962
 10
-11.6335932067707
 20
21.1660060410998
 10
-11.1356127482459
 20
21.4321821416672
 10
-10.8679973811136
 20
21.7019922026516
 10
-10.8096106505009
 20
22.2114412900199
 10
-10.8725874726683
 20
22.6138615593446
 10
-10.9151128961487
 20
23.0253773576871
 10
-10.9389675889019
 20
23.4447902902751
 10
-10.9452966925251
 20
23.8712150568004
 10
-10.9348894667457
 20
24.3039411881651
 10
-10.908314220485
 20
24.7423664064322
 10
-9.78215211197209
 20
25.2088380252089
 10
-9.45334713024953
 20
24.9176161171717
 10
-9.14000452844301
 20
24.6189915552091
 10
-8.84295203645788
 20
24.3129883590424
 10
-8.56325012271648
 20
23.9995508152832
 10
-8.30233452645891
 20
23.678495188394
 10
-8.06231176314466
 20
23.3494097490554
 10
-7.66079120564965
 20
23.0304604978555
 10
-7.28077404104623
 20
23.0289086149501
 10
-6.74043375622402
 20
23.1928190483704
 10
-6.42532321165026
 20
23.4052356165382
 10
-6.26866977918898
 20
23.8935050964673
 10
-6.25192821944898
 20
24.3004791416731
 10
-6.21335377922808
 20
24.7123840779014
 10
-6.15492670667263
 20
25.1283919282853
 10
-6.07794285332733
 20
25.5478578093566
 10
-5.98331491916036
 20
25.9702388804163
 10
-5.87171779179301
 20
26.3950553076996
 10
-4.67619047409718
 20
26.6328604767295
 10
-4.41051796371757
 20
26.2830876462309
 10
-4.1614549140977
 20
25.9290709624033
 10
-3.92980846452971
 20
25.5709954655296
 10
-3.71662957597546
 20
25.2090133998645
 10
-3.5233622453733
 20
24.843224659128
 10
-3.35215283648435
 20
24.4736363860436
 10
-3.02057129603735
 20
24.0824828804132
 10
-2.64815881202949
 20
24.0068231454886
 10
-2.08622367502921
 20
24.0621689257275
 10
-1.73572747452599
 20
24.2090289514887
 10
-1.48682744377332
 20
24.6573549016894
 10
-1.39101087087794
 20
25.0532429384527
 10
-1.27281896106066
 20
25.4497077368666
 10
-1.1343554428286
 20
25.846323556656
 10
-0.977017078825835
 20
26.2427107137029
 10
-0.801804934713344
 20
26.6385148567709
 10
-0.609474541259718
 20
27.0333970360096
 10
0.609474541259456
 20
27.0333970360097
 10
0.801804934713085
 20
26.6385148567709
 10
0.97701707882558
 20
26.2427107137029
 10
1.13435544282835
 20
25.846323556656
 10
1.27281896106041
 20
25.4497077368666
 10
1.39101087087769
 20
25.0532429384527
 10
1.48682744377308
 20
24.6573549016894
 10
1.73572747452576
 20
24.2090289514887
 10
2.08622367502898
 20
24.0621689257275
 10
2.64815881202925
 20
24.0068231454886
 10
3.02057129603712
 20
24.0824828804132
 10
3.35215283648412
 20
24.4736363860436
 10
3.52336224537306
 20
24.8432246591281
 10
3.71662957597522
 20
25.2090133998645
 10
3.92980846452947
 20
25.5709954655296
 10
4.16145491409745
 20
25.9290709624033
 10
4.41051796371732
 20
26.283087646231
 10
4.67619047409692
 20
26.6328604767296
 10
5.87171779179275
 20
26.3950553076997
 10
5.98331491916011
 20
25.9702388804163
 10
6.07794285332708
 20
25.5478578093566
 10
6.15492670667239
 20
25.1283919282853
 10
6.21335377922784
 20
24.7123840779015
 10
6.25192821944874
 20
24.3004791416731
 10
6.26866977918874
 20
23.8935050964674
 10
6.42532321165003
 20
23.4052356165383
 10
6.7404337562238
 20
23.1928190483704
 10
7.28077404104601
 20
23.0289086149502
 10
7.66079120564943
 20
23.0304604978555
 10
8.06231176314443
 20
23.3494097490555
 10
8.30233452645868
 20
23.6784951883941
 10
8.56325012271625
 20
23.9995508152832
 10
8.84295203645764
 20
24.3129883590424
 10
9.14000452844277
 20
24.6189915552091
 10
9.45334713024929
 20
24.9176161171718
 10
9.78215211197185
 20
25.208838025209
 10
10.9083142204847
 20
24.7423664064323
 10
10.9348894667455
 20
24.3039411881652
 10
10.9452966925248
 20
23.8712150568005
 10
10.9389675889017
 20
23.4447902902752
 10
10.9151128961485
 20
23.0253773576872
 10
10.8725874726681
 20
22.6138615593447
 10
10.8096106505007
 20
22.21144129002
 10
10.8679973811134
 20
21.7019922026517
 10
11.1356127482457
 20
21.4321821416673
 10
11.6335932067705
 20
21.1660060411
 10
12.0066112054498
 20
21.0933904339963
 10
12.4626405701436
 20
21.3278783899111
 10
12.7622527476953
 20
21.6038144266232
 10
13.0807897695673
 20
21.8677989519738
 10
13.4162659208094
 20
22.1206467447982
 10
13.7673088945336
 20
22.3628181090378
 10
14.1328894680639
 20
22.5945745746898
 10
14.5121911300778
 20
22.8160540656589
 10
15.5257102511366
 20
22.1388422398447
 10
15.4662423444805
 20
21.70365666586
 10
15.392028918022
 20
21.2772148967431
 10
15.3026300813332
 20
20.8602185093997
 10
15.197410345736
 20
20.4535182983975
 10
15.0754192867302
 20
20.0582059592904
 10
14.9351442466134
 20
19.6758042511171
 10
14.8930205060637
 20
19.1647533990346
 10
15.1028563872762
 20
18.8479184945661
 10
15.539339909753
 20
18.4897057251232
 10
15.8910238700099
 20
18.3457132050682
 10
16.3840370891616
 20
18.4867286250543
 10
16.7317247529919
 20
18.6989111919959
 10
17.0956420013653
 20
18.8956798385429
 10
17.474000229753
 20
19.078221081553
 10
17.8655433006033
 20
19.247254104149
 10
18.2693127894366
 20
19.4032362024859
 10
18.6845347815854
 20
19.5464619437561
 10
19.5464619437558
 20
18.6845347815856
 10
19.4032362024857
 20
18.2693127894368
 10
19.2472541041488
 20
17.8655433006036
 10
19.0782210815528
 20
17.4740002297533
 10
18.8956798385427
 20
17.0956420013655
 10
18.6989111919957
 20
16.7317247529921
 10
18.4867286250542
 20
16.3840370891618
 10
18.345713205068
 20
15.8910238700101
 10
18.489705725123
 20
15.5393399097532
 10
18.8479184945659
 20
15.1028563872764
 10
19.1647533990344
 20
14.8930205060639
 10
19.6758042511169
 20
14.9351442466136
 10
20.0582059592903
 20
15.0754192867304
 10
20.4535182983973
 20
15.1974103457362
 10
20.8602185093995
 20
15.3026300813334
 10
21.277214896743
 20
15.3920289180222
 10
21.7036566658599
 20
15.4662423444807
 10
22.1388422398445
 20
15.5257102511368
 10
22.8160540656587
 20
14.5121911300781
 10
22.5945745746897
 20
14.1328894680642
 10
22.3628181090376
 20
13.7673088945339
 10
22.1206467447981
 20
13.4162659208096
 10
21.8677989519736
 20
13.0807897695675
 10
21.603814426623
 20
12.7622527476956
 10
21.3278783899109
 20
12.4626405701439
 10
21.0933904339962
 20
12.0066112054501
 10
21.1660060410998
 20
11.6335932067707
 10
21.4321821416672
 20
11.135612748246
 10
21.7019922026515
 20
10.8679973811136
 10
22.2114412900199
 20
10.809610650501
 10
22.6138615593446
 20
10.8725874726684
 10
23.0253773576871
 20
10.9151128961487
 10
23.4447902902751
 20
10.9389675889019
 10
23.8712150568004
 20
10.9452966925251
 10
24.303941188165
 20
10.9348894667457
 10
24.7423664064322
 20
10.908314220485
 10
25.2088380252089
 20
9.78215211197213
 10
24.9176161171717
 20
9.45334713024957
 10
24.618991555209
 20
9.14000452844305
 10
24.3129883590423
 20
8.84295203645792
 10
23.9995508152831
 20
8.56325012271652
 10
23.678495188394
 20
8.30233452645895
 10
23.3494097490554
 20
8.0623117631447
 10
23.0304604978555
 20
7.66079120564969
 10
23.0289086149501
 20
7.28077404104627
 10
23.1928190483704
 20
6.74043375622406
 10
23.4052356165382
 20
6.42532321165029
 10
23.8935050964673
 20
6.26866977918901
 10
24.300479141673
 20
6.25192821944902
 10
24.7123840779014
 20
6.21335377922812
 10
25.1283919282852
 20
6.15492670667267
 10
25.5478578093565
 20
6.07794285332737
 10
25.9702388804163
 20
5.9833149191604
 10
26.3950553076996
 20
5.87171779179305
 10
26.6328604767295
 20
4.67619047409722
 10
26.2830876462309
 20
4.41051796371761
 10
25.9290709624033
 20
4.16145491409774
 10
25.5709954655296
 20
3.92980846452976
 10
25.2090133998645
 20
3.7166295759755
 10
24.843224659128
 20
3.52336224537334
 10
24.4736363860436
 20
3.35215283648439
 10
24.0824828804132
 20
3.02057129603739
 10
24.0068231454886
 20
2.64815881202953
  0
LWPOLYLINE
  5
A4
330
1F
100
AcDbEntity
  8
LAYER1VIEW0
  6
K5LT32768
 62
     7
100
AcDbPolyline
 90
      288
 70
     1
 43
0.18
 10
50.84020486578327
 20
-0.285715633026497
 10
50.91781103972417
 20
-0.545301332529033
 10
51.27538678161357
 20
-1.02562204770188
 10
51.60918194396637
 20
-1.15255188215325
 10
51.93872267298337
 20
-1.31430441405215
 10
52.26365341256387
 20
-1.50556532899878
 10
52.58341156781287
 20
-1.72351849939686
 10
52.89734795148057
 20
-1.96636419971503
 10
53.20476803234707
 20
-2.2328206017841
 10
52.98636158575727
 20
-3.33082395605969
 10
52.60037401464237
 20
-3.45935300051397
 10
52.21740158912827
 20
-3.56357491975003
 10
51.83857650679737
 20
-3.64257124454934
 10
51.46518726360617
 20
-3.69492767853434
 10
51.09883131483767
 20
-3.7182577548033
 10
50.74187085157127
 20
-3.70778775248193
 10
50.22770316239867
 20
-4.01470791803457
 10
50.05666526021967
 20
-4.22483523572118
 10
49.83798798196577
 20
-4.75276888666455
 10
49.81034759118777
 20
-5.02229339838398
 10
49.95689372052347
 20
-5.60289018841009
 10
50.21670629435517
 20
-5.8478959429608
 10
50.45926221492197
 20
-6.12344557379838
 10
50.68626669129507
 20
-6.42449322919054
 10
50.89827763894037
 20
-6.74822185074468
 10
51.09538401218877
 20
-7.09272027567327
 10
51.27743468226487
 20
-7.45653846357541
 10
50.65546574412947
 20
-8.38738076058774
 10
50.24967379148227
 20
-8.35841506552776
 10
49.85596940425267
 20
-8.30814636125207
 10
49.47575007956677
 20
-8.23615936610539
 10
49.11074746025876
 20
-8.14164052666679
 10
48.76335066391387
 20
-8.02299635468153
 10
48.43756889441147
 20
-7.87672047853005
 10
47.84508662769057
 20
-7.96351428149532
 10
47.60665596741777
 20
-8.09219323805708
 10
47.20259304420967
 20
-8.49625616126517
 10
47.07391408764797
 20
-8.734686821538
 10
46.98712028468267
 20
-9.3271690882589
 10
47.13339616083417
 20
-9.6529508577613
 10
47.25204033281937
 20
-10.0003476541062
 10
47.34655917225797
 20
-10.3653502734142
 10
47.41854616740467
 20
-10.7455695981
 10
47.46881487168037
 20
-11.1392739853297
 10
47.49778056674037
 20
-11.5450659379769
 10
46.56693826972807
 20
-12.1670348761122
 10
46.20312008182587
 20
-11.9849842060362
 10
45.85862165689727
 20
-11.7878778327878
 10
45.53489303534317
 20
-11.5758668851425
 10
45.23384537995097
 20
-11.3488624087694
 10
44.95829574911347
 20
-11.1063064882026
 10
44.71328999456266
 20
-10.8464939143709
 10
44.13269320453657
 20
-10.6999477850351
 10
43.86316869281717
 20
-10.7275881758132
 10
43.33523504187377
 20
-10.9462654540671
 10
43.12510772418717
 20
-11.1173033562461
 10
42.81818755863457
 20
-11.6314710454186
 10
42.82865756095597
 20
-11.9884315086851
 10
42.80532748468697
 20
-12.3547874574535
 10
42.75297105070197
 20
-12.7281767006447
 10
42.67397472590267
 20
-13.1070017829756
 10
42.56975280666657
 20
-13.4899742084898
 10
42.44122376221227
 20
-13.8759617796047
 10
41.34322040793677
 20
-14.0943682261944
 10
41.07676400586767
 20
-13.786948145328
 10
40.83391830554947
 20
-13.4730117616602
 10
40.61596513515137
 20
-13.1532536064112
 10
40.42470422020477
 20
-12.8283228668308
 10
40.26295168830587
 20
-12.4987821378138
 10
40.13602185385447
 20
-12.164986975461
 10
39.65570113868167
 20
-11.8074112335716
 10
39.39611543917907
 20
-11.7298050596307
 10
38.82468417312617
 20
-11.7298050596307
 10
38.56509847362356
 20
-11.8074112335716
 10
38.08477775845077
 20
-12.164986975461
 10
37.95784792399937
 20
-12.4987821378138
 10
37.79609539210047
 20
-12.8283228668308
 10
37.60483447715387
 20
-13.1532536064112
 10
37.38688130675577
 20
-13.4730117616602
 10
37.14403560643757
 20
-13.786948145328
 10
36.87757920436857
 20
-14.0943682261945
 10
35.77957585009297
 20
-13.8759617796047
 10
35.65104680563866
 20
-13.4899742084898
 10
35.54682488640257
 20
-13.1070017829756
 10
35.46782856160327
 20
-12.7281767006447
 10
35.41547212761827
 20
-12.3547874574535
 10
35.39214205134937
 20
-11.9884315086851
 10
35.40261205367067
 20
-11.6314710454186
 10
35.09569188811807
 20
-11.1173033562461
 10
34.88556457043147
 20
-10.9462654540671
 10
34.35763091948807
 20
-10.7275881758132
 10
34.08810640776867
 20
-10.6999477850351
 10
33.50750961774257
 20
-10.8464939143709
 10
33.26250386319187
 20
-11.1063064882026
 10
32.98695423235426
 20
-11.3488624087694
 10
32.68590657696207
 20
-11.5758668851425
 10
32.36217795540797
 20
-11.7878778327878
 10
32.01767953047937
 20
-11.9849842060362
 10
31.65386134257717
 20
-12.1670348761123
 10
30.72301904556487
 20
-11.5450659379769
 10
30.75198474062487
 20
-11.1392739853297
 10
30.80225344490057
 20
-10.7455695981001
 10
30.87424044004727
 20
-10.3653502734142
 10
30.96875927948587
 20
-10.0003476541062
 10
31.08740345147107
 20
-9.65295085776133
 10
31.23367932762257
 20
-9.32716908825893
 10
31.14688552465727
 20
-8.73468682153803
 10
31.01820656809557
 20
-8.4962561612652
 10
30.61414364488747
 20
-8.09219323805711
 10
30.37571298461457
 20
-7.96351428149535
 10
29.78323071789367
 20
-7.87672047853007
 10
29.45744894839127
 20
-8.02299635468156
 10
29.11005215204647
 20
-8.14164052666682
 10
28.74504953273847
 20
-8.23615936610543
 10
28.36483020805257
 20
-8.3081463612521
 10
27.97112582082297
 20
-8.35841506552779
 10
27.56533386817577
 20
-8.38738076058777
 10
26.94336493004037
 20
-7.45653846357545
 10
27.12541560011647
 20
-7.09272027567331
 10
27.32252197336487
 20
-6.74822185074472
 10
27.53453292101017
 20
-6.42449322919058
 10
27.76153739738327
 20
-6.12344557379842
 10
28.00409331795007
 20
-5.84789594296084
 10
28.26390589178167
 20
-5.60289018841012
 10
28.41045202111747
 20
-5.02229339838402
 10
28.38281163033947
 20
-4.75276888666458
 10
28.16413435208557
 20
-4.22483523572121
 10
27.99309644990657
 20
-4.01470791803461
 10
27.47892876073397
 20
-3.70778775248197
 10
27.12196829746757
 20
-3.71825775480334
 10
26.75561234869907
 20
-3.69492767853438
 10
26.38222310550787
 20
-3.64257124454939
 10
26.00339802317697
 20
-3.56357491975007
 10
25.62042559766287
 20
-3.45935300051401
 10
25.23443802654797
 20
-3.33082395605973
 10
25.01603157995817
 20
-2.23282060178414
 10
25.32345166082457
 20
-1.96636419971507
 10
25.63738804449237
 20
-1.72351849939691
 10
25.95714619974137
 20
-1.50556532899883
 10
26.28207693932187
 20
-1.31430441405219
 10
26.61161766833877
 20
-1.15255188215329
 10
26.94541283069167
 20
-1.02562204770191
 10
27.30298857258107
 20
-0.545301332529071
 10
27.38059474652187
 20
-0.285715633026534
 10
27.38059474652187
 20
0.285715633026459
 10
27.30298857258107
 20
0.545301332528995
 10
26.94541283069167
 20
1.02562204770184
 10
26.61161766833877
 20
1.15255188215321
 10
26.28207693932187
 20
1.31430441405211
 10
25.95714619974137
 20
1.50556532899874
 10
25.63738804449237
 20
1.72351849939682
 10
25.32345166082457
 20
1.96636419971498
 10
25.01603157995817
 20
2.23282060178405
 10
25.23443802654787
 20
3.33082395605964
 10
25.62042559766287
 20
3.45935300051393
 10
26.00339802317697
 20
3.56357491974999
 10
26.38222310550787
 20
3.6425712445493
 10
26.75561234869907
 20
3.6949276785343
 10
27.12196829746747
 20
3.71825775480326
 10
27.47892876073397
 20
3.7077877524819
 10
27.99309644990647
 20
4.01470791803454
 10
28.16413435208547
 20
4.22483523572114
 10
28.38281163033937
 20
4.75276888666451
 10
28.41045202111747
 20
5.02229339838395
 10
28.26390589178167
 20
5.60289018841006
 10
28.00409331794997
 20
5.84789594296076
 10
27.76153739738317
 20
6.12344557379834
 10
27.53453292101007
 20
6.4244932291905
 10
27.32252197336477
 20
6.74822185074465
 10
27.12541560011637
 20
7.09272027567323
 10
26.94336493004037
 20
7.45653846357537
 10
27.56533386817567
 20
8.3873807605877
 10
27.97112582082287
 20
8.35841506552772
 10
28.36483020805257
 20
8.30814636125203
 10
28.74504953273837
 20
8.23615936610536
 10
29.11005215204637
 20
8.14164052666676
 10
29.45744894839127
 20
8.0229963546815
 10
29.78323071789367
 20
7.87672047853002
 10
30.37571298461457
 20
7.96351428149529
 10
30.61414364488737
 20
8.09219323805706
 10
31.01820656809547
 20
8.49625616126514
 10
31.14688552465727
 20
8.73468682153798
 10
31.23367932762247
 20
9.32716908825888
 10
31.08740345147107
 20
9.65295085776127
 10
30.96875927948577
 20
10.0003476541061
 10
30.87424044004717
 20
10.3653502734142
 10
30.80225344490047
 20
10.7455695981
 10
30.75198474062477
 20
11.1392739853296
 10
30.72301904556477
 20
11.5450659379768
 10
31.65386134257717
 20
12.1670348761122
 10
32.01767953047927
 20
11.9849842060362
 10
32.36217795540787
 20
11.7878778327878
 10
32.68590657696197
 20
11.5758668851425
 10
32.98695423235417
 20
11.3488624087694
 10
33.26250386319177
 20
11.1063064882025
 10
33.50750961774247
 20
10.8464939143709
 10
34.08810640776857
 20
10.6999477850351
 10
34.35763091948797
 20
10.7275881758132
 10
34.88556457043137
 20
10.946265454067
 10
35.09569188811797
 20
11.1173033562461
 10
35.40261205367057
 20
11.6314710454186
 10
35.39214205134927
 20
11.9884315086851
 10
35.41547212761817
 20
12.3547874574535
 10
35.46782856160317
 20
12.7281767006447
 10
35.54682488640247
 20
13.1070017829756
 10
35.65104680563856
 20
13.4899742084897
 10
35.77957585009287
 20
13.8759617796047
 10
36.87757920436847
 20
14.0943682261944
 10
37.14403560643747
 20
13.786948145328
 10
37.38688130675567
 20
13.4730117616602
 10
37.60483447715377
 20
13.1532536064112
 10
37.79609539210037
 20
12.8283228668308
 10
37.95784792399927
 20
12.4987821378138
 10
38.08477775845067
 20
12.164986975461
 10
38.56509847362346
 20
11.8074112335716
 10
38.82468417312607
 20
11.7298050596307
 10
39.39611543917907
 20
11.7298050596307
 10
39.65570113868156
 20
11.8074112335716
 10
40.13602185385437
 20
12.164986975461
 10
40.26295168830577
 20
12.4987821378138
 10
40.42470422020467
 20
12.8283228668308
 10
40.61596513515137
 20
13.1532536064112
 10
40.83391830554937
 20
13.4730117616602
 10
41.07676400586757
 20
13.786948145328
 10
41.34322040793667
 20
14.0943682261945
 10
42.44122376221227
 20
13.8759617796047
 10
42.56975280666646
 20
13.4899742084898
 10
42.67397472590257
 20
13.1070017829757
 10
42.75297105070187
 20
12.7281767006448
 10
42.80532748468687
 20
12.3547874574535
 10
42.82865756095587
 20
11.9884315086851
 10
42.81818755863447
 20
11.6314710454187
 10
43.12510772418707
 20
11.1173033562461
 10
43.33523504187377
 20
10.9462654540671
 10
43.86316869281707
 20
10.7275881758132
 10
44.13269320453657
 20
10.6999477850352
 10
44.71328999456266
 20
10.8464939143709
 10
44.95829574911337
 20
11.1063064882026
 10
45.23384537995097
 20
11.3488624087694
 10
45.53489303534307
 20
11.5758668851425
 10
45.85862165689727
 20
11.7878778327878
 10
46.20312008182577
 20
11.9849842060362
 10
46.56693826972797
 20
12.1670348761123
 10
47.49778056674027
 20
11.5450659379769
 10
47.46881487168027
 20
11.1392739853297
 10
47.41854616740457
 20
10.7455695981001
 10
47.34655917225797
 20
10.3653502734142
 10
47.25204033281937
 20
10.0003476541062
 10
47.13339616083407
 20
9.65295085776135
 10
46.98712028468257
 20
9.32716908825896
 10
47.07391408764786
 20
8.73468682153805
 10
47.20259304420967
 20
8.49625616126522
 10
47.60665596741777
 20
8.09219323805714
 10
47.84508662769057
 20
7.96351428149538
 10
48.43756889441147
 20
7.87672047853011
 10
48.76335066391387
 20
8.0229963546816
 10
49.11074746025876
 20
8.14164052666685
 10
49.47575007956677
 20
8.23615936610546
 10
49.85596940425257
 20
8.30814636125214
 10
50.24967379148227
 20
8.35841506552783
 10
50.65546574412947
 20
8.38738076058781
 10
51.27743468226477
 20
7.45653846357549
 10
51.09538401218877
 20
7.09272027567335
 10
50.89827763894037
 20
6.74822185074476
 10
50.68626669129507
 20
6.42449322919062
 10
50.45926221492197
 20
6.12344557379845
 10
50.21670629435517
 20
5.84789594296087
 10
49.95689372052347
 20
5.60289018841016
 10
49.81034759118766
 20
5.02229339838405
 10
49.83798798196577
 20
4.75276888666462
 10
50.05666526021967
 20
4.22483523572125
 10
50.22770316239867
 20
4.01470791803465
 10
50.74187085157127
 20
3.70778775248201
 10
51.09883131483767
 20
3.71825775480338
 10
51.46518726360607
 20
3.69492767853442
 10
51.83857650679727
 20
3.64257124454943
 10
52.21740158912817
 20
3.56357491975011
 10
52.60037401464237
 20
3.45935300051406
 10
52.98636158575727
 20
3.33082395605978
 10
53.20476803234707
 20
2.23282060178419
 10
52.89734795148057
 20
1.96636419971512
 10
52.58341156781277
 20
1.72351849939695
 10
52.26365341256387
 20
1.50556532899887
 10
51.93872267298337
 20
1.31430441405223
 10
51.60918194396637
 20
1.15255188215333
 10
51.27538678161357
 20
1.02562204770195
 10
50.91781103972417
 20
0.545301332529109
 10
50.84020486578327
 20
0.285715633026572
  0
LINE
  5
A6
330
1F
100
AcDbEntity
  8
LAYER0VIEW0
  6
K5LT32769
 62
     7
370
    18
100
AcDbLine
 10
0.0
 20
-1.0
 30
0.0
 11
0.0
 21
1.0
 31
0.0
  0
LINE
  5
A7
330
1F
100
AcDbEntity
  8
LAYER0VIEW0
  6
K5LT32769
 62
     7
370
    18
100
AcDbLine
 10
-1.0
 20
0.0
 30
0.0
 11
1.0
 21
0.0
 31
0.0
  0
LINE
  5
A8
330
1F
100
AcDbEntity
  8
LAYER0VIEW0
  6
K5LT32769
 62
     7
370
    18
100
AcDbLine
 10
39.11039980615256
 20
-1.0
 30
0.0
 11
39.11039980615256
 21
1.0
 31
0.0
  0
LINE
  5
A9
330
1F
100
AcDbEntity
  8
LAYER0VIEW0
  6
K5LT32769
 62
     7
370
    18
100
AcDbLine
 10
38.11039980615256
 20
0.0
 30
0.0
 11
40.11039980615256
 21
0.0
 31
0.0
  0
ENDSEC
  0
SECTION
  2
OBJECTS
  0
DICTIONARY
  5
C
330
0
100
AcDbDictionary
281
     1
  3
ACAD_GROUP
350
D
  3
ACAD_LAYOUT
350
1A
  3
ACAD_MLEADERSTYLE
350
AB
  3
ACAD_MLINESTYLE
350
17
  3
ACAD_PLOTSETTINGS
350
19
  3
ACAD_PLOTSTYLENAME
350
E
  3
ACAD_TABLESTYLE
350
AA
  3
ACAD_VISUALSTYLE
350
2A
  0
DICTIONARY
  5
D
102
{ACAD_REACTORS
330
C
102
}
330
C
100
AcDbDictionary
281
     1
  0
DICTIONARY
  5
1A
102
{ACAD_REACTORS
330
C
102
}
330
C
100
AcDbDictionary
281
     1
  3
Layout1
350
1E
  3
Layout2
350
26
  3
Model
350
22
  0
DICTIONARY
  5
AB
102
{ACAD_REACTORS
330
C
102
}
330
C
100
AcDbDictionary
281
     1
  0
DICTIONARY
  5
17
102
{ACAD_REACTORS
330
C
102
}
330
C
100
AcDbDictionary
281
     1
  3
Standard
350
18
  0
DICTIONARY
  5
19
102
{ACAD_REACTORS
330
C
102
}
330
C
100
AcDbDictionary
281
     1
  0
ACDBDICTIONARYWDFLT
  5
E
102
{ACAD_REACTORS
330
C
102
}
330
C
100
AcDbDictionary
281
     1
  3
Normal
350
F
100
AcDbDictionaryWithDefault
340
F
  0
DICTIONARY
  5
AA
102
{ACAD_REACTORS
330
C
102
}
330
C
100
AcDbDictionary
281
     1
  0
DICTIONARY
  5
2A
102
{ACAD_REACTORS
330
C
102
}
330
C
100
AcDbDictionary
281
     1
  3
2dWireframe
350
2F
  3
3D Hidden
350
31
  3
3dWireframe
350
30
  3
Basic
350
32
  3
Brighten
350
36
  3
ColorChange
350
3A
  3
Conceptual
350
34
  3
Dim
350
35
  3
Facepattern
350
39
  3
Flat
350
2B
  3
FlatWithEdges
350
2C
  3
Gouraud
350
2D
  3
GouraudWithEdges
350
2E
  3
Linepattern
350
38
  3
Realistic
350
33
  3
Thicken
350
37
  0
LAYOUT
  5
1E
102
{ACAD_REACTORS
330
1A
102
}
330
1A
100
AcDbPlotSettings
  1

  2
none_device
  4

  6

 40
0.0
 41
0.0
 42
0.0
 43
0.0
 44
0.0
 45
0.0
 46
0.0
 47
0.0
 48
0.0
 49
0.0
140
0.0
141
0.0
142
1.0
143
1.0
 70
   688
 72
     0
 73
     0
 74
     5
  7

 75
    16
 76
     0
 77
     2
 78
   300
147
1.0
148
0.0
149
0.0
100
AcDbLayout
  1
Layout1
 70
     1
 71
     1
 10
0.0
 20
0.0
 11
420.0
 21
297.0
 12
0.0
 22
0.0
 32
0.0
 14
1.000000000000000E+20
 24
1.000000000000000E+20
 34
1.000000000000000E+20
 15
-1.000000000000000E+20
 25
-1.000000000000000E+20
 35
-1.000000000000000E+20
146
0.0
 13
0.0
 23
0.0
 33
0.0
 16
1.0
 26
0.0
 36
0.0
 17
0.0
 27
1.0
 37
0.0
 76
     0
330
1B
  0
LAYOUT
  5
26
102
{ACAD_REACTORS
330
1A
102
}
330
1A
100
AcDbPlotSettings
  1

  2
none_device
  4

  6

 40
0.0
 41
0.0
 42
0.0
 43
0.0
 44
0.0
 45
0.0
 46
0.0
 47
0.0
 48
0.0
 49
0.0
140
0.0
141
0.0
142
1.0
143
1.0
 70
   688
 72
     0
 73
     0
 74
     5
  7

 75
    16
 76
     0
 77
     2
 78
   300
147
1.0
148
0.0
149
0.0
100
AcDbLayout
  1
Layout2
 70
     1
 71
     2
 10
0.0
 20
0.0
 11
0.0
 21
0.0
 12
0.0
 22
0.0
 32
0.0
 14
0.0
 24
0.0
 34
0.0
 15
0.0
 25
0.0
 35
0.0
146
0.0
 13
0.0
 23
0.0
 33
0.0
 16
1.0
 26
0.0
 36
0.0
 17
0.0
 27
1.0
 37
0.0
 76
     0
330
23
  0
LAYOUT
  5
22
102
{ACAD_REACTORS
330
1A
102
}
330
1A
100
AcDbPlotSettings
  1

  2
none_device
  4

  6

 40
0.0
 41
0.0
 42
0.0
 43
0.0
 44
0.0
 45
0.0
 46
0.0
 47
0.0
 48
0.0
 49
0.0
140
0.0
141
0.0
142
1.0
143
1.0
 70
  1712
 72
     0
 73
     0
 74
     0
  7

 75
     0
 76
     0
 77
     2
 78
   300
147
1.0
148
0.0
149
0.0
100
AcDbLayout
  1
Model
 70
     1
 71
     0
 10
0.0
 20
0.0
 11
420.0
 21
297.0
 12
0.0
 22
0.0
 32
0.0
 14
1.000000000000000E+20
 24
1.000000000000000E+20
 34
1.000000000000000E+20
 15
-1.000000000000000E+20
 25
-1.000000000000000E+20
 35
-1.000000000000000E+20
146
0.0
 13
0.0
 23
0.0
 33
0.0
 16
1.0
 26
0.0
 36
0.0
 17
0.0
 27
1.0
 37
0.0
 76
     0
330
1F
331
29
  0
MLINESTYLE
  5
18
102
{ACAD_REACTORS
330
17
102
}
330
17
100
AcDbMlineStyle
  2
Standard
 70
     0
  3

 62
   256
 51
90.0
 52
90.0
 71
     2
 49
0.5
 62
   256
  6
BYLAYER
 49
-0.5
 62
   256
  6
BYLAYER
  0
ACDBPLACEHOLDER
  5
F
102
{ACAD_REACTORS
330
E
102
}
330
E
  0
VISUALSTYLE
  5
2F
102
{ACAD_REACTORS
330
2A
102
}
330
2A
100
AcDbVisualStyle
  2
2dWireframe
 70
     4
 71
     0
 72
     2
 73
     0
 90
        0
 40
-0.6
 41
-30.0
 62
     5
 63
     7
421
 16777215
 74
     1
 91
        4
 64
     7
 65
   257
 75
     1
175
     1
 42
1.0
 92
        0
 66
   257
 43
1.0
 76
     1
 77
     6
 78
     2
 67
     7
 79
     5
170
     0
171
     0
290
     0
174
     0
 93
        1
 44
0.0
173
     0
291
     0
 45
0.0
  0
VISUALSTYLE
  5
31
102
{ACAD_REACTORS
330
2A
102
}
330
2A
100
AcDbVisualStyle
  2
3D Hidden
 70
     6
 71
     1
 72
     2
 73
     2
 90
        0
 40
-0.6
 41
-30.0
 62
     5
 63
     7
421
 16777215
 74
     2
 91
        2
 64
     7
 65
   257
 75
     2
175
     1
 42
40.0
 92
        0
 66
   257
 43
1.0
 76
     1
 77
     6
 78
     2
 67
     7
 79
     3
170
     0
171
     0
290
     0
174
     0
 93
        1
 44
0.0
173
     0
291
     0
 45
0.0
  0
VISUALSTYLE
  5
30
102
{ACAD_REACTORS
330
2A
102
}
330
2A
100
AcDbVisualStyle
  2
3dWireframe
 70
     5
 71
     0
 72
     2
 73
     0
 90
        0
 40
-0.6
 41
-30.0
 62
     5
 63
     7
421
 16777215
 74
     1
 91
        4
 64
     7
 65
   257
 75
     1
175
     1
 42
1.0
 92
        0
 66
   257
 43
1.0
 76
     1
 77
     6
 78
     2
 67
     7
 79
     5
170
     0
171
     0
290
     0
174
     0
 93
        1
 44
0.0
173
     0
291
     0
 45
0.0
  0
VISUALSTYLE
  5
32
102
{ACAD_REACTORS
330
2A
102
}
330
2A
100
AcDbVisualStyle
  2
Basic
 70
     7
 71
     1
 72
     0
 73
     1
 90
        0
 40
-0.6
 41
-30.0
 62
     5
 63
     7
421
 16777215
 74
     0
 91
        4
 64
     7
 65
   257
 75
     1
175
     1
 42
1.0
 92
        8
 66
     7
 43
1.0
 76
     1
 77
     6
 78
     2
 67
     7
 79
     5
170
     0
171
     0
290
     0
174
     0
 93
        1
 44
0.0
173
     0
291
     1
 45
0.0
  0
VISUALSTYLE
  5
36
102
{ACAD_REACTORS
330
2A
102
}
330
2A
100
AcDbVisualStyle
  2
Brighten
 70
    12
 71
     2
 72
     2
 73
     0
 90
        0
 40
-0.6
 41
-30.0
 62
     5
 63
     7
421
 16777215
 74
     1
 91
        4
 64
     7
 65
   257
 75
     1
175
     1
 42
1.0
 92
        8
 66
     7
 43
1.0
 76
     1
 77
     6
 78
     2
 67
     7
 79
     5
170
     0
171
     0
290
     0
174
     0
 93
        1
 44
50.0
173
     0
291
     1
 45
0.0
  0
VISUALSTYLE
  5
3A
102
{ACAD_REACTORS
330
2A
102
}
330
2A
100
AcDbVisualStyle
  2
ColorChange
 70
    16
 71
     2
 72
     2
 73
     3
 90
        0
 40
-0.6
 41
-30.0
 62
     5
 63
     8
421
  8421504
 74
     1
 91
        4
 64
     7
 65
   257
 75
     1
175
     1
 42
1.0
 92
        8
 66
     8
424
  8421504
 43
1.0
 76
     1
 77
     6
 78
     2
 67
     7
 79
     5
170
     0
171
     0
290
     0
174
     0
 93
        1
 44
0.0
173
     0
291
     1
 45
0.0
  0
VISUALSTYLE
  5
34
102
{ACAD_REACTORS
330
2A
102
}
330
2A
100
AcDbVisualStyle
  2
Conceptual
 70
     9
 71
     3
 72
     2
 73
     0
 90
        0
 40
-0.6
 41
-30.0
 62
     5
 63
     7
421
 16777215
 74
     2
 91
        2
 64
     7
 65
   257
 75
     1
175
     1
 42
40.0
 92
        8
 66
     7
 43
1.0
 76
     1
 77
     6
 78
     2
 67
     7
 79
     3
170
     0
171
     0
290
     0
174
     0
 93
        1
 44
0.0
173
     0
291
     0
 45
0.0
  0
VISUALSTYLE
  5
35
102
{ACAD_REACTORS
330
2A
102
}
330
2A
100
AcDbVisualStyle
  2
Dim
 70
    11
 71
     2
 72
     2
 73
     0
 90
        0
 40
-0.6
 41
-30.0
 62
     5
 63
     7
421
 16777215
 74
     1
 91
        4
 64
     7
 65
   257
 75
     1
175
     1
 42
1.0
 92
        8
 66
     7
 43
1.0
 76
     1
 77
     6
 78
     2
 67
     7
 79
     5
170
     0
171
     0
290
     0
174
     0
 93
        1
 44
-50.0
173
     0
291
     1
 45
0.0
  0
VISUALSTYLE
  5
39
102
{ACAD_REACTORS
330
2A
102
}
330
2A
100
AcDbVisualStyle
  2
Facepattern
 70
    15
 71
     2
 72
     2
 73
     0
 90
        0
 40
-0.6
 41
-30.0
 62
     5
 63
     7
421
 16777215
 74
     1
 91
        4
 64
     7
 65
   257
 75
     1
175
     1
 42
1.0
 92
        8
 66
     7
 43
1.0
 76
     1
 77
     6
 78
     2
 67
     7
 79
     5
170
     0
171
     0
290
     0
174
     0
 93
        1
 44
0.0
173
     0
291
     1
 45
0.0
  0
VISUALSTYLE
  5
2B
102
{ACAD_REACTORS
330
2A
102
}
330
2A
100
AcDbVisualStyle
  2
Flat
 70
     0
 71
     2
 72
     1
 73
     1
 90
        2
 40
-0.6
 41
30.0
 62
     5
 63
     7
421
 16777215
 74
     0
 91
        4
 64
     7
 65
   257
 75
     1
175
     1
 42
1.0
 92
        8
 66
     7
 43
1.0
 76
     1
 77
     6
 78
     2
 67
     7
 79
     5
170
     0
171
     0
290
     0
174
     0
 93
       13
 44
0.0
173
     0
291
     1
 45
0.0
  0
VISUALSTYLE
  5
2C
102
{ACAD_REACTORS
330
2A
102
}
330
2A
100
AcDbVisualStyle
  2
FlatWithEdges
 70
     1
 71
     2
 72
     1
 73
     1
 90
        2
 40
-0.6
 41
30.0
 62
     5
 63
     7
421
 16777215
 74
     1
 91
        4
 64
     7
 65
   257
 75
     1
175
     1
 42
1.0
 92
        0
 66
   257
 43
1.0
 76
     1
 77
     6
 78
     2
 67
     7
 79
     5
170
     0
171
     0
290
     0
174
     0
 93
       13
 44
0.0
173
     0
291
     1
 45
0.0
  0
VISUALSTYLE
  5
2D
102
{ACAD_REACTORS
330
2A
102
}
330
2A
100
AcDbVisualStyle
  2
Gouraud
 70
     2
 71
     2
 72
     2
 73
     1
 90
        2
 40
-0.6
 41
30.0
 62
     5
 63
     7
421
 16777215
 74
     0
 91
        4
 64
     7
 65
   257
 75
     1
175
     1
 42
1.0
 92
        0
 66
     7
 43
1.0
 76
     1
 77
     6
 78
     2
 67
     7
 79
     5
170
     0
171
     0
290
     0
174
     0
 93
       13
 44
0.0
173
     0
291
     1
 45
0.0
  0
VISUALSTYLE
  5
2E
102
{ACAD_REACTORS
330
2A
102
}
330
2A
100
AcDbVisualStyle
  2
GouraudWithEdges
 70
     3
 71
     2
 72
     2
 73
     1
 90
        2
 40
-0.6
 41
30.0
 62
     5
 63
     7
421
 16777215
 74
     1
 91
        4
 64
     7
 65
   257
 75
     1
175
     1
 42
1.0
 92
        0
 66
   257
 43
1.0
 76
     1
 77
     6
 78
     2
 67
     7
 79
     5
170
     0
171
     0
290
     0
174
     0
 93
       13
 44
0.0
173
     0
291
     1
 45
0.0
  0
VISUALSTYLE
  5
38
102
{ACAD_REACTORS
330
2A
102
}
330
2A
100
AcDbVisualStyle
  2
Linepattern
 70
    14
 71
     2
 72
     2
 73
     0
 90
        0
 40
-0.6
 41
-30.0
 62
     5
 63
     7
421
 16777215
 74
     1
 91
        4
 64
     7
 65
   257
 75
     7
175
     7
 42
1.0
 92
        8
 66
     7
 43
1.0
 76
     1
 77
     6
 78
     2
 67
     7
 79
     5
170
     0
171
     0
290
     0
174
     0
 93
        1
 44
0.0
173
     0
291
     1
 45
0.0
  0
VISUALSTYLE
  5
33
102
{ACAD_REACTORS
330
2A
102
}
330
2A
100
AcDbVisualStyle
  2
Realistic
 70
     8
 71
     2
 72
     2
 73
     0
 90
        0
 40
-0.6
 41
-30.0
 62
     5
 63
     7
421
 16777215
 74
     1
 91
        0
 64
     7
 65
   257
 75
     1
175
     1
 42
1.0
 92
        8
 66
     8
424
  7895160
 43
1.0
 76
     1
 77
     6
 78
     2
 67
     7
 79
     5
170
     0
171
     0
290
     0
174
     0
 93
       13
 44
0.0
173
     0
291
     0
 45
0.0
  0
VISUALSTYLE
  5
37
102
{ACAD_REACTORS
330
2A
102
}
330
2A
100
AcDbVisualStyle
  2
Thicken
 70
    13
 71
     2
 72
     2
 73
     0
 90
        0
 40
-0.6
 41
-30.0
 62
     5
 63
     7
421
 16777215
 74
     1
 91
        4
 64
     7
 65
   257
 75
     1
175
     1
 42
1.0
 92
       12
 66
     7
 43
1.0
 76
     1
 77
     6
 78
     2
 67
     7
 79
     5
170
     0
171
     0
290
     0
174
     0
 93
        1
 44
0.0
173
     0
291
     1
 45
0.0
  0
ENDSEC
  0
SECTION
  2
THUMBNAILIMAGE
 90
    16364
310
28000000B40000005500000001000800000000000000000000000000000000000000000000000000FFFFFF00FF000000FFFF000000FF000000FFFF000000FF00FF00FF000000000080808000C0C0C000FF000000FF7F7F00A5000000A55252007F0000007F3F3F004C0000004C2626002600000026131300FF3F0000FF9F7F
310
00A5290000A56752007F1F00007F4F3F004C1300004C2F26002609000026171300FF7F0000FFBF7F00A5520000A57C52007F3F00007F5F3F004C2600004C39260026130000261C1300FFBF0000FFDF7F00A57C0000A59152007F5F00007F6F3F004C3900004C422600261C000026211300FFFF0000FFFF7F00A5A50000A5A5
310
52007F7F00007F7F3F004C4C00004C4C26002626000026261300BFFF0000DFFF7F007CA5000091A552005F7F00006F7F3F00394C0000424C26001C260000212613007FFF0000BFFF7F0052A500007CA552003F7F00005F7F3F00264C0000394C2600132600001C2613003FFF00009FFF7F0029A5000067A552001F7F00004F
310
7F3F00134C00002F4C2600092600001726130000FF00007FFF7F0000A5000052A55200007F00003F7F3F00004C0000264C2600002600001326130000FF3F007FFF9F0000A5290052A56700007F1F003F7F4F00004C1300264C2F00002609001326170000FF7F007FFFBF0000A5520052A57C00007F3F003F7F5F00004C2600
310
264C39000026130013261C0000FFBF007FFFDF0000A57C0052A59100007F5F003F7F6F00004C3900264C420000261C001326210000FFFF007FFFFF0000A5A50052A5A500007F7F003F7F7F00004C4C00264C4C00002626001326260000BFFF007FDFFF00007CA5005291A500005F7F003F6F7F0000394C0026424C00001C26
310
0013212600007FFF007FBFFF000052A500527CA500003F7F003F5F7F0000264C0026394C0000132600131C2600003FFF007F9FFF000029A5005267A500001F7F003F4F7F0000134C00262F4C0000092600131726000000FF007F7FFF000000A5005252A50000007F003F3F7F0000004C0026264C0000002600131326003F00
310
FF009F7FFF002900A5006752A5001F007F004F3F7F0013004C002F264C0009002600171326007F00FF00BF7FFF005200A5007C52A5003F007F005F3F7F0026004C0039264C00130026001C132600BF00FF00DF7FFF007C00A5009152A5005F007F006F3F7F0039004C0042264C001C00260021132600FF00FF00FF7FFF00A5
310
00A500A552A5007F007F007F3F7F004C004C004C264C002600260026132600FF00BF00FF7FDF00A5007C00A55291007F005F007F3F6F004C0039004C26420026001C0026132100FF007F00FF7FBF00A5005200A5527C007F003F007F3F5F004C0026004C2639002600130026131C00FF003F00FF7F9F00A5002900A5526700
310
7F001F007F3F4F004C0013004C262F002600090026131700000000002D2D2D005B5B5B0089898900B7B7B700B3B3B30000000000000000000000000000000000000000000000000000000000000000000000000000000000000000000000000000000000000000000000000000000000000000000007070700000000000000
310
00000000000000000000000000000000000000000000000000000000000000000000000000000000000000000000000000000000000000000000000000000000000000000000000000000000000000000000000000000000000000000000000000000000000000000000000000000000000000000000000000000000000000
310
00000000000000000000000000000000000000000000000000000000000000000000000707070000000007070007070000000007070700000000000000000000000000000000000000000000000000000000000000000000000000000000000000000000000000000000000000000000000000000000000000000000000000
310
00000000000000000000000000000000000000000000000000000000000000000000000000000000000000000000000000000000000000000000000000000000000000000000000000000000000000000000000000000007070007070000000700000007000000070000070000000000000000000000000000000000000000
310
00000000000000000000000000000000000000000000000000000000000000000000000000000000000000000000000000000000000000000000000000000000000000000000000000000000000000000000000000000000000000000000000000000000000000000000000000000000000000000000000000000000000000
310
00000000000007070700000000070700000707000007000000070000070700000700000000070707070000000000000000000000000000000000000000000000000000000000000000000000000000000000000000000000000000000000000000000000000000000000000000000000000000000000000000000000000000
310
00000000000000000000000000000000000000000000000000000000000000000000000000000000000000000000000000000000000000000000000700000700000007000000000707070700000007070707000000070700000707000707000000000000000000000000000000000000000000000000000000000000000000
310
00000000000000000000000000000000000000000000000000000000000000000000000000000000000000000000000000000000000000000000000000000000000000000000000000000000000000000000000000000000000000000000000000000000000000000000000000000000070000000700000700000000070707
310
00000000000707070000000707000007000000070000000000000000000000000000000000000000000000000000000000000000000000000000000000000000000000000000000000000000000000000000000000000000000000000000000000000000000000000000000000000000000000000000000000000000000000
310
00000000000000000000000000000000000000000000000000000000000000000000000000000700000007070707000000000000000000000000000000000000000707070000000007000000000000000000000000000000000000000000000000000000000000000000000000000000000000000000000000000000000000
310
00000000000000000000000000000000000000000000000000000000000000000000000000000000000000000000000000000000000000000000000000000000000000000000000000000000000000000000000007070707000000070000000000000000000000000000000000000000000000000000000000000000070700
310
00070707070700000000000000000000000000000000000000000000000000000000000000000000000000000000000000000000000000000000000000000000000000000000000000000000000000000000000000000000000000000000000000000000000000000000000000000000000000000000000000000000000000
310
00000000000000000000070000070700000700000000000000000000000000000000000000000000000000000000000000000707000707070000070000000000000000000000000000000000000000000000000000000000000000000000000000000000000000000000000000000000000000000000000000000000000000
310
00000000000000000000000000000000000000000000000000000000000000000000000000000000000000000000000000000000000000000000000000000007070000000707070000000000000000000000000000000000000000000000000000000000000000000707070000000707000000000000000000000000000000
310
00000000000000000000000000000000000000000000000000000000000000000000000000000000000000000000000000000000000000000000000000000000000000000000000000000000000000000000000000000000000000000000000000000000000000000000000000000000000000000707000000000000000000
310
00000000000000000000000000000000000000000000000000000000000000000000000007000000000000000000000000000000000000000000000000000000000000000000000000000000000000000000000000000000000000000000000000000000000000000000000000000000000000000000000000000000000000
310
00000000000000000000000000000000000000000000000000000000000000000000000000000000000000070000000000000000000000000000000000000000000000000000000000000000000000000000000000000000000700000000000000000000000000000000000000000000000000000000000000000000000000
310
00000000000000000000000000000000000000000000000000000000000000000000000000000000000000000000000000000000000000000000000000000000000000000000000000000000000000000000000000000000000707070707000007000000000000000000000000000000000000000000000000000000000000
310
00000000000000000000000000000007000007070707000000000000000000000000000000000000000000000000000000000000000000000000000000000000000000000000000000000000000000000000000000000000000000000000000000000000000000000000000000000000000000000000000000000000000000
310
00000000000000000000000000000007000000070707070000000000000000000000000000000000000000000000000000000000000000000000000000000000000000000707070700000007000000000000000000000000000000000000000000000000000000000000000000000000000000000000000000000000000000
310
00000000000000000000000000000000000000000000000000000000000000000000000000000000000000000000000000000000000000000000000000000000000000000700000000000000000000000000000000000000000000000000000000000000000000000000000000000000000000000000000000000000000000
310
07070000000000000000000000000000000000000000000000000000000000000000000000000000000000000000000000000000000000000000000000000000000000000000000000000000000000000000000000000000000000000000000000000000000000000000000000000000000000000000000000070700000000
310
00000000000000000000000000000000000000000000000000000000000000000000000000000000000000000000000000000000000700000000000000000000000000000000000000000000000000000000000000000000000000000000000000000000000000000000000000000000000000000000000000000000000000
310
00000000000000000000000000000000000000000000000000000000000000000000000000000000000000000000000007070000000000000000000000000000000000000000000000000000000000000000000000000000000000000000000000000000000000000007070000000000000000000000000000000000000000
310
00000000000000000000000000000000000000000000000000000000000000000000000000000000000000000000000000000000000000000000000000000000000000000000000000000000000000000000000000000000000000000000000000000000000007000000000000000000000000000000000000000000000000
310
00000000000000000000000000000000000000000000000000000000000000070000000000000000000000000000000000000000000000000000000000000000000000000000000000000000000000000000000000000000000000000000000000000000000000000000000000000000000000000000000000000000000000
310
00000000000000000000000000000000000000000000070707070707070000000000000000000000000000000000000000000000000000000000000000000000000000000000000000000000000000000000000007070707070707000000000000000000000000000000000000000000000000000000000000000000000000
310
00000000000000000000000000000000000000000000000000000000000000000000000000000000000000000000000000000000000000000000000000000000000000000000000000000700000000070000000000000000000000000000000000000000000000000000000000000000000000000000000000000000000000
310
00000000000000000000000707000000000700000000000000000000000000000000000000000000000000000000000000000000000000000000000000000000000000000000000000000000000000000000000000000000000000000000000000000000000000000000000000000000000000000000000000000000000000
310
07070000000000000000000000000000000000000000000000000000000000000000000000000000000000000000000000000000000000000000000000000000000000000007070000000000000000000000000000000000000007070700000000000707070000000000000000000000000000000000000000000000000000
310
00000000000000000000000000000000000000000000000000000000000000000000000000000000000000000000000000000000000007000000000000000000000000000000000000000000000000000000000000000000000000000000000000000000000000000000000000000000000000000000000000070700000000
310
00000000000000000000000000000007070007070000000707000707000000000000000000000000000000000000000000000000000000000000000000000000000000000000000000000000000000000000000000000000000000000000000000000000000000000000000007000000000000000000000000000000000000
310
00000000000000000000000000000000000000000000000000000000000000000000000000000000000000000000000700000000000000000000000000000000000000000707000007000000070000070700000000000000000000000000000000000000000000000000000000000000000000000000000000000000000000
310
00000000000000000000000000000000000000000000000000000000000000000000070700000000000000000000000000000000000000000000000000000000000000000000000000000000000000000000000000000000000000000000000000000007000000000000000000000000000000000707000000070000000707
310
07070700000007000000070700000000000000000000000000000000000000000000000000000000000000000000000000000000000000000000000000000000000000000000000000000000000000000000000000000007070000000000000000000000000000000000000000000000000000000000000000000000000000
310
00000000000000000000000000000000000000000000000000070700000000000000000000000000070700070700000700000000000700000000000700000707000707000000000000000000000000000000000000000000000000000000000000000000000000000000000000000000000000000000000000000000000000
310
00000000000000000707070707070000000000000000000000000000000000000000000000000000000000000000000000000000000000000000000000000000000000000000000000000000000000070707070707000000000000000007000000070707070000000000000000000000070707070000000700000000000000
310
00000000000000000000000000000000000000000000000000000000000000000000000000000000000000000000000000000000000000000000000007000000000000000000000000000000000000000000000000000000000000000000000000000000000000000000000000000000000000000000000000000000000000
310
00000000000000000000070700000000000000070700000000000000000000000000000000000000000000000707000000000000000000000000000000000000000000000000000000000000000000000000000000000000000000000000000000000000000000000000000000000000000007000000000000000000000000
310
00000000000000000000000000000000000000000000000000000000000000000000000000000000000000000000000000000000000000000000000000000007000000000000000000070000000000000000000000000000000000000000000000070000000000000000000000000000000000000000000000000000000000
310
00000000000000000000000000000000000000000000000000000000000000000000000000000000070700000000000000000000000000000000000000000000000000000000000000000000000000000000000000000000000000000000000000000000000000000000000000000000000000070700000000000000000707
310
00000000000000000000000000000000000000000000000707000000000000000000000000000000000000000000000000000000000000000000000000000000000000000000000000000000000000000000000000000000000000000000070700000000000000000000000000000000000000000000000000000000000000
310
00000000000000000000000000000000000000000000000000000000000000000000000000000000070000000007070707070707070000000000000000000000000000000000000000000000070707070707070000000000000000000000000000000000000000000000000000000000000000000000000000000000000000
310
00000000000000000000000000000000000000000007070000000000000000000000000000000000000000000000000000000000000000000000000000000000000000000000000000000000000000000000000000000000000000000700000000000700000000070000000000000000000000000000000000000000000000
310
00000000070000000007000000000000000000000000000000000000000000000000000000000000000000000000000000000000000000000000000000000000000000000000000000000700000000000000000000000000000000000000000000000000000000000000000000000000000000000000000000000000000000
310
00000000000000000000000000000000000007070000000007070000000000000000000000000000000000000000000000000000000000000000000000070700000000000000000000000000000000000000000000000000000000000000000000000000000000000000000000000000000000000000000000000707070707
310
07000000000000000000000000000000000000000000000000000000000000000000000000000000000000000000000000000000000000000000000000000000000000000000000007070707070707070000000000000000000000000000000000000000000000000000000000000000000707000000000000000000000000
310
00000000000000000000000000000000000000000000000000000000000000000000000000000000000000000000000007000000000000000000000000000000000000000000000000000000000000000000000000000000000000000000000000000000000000000000000000000000000000000000000000000000000000
310
00000707000700000000000000000000000000000000000000000000000000000000000000000007000000000000000000000000000000000000000000000000000000000000000000000000000000000000000000000000000000000000000000000000000700000000000000000000000000000000000000000000000000
310
00000000000000000000000000000000000000000000000000000000000000000000000000000000000000000000000000000000000000000700070700000000000000000000000000000000000000000000000000000000000000070700000000000000000000000000000000000000000000000000000000000000000000
310
00000000000000000000000000000000000000000000000000000007070700000000000000000000000000000000000000000000000000000000000000000000000000000000000000000000000000000000000000000000000000000000000000000000000000000000000707000007000000000000000000000000000000
310
00000000000000000000000000000000000007000000000000000000000000000000000000000000000000000000000000000000000000000000000000000000000000000000000000000000000000000000070700000000000000000000000000000000000000000000000000000000000000000000000000000000000000
310
00000000000000000000000000000000000000000000000000000000000000070707070707000000000000000000000000000000000000000000000000000000000000000000000007070707000000000000000000000000000000000000000000000000000000000000000000000000000000000000000000000000000000
310
00000000000000000000070000000000000000000000000000000000000000000000000000000000000000000000000000000000000000000000000000000000000000000000000000000000000000000000000007070000000000000000000000000000000000000000000000000000000000000000000000000000000000
310
00070000000000000000000000000000000000000000000000000000000000000000000000000000000000000000000000000000000000000000000000000007000000000000000000000000000000000000000000000000000000000000000000000000000000000000000000000000000000000000000000000000000000
310
00000000000000000000070707000000000000000000000000000000000000000000000000000000000000000000000000000000000007070000000000000000000000000000000000000000000000000000000000000000000000000000000000000000000000000000000000000000000007070700000000000000000000
310
00000000000000000000000000000000000000000000000000000000000000000000000000000000000000000000000000000000000000000000000000000007070707000000000000000000000000000000000000000000000000000000000000000000000000000000070700000000000000000000000000000000000000
310
00000000000000000000000000000000000000000000000000000000000000000000000000070707070000000000000000000000000000000000000000000000000000000000000000000000000000000000000000000000000000000000000000000000000000000000000000000000000000000000070707070000000000
310
00000000000000000000000000000000000000000000000000000000000000070700000000000000000000000000000000000000000000000000000000000000000000000000000000000000000000000000000000000000000007070000000000000000000000000000000000000000000000000000000000000000000000
310
00000000000700000000000000000000000000000000000000000000000000000000000000000000000000000000070700000000000000000000000000000000000700000000000000000000000000000000000700000000000000000000000000000000000000000000000000000000000000000000000000000000000000
310
00000000000000000000000000000000070700000000000000000000000000000000000000000000000000000000000000000000000000000707070700000000000000000000000000000000000000000000000000000000000000000000000000000007070000000000000000000000000000000707070707000000000000
310
00000000000000000007000000000000000000000000000000000000000000000000000000000000000000000000000000000000000000000000000000000000000000000007070707000000000000000000000000000000000000000000000000000000000000000000000000000007000000000000000000000000000000
310
00000000000000000000000000000000000000000000000707070700000000000000000000000000000000000700000000000000000000000000000000000007070000000000000000000000000000000000000000000000000000000000000000000000000000000000000000000000000000000000000000000000000707
310
07000000000000000000000000000000000000000000000000000000000000000000000000070000000000000000000000000000000000000000000000000000000000000000000000000707070700000000000000000000000000000000000000070000000000000000000000000000000000000007070000000000000000
310
00000000000000000000000000000000000000000000000000000000000000000000000000000000000000000000000000000000000700000000000000000000000000000000000000000000000000000000000000000000000000000000000000000000000000000000000000000000000000000000000000000000000000
310
07070700000000000000000000000000000000000000000000000000000000000000000000000000000000000707000000000000000000000000000000000000000000000000000000000000000000000000000000000000000000000000000000000000000000000000070000000000000000000000000000000000000000
310
00000000000000000000000000000000000000000000000000000000000000000000000000000000000000000000000000000000000707000000000000000000000000000000000000000000000000000000000000000000000000000000000000070000000000000000000000000000000000000000000000000000000000
310
00000000000000000000000000000000000000000000000000000000000007070000000000000000000000000000000000000000000000000000000000000000000000000000000000000000000000000000000000000000000000000000000000000000000000000000070707070707000000000000000000000000000000
310
00000000000000000000000000000000000000000707070700000000000000000000000000000000000000000000000000000000000000000000000000000000000000000000000000000000000000000007070700000000000000000000000000000000000000000000000000000000000000000000000000000000000000
310
00000000000000000000000000000000000000000000000000000000000000000000070700000700000000000000000000000000000000000000000000000000000000000000000007000000000000000000000000000000000000000000000000000000000000000000000000000000000000000000000000000000000000
310
00000000000000070000000000000000000000000000000000000000000000000000000000000000000000000000000000000000000000000000000000000000000000000000000000000000000000000000000000000000000700070700000000000000000000000000000000000000000000000000000000000000070700
310
00000000000000000000000000000000000000000000000000000000000000000000000000000000000000000000000000000000000000000000000007000000000000000000000000000000000000000000000000000000000000000000000000000000000000000000000000000000000000000000000000000000000000
310
00000000000000000000000000000707000700000000000000000000000000000000000000000000000000000000000000000007000000000000000000000000000000000000000000000000000000000000000000000000000000000000000000000000000000000000000000000000000707070707070000000000000000
310
00000000000000000000000000000000000000000000000000000000000000000000000000000000000000000000000000000000000000000000000000000007070707070707070000000000000000000000000000000000000000000000000000000000000000000707000000000000000000000000000000000000000000
310
00000000000000000000000000000000000000000000000000000000000000000000000000000000000000000700000000000000000000000000000000000000000000000000000000000000000000000000000000000000000000000000000000000000000000000000000000000000000000070700000000070700000000
310
00000000000000000000000000000000000000000000000000000000000000070700000000000000000000000000000000000000000000000000000000000000000000000000000000000000000000000000000000000000000000000000000000070700000000000000000000000000000000000000000000000000000000
310
00000000000000000000000000000000000000000000000000000000000000000000000000000000000700000000000700000000000000000000000000000000000000000000000000000000000000000000000000070000000000000000000000000000000000000000000000000000000000000000000000000000000000
310
00000000000000000000000000000000000000000000070700000000000000000000000000000000000000000000000000000000000000000000000000000000000000000000000000000000000000000000000000000000000000000000000700000000070707070707070700000000000000000000000000000000000000
310
00000000070707070707070000000000000000000000000000000000000000000000000000000000000000000000000000000000000000000000000000000000000000000000000000000707000000000000000000000000000000000000000000000000000000000000000000000000000000000000000000000000000000
310
00000000000000000000000000000000000000000000070700000007000000000707000000000000000000000000000000000000000000000007070000000007000000000000000000000000000000000000000000000000000000000000000000000000000000000000000000000000000000000000000000000000000000
310
07000000000000000000000000000000000000000000000000000000000000000000000000000000000000000000000000000000000000000000000000000000000000000000000000000000070000000000000000000700000000000000000000000000000000000000000000000700000000000000000000000000000000
310
00000000000000000000000000000000000000000000000000000000000000000000000000000000000000000000000000000000070000000000000000000000000000000000000000000000000000000000000000000000000000000000000000000000000000000000000000000000000000000000000000000000000000
310
00000707000000000000000707000000000000000000000000000000000000000000000007070000000000000000000000000000000000000000000000000000000000000000000000000000000000000000000000000000000000000000000000000000000000000000070707070707000000000000000000000000000000
310
00000000000000000000000000000000000000000000000000000000000000000000000000000000000000000000000000000707070707070000000000000000070000000707070700000000000000000000000707070700000007000000000000000000000000000000000000000000000000000000000000000000000000
310
00000000000000000000000000000000000000000000000000000000000000000000000000070700000000000000000000000000000000000000000000000000000000000000000000000000000000000000000000000000000000000000000000000000000007070000000000000000000000000007000007070000070000
310
00000007000000000007000007070000070000000000000000000000000000000000000000000000000000000000000000000000000000000000000000000000000000000000000000000000000000000000000000000000000007070000000000000000000000000000000000000000000000000000000000000000000000
310
00000000000000000000000000000000000000000000000000000000070000000000000000000000000000000707070000000700000007070707070000000700000007070700000000000000000000000000000000000000000000000000000000000000000000000000000000000000000000000000000000000000000000
310
00000000000000000000000000000000070000000000000000000000000000000000000000000000000000000000000000000000000000000000000000000000000000000000000000000000000000000000070000000000000000000000000000000000000000070700000700000007000007070000000000000000000000
310
00000000000000000000000000000000000000000000000000000000000000000000000000000000000000000000000000000000000000000000000000000000000000000700000000000000000000000000000000000000000000000000000000000000000000000000000000000000000000000000000000000000000000
310
00000000000000000707000000000000000000000000000000000000000707000707000000070700070700000000000000000000000000000000000000000000000000000000000000000000000000000000000000000000000000000000000000000000000000000000000000000000000000000000000007070000000000
310
00000000000000000000000000000000000000000000000000000000000000000000000000000000000000000000000000000000000000000000000000000707000000000000000000000000000000000000000707070000000000070707000000000000000000000000000000000000000000000000000000000000000000
310
00000000000000000000000000000000000000000000000000000000000000000000000000000000000000000000070000000007000000000000000000000000000000000000000000000000000000000000000000000000000000000000000000000000000000000000000000000707000000000700000000000000000000
310
00000000000000000000000000000000000000000000000000000000000000000000000000000000000000000000000000000000000000000000000000000000000000000000000000000000000000000000000000000000000000000000000000000000070707070707070000000000000000000000000000000000000000
310
00000000000000000000000000000000000000000000000000000000000000000000000707070707070700000000000000000000000000000000000000000000000000000000000000000000000000000000000000000000000000000000000000000000000000000000000000000000000000000000000000000000000000
310
00000000000000000000000000000000000000000000000000000000000000000700000000000000000000000000000000000000000000000000000000000000000000000000000000000000000000000000000000000000070000000000000000000000000000000000000000000000000000000000000000000000000000
310
00000000000000000000000000000000000000000000000000000000000000000000000000000000000000000000000000000000000000000000000000000000000000000000000000000000000000000000000007070000000000000000000000000000000000000000000000000000000000000000000000000000000000
310
00000000000000000000000000000707000000000000000000000000000000000000000000000000000000000000000000000000000000000000000000000000000000000000000000000000000000000000000000000000000000000000000000000000000000000000000000000000000000000000000000000000000000
310
00000000000000000007070000000000000000000000000000000000000000000000000000000000000000000000000000000000000000000000000000000000000000000700000000000000000000000000000000000000000000000000000000000000000000000000000000000000000000000000000000000000000000
310
00000000000000000000000000000000000000000000000000000000000000000000000000000000000000000000000000000000000000000000000000000700000000000000000000000000000000000000000000000000000000000000000000000000000000000000000000000000000000000000000000070700000000
310
00000000000000000000000000000000000000000000000000000000000000000000000000000000000000000000000000000000000000000000000000000000000000000000000000000000000000000000000000000000000000000000000000000000000000000000000000000000000000070000000707070700000000
310
00000000000000000000000000000000000000000000000000000000000000000000000000000000000707070700000007000000000000000000000000000000000000000000000000000000000000000000000000000000000000000000000000000000000000000000000000000000000000000000000000000000000000
310
00000000000000000000000000000000000000000000000000000000000000000000000000000000000707070707000007000000000000000000000000000000000000000000000000000000000000000000000000000000000000000000070000070707070000000000000000000000000000000000000000000000000000
310
00000000000000000000000000000000000000000000000000000000000000000000000000000000000000000000000000000000000000000000000000000000000000000000000000000000000000000000000000000000000000000000000700000000000700000000000000000000000000000000000000000000000000
310
00000000000000000000000000000000000000000700000000000700000000000000000000000000000000000000000000000000000000000000000000000000000000000000000000000000000000000000000000000000000000000000000000000000000000000000000000000000000000000000000000000000000000
310
00000000000000000000000000000000000000000000000000000707000000000000000000000000000000000000000000000000000000000000000000000000000000000000000000070000000000000000000000000000000000000000000000000000000000000000000000000000000000000000000000000000000000
310
00000000000000000000000000000000000000000000000000000000000000000000000000000000000000000000000000000000000000000000000000000000000000000000000000000000000000070700000007070700000000000000000000000000000000000000000000000000000000000000000007070700000007
310
07000000000000000000000000000000000000000000000000000000000000000000000000000000000000000000000000000000000000000000000000000000000000000000000000000000000000000000000000000000000000000000000000000000000000000000000000000000000000000000000000000000000000
310
00000000000700000707000007000000000000000000000000000000000000000000000000000000000000000007070007070700000700000000000000000000000000000000000000000000000000000000000000000000000000000000000000000000000000000000000000000000000000000000000000000000000000
310
00000000000000000000000000000000000000000000000000000000000000000000000000000000000000000000000000000000000000000000070707070000000700000000000000000000000000000000000000000000000000000000000000000707000007070707070000000000000000000000000000000000000000
310
00000000000000000000000000000000000000000000000000000000000000000000000000000000000000000000000000000000000000000000000000000000000000000000000000000000000000000000000000000000000000000000000000000000000000000000000000000000000700000000070000000707070700
310
00000000000000000000000000000000000007070700000000070000000007000000000000000000000000000000000000000000000000000000000000000000000000000000000000000000000000000000000000000000000000000000000000000000000000000000000000000000000000000000000000000000000000
310
00000000000000000000000000000000000000000000000000000000000000000000000000000000000000000700000007000007000000000707070000000000070707000000070700000700000007000000000000000000000000000000000000000000000000000000000000000000000000000000000000000000000000
310
00000000000000000000000000000000000000000000000000000000000000000000000000000000000000000000000000000000000000000000000000000000000000000000000000000000000000000000000000000000000000000000000000070000070000000700000000070707070000000707070700000007070000
310
07070000070000000000000000000000000000000000000000000000000000000000000000000000000000000000000000000000000000000000000000000000000000000000000000000000000000000000000000000000000000000000000000000000000000000000000000000000000000000000000000000000000000
310
00000000000000000000000000000000000000000000000707070000000007070000070700000700000007000007070000070000000007070707000000000000000000000000000000000000000000000000000000000000000000000000000000000000000000000000000000000000000000000000000000000000000000
310
00000000000000000000000000000000000000000000000000000000000000000000000000000000000000000000000000000000000000000000000000000000000000000000000000000000000000000000000707000707000000070000000700000007000007000000000000000000000000000000000000000000000000
310
00000000000000000000000000000000000000000000000000000000000000000000000000000000000000000000000000000000000000000000000000000000000000000000000000000000000000000000000000000000000000000000000000000000000000000000000000000000000000000000000000000000000000
310
00000000000000000000070707000000000707000707000000000707070000000000000000000000000000000000000000000000000000000000000000000000000000000000000000000000000000000000000000000000000000000000000000000000000000000000000000000000000000000000000000000000000000
310
00000000000000000000000000000000000000000000000000000000000000000000000000000000000000000000000000000000000000000000000000000000070700000000000707070000000000070000000000000000000000000000000000000000000000000000000000000000000000000000000000000000000000
310
00000000000000000000000000000000000000000000000000000000000000000000000000000000000000000000000000000000000000000000000000000000000000000000000000000000000000000000000000000000000000000000000000000000000000000000000000000000000000000000000000000000000000
310
000000000000000000000000000000000000000000000000000000000000000000000000000000000000000000000000000000000000000000000000000000000000000000000000000000000000000000000000000000000000000000000000000000000000000000000000
  0
ENDSEC
  0
EOF
