  0
SECTION
  2
HEADER
  9
$ACADVER
  1
AC1021
  9
$ACADMAINTVER
 70
    25
  9
$DWGCODEPAGE
  3
ANSI_1251
  9
$INSBASE
 10
0.0
 20
0.0
 30
0.0
  9
$EXTMIN
 10
1.000000000000000E+20
 20
1.000000000000000E+20
 30
1.000000000000000E+20
  9
$EXTMAX
 10
-1.000000000000000E+20
 20
-1.000000000000000E+20
 30
-1.000000000000000E+20
  9
$LIMMIN
 10
0.0
 20
0.0
  9
$LIMMAX
 10
420.0
 20
297.0
  9
$ORTHOMODE
 70
     0
  9
$REGENMODE
 70
     1
  9
$FILLMODE
 70
     1
  9
$QTEXTMODE
 70
     0
  9
$MIRRTEXT
 70
     1
  9
$LTSCALE
 40
1.0
  9
$ATTMODE
 70
     1
  9
$TEXTSIZE
 40
2.5
  9
$TRACEWID
 40
1.0
  9
$TEXTSTYLE
  7
Standard
  9
$CLAYER
  8
0
  9
$CELTYPE
  6
ByLayer
  9
$CECOLOR
 62
   256
  9
$CELTSCALE
 40
1.0
  9
$DISPSILH
 70
     0
  9
$DIMSCALE
 40
1.0
  9
$DIMASZ
 40
2.5
  9
$DIMEXO
 40
0.625
  9
$DIMDLI
 40
3.75
  9
$DIMRND
 40
0.0
  9
$DIMDLE
 40
0.0
  9
$DIMEXE
 40
1.25
  9
$DIMTP
 40
0.0
  9
$DIMTM
 40
0.0
  9
$DIMTXT
 40
2.5
  9
$DIMCEN
 40
2.5
  9
$DIMTSZ
 40
0.0
  9
$DIMTOL
 70
     0
  9
$DIMLIM
 70
     0
  9
$DIMTIH
 70
     0
  9
$DIMTOH
 70
     0
  9
$DIMSE1
 70
     0
  9
$DIMSE2
 70
     0
  9
$DIMTAD
 70
     1
  9
$DIMZIN
 70
     8
  9
$DIMBLK
  1

  9
$DIMASO
 70
     1
  9
$DIMSHO
 70
     1
  9
$DIMPOST
  1

  9
$DIMAPOST
  1

  9
$DIMALT
 70
     0
  9
$DIMALTD
 70
     3
  9
$DIMALTF
 40
0.03937007874016
  9
$DIMLFAC
 40
1.0
  9
$DIMTOFL
 70
     1
  9
$DIMTVP
 40
0.0
  9
$DIMTIX
 70
     0
  9
$DIMSOXD
 70
     0
  9
$DIMSAH
 70
     0
  9
$DIMBLK1
  1

  9
$DIMBLK2
  1

  9
$DIMSTYLE
  2
ISO-25
  9
$DIMCLRD
 70
     0
  9
$DIMCLRE
 70
     0
  9
$DIMCLRT
 70
     0
  9
$DIMTFAC
 40
1.0
  9
$DIMGAP
 40
0.625
  9
$DIMJUST
 70
     0
  9
$DIMSD1
 70
     0
  9
$DIMSD2
 70
     0
  9
$DIMTOLJ
 70
     0
  9
$DIMTZIN
 70
     8
  9
$DIMALTZ
 70
     0
  9
$DIMALTTZ
 70
     0
  9
$DIMUPT
 70
     0
  9
$DIMDEC
 70
     2
  9
$DIMTDEC
 70
     2
  9
$DIMALTU
 70
     2
  9
$DIMALTTD
 70
     3
  9
$DIMTXSTY
  7
Standard
  9
$DIMAUNIT
 70
     0
  9
$DIMADEC
 70
     0
  9
$DIMALTRND
 40
0.0
  9
$DIMAZIN
 70
     0
  9
$DIMDSEP
 70
    44
  9
$DIMATFIT
 70
     3
  9
$DIMFRAC
 70
     0
  9
$DIMLDRBLK
  1

  9
$DIMLUNIT
 70
     2
  9
$DIMLWD
 70
    -2
  9
$DIMLWE
 70
    -2
  9
$DIMTMOVE
 70
     0
  9
$DIMFXL
 40
1.0
  9
$DIMFXLON
 70
     0
  9
$DIMJOGANG
 40
0.7853981633974483
  9
$DIMTFILL
 70
     0
  9
$DIMTFILLCLR
 70
     0
  9
$DIMARCSYM
 70
     0
  9
$DIMLTYPE
  6

  9
$DIMLTEX1
  6

  9
$DIMLTEX2
  6

  9
$LUNITS
 70
     2
  9
$LUPREC
 70
     4
  9
$SKETCHINC
 40
1.0
  9
$FILLETRAD
 40
10.0
  9
$AUNITS
 70
     0
  9
$AUPREC
 70
     0
  9
$MENU
  1
.
  9
$ELEVATION
 40
0.0
  9
$PELEVATION
 40
0.0
  9
$THICKNESS
 40
0.0
  9
$LIMCHECK
 70
     0
  9
$CHAMFERA
 40
10.0
  9
$CHAMFERB
 40
10.0
  9
$CHAMFERC
 40
20.0
  9
$CHAMFERD
 40
0.0
  9
$SKPOLY
 70
     0
  9
$TDCREATE
 40
2456577.78731971
  9
$TDUCREATE
 40
2456577.53731971
  9
$TDUPDATE
 40
2456577.787319722
  9
$TDUUPDATE
 40
2456577.537319722
  9
$TDINDWG
 40
0.0000000116
  9
$TDUSRTIMER
 40
0.0000000116
  9
$USRTIMER
 70
     1
  9
$ANGBASE
 50
0.0
  9
$ANGDIR
 70
     0
  9
$PDMODE
 70
     0
  9
$PDSIZE
 40
0.0
  9
$PLINEWID
 40
0.0
  9
$SPLFRAME
 70
     0
  9
$SPLINETYPE
 70
     6
  9
$SPLINESEGS
 70
     8
  9
$HANDSEED
  5
14F
  9
$SURFTAB1
 70
     6
  9
$SURFTAB2
 70
     6
  9
$SURFTYPE
 70
     6
  9
$SURFU
 70
     6
  9
$SURFV
 70
     6
  9
$UCSBASE
  2

  9
$UCSNAME
  2

  9
$UCSORG
 10
0.0
 20
0.0
 30
0.0
  9
$UCSXDIR
 10
1.0
 20
0.0
 30
0.0
  9
$UCSYDIR
 10
0.0
 20
1.0
 30
0.0
  9
$UCSORTHOREF
  2

  9
$UCSORTHOVIEW
 70
     0
  9
$UCSORGTOP
 10
0.0
 20
0.0
 30
0.0
  9
$UCSORGBOTTOM
 10
0.0
 20
0.0
 30
0.0
  9
$UCSORGLEFT
 10
0.0
 20
0.0
 30
0.0
  9
$UCSORGRIGHT
 10
0.0
 20
0.0
 30
0.0
  9
$UCSORGFRONT
 10
0.0
 20
0.0
 30
0.0
  9
$UCSORGBACK
 10
0.0
 20
0.0
 30
0.0
  9
$PUCSBASE
  2

  9
$PUCSNAME
  2

  9
$PUCSORG
 10
0.0
 20
0.0
 30
0.0
  9
$PUCSXDIR
 10
1.0
 20
0.0
 30
0.0
  9
$PUCSYDIR
 10
0.0
 20
1.0
 30
0.0
  9
$PUCSORTHOREF
  2

  9
$PUCSORTHOVIEW
 70
     0
  9
$PUCSORGTOP
 10
0.0
 20
0.0
 30
0.0
  9
$PUCSORGBOTTOM
 10
0.0
 20
0.0
 30
0.0
  9
$PUCSORGLEFT
 10
0.0
 20
0.0
 30
0.0
  9
$PUCSORGRIGHT
 10
0.0
 20
0.0
 30
0.0
  9
$PUCSORGFRONT
 10
0.0
 20
0.0
 30
0.0
  9
$PUCSORGBACK
 10
0.0
 20
0.0
 30
0.0
  9
$USERI1
 70
     0
  9
$USERI2
 70
     0
  9
$USERI3
 70
     0
  9
$USERI4
 70
     0
  9
$USERI5
 70
     0
  9
$USERR1
 40
0.0
  9
$USERR2
 40
0.0
  9
$USERR3
 40
0.0
  9
$USERR4
 40
0.0
  9
$USERR5
 40
0.0
  9
$WORLDVIEW
 70
     1
  9
$SHADEDGE
 70
     3
  9
$SHADEDIF
 70
    70
  9
$TILEMODE
 70
     1
  9
$MAXACTVP
 70
    64
  9
$PINSBASE
 10
0.0
 20
0.0
 30
0.0
  9
$PLIMCHECK
 70
     0
  9
$PEXTMIN
 10
1.000000000000000E+20
 20
1.000000000000000E+20
 30
1.000000000000000E+20
  9
$PEXTMAX
 10
-1.000000000000000E+20
 20
-1.000000000000000E+20
 30
-1.000000000000000E+20
  9
$PLIMMIN
 10
0.0
 20
0.0
  9
$PLIMMAX
 10
420.0
 20
297.0
  9
$UNITMODE
 70
     0
  9
$VISRETAIN
 70
     1
  9
$PLINEGEN
 70
     0
  9
$PSLTSCALE
 70
     1
  9
$TREEDEPTH
 70
  3020
  9
$CMLSTYLE
  2
Standard
  9
$CMLJUST
 70
     0
  9
$CMLSCALE
 40
20.0
  9
$PROXYGRAPHICS
 70
     1
  9
$MEASUREMENT
 70
     1
  9
$CELWEIGHT
370
    -1
  9
$ENDCAPS
280
     0
  9
$JOINSTYLE
280
     0
  9
$LWDISPLAY
290
     0
  9
$INSUNITS
 70
     4
  9
$HYPERLINKBASE
  1

  9
$STYLESHEET
  1

  9
$XEDIT
290
     1
  9
$CEPSNTYPE
380
     0
  9
$PSTYLEMODE
290
     1
  9
$FINGERPRINTGUID
  2
{534E619A-780E-42F6-A014-F89CA860043D}
  9
$VERSIONGUID
  2
{FAEB1C32-E019-11D5-929B-00C0DF256EC4}
  9
$EXTNAMES
290
     1
  9
$PSVPSCALE
 40
0.0
  9
$OLESTARTUP
290
     0
  9
$SORTENTS
280
   127
  9
$INDEXCTL
280
     0
  9
$HIDETEXT
280
     1
  9
$XCLIPFRAME
290
     0
  9
$HALOGAP
280
     0
  9
$OBSCOLOR
 70
   257
  9
$OBSLTYPE
280
     0
  9
$INTERSECTIONDISPLAY
280
     0
  9
$INTERSECTIONCOLOR
 70
   257
  9
$DIMASSOC
280
     2
  9
$PROJECTNAME
  1

  9
$CAMERADISPLAY
290
     0
  9
$LENSLENGTH
 40
50.0
  9
$CAMERAHEIGHT
 40
0.0
  9
$STEPSPERSEC
 40
2.0
  9
$STEPSIZE
 40
6.0
  9
$3DDWFPREC
 40
2.0
  9
$PSOLWIDTH
 40
5.0
  9
$PSOLHEIGHT
 40
80.0
  9
$LOFTANG1
 40
1.570796326794897
  9
$LOFTANG2
 40
1.570796326794897
  9
$LOFTMAG1
 40
0.0
  9
$LOFTMAG2
 40
0.0
  9
$LOFTPARAM
 70
     7
  9
$LOFTNORMALS
280
     1
  9
$LATITUDE
 40
37.795
  9
$LONGITUDE
 40
-122.394
  9
$NORTHDIRECTION
 40
0.0
  9
$TIMEZONE
 70
 -8000
  9
$LIGHTGLYPHDISPLAY
280
     1
  9
$TILEMODELIGHTSYNCH
280
     1
  9
$SOLIDHIST
280
     1
  9
$SHOWHIST
280
     1
  9
$DWFFRAME
280
     2
  9
$DGNFRAME
280
     2
  9
$REALWORLDSCALE
290
     1
  9
$INTERFERECOLOR
 62
   256
  9
$CSHADOW
280
     0
  9
$SHADOWPLANELOCATION
 40
0.0
  0
ENDSEC
  0
SECTION
  2
CLASSES
  0
CLASS
  1
ACDBDICTIONARYWDFLT
  2
AcDbDictionaryWithDefault
  3
ObjectDBX Classes
 90
        0
 91
        4
280
     0
281
     0
  0
CLASS
  1
VISUALSTYLE
  2
AcDbVisualStyle
  3
ObjectDBX Classes
 90
     4095
 91
        4
280
     0
281
     0
  0
ENDSEC
  0
SECTION
  2
TABLES
  0
TABLE
  2
VPORT
  5
8
330
0
100
AcDbSymbolTable
 70
     1
  0
VPORT
  5
29
330
8
100
AcDbSymbolTableRecord
100
AcDbViewportTableRecord
  2
*Active
 70
     0
 10
0.0
 20
0.0
 11
1.0
 21
1.0
 12
30.19021740110668
 22
46.43168720537466
 13
0.0
 23
0.0
 14
10.0
 24
10.0
 15
10.0
 25
10.0
 16
0.0
 26
0.0
 36
1.0
 17
0.0
 27
0.0
 37
0.0
 40
67.1535857236315
 41
0.4882688539525748
 42
50.0
 43
0.0
 44
0.0
 50
0.0
 51
0.0
 71
     0
 72
   100
 73
     1
 74
     3
 75
     0
 76
     0
 77
     0
 78
     0
281
     0
 65
     1
110
0.0
120
0.0
130
0.0
111
1.0
121
0.0
131
0.0
112
0.0
122
1.0
132
0.0
 79
     0
146
0.0
 60
     3
 61
     5
292
     1
282
     1
141
0.0
142
0.0
 63
   250
  0
ENDTAB
  0
TABLE
  2
LTYPE
  5
5
330
0
100
AcDbSymbolTable
 70
     3
  0
LTYPE
  5
14
330
5
100
AcDbSymbolTableRecord
100
AcDbLinetypeTableRecord
  2
ByBlock
 70
     0
  3

 72
    65
 73
     0
 40
0.0
  0
LTYPE
  5
15
330
5
100
AcDbSymbolTableRecord
100
AcDbLinetypeTableRecord
  2
ByLayer
 70
     0
  3

 72
    65
 73
     0
 40
0.0
  0
LTYPE
  5
16
330
5
100
AcDbSymbolTableRecord
100
AcDbLinetypeTableRecord
  2
Continuous
 70
     0
  3
Solid line
 72
    65
 73
     0
 40
0.0
  0
LTYPE
  5
3F
330
5
100
AcDbSymbolTableRecord
100
AcDbLinetypeTableRecord
  2
K5LT_THIN
 70
     0
  3

 72
    65
 73
     0
 40
0.0
  0
LTYPE
  5
A1
330
5
100
AcDbSymbolTableRecord
100
AcDbLinetypeTableRecord
  2
K5LT32768
 70
     0
  3

 72
    65
 73
     0
 40
0.0
  0
ENDTAB
  0
TABLE
  2
LAYER
  5
2
330
0
100
AcDbSymbolTable
 70
     3
  0
LAYER
  5
10
330
2
100
AcDbSymbolTableRecord
100
AcDbLayerTableRecord
  2
0
 70
     0
 62
     7
  6
Continuous
370
    -3
390
F
347
0
  0
LAYER
  5
3C
330
2
100
AcDbSymbolTableRecord
100
AcDbLayerTableRecord
  2
0 (1)
 70
     0
 62
     7
  6
Continuous
370
    -3
390
F
347
0
  0
LAYER
  5
3D
330
2
100
AcDbSymbolTableRecord
100
AcDbLayerTableRecord
  2
DEFPOINTS
 70
     0
 62
     7
  6
Continuous
290
     0
370
    -3
390
F
347
0
  0
ENDTAB
  0
TABLE
  2
STYLE
  5
3
330
0
100
AcDbSymbolTable
 70
     1
  0
STYLE
  5
11
330
3
100
AcDbSymbolTableRecord
100
AcDbTextStyleTableRecord
  2
Standard
 70
     0
 40
0.0
 41
1.0
 50
0.0
 71
     0
 42
2.5
  3
txt
  4

  0
ENDTAB
  0
TABLE
  2
VIEW
  5
6
330
0
100
AcDbSymbolTable
 70
     0
  0
ENDTAB
  0
TABLE
  2
UCS
  5
7
330
0
100
AcDbSymbolTable
 70
     0
  0
ENDTAB
  0
TABLE
  2
APPID
  5
9
330
0
100
AcDbSymbolTable
 70
     2
  0
APPID
  5
12
330
9
100
AcDbSymbolTableRecord
100
AcDbRegAppTableRecord
  2
ACAD
 70
     0
  0
APPID
  5
3B
330
9
100
AcDbSymbolTableRecord
100
AcDbRegAppTableRecord
  2
KOMPAS
 70
     0
  0
ENDTAB
  0
TABLE
  2
DIMSTYLE
  5
A
330
0
100
AcDbSymbolTable
 70
     1
100
AcDbDimStyleTable
  0
DIMSTYLE
105
27
330
A
100
AcDbSymbolTableRecord
100
AcDbDimStyleTableRecord
  2
ISO-25
 70
     0
 41
2.5
 42
0.625
 43
3.75
 44
1.25
 73
     0
 74
     0
 77
     1
 78
     8
140
2.5
141
2.5
143
0.03937007874016
147
0.625
171
     3
172
     1
271
     2
272
     2
274
     3
278
    44
283
     0
284
     8
340
11
  0
ENDTAB
  0
TABLE
  2
BLOCK_RECORD
  5
1
330
0
100
AcDbSymbolTable
 70
    15
  0
BLOCK_RECORD
  5
1F
330
1
100
AcDbSymbolTableRecord
100
AcDbBlockTableRecord
  2
*Model_Space
340
22
 70
     0
280
     1
281
     0
  0
BLOCK_RECORD
  5
1B
330
1
100
AcDbSymbolTableRecord
100
AcDbBlockTableRecord
  2
*Paper_Space
340
1E
 70
     0
280
     1
281
     0
  0
BLOCK_RECORD
  5
23
330
1
100
AcDbSymbolTableRecord
100
AcDbBlockTableRecord
  2
*Paper_Space0
340
26
 70
     0
280
     1
281
     0
  0
BLOCK_RECORD
  5
3E
330
1
100
AcDbSymbolTableRecord
100
AcDbBlockTableRecord
  2
KDIMARROW_00
340
0
 70
     0
280
     1
281
     0
  0
BLOCK_RECORD
  5
43
330
1
100
AcDbSymbolTableRecord
100
AcDbBlockTableRecord
  2
KDIMARROW_01
340
0
 70
     0
280
     1
281
     0
  0
BLOCK_RECORD
  5
4C
330
1
100
AcDbSymbolTableRecord
100
AcDbBlockTableRecord
  2
KDIMARROW_02
340
0
 70
     0
280
     1
281
     0
  0
BLOCK_RECORD
  5
56
330
1
100
AcDbSymbolTableRecord
100
AcDbBlockTableRecord
  2
KDIMARROW_03
340
0
 70
     0
280
     1
281
     0
  0
BLOCK_RECORD
  5
5C
330
1
100
AcDbSymbolTableRecord
100
AcDbBlockTableRecord
  2
KDIMARROW_04
340
0
 70
     0
280
     1
281
     0
  0
BLOCK_RECORD
  5
62
330
1
100
AcDbSymbolTableRecord
100
AcDbBlockTableRecord
  2
KDIMARROW_05
340
0
 70
     0
280
     1
281
     0
  0
BLOCK_RECORD
  5
6B
330
1
100
AcDbSymbolTableRecord
100
AcDbBlockTableRecord
  2
KDIMARROW_06
340
0
 70
     0
280
     1
281
     0
  0
BLOCK_RECORD
  5
75
330
1
100
AcDbSymbolTableRecord
100
AcDbBlockTableRecord
  2
KDIMARROW_07
340
0
 70
     0
280
     1
281
     0
  0
BLOCK_RECORD
  5
7B
330
1
100
AcDbSymbolTableRecord
100
AcDbBlockTableRecord
  2
KDIMARROW_08
340
0
 70
     0
280
     1
281
     0
  0
BLOCK_RECORD
  5
82
330
1
100
AcDbSymbolTableRecord
100
AcDbBlockTableRecord
  2
KDIMARROW_09
340
0
 70
     0
280
     1
281
     0
  0
BLOCK_RECORD
  5
88
330
1
100
AcDbSymbolTableRecord
100
AcDbBlockTableRecord
  2
KDIMARROW_10
340
0
 70
     0
280
     1
281
     0
  0
BLOCK_RECORD
  5
8F
330
1
100
AcDbSymbolTableRecord
100
AcDbBlockTableRecord
  2
KDIMARROW_11
340
0
 70
     0
280
     1
281
     0
  0
BLOCK_RECORD
  5
95
330
1
100
AcDbSymbolTableRecord
100
AcDbBlockTableRecord
  2
KDIMARROW_12
340
0
 70
     0
280
     1
281
     0
  0
BLOCK_RECORD
  5
9B
330
1
100
AcDbSymbolTableRecord
100
AcDbBlockTableRecord
  2
KDIMARROW_13
340
0
 70
     0
280
     1
281
     0
  0
ENDTAB
  0
ENDSEC
  0
SECTION
  2
BLOCKS
  0
BLOCK
  5
20
330
1F
100
AcDbEntity
  8
0
100
AcDbBlockBegin
  2
*Model_Space
 70
     0
 10
0.0
 20
0.0
 30
0.0
  3
*Model_Space
  1

  0
ENDBLK
  5
21
330
1F
100
AcDbEntity
  8
0
100
AcDbBlockEnd
  0
BLOCK
  5
1C
330
1B
100
AcDbEntity
 67
     1
  8
0
100
AcDbBlockBegin
  2
*Paper_Space
 70
     0
 10
0.0
 20
0.0
 30
0.0
  3
*Paper_Space
  1

  0
ENDBLK
  5
1D
330
1B
100
AcDbEntity
 67
     1
  8
0
100
AcDbBlockEnd
  0
BLOCK
  5
24
330
23
100
AcDbEntity
  8
0
100
AcDbBlockBegin
  2
*Paper_Space0
 70
     0
 10
0.0
 20
0.0
 30
0.0
  3
*Paper_Space0
  1

  0
ENDBLK
  5
25
330
23
100
AcDbEntity
  8
0
100
AcDbBlockEnd
  0
BLOCK
  5
41
330
3E
100
AcDbEntity
  8
0
100
AcDbBlockBegin
  2
KDIMARROW_00
 70
     0
 10
0.0
 20
0.0
 30
0.0
  3
KDIMARROW_00
  1

  0
LINE
  5
40
330
3E
100
AcDbEntity
  8
DEFPOINTS
  6
K5LT_THIN
 62
     0
370
    18
100
AcDbLine
 10
0.0
 20
0.0
 30
0.0
 11
-1.0
 21
0.0
 31
0.0
  0
ENDBLK
  5
42
330
3E
100
AcDbEntity
  8
0
100
AcDbBlockEnd
  0
BLOCK
  5
4A
330
43
100
AcDbEntity
  8
0
100
AcDbBlockBegin
  2
KDIMARROW_01
 70
     0
 10
0.0
 20
0.0
 30
0.0
  3
KDIMARROW_01
  1

  0
LINE
  5
44
330
43
100
AcDbEntity
  8
0
  6
K5LT_THIN
 62
     0
370
    18
100
AcDbLine
 10
0.0
 20
0.0
 30
0.0
 11
-5.000000000000002
 21
-0.6582624912261958
 31
0.0
  0
LINE
  5
45
330
43
100
AcDbEntity
  8
0
  6
K5LT_THIN
 62
     0
370
    18
100
AcDbLine
 10
-5.0
 20
-0.6582624912261956
 30
0.0
 11
-4.5
 21
0.0000000000000004
 31
0.0
  0
LINE
  5
46
330
43
100
AcDbEntity
  8
0
  6
K5LT_THIN
 62
     0
370
    18
100
AcDbLine
 10
-4.5
 20
0.0000000000000006
 30
0.0
 11
-5.0
 21
0.658262491226197
 31
0.0
  0
LINE
  5
47
330
43
100
AcDbEntity
  8
0
  6
K5LT_THIN
 62
     0
370
    18
100
AcDbLine
 10
-5.0
 20
0.658262491226197
 30
0.0
 11
0.0000000000000018
 21
0.0
 31
0.0
  0
HATCH
  5
48
330
43
100
AcDbEntity
  8
0
 62
     0
100
AcDbHatch
 10
0.0
 20
0.0
 30
0.0
210
0.0
220
0.0
230
1.0
  2
SOLID
 70
     1
 71
     0
 91
        1
 92
        1
 93
        4
 72
     1
 10
-5.000000000000002
 20
-0.6582624912261958
 11
0.0
 21
0.0
 72
     1
 10
0.0000000000000018
 20
0.0
 11
-5.0
 21
0.658262491226197
 72
     1
 10
-5.0
 20
0.658262491226197
 11
-4.5
 21
0.0000000000000006
 72
     1
 10
-4.5
 20
0.0000000000000004
 11
-5.0
 21
-0.6582624912261956
 97
        0
 75
     0
 76
     1
 98
        0
  0
LINE
  5
49
330
43
100
AcDbEntity
  8
DEFPOINTS
  6
K5LT_THIN
 62
     0
370
    18
100
AcDbLine
 10
0.0
 20
0.0
 30
0.0
 11
-1.0
 21
0.0
 31
0.0
  0
ENDBLK
  5
4B
330
43
100
AcDbEntity
  8
0
100
AcDbBlockEnd
  0
BLOCK
  5
54
330
4C
100
AcDbEntity
  8
0
100
AcDbBlockBegin
  2
KDIMARROW_02
 70
     0
 10
0.0
 20
0.0
 30
0.0
  3
KDIMARROW_02
  1

  0
LINE
  5
4D
330
4C
100
AcDbEntity
  8
0
  6
K5LT_THIN
 62
     0
370
    18
100
AcDbLine
 10
0.0
 20
0.0
 30
0.0
 11
5.000000000000002
 21
-0.658262491226197
 31
0.0
  0
LINE
  5
4E
330
4C
100
AcDbEntity
  8
0
  6
K5LT_THIN
 62
     0
370
    18
100
AcDbLine
 10
5.0
 20
-0.658262491226197
 30
0.0
 11
4.5
 21
-0.0000000000000006
 31
0.0
  0
LINE
  5
4F
330
4C
100
AcDbEntity
  8
0
  6
K5LT_THIN
 62
     0
370
    18
100
AcDbLine
 10
4.5
 20
-0.0000000000000006
 30
0.0
 11
5.0
 21
0.6582624912261955
 31
0.0
  0
LINE
  5
50
330
4C
100
AcDbEntity
  8
0
  6
K5LT_THIN
 62
     0
370
    18
100
AcDbLine
 10
5.0
 20
0.6582624912261956
 30
0.0
 11
-0.0000000000000018
 21
-0.0000000000000002
 31
0.0
  0
LINE
  5
51
330
4C
100
AcDbEntity
  8
0
  6
K5LT_THIN
 62
     0
370
    18
100
AcDbLine
 10
0.0
 20
0.0
 30
0.0
 11
7.0
 21
-0.0000000000000009
 31
0.0
  0
HATCH
  5
52
330
4C
100
AcDbEntity
  8
0
 62
     0
100
AcDbHatch
 10
0.0
 20
0.0
 30
0.0
210
0.0
220
0.0
230
1.0
  2
SOLID
 70
     1
 71
     0
 91
        1
 92
        1
 93
        4
 72
     1
 10
4.5
 20
-0.0000000000000006
 11
5.0
 21
0.6582624912261955
 72
     1
 10
5.0
 20
0.6582624912261956
 11
-0.0000000000000018
 21
-0.0000000000000002
 72
     1
 10
0.0
 20
0.0
 11
5.000000000000002
 21
-0.658262491226197
 72
     1
 10
5.0
 20
-0.658262491226197
 11
4.5
 21
-0.0000000000000006
 97
        0
 75
     0
 76
     1
 98
        0
  0
LINE
  5
53
330
4C
100
AcDbEntity
  8
DEFPOINTS
  6
K5LT_THIN
 62
     0
370
    18
100
AcDbLine
 10
0.0
 20
0.0
 30
0.0
 11
-1.0
 21
0.0
 31
0.0
  0
ENDBLK
  5
55
330
4C
100
AcDbEntity
  8
0
100
AcDbBlockEnd
  0
BLOCK
  5
5A
330
56
100
AcDbEntity
  8
0
100
AcDbBlockBegin
  2
KDIMARROW_03
 70
     0
 10
0.0
 20
0.0
 30
0.0
  3
KDIMARROW_03
  1

  0
LINE
  5
57
330
56
100
AcDbEntity
  8
0
  6
K5LT_THIN
 62
     0
370
    18
100
AcDbLine
 10
-1.060500025749207
 20
-1.060500025749206
 30
0.0
 11
1.060500025749206
 21
1.060500025749206
 31
0.0
  0
LINE
  5
58
330
56
100
AcDbEntity
  8
0
  6
K5LT_THIN
 62
     0
370
    18
100
AcDbLine
 10
0.0
 20
0.0
 30
0.0
 11
2.0
 21
-0.0000000000000002
 31
0.0
  0
LINE
  5
59
330
56
100
AcDbEntity
  8
DEFPOINTS
  6
K5LT_THIN
 62
     0
370
    18
100
AcDbLine
 10
0.0
 20
0.0
 30
0.0
 11
-1.0
 21
0.0
 31
0.0
  0
ENDBLK
  5
5B
330
56
100
AcDbEntity
  8
0
100
AcDbBlockEnd
  0
BLOCK
  5
60
330
5C
100
AcDbEntity
  8
0
100
AcDbBlockBegin
  2
KDIMARROW_04
 70
     0
 10
0.0
 20
0.0
 30
0.0
  3
KDIMARROW_04
  1

  0
LWPOLYLINE
  5
5D
330
5C
100
AcDbEntity
  8
0
  6
K5LT_THIN
 62
     7
100
AcDbPolyline
 90
       10
 70
     0
 43
0.18
 10
-0.3
 20
0.0
 10
0.0
 20
-0.3
 10
0.3
 20
0.0
 10
0.0
 20
0.3
 10
-0.3
 20
0.0
 10
-0.6
 20
0.0000000000000001
 10
-0.0000000000000001
 20
-0.6
 10
0.6
 20
-0.0000000000000001
 10
0.0000000000000001
 20
0.6
 10
-0.6
 20
0.0000000000000001
  0
LWPOLYLINE
  5
5E
330
5C
100
AcDbEntity
  8
0
  6
K5LT_THIN
 62
     7
100
AcDbPolyline
 90
       10
 70
     0
 43
0.18
 10
-0.3
 20
0.0
 10
0.0
 20
-0.3
 10
0.3
 20
0.0
 10
0.0
 20
0.3
 10
-0.3
 20
0.0
 10
-0.6
 20
0.0000000000000001
 10
-0.0000000000000001
 20
-0.6
 10
0.6
 20
-0.0000000000000001
 10
0.0000000000000001
 20
0.6
 10
-0.6
 20
0.0000000000000001
  0
LINE
  5
5F
330
5C
100
AcDbEntity
  8
DEFPOINTS
  6
K5LT_THIN
 62
     0
370
    18
100
AcDbLine
 10
0.0
 20
0.0
 30
0.0
 11
-1.0
 21
0.0
 31
0.0
  0
ENDBLK
  5
61
330
5C
100
AcDbEntity
  8
0
100
AcDbBlockEnd
  0
BLOCK
  5
69
330
62
100
AcDbEntity
  8
0
100
AcDbBlockBegin
  2
KDIMARROW_05
 70
     0
 10
0.0
 20
0.0
 30
0.0
  3
KDIMARROW_05
  1

  0
LINE
  5
63
330
62
100
AcDbEntity
  8
0
  6
K5LT_THIN
 62
     0
370
    18
100
AcDbLine
 10
0.0
 20
0.0
 30
0.0
 11
-5.000000000000002
 21
-0.6582624912261958
 31
0.0
  0
LINE
  5
64
330
62
100
AcDbEntity
  8
0
  6
K5LT_THIN
 62
     0
370
    18
100
AcDbLine
 10
-5.0
 20
-0.6582624912261956
 30
0.0
 11
-5.0
 21
0.0000000000000003
 31
0.0
  0
LINE
  5
65
330
62
100
AcDbEntity
  8
0
  6
K5LT_THIN
 62
     0
370
    18
100
AcDbLine
 10
-5.0
 20
0.0000000000000006
 30
0.0
 11
-5.0
 21
0.6582624912261966
 31
0.0
  0
LINE
  5
66
330
62
100
AcDbEntity
  8
0
  6
K5LT_THIN
 62
     0
370
    18
100
AcDbLine
 10
-5.0
 20
0.658262491226197
 30
0.0
 11
0.0000000000000018
 21
0.0
 31
0.0
  0
HATCH
  5
67
330
62
100
AcDbEntity
  8
0
 62
     0
100
AcDbHatch
 10
0.0
 20
0.0
 30
0.0
210
0.0
220
0.0
230
1.0
  2
SOLID
 70
     1
 71
     0
 91
        1
 92
        1
 93
        4
 72
     1
 10
-5.000000000000002
 20
-0.6582624912261958
 11
0.0
 21
0.0
 72
     1
 10
0.0000000000000018
 20
0.0
 11
-5.0
 21
0.658262491226197
 72
     1
 10
-5.0
 20
0.6582624912261966
 11
-5.0
 21
0.0000000000000007
 72
     1
 10
-5.0
 20
0.0000000000000003
 11
-5.0
 21
-0.6582624912261956
 97
        0
 75
     0
 76
     1
 98
        0
  0
LINE
  5
68
330
62
100
AcDbEntity
  8
DEFPOINTS
  6
K5LT_THIN
 62
     0
370
    18
100
AcDbLine
 10
0.0
 20
0.0
 30
0.0
 11
-1.0
 21
0.0
 31
0.0
  0
ENDBLK
  5
6A
330
62
100
AcDbEntity
  8
0
100
AcDbBlockEnd
  0
BLOCK
  5
73
330
6B
100
AcDbEntity
  8
0
100
AcDbBlockBegin
  2
KDIMARROW_06
 70
     0
 10
0.0
 20
0.0
 30
0.0
  3
KDIMARROW_06
  1

  0
LINE
  5
6C
330
6B
100
AcDbEntity
  8
0
  6
K5LT_THIN
 62
     0
370
    18
100
AcDbLine
 10
0.0
 20
0.0
 30
0.0
 11
5.000000000000002
 21
-0.658262491226197
 31
0.0
  0
LINE
  5
6D
330
6B
100
AcDbEntity
  8
0
  6
K5LT_THIN
 62
     0
370
    18
100
AcDbLine
 10
5.0
 20
-0.658262491226197
 30
0.0
 11
5.0
 21
-0.000000000000001
 31
0.0
  0
LINE
  5
6E
330
6B
100
AcDbEntity
  8
0
  6
K5LT_THIN
 62
     0
370
    18
100
AcDbLine
 10
5.0
 20
-0.0000000000000006
 30
0.0
 11
5.0
 21
0.6582624912261953
 31
0.0
  0
LINE
  5
6F
330
6B
100
AcDbEntity
  8
0
  6
K5LT_THIN
 62
     0
370
    18
100
AcDbLine
 10
5.0
 20
0.6582624912261956
 30
0.0
 11
-0.0000000000000018
 21
-0.0000000000000002
 31
0.0
  0
LINE
  5
70
330
6B
100
AcDbEntity
  8
0
  6
K5LT_THIN
 62
     0
370
    18
100
AcDbLine
 10
0.0
 20
0.0
 30
0.0
 11
7.0
 21
-0.0000000000000009
 31
0.0
  0
HATCH
  5
71
330
6B
100
AcDbEntity
  8
0
 62
     0
100
AcDbHatch
 10
0.0
 20
0.0
 30
0.0
210
0.0
220
0.0
230
1.0
  2
SOLID
 70
     1
 71
     0
 91
        1
 92
        1
 93
        4
 72
     1
 10
5.0
 20
-0.0000000000000006
 11
5.0
 21
0.6582624912261953
 72
     1
 10
5.0
 20
0.6582624912261956
 11
-0.0000000000000018
 21
-0.0000000000000002
 72
     1
 10
0.0
 20
0.0
 11
5.000000000000002
 21
-0.658262491226197
 72
     1
 10
5.0
 20
-0.658262491226197
 11
5.0
 21
-0.000000000000001
 97
        0
 75
     0
 76
     1
 98
        0
  0
LINE
  5
72
330
6B
100
AcDbEntity
  8
DEFPOINTS
  6
K5LT_THIN
 62
     0
370
    18
100
AcDbLine
 10
0.0
 20
0.0
 30
0.0
 11
-1.0
 21
0.0
 31
0.0
  0
ENDBLK
  5
74
330
6B
100
AcDbEntity
  8
0
100
AcDbBlockEnd
  0
BLOCK
  5
79
330
75
100
AcDbEntity
  8
0
100
AcDbBlockBegin
  2
KDIMARROW_07
 70
     0
 10
0.0
 20
0.0
 30
0.0
  3
KDIMARROW_07
  1

  0
LINE
  5
76
330
75
100
AcDbEntity
  8
0
  6
K5LT_THIN
 62
     0
370
    18
100
AcDbLine
 10
0.0
 20
0.0
 30
0.0
 11
-5.000000000000002
 21
-0.6582624912261958
 31
0.0
  0
LINE
  5
77
330
75
100
AcDbEntity
  8
0
  6
K5LT_THIN
 62
     0
370
    18
100
AcDbLine
 10
0.0
 20
0.0
 30
0.0
 11
-5.000000000000002
 21
0.658262491226197
 31
0.0
  0
LINE
  5
78
330
75
100
AcDbEntity
  8
DEFPOINTS
  6
K5LT_THIN
 62
     0
370
    18
100
AcDbLine
 10
0.0
 20
0.0
 30
0.0
 11
-1.0
 21
0.0
 31
0.0
  0
ENDBLK
  5
7A
330
75
100
AcDbEntity
  8
0
100
AcDbBlockEnd
  0
BLOCK
  5
80
330
7B
100
AcDbEntity
  8
0
100
AcDbBlockBegin
  2
KDIMARROW_08
 70
     0
 10
0.0
 20
0.0
 30
0.0
  3
KDIMARROW_08
  1

  0
LINE
  5
7C
330
7B
100
AcDbEntity
  8
0
  6
K5LT_THIN
 62
     0
370
    18
100
AcDbLine
 10
0.0
 20
0.0
 30
0.0
 11
5.000000000000002
 21
-0.658262491226197
 31
0.0
  0
LINE
  5
7D
330
7B
100
AcDbEntity
  8
0
  6
K5LT_THIN
 62
     0
370
    18
100
AcDbLine
 10
0.0
 20
0.0
 30
0.0
 11
5.000000000000002
 21
0.6582624912261958
 31
0.0
  0
LINE
  5
7E
330
7B
100
AcDbEntity
  8
0
  6
K5LT_THIN
 62
     0
370
    18
100
AcDbLine
 10
0.0
 20
0.0
 30
0.0
 11
7.0
 21
-0.0000000000000009
 31
0.0
  0
LINE
  5
7F
330
7B
100
AcDbEntity
  8
DEFPOINTS
  6
K5LT_THIN
 62
     0
370
    18
100
AcDbLine
 10
0.0
 20
0.0
 30
0.0
 11
-1.0
 21
0.0
 31
0.0
  0
ENDBLK
  5
81
330
7B
100
AcDbEntity
  8
0
100
AcDbBlockEnd
  0
BLOCK
  5
86
330
82
100
AcDbEntity
  8
0
100
AcDbBlockBegin
  2
KDIMARROW_09
 70
     0
 10
0.0
 20
0.0
 30
0.0
  3
KDIMARROW_09
  1

  0
LINE
  5
83
330
82
100
AcDbEntity
  8
0
  6
K5LT_THIN
 62
     0
370
    18
100
AcDbLine
 10
0.0
 20
0.0
 30
0.0
 11
-2.0
 21
-2.0
 31
0.0
  0
LINE
  5
84
330
82
100
AcDbEntity
  8
0
  6
K5LT_THIN
 62
     0
370
    18
100
AcDbLine
 10
0.0
 20
0.0
 30
0.0
 11
-2.0
 21
2.0
 31
0.0
  0
LINE
  5
85
330
82
100
AcDbEntity
  8
DEFPOINTS
  6
K5LT_THIN
 62
     0
370
    18
100
AcDbLine
 10
0.0
 20
0.0
 30
0.0
 11
-1.0
 21
0.0
 31
0.0
  0
ENDBLK
  5
87
330
82
100
AcDbEntity
  8
0
100
AcDbBlockEnd
  0
BLOCK
  5
8D
330
88
100
AcDbEntity
  8
0
100
AcDbBlockBegin
  2
KDIMARROW_10
 70
     0
 10
0.0
 20
0.0
 30
0.0
  3
KDIMARROW_10
  1

  0
LINE
  5
89
330
88
100
AcDbEntity
  8
0
  6
K5LT_THIN
 62
     0
370
    18
100
AcDbLine
 10
0.0
 20
0.0
 30
0.0
 11
2.0
 21
-2.0
 31
0.0
  0
LINE
  5
8A
330
88
100
AcDbEntity
  8
0
  6
K5LT_THIN
 62
     0
370
    18
100
AcDbLine
 10
0.0
 20
0.0
 30
0.0
 11
2.0
 21
2.0
 31
0.0
  0
LINE
  5
8B
330
88
100
AcDbEntity
  8
0
  6
K5LT_THIN
 62
     0
370
    18
100
AcDbLine
 10
0.0
 20
0.0
 30
0.0
 11
4.0
 21
-0.0000000000000005
 31
0.0
  0
LINE
  5
8C
330
88
100
AcDbEntity
  8
DEFPOINTS
  6
K5LT_THIN
 62
     0
370
    18
100
AcDbLine
 10
0.0
 20
0.0
 30
0.0
 11
-1.0
 21
0.0
 31
0.0
  0
ENDBLK
  5
8E
330
88
100
AcDbEntity
  8
0
100
AcDbBlockEnd
  0
BLOCK
  5
93
330
8F
100
AcDbEntity
  8
0
100
AcDbBlockBegin
  2
KDIMARROW_11
 70
     0
 10
0.0
 20
0.0
 30
0.0
  3
KDIMARROW_11
  1

  0
CIRCLE
  5
90
330
8F
100
AcDbEntity
  8
0
  6
K5LT_THIN
 62
     0
370
    18
100
AcDbCircle
 10
0.0
 20
0.0
 30
0.0
 40
2.5
  0
CIRCLE
  5
91
330
8F
100
AcDbEntity
  8
0
  6
K5LT_THIN
 62
     0
370
    18
100
AcDbCircle
 10
0.0
 20
0.0
 30
0.0
 40
2.5
  0
LINE
  5
92
330
8F
100
AcDbEntity
  8
DEFPOINTS
  6
K5LT_THIN
 62
     0
370
    18
100
AcDbLine
 10
0.0
 20
0.0
 30
0.0
 11
-1.0
 21
0.0
 31
0.0
  0
ENDBLK
  5
94
330
8F
100
AcDbEntity
  8
0
100
AcDbBlockEnd
  0
BLOCK
  5
99
330
95
100
AcDbEntity
  8
0
100
AcDbBlockBegin
  2
KDIMARROW_12
 70
     0
 10
0.0
 20
0.0
 30
0.0
  3
KDIMARROW_12
  1

  0
CIRCLE
  5
96
330
95
100
AcDbEntity
  8
0
  6
K5LT_THIN
 62
     0
370
    18
100
AcDbCircle
 10
0.0
 20
0.0
 30
0.0
 40
1.5
  0
CIRCLE
  5
97
330
95
100
AcDbEntity
  8
0
  6
K5LT_THIN
 62
     0
370
    18
100
AcDbCircle
 10
0.0
 20
0.0
 30
0.0
 40
1.5
  0
LINE
  5
98
330
95
100
AcDbEntity
  8
DEFPOINTS
  6
K5LT_THIN
 62
     0
370
    18
100
AcDbLine
 10
0.0
 20
0.0
 30
0.0
 11
-1.0
 21
0.0
 31
0.0
  0
ENDBLK
  5
9A
330
95
100
AcDbEntity
  8
0
100
AcDbBlockEnd
  0
BLOCK
  5
9F
330
9B
100
AcDbEntity
  8
0
100
AcDbBlockBegin
  2
KDIMARROW_13
 70
     0
 10
0.0
 20
0.0
 30
0.0
  3
KDIMARROW_13
  1

  0
LINE
  5
9C
330
9B
100
AcDbEntity
  8
0
  6
K5LT_THIN
 62
     0
370
    18
100
AcDbLine
 10
-1.060500025749206
 20
1.060500025749207
 30
0.0
 11
1.060500025749206
 21
-1.060500025749206
 31
0.0
  0
LINE
  5
9D
330
9B
100
AcDbEntity
  8
0
  6
K5LT_THIN
 62
     0
370
    18
100
AcDbLine
 10
0.0
 20
0.0
 30
0.0
 11
2.0
 21
-0.0000000000000002
 31
0.0
  0
LINE
  5
9E
330
9B
100
AcDbEntity
  8
DEFPOINTS
  6
K5LT_THIN
 62
     0
370
    18
100
AcDbLine
 10
0.0
 20
0.0
 30
0.0
 11
-1.0
 21
0.0
 31
0.0
  0
ENDBLK
  5
A0
330
9B
100
AcDbEntity
  8
0
100
AcDbBlockEnd
  0
ENDSEC
  0
SECTION
  2
ENTITIES
  0
ARC
  5
A2
330
1F
100
AcDbEntity
  8
0
  6
K5LT32768
 62
     7
370
    18
100
AcDbCircle
 10
43.26325874428487
 20
16.57683906329703
 30
0.0
 40
3.0
100
AcDbArc
 50
270.1401020544379
 51
0.1401020544379543
  0
LINE
  5
A3
330
1F
100
AcDbEntity
  8
0
  6
K5LT32768
 62
     7
370
    18
100
AcDbLine
 10
43.27059446339082
 20
13.57684803210624
 30
0.0
 11
17.27067219307061
 21
13.51327179985469
 31
0.0
  0
ARC
  5
A4
330
1F
100
AcDbEntity
  8
0
  6
K5LT32768
 62
     7
370
    18
100
AcDbCircle
 10
17.26333647396466
 20
16.51326283104548
 30
0.0
 40
3.0
100
AcDbArc
 50
180.140102054438
 51
270.1401020544379
  0
ARC
  5
A5
330
1F
100
AcDbEntity
  8
0
  6
K5LT32768
 62
     7
370
    18
100
AcDbCircle
 10
17.11717605792849
 20
76.28653534745229
 30
0.0
 40
3.000000000000004
100
AcDbArc
 50
90.14010205443796
 51
180.140102054438
  0
LINE
  5
A6
330
1F
100
AcDbEntity
  8
0
  6
K5LT32768
 62
     7
370
    18
100
AcDbLine
 10
22.98829423992618
 20
79.30090065048171
 30
0.0
 11
22.9965868589871
 21
75.90957902971755
 31
0.0
  0
LINE
  5
A7
330
1F
100
AcDbEntity
  8
0
  6
K5LT32768
 62
     7
370
    18
100
AcDbLine
 10
22.9965868589871
 20
75.90957902971755
 30
0.0
 11
27.49657340577329
 21
75.92058260837646
 31
0.0
  0
LINE
  5
A8
330
1F
100
AcDbEntity
  8
0
  6
K5LT32768
 62
     7
370
    18
100
AcDbLine
 10
27.49657340577329
 20
75.92058260837646
 30
0.0
 11
27.49867403545532
 21
75.06151615355185
 31
0.0
  0
ARC
  5
A9
330
1F
100
AcDbEntity
  8
0
  6
K5LT32768
 62
     7
370
    18
100
AcDbCircle
 10
22.01048424448548
 20
20.52488273839633
 30
0.0
 40
3.000000000000014
100
AcDbArc
 50
180.140102054438
 51
270.1401020544379
  0
LINE
  5
AA
330
1F
100
AcDbEntity
  8
0
  6
K5LT32768
 62
     7
370
    18
100
AcDbLine
 10
22.01781996359144
 20
17.52489170720553
 30
0.0
 11
39.26082546299516
 21
17.56705511488603
 31
0.0
  0
ARC
  5
AB
330
1F
100
AcDbEntity
  8
0
  6
K5LT32768
 62
     7
370
    18
100
AcDbCircle
 10
39.25348974388922
 20
20.56704614607682
 30
0.0
 40
3.000000000000014
100
AcDbArc
 50
270.1401020544379
 51
0.1401020544379543
  0
LINE
  5
AC
330
1F
100
AcDbEntity
  8
0
  6
K5LT32768
 62
     7
370
    18
100
AcDbLine
 10
33.49913427064635
 20
74.88063564668818
 30
0.0
 11
33.49655546815487
 21
75.93525404658834
 31
0.0
  0
LINE
  5
AD
330
1F
100
AcDbEntity
  8
0
  6
K5LT32768
 62
     7
370
    18
100
AcDbLine
 10
33.49655546815487
 20
75.93525404658835
 30
0.0
 11
37.99654201494106
 21
75.94625762524728
 31
0.0
  0
LINE
  5
AE
330
1F
100
AcDbEntity
  8
0
  6
K5LT32768
 62
     7
370
    18
100
AcDbLine
 10
37.99654201494106
 20
75.94625762524728
 30
0.0
 11
37.98824939588014
 21
79.33757924601144
 31
0.0
  0
ARC
  5
AF
330
1F
100
AcDbEntity
  8
0
  6
K5LT32768
 62
     7
370
    18
100
AcDbCircle
 10
43.11709832824869
 20
76.35011157970382
 30
0.0
 40
3.000000000000007
100
AcDbArc
 50
0.1401020544379543
 51
90.14010205443796
  0
LINE
  5
B0
330
1F
100
AcDbEntity
  8
0
  6
K5LT32768
 62
     7
370
    18
100
AcDbLine
 10
18.89165389870605
 20
67.4068299036242
 30
0.0
 11
18.86757386819587
 21
67.44844644549451
 31
0.0
  0
LINE
  5
B1
330
1F
100
AcDbEntity
  8
0
  6
K5LT32768
 62
     7
370
    18
100
AcDbLine
 10
19.46033169675623
 20
67.18911409896978
 30
0.0
 11
18.89165389870605
 21
67.40682990362419
 31
0.0
  0
LINE
  5
B2
330
1F
100
AcDbEntity
  8
0
  6
K5LT32768
 62
     7
370
    18
100
AcDbLine
 10
19.80476809813663
 20
67.14429425893971
 30
0.0
 11
19.46033169675623
 21
67.18911409896978
 31
0.0
  0
LINE
  5
B3
330
1F
100
AcDbEntity
  8
0
  6
K5LT32768
 62
     7
370
    18
100
AcDbLine
 10
20.15339404863018
 20
67.05830529018212
 30
0.0
 11
19.80476809813663
 21
67.14429425893971
 31
0.0
  0
LINE
  5
B4
330
1F
100
AcDbEntity
  8
0
  6
K5LT32768
 62
     7
370
    18
100
AcDbLine
 10
20.50409974204523
 20
66.93811709595238
 30
0.0
 11
20.15339404863018
 21
67.05830529018212
 31
0.0
  0
LINE
  5
B5
330
1F
100
AcDbEntity
  8
0
  6
K5LT32768
 62
     7
370
    18
100
AcDbLine
 10
20.85530579434861
 20
66.78693411115793
 30
0.0
 11
20.50409974204523
 21
66.93811709595238
 31
0.0
  0
LINE
  5
B6
330
1F
100
AcDbEntity
  8
0
  6
K5LT32768
 62
     7
370
    18
100
AcDbLine
 10
21.20561692945075
 20
66.60662605770403
 30
0.0
 11
20.85530579434861
 21
66.78693411115793
 31
0.0
  0
LINE
  5
B7
330
1F
100
AcDbEntity
  8
0
  6
K5LT32768
 62
     7
370
    18
100
AcDbLine
 10
21.55372332234948
 20
66.39843162245774
 30
0.0
 11
21.20561692945075
 21
66.60662605770403
 31
0.0
  0
LINE
  5
B8
330
1F
100
AcDbEntity
  8
0
  6
K5LT32768
 62
     7
370
    18
100
AcDbLine
 10
21.55781050832687
 20
65.31940331444082
 30
0.0
 11
21.55372332234948
 21
66.39843162245774
 31
0.0
  0
LINE
  5
B9
330
1F
100
AcDbEntity
  8
0
  6
K5LT32768
 62
     7
370
    18
100
AcDbLine
 10
21.21129128758174
 20
65.10857776250003
 30
0.0
 11
21.55781050832687
 21
65.31940331444082
 31
0.0
  0
LINE
  5
BA
330
1F
100
AcDbEntity
  8
0
  6
K5LT32768
 62
     7
370
    18
100
AcDbLine
 10
20.86235613440357
 20
64.92562109814224
 30
0.0
 11
21.21129128758174
 21
65.10857776250002
 31
0.0
  0
LINE
  5
BB
330
1F
100
AcDbEntity
  8
0
  6
K5LT32768
 62
     7
370
    18
100
AcDbLine
 10
20.51230545125686
 20
64.77178187919591
 30
0.0
 11
20.86235613440357
 21
64.92562109814224
 31
0.0
  0
LINE
  5
BC
330
1F
100
AcDbEntity
  8
0
  6
K5LT32768
 62
     7
370
    18
100
AcDbLine
 10
20.16252031121813
 20
64.64894035173691
 30
0.0
 11
20.51230545125686
 21
64.7717818791959
 31
0.0
  0
LINE
  5
BD
330
1F
100
AcDbEntity
  8
0
  6
K5LT32768
 62
     7
370
    18
100
AcDbLine
 10
19.81455577649209
 20
64.5603128238806
 30
0.0
 11
20.16252031121813
 21
64.64894035173691
 31
0.0
  0
LINE
  5
BE
330
1F
100
AcDbEntity
  8
0
  6
K5LT32768
 62
     7
370
    18
100
AcDbLine
 10
19.470468792948
 20
64.51288498303708
 30
0.0
 11
19.81455577649209
 21
64.5603128238806
 31
0.0
  0
LINE
  5
BF
330
1F
100
AcDbEntity
  8
0
  6
K5LT32768
 62
     7
370
    18
100
AcDbLine
 10
18.90345663241444
 20
64.2908674003462
 30
0.0
 11
19.470468792948
 21
64.51288498303708
 31
0.0
  0
LINE
  5
C0
330
1F
100
AcDbEntity
  8
0
  6
K5LT32768
 62
     7
370
    18
100
AcDbLine
 10
18.69749200502181
 20
63.92860366843733
 30
0.0
 11
18.90345663241444
 21
64.2908674003462
 31
0.0
  0
LINE
  5
C1
330
1F
100
AcDbEntity
  8
0
  6
K5LT32768
 62
     7
370
    18
100
AcDbLine
 10
18.55441549062694
 20
63.32946128336599
 30
0.0
 11
18.69749200502181
 21
63.92860366843733
 31
0.0
  0
LINE
  5
C2
330
1F
100
AcDbEntity
  8
0
  6
K5LT32768
 62
     7
370
    18
100
AcDbLine
 10
18.69517703881051
 20
62.76753790166426
 30
0.0
 11
18.55441549062694
 21
63.32946128336599
 31
0.0
  0
LINE
  5
C3
330
1F
100
AcDbEntity
  8
0
  6
K5LT32768
 62
     7
370
    18
100
AcDbLine
 10
18.9038800972074
 20
62.40684485513953
 30
0.0
 11
18.69517703881051
 21
62.76753790166426
 31
0.0
  0
LINE
  5
C4
330
1F
100
AcDbEntity
  8
0
  6
K5LT32768
 62
     7
370
    18
100
AcDbLine
 10
19.47255789525758
 20
62.18912905048512
 30
0.0
 11
18.9038800972074
 21
62.40684485513953
 31
0.0
  0
LINE
  5
C5
330
1F
100
AcDbEntity
  8
0
  6
K5LT32768
 62
     7
370
    18
100
AcDbLine
 10
19.81699429663798
 20
62.14430921045506
 30
0.0
 11
19.47255789525758
 21
62.18912905048512
 31
0.0
  0
LINE
  5
C6
330
1F
100
AcDbEntity
  8
0
  6
K5LT32768
 62
     7
370
    18
100
AcDbLine
 10
20.16562024713153
 20
62.05832024169746
 30
0.0
 11
19.81699429663798
 21
62.14430921045506
 31
0.0
  0
LINE
  5
C7
330
1F
100
AcDbEntity
  8
0
  6
K5LT32768
 62
     7
370
    18
100
AcDbLine
 10
20.51632594054634
 20
61.93813204756771
 30
0.0
 11
20.16562024713153
 21
62.05832024169746
 31
0.0
  0
LINE
  5
C8
330
1F
100
AcDbEntity
  8
0
  6
K5LT32768
 62
     7
370
    18
100
AcDbLine
 10
20.86753199284996
 20
61.78694906267327
 30
0.0
 11
20.51632594054634
 21
61.93813204756771
 31
0.0
  0
LINE
  5
C9
330
1F
100
AcDbEntity
  8
0
  6
K5LT32768
 62
     7
370
    18
100
AcDbLine
 10
21.21784312795186
 20
61.60664100931935
 30
0.0
 11
20.86753199284996
 21
61.78694906267327
 31
0.0
  0
LINE
  5
CA
330
1F
100
AcDbEntity
  8
0
  6
K5LT32768
 62
     7
370
    18
100
AcDbLine
 10
21.56594952085059
 20
61.39844657407306
 30
0.0
 11
21.21784312795186
 21
61.60664100931935
 31
0.0
  0
LINE
  5
CB
330
1F
100
AcDbEntity
  8
0
  6
K5LT32768
 62
     7
370
    18
100
AcDbLine
 10
21.57003670682823
 20
60.31941826595614
 30
0.0
 11
21.56594952085059
 21
61.39844657407306
 31
0.0
  0
LINE
  5
CC
330
1F
100
AcDbEntity
  8
0
  6
K5LT32768
 62
     7
370
    18
100
AcDbLine
 10
21.22351748608286
 20
60.10859271411536
 30
0.0
 11
21.57003670682823
 21
60.31941826595614
 31
0.0
  0
LINE
  5
CD
330
1F
100
AcDbEntity
  8
0
  6
K5LT32768
 62
     7
370
    18
100
AcDbLine
 10
20.87458233290468
 20
59.92563604975759
 30
0.0
 11
21.22351748608286
 21
60.10859271411536
 31
0.0
  0
LINE
  5
CE
330
1F
100
AcDbEntity
  8
0
  6
K5LT32768
 62
     7
370
    18
100
AcDbLine
 10
20.52453164975798
 20
59.77179683081125
 30
0.0
 11
20.87458233290468
 21
59.92563604975759
 31
0.0
  0
LINE
  5
CF
330
1F
100
AcDbEntity
  8
0
  6
K5LT32768
 62
     7
370
    18
100
AcDbLine
 10
20.17474650971924
 20
59.64895530335225
 30
0.0
 11
20.52453164975798
 21
59.77179683081125
 31
0.0
  0
LINE
  5
D0
330
1F
100
AcDbEntity
  8
0
  6
K5LT32768
 62
     7
370
    18
100
AcDbLine
 10
19.82678197499344
 20
59.56032777539593
 30
0.0
 11
20.17474650971924
 21
59.64895530335225
 31
0.0
  0
LINE
  5
D1
330
1F
100
AcDbEntity
  8
0
  6
K5LT32768
 62
     7
370
    18
100
AcDbLine
 10
19.48269499144911
 20
59.51289993465242
 30
0.0
 11
19.82678197499344
 21
59.56032777539593
 31
0.0
  0
LINE
  5
D2
330
1F
100
AcDbEntity
  8
0
  6
K5LT32768
 62
     7
370
    18
100
AcDbLine
 10
18.91568283091555
 20
59.29088235196152
 30
0.0
 11
19.48269499144911
 21
59.51289993465242
 31
0.0
  0
LINE
  5
D3
330
1F
100
AcDbEntity
  8
0
  6
K5LT32768
 62
     7
370
    18
100
AcDbLine
 10
18.70971820352316
 20
58.92861861995265
 30
0.0
 11
18.91568283091555
 21
59.29088235196152
 31
0.0
  0
LINE
  5
D4
330
1F
100
AcDbEntity
  8
0
  6
K5LT32768
 62
     7
370
    18
100
AcDbLine
 10
18.56664168912805
 20
58.32947623498132
 30
0.0
 11
18.70971820352316
 21
58.92861861995265
 31
0.0
  0
LINE
  5
D5
330
1F
100
AcDbEntity
  8
0
  6
K5LT32768
 62
     7
370
    18
100
AcDbLine
 10
18.70740323731162
 20
57.76755285327958
 30
0.0
 11
18.56664168912805
 21
58.32947623498132
 31
0.0
  0
LINE
  5
D6
330
1F
100
AcDbEntity
  8
0
  6
K5LT32768
 62
     7
370
    18
100
AcDbLine
 10
18.91610629570851
 20
57.40685980675487
 30
0.0
 11
18.70740323731162
 21
57.76755285327958
 31
0.0
  0
LINE
  5
D7
330
1F
100
AcDbEntity
  8
0
  6
K5LT32768
 62
     7
370
    18
100
AcDbLine
 10
19.48478409375869
 20
57.18914400210046
 30
0.0
 11
18.91610629570851
 21
57.40685980675487
 31
0.0
  0
LINE
  5
D8
330
1F
100
AcDbEntity
  8
0
  6
K5LT32768
 62
     7
370
    18
100
AcDbLine
 10
19.82922049513909
 20
57.14432416207038
 30
0.0
 11
19.48478409375869
 21
57.18914400210046
 31
0.0
  0
LINE
  5
D9
330
1F
100
AcDbEntity
  8
0
  6
K5LT32768
 62
     7
370
    18
100
AcDbLine
 10
20.17784644563264
 20
57.05833519331279
 30
0.0
 11
19.82922049513909
 21
57.14432416207038
 31
0.0
  0
LINE
  5
DA
330
1F
100
AcDbEntity
  8
0
  6
K5LT32768
 62
     7
370
    18
100
AcDbLine
 10
20.52855213904746
 20
56.93814699918305
 30
0.0
 11
20.17784644563264
 21
57.05833519331279
 31
0.0
  0
LINE
  5
DB
330
1F
100
AcDbEntity
  8
0
  6
K5LT32768
 62
     7
370
    18
100
AcDbLine
 10
20.87975819135107
 20
56.7869640142886
 30
0.0
 11
20.52855213904746
 21
56.93814699918305
 31
0.0
  0
LINE
  5
DC
330
1F
100
AcDbEntity
  8
0
  6
K5LT32768
 62
     7
370
    18
100
AcDbLine
 10
21.23006932645297
 20
56.60665596093469
 30
0.0
 11
20.87975819135107
 21
56.7869640142886
 31
0.0
  0
LINE
  5
DD
330
1F
100
AcDbEntity
  8
0
  6
K5LT32768
 62
     7
370
    18
100
AcDbLine
 10
21.57817571935195
 20
56.3984615255884
 30
0.0
 11
21.23006932645297
 21
56.60665596093469
 31
0.0
  0
LINE
  5
DE
330
1F
100
AcDbEntity
  8
0
  6
K5LT32768
 62
     7
370
    18
100
AcDbLine
 10
21.58226290532934
 20
55.31943321757148
 30
0.0
 11
21.57817571935195
 21
56.3984615255884
 31
0.0
  0
LINE
  5
DF
330
1F
100
AcDbEntity
  8
0
  6
K5LT32768
 62
     7
370
    18
100
AcDbLine
 10
21.23574368458397
 20
55.10860766573069
 30
0.0
 11
21.58226290532934
 21
55.31943321757148
 31
0.0
  0
LINE
  5
E0
330
1F
100
AcDbEntity
  8
0
  6
K5LT32768
 62
     7
370
    18
100
AcDbLine
 10
20.88680853140579
 20
54.92565100137292
 30
0.0
 11
21.23574368458397
 21
55.10860766573069
 31
0.0
  0
LINE
  5
E1
330
1F
100
AcDbEntity
  8
0
  6
K5LT32768
 62
     7
370
    18
100
AcDbLine
 10
20.53675784825909
 20
54.77181178242659
 30
0.0
 11
20.88680853140579
 21
54.92565100137292
 31
0.0
  0
LINE
  5
E2
330
1F
100
AcDbEntity
  8
0
  6
K5LT32768
 62
     7
370
    18
100
AcDbLine
 10
20.18697270822035
 20
54.64897025496759
 30
0.0
 11
20.53675784825909
 21
54.77181178242659
 31
0.0
  0
LINE
  5
E3
330
1F
100
AcDbEntity
  8
0
  6
K5LT32768
 62
     7
370
    18
100
AcDbLine
 10
19.83900817349456
 20
54.56034272701127
 30
0.0
 11
20.18697270822035
 21
54.64897025496759
 31
0.0
  0
LINE
  5
E4
330
1F
100
AcDbEntity
  8
0
  6
K5LT32768
 62
     7
370
    18
100
AcDbLine
 10
19.49492118995047
 20
54.51291488616774
 30
0.0
 11
19.83900817349456
 21
54.56034272701127
 31
0.0
  0
LINE
  5
E5
330
1F
100
AcDbEntity
  8
0
  6
K5LT32768
 62
     7
370
    18
100
AcDbLine
 10
18.92790902941666
 20
54.29089730357686
 30
0.0
 11
19.49492118995047
 21
54.51291488616774
 31
0.0
  0
LINE
  5
E6
330
1F
100
AcDbEntity
  8
0
  6
K5LT32768
 62
     7
370
    18
100
AcDbLine
 10
18.72194440202427
 20
53.92863357156799
 30
0.0
 11
18.92790902941666
 21
54.29089730357686
 31
0.0
  0
LINE
  5
E7
330
1F
100
AcDbEntity
  8
0
  6
K5LT32768
 62
     7
370
    18
100
AcDbLine
 10
18.5788678876294
 20
53.32949118649666
 30
0.0
 11
18.72194440202427
 21
53.92863357156799
 31
0.0
  0
LINE
  5
E8
330
1F
100
AcDbEntity
  8
0
  6
K5LT32768
 62
     7
370
    18
100
AcDbLine
 10
18.71962943581273
 20
52.76756780489492
 30
0.0
 11
18.5788678876294
 21
53.32949118649666
 31
0.0
  0
LINE
  5
E9
330
1F
100
AcDbEntity
  8
0
  6
K5LT32768
 62
     7
370
    18
100
AcDbLine
 10
18.92833249420962
 20
52.4068747583702
 30
0.0
 11
18.71962943581273
 21
52.76756780489492
 31
0.0
  0
LINE
  5
EA
330
1F
100
AcDbEntity
  8
0
  6
K5LT32768
 62
     7
370
    18
100
AcDbLine
 10
19.4970102922598
 20
52.18915895371579
 30
0.0
 11
18.92833249420962
 21
52.4068747583702
 31
0.0
  0
LINE
  5
EB
330
1F
100
AcDbEntity
  8
0
  6
K5LT32768
 62
     7
370
    18
100
AcDbLine
 10
19.8414466936402
 20
52.14433911368572
 30
0.0
 11
19.4970102922598
 21
52.18915895371579
 31
0.0
  0
LINE
  5
EC
330
1F
100
AcDbEntity
  8
0
  6
K5LT32768
 62
     7
370
    18
100
AcDbLine
 10
20.19007264413375
 20
52.05835014492813
 30
0.0
 11
19.8414466936402
 21
52.14433911368572
 31
0.0
  0
LINE
  5
ED
330
1F
100
AcDbEntity
  8
0
  6
K5LT32768
 62
     7
370
    18
100
AcDbLine
 10
20.54077833754881
 20
51.93816195069838
 30
0.0
 11
20.19007264413375
 21
52.05835014492813
 31
0.0
  0
LINE
  5
EE
330
1F
100
AcDbEntity
  8
0
  6
K5LT32768
 62
     7
370
    18
100
AcDbLine
 10
20.89198438985218
 20
51.78697896590393
 30
0.0
 11
20.54077833754881
 21
51.93816195069838
 31
0.0
  0
LINE
  5
EF
330
1F
100
AcDbEntity
  8
0
  6
K5LT32768
 62
     7
370
    18
100
AcDbLine
 10
21.24229552495408
 20
51.60667091255002
 30
0.0
 11
20.89198438985218
 21
51.78697896590393
 31
0.0
  0
LINE
  5
F0
330
1F
100
AcDbEntity
  8
0
  6
K5LT32768
 62
     7
370
    18
100
AcDbLine
 10
21.59040191785306
 20
51.39847647720373
 30
0.0
 11
21.24229552495408
 21
51.60667091255002
 31
0.0
  0
LINE
  5
F1
330
1F
100
AcDbEntity
  8
0
  6
K5LT32768
 62
     7
370
    18
100
AcDbLine
 10
21.59448910383045
 20
50.31944816918681
 30
0.0
 11
21.59040191785306
 21
51.39847647720373
 31
0.0
  0
LINE
  5
F2
330
1F
100
AcDbEntity
  8
0
  6
K5LT32768
 62
     7
370
    18
100
AcDbLine
 10
21.24796988308532
 20
50.10862261724603
 30
0.0
 11
21.59448910383045
 21
50.31944816918681
 31
0.0
  0
LINE
  5
F3
330
1F
100
AcDbEntity
  8
0
  6
K5LT32768
 62
     7
370
    18
100
AcDbLine
 10
20.89903472990714
 20
49.92566595288825
 30
0.0
 11
21.24796988308532
 21
50.10862261724603
 31
0.0
  0
LINE
  5
F4
330
1F
100
AcDbEntity
  8
0
  6
K5LT32768
 62
     7
370
    18
100
AcDbLine
 10
20.54898404676044
 20
49.77182673394192
 30
0.0
 11
20.89903472990714
 21
49.92566595288825
 31
0.0
  0
LINE
  5
F5
330
1F
100
AcDbEntity
  8
0
  6
K5LT32768
 62
     7
370
    18
100
AcDbLine
 10
20.19919890672146
 20
49.64898520658292
 30
0.0
 11
20.54898404676044
 21
49.77182673394192
 31
0.0
  0
LINE
  5
F6
330
1F
100
AcDbEntity
  8
0
  6
K5LT32768
 62
     7
370
    18
100
AcDbLine
 10
19.85123437199567
 20
49.56035767862659
 30
0.0
 11
20.19919890672146
 21
49.64898520658292
 31
0.0
  0
LINE
  5
F7
330
1F
100
AcDbEntity
  8
0
  6
K5LT32768
 62
     7
370
    18
100
AcDbLine
 10
19.50714738845158
 20
49.51292983778308
 30
0.0
 11
19.85123437199567
 21
49.56035767862659
 31
0.0
  0
LINE
  5
F8
330
1F
100
AcDbEntity
  8
0
  6
K5LT32768
 62
     7
370
    18
100
AcDbLine
 10
18.94013522791801
 20
49.29091225509219
 30
0.0
 11
19.50714738845158
 21
49.51292983778308
 31
0.0
  0
LINE
  5
F9
330
1F
100
AcDbEntity
  8
0
  6
K5LT32768
 62
     7
370
    18
100
AcDbLine
 10
18.73417060052538
 20
48.92864852318332
 30
0.0
 11
18.94013522791801
 21
49.29091225509219
 31
0.0
  0
LINE
  5
FA
330
1F
100
AcDbEntity
  8
0
  6
K5LT32768
 62
     7
370
    18
100
AcDbLine
 10
18.59109408613051
 20
48.329506138112
 30
0.0
 11
18.73417060052538
 21
48.92864852318332
 31
0.0
  0
LINE
  5
FB
330
1F
100
AcDbEntity
  8
0
  6
K5LT32768
 62
     7
370
    18
100
AcDbLine
 10
18.73185563431408
 20
47.76758275641026
 30
0.0
 11
18.59109408613051
 21
48.329506138112
 31
0.0
  0
LINE
  5
FC
330
1F
100
AcDbEntity
  8
0
  6
K5LT32768
 62
     7
370
    18
100
AcDbLine
 10
18.94055869271097
 20
47.40688970988553
 30
0.0
 11
18.73185563431408
 21
47.76758275641026
 31
0.0
  0
LINE
  5
FD
330
1F
100
AcDbEntity
  8
0
  6
K5LT32768
 62
     7
370
    18
100
AcDbLine
 10
19.50923649076091
 20
47.18917390533112
 30
0.0
 11
18.94055869271097
 21
47.40688970988553
 31
0.0
  0
LINE
  5
FE
330
1F
100
AcDbEntity
  8
0
  6
K5LT32768
 62
     7
370
    18
100
AcDbLine
 10
19.85367289214131
 20
47.14435406530106
 30
0.0
 11
19.50923649076091
 21
47.18917390533112
 31
0.0
  0
LINE
  5
FF
330
1F
100
AcDbEntity
  8
0
  6
K5LT32768
 62
     7
370
    18
100
AcDbLine
 10
20.20229884263486
 20
47.05836509654345
 30
0.0
 11
19.85367289214131
 21
47.14435406530106
 31
0.0
  0
LINE
  5
100
330
1F
100
AcDbEntity
  8
0
  6
K5LT32768
 62
     7
370
    18
100
AcDbLine
 10
20.55300453604992
 20
46.93817690231371
 30
0.0
 11
20.20229884263486
 21
47.05836509654345
 31
0.0
  0
LINE
  5
101
330
1F
100
AcDbEntity
  8
0
  6
K5LT32768
 62
     7
370
    18
100
AcDbLine
 10
20.90421058835329
 20
46.78699391751927
 30
0.0
 11
20.55300453604992
 21
46.93817690231371
 31
0.0
  0
LINE
  5
102
330
1F
100
AcDbEntity
  8
0
  6
K5LT32768
 62
     7
370
    18
100
AcDbLine
 10
21.25452172345543
 20
46.60668586406536
 30
0.0
 11
20.90421058835329
 21
46.78699391751927
 31
0.0
  0
LINE
  5
103
330
1F
100
AcDbEntity
  8
0
  6
K5LT32768
 62
     7
370
    18
100
AcDbLine
 10
21.60262811635417
 20
46.39849142881906
 30
0.0
 11
21.25452172345543
 21
46.60668586406536
 31
0.0
  0
LINE
  5
104
330
1F
100
AcDbEntity
  8
0
  6
K5LT32768
 62
     7
370
    18
100
AcDbLine
 10
21.60671530233156
 20
45.31946312080214
 30
0.0
 11
21.60262811635417
 21
46.39849142881906
 31
0.0
  0
LINE
  5
105
330
1F
100
AcDbEntity
  8
0
  6
K5LT32768
 62
     7
370
    18
100
AcDbLine
 10
21.26019608158643
 20
45.10863756886137
 30
0.0
 11
21.60671530233156
 21
45.31946312080214
 31
0.0
  0
LINE
  5
106
330
1F
100
AcDbEntity
  8
0
  6
K5LT32768
 62
     7
370
    18
100
AcDbLine
 10
20.91126092840825
 20
44.92568090450359
 30
0.0
 11
21.26019608158643
 21
45.10863756886137
 31
0.0
  0
LINE
  5
107
330
1F
100
AcDbEntity
  8
0
  6
K5LT32768
 62
     7
370
    18
100
AcDbLine
 10
20.56121024526155
 20
44.77184168555726
 30
0.0
 11
20.91126092840825
 21
44.92568090450359
 31
0.0
  0
LINE
  5
108
330
1F
100
AcDbEntity
  8
0
  6
K5LT32768
 62
     7
370
    18
100
AcDbLine
 10
20.21142510522282
 20
44.64900015809825
 30
0.0
 11
20.56121024526155
 21
44.77184168555726
 31
0.0
  0
LINE
  5
109
330
1F
100
AcDbEntity
  8
0
  6
K5LT32768
 62
     7
370
    18
100
AcDbLine
 10
19.86346057049678
 20
44.56037263024194
 30
0.0
 11
20.21142510522282
 21
44.64900015809825
 31
0.0
  0
LINE
  5
10A
330
1F
100
AcDbEntity
  8
0
  6
K5LT32768
 62
     7
370
    18
100
AcDbLine
 10
19.51937358695269
 20
44.51294478939842
 30
0.0
 11
19.86346057049678
 21
44.56037263024194
 31
0.0
  0
LINE
  5
10B
330
1F
100
AcDbEntity
  8
0
  6
K5LT32768
 62
     7
370
    18
100
AcDbLine
 10
18.95236142641912
 20
44.29092720670753
 30
0.0
 11
19.51937358695269
 21
44.51294478939842
 31
0.0
  0
LINE
  5
10C
330
1F
100
AcDbEntity
  8
0
  6
K5LT32768
 62
     7
370
    18
100
AcDbLine
 10
18.74639679902674
 20
43.92866347469867
 30
0.0
 11
18.95236142641912
 21
44.29092720670753
 31
0.0
  0
LINE
  5
10D
330
1F
100
AcDbEntity
  8
0
  6
K5LT32768
 62
     7
370
    18
100
AcDbLine
 10
18.60332028463162
 20
43.32952108972733
 30
0.0
 11
18.74639679902674
 21
43.92866347469867
 31
0.0
  0
LINE
  5
10E
330
1F
100
AcDbEntity
  8
0
  6
K5LT32768
 62
     7
370
    18
100
AcDbLine
 10
18.74408183281519
 20
42.76759770802559
 30
0.0
 11
18.60332028463162
 21
43.32952108972734
 31
0.0
  0
LINE
  5
10F
330
1F
100
AcDbEntity
  8
0
  6
K5LT32768
 62
     7
370
    18
100
AcDbLine
 10
18.95278489121208
 20
42.40690466150087
 30
0.0
 11
18.74408183281519
 21
42.76759770802559
 31
0.0
  0
LINE
  5
110
330
1F
100
AcDbEntity
  8
0
  6
K5LT32768
 62
     7
370
    18
100
AcDbLine
 10
19.52146268926226
 20
42.18918885684646
 30
0.0
 11
18.95278489121208
 21
42.40690466150087
 31
0.0
  0
LINE
  5
111
330
1F
100
AcDbEntity
  8
0
  6
K5LT32768
 62
     7
370
    18
100
AcDbLine
 10
19.86589909064267
 20
42.14436901681639
 30
0.0
 11
19.52146268926226
 21
42.18918885684646
 31
0.0
  0
LINE
  5
112
330
1F
100
AcDbEntity
  8
0
  6
K5LT32768
 62
     7
370
    18
100
AcDbLine
 10
20.21452504113621
 20
42.05838004805879
 30
0.0
 11
19.86589909064267
 21
42.14436901681638
 31
0.0
  0
LINE
  5
113
330
1F
100
AcDbEntity
  8
0
  6
K5LT32768
 62
     7
370
    18
100
AcDbLine
 10
20.56523073455103
 20
41.93819185392905
 30
0.0
 11
20.21452504113621
 21
42.05838004805879
 31
0.0
  0
LINE
  5
114
330
1F
100
AcDbEntity
  8
0
  6
K5LT32768
 62
     7
370
    18
100
AcDbLine
 10
20.91643678685465
 20
41.7870088690346
 30
0.0
 11
20.56523073455103
 21
41.93819185392905
 31
0.0
  0
LINE
  5
115
330
1F
100
AcDbEntity
  8
0
  6
K5LT32768
 62
     7
370
    18
100
AcDbLine
 10
21.26674792195654
 20
41.6067008156807
 30
0.0
 11
20.91643678685465
 21
41.7870088690346
 31
0.0
  0
LINE
  5
116
330
1F
100
AcDbEntity
  8
0
  6
K5LT32768
 62
     7
370
    18
100
AcDbLine
 10
21.61485431485528
 20
41.3985063804344
 30
0.0
 11
21.26674792195654
 21
41.6067008156807
 31
0.0
  0
LINE
  5
117
330
1F
100
AcDbEntity
  8
0
  6
K5LT32768
 62
     7
370
    18
100
AcDbLine
 10
21.61894150083292
 20
40.31947807231748
 30
0.0
 11
21.61485431485528
 21
41.3985063804344
 31
0.0
  0
LINE
  5
118
330
1F
100
AcDbEntity
  8
0
  6
K5LT32768
 62
     7
370
    18
100
AcDbLine
 10
21.27242228008754
 20
40.1086525204767
 30
0.0
 11
21.61894150083292
 21
40.31947807231748
 31
0.0
  0
LINE
  5
119
330
1F
100
AcDbEntity
  8
0
  6
K5LT32768
 62
     7
370
    18
100
AcDbLine
 10
20.92348712690936
 20
39.92569585611892
 30
0.0
 11
21.27242228008754
 21
40.1086525204767
 31
0.0
  0
LINE
  5
11A
330
1F
100
AcDbEntity
  8
0
  6
K5LT32768
 62
     7
370
    18
100
AcDbLine
 10
20.57343644376266
 20
39.77185663717259
 30
0.0
 11
20.92348712690936
 21
39.92569585611892
 31
0.0
  0
LINE
  5
11B
330
1F
100
AcDbEntity
  8
0
  6
K5LT32768
 62
     7
370
    18
100
AcDbLine
 10
20.22365130372393
 20
39.64901510971359
 30
0.0
 11
20.57343644376266
 21
39.77185663717258
 31
0.0
  0
LINE
  5
11C
330
1F
100
AcDbEntity
  8
0
  6
K5LT32768
 62
     7
370
    18
100
AcDbLine
 10
19.87568676899813
 20
39.56038758175727
 30
0.0
 11
20.22365130372393
 21
39.64901510971359
 31
0.0
  0
LINE
  5
11D
330
1F
100
AcDbEntity
  8
0
  6
K5LT32768
 62
     7
370
    18
100
AcDbLine
 10
19.53159978545379
 20
39.51295974101375
 30
0.0
 11
19.87568676899813
 21
39.56038758175727
 31
0.0
  0
LINE
  5
11E
330
1F
100
AcDbEntity
  8
0
  6
K5LT32768
 62
     7
370
    18
100
AcDbLine
 10
18.96458762492023
 20
39.29094215832286
 30
0.0
 11
19.53159978545379
 21
39.51295974101376
 31
0.0
  0
LINE
  5
11F
330
1F
100
AcDbEntity
  8
0
  6
K5LT32768
 62
     7
370
    18
100
AcDbLine
 10
18.75862299752785
 20
38.92867842631399
 30
0.0
 11
18.96458762492023
 21
39.29094215832286
 31
0.0
  0
LINE
  5
120
330
1F
100
AcDbEntity
  8
0
  6
K5LT32768
 62
     7
370
    18
100
AcDbLine
 10
18.61554648313273
 20
38.32953604134266
 30
0.0
 11
18.75862299752785
 21
38.92867842631399
 31
0.0
  0
LINE
  5
121
330
1F
100
AcDbEntity
  8
0
  6
K5LT32768
 62
     7
370
    18
100
AcDbLine
 10
18.7563080313163
 20
37.76761265964092
 30
0.0
 11
18.61554648313273
 21
38.32953604134266
 31
0.0
  0
LINE
  5
122
330
1F
100
AcDbEntity
  8
0
  6
K5LT32768
 62
     7
370
    18
100
AcDbLine
 10
18.96501108971319
 20
37.4069196131162
 30
0.0
 11
18.7563080313163
 21
37.76761265964092
 31
0.0
  0
LINE
  5
123
330
1F
100
AcDbEntity
  8
0
  6
K5LT32768
 62
     7
370
    18
100
AcDbLine
 10
19.53368888776338
 20
37.1892038084618
 30
0.0
 11
18.96501108971319
 21
37.40691961311621
 31
0.0
  0
LINE
  5
124
330
1F
100
AcDbEntity
  8
0
  6
K5LT32768
 62
     7
370
    18
100
AcDbLine
 10
19.87812528914378
 20
37.14438396843173
 30
0.0
 11
19.53368888776338
 21
37.1892038084618
 31
0.0
  0
LINE
  5
125
330
1F
100
AcDbEntity
  8
0
  6
K5LT32768
 62
     7
370
    18
100
AcDbLine
 10
20.22675123963732
 20
37.05839499967414
 30
0.0
 11
19.87812528914378
 21
37.14438396843173
 31
0.0
  0
LINE
  5
126
330
1F
100
AcDbEntity
  8
0
  6
K5LT32768
 62
     7
370
    18
100
AcDbLine
 10
20.57745693305214
 20
36.93820680554438
 30
0.0
 11
20.22675123963732
 21
37.05839499967414
 31
0.0
  0
LINE
  5
127
330
1F
100
AcDbEntity
  8
0
  6
K5LT32768
 62
     7
370
    18
100
AcDbLine
 10
20.92866298535576
 20
36.78702382064994
 30
0.0
 11
20.57745693305214
 21
36.93820680554438
 31
0.0
  0
LINE
  5
128
330
1F
100
AcDbEntity
  8
0
  6
K5LT32768
 62
     7
370
    18
100
AcDbLine
 10
21.27897412045765
 20
36.60671576729602
 30
0.0
 11
20.92866298535576
 21
36.78702382064994
 31
0.0
  0
LINE
  5
129
330
1F
100
AcDbEntity
  8
0
  6
K5LT32768
 62
     7
370
    18
100
AcDbLine
 10
21.62708051335663
 20
36.39852133194973
 30
0.0
 11
21.27897412045765
 21
36.60671576729602
 31
0.0
  0
LINE
  5
12A
330
1F
100
AcDbEntity
  8
0
  6
K5LT32768
 62
     7
370
    18
100
AcDbLine
 10
21.63116769933403
 20
35.31949302393281
 30
0.0
 11
21.62708051335663
 21
36.39852133194973
 31
0.0
  0
LINE
  5
12B
330
1F
100
AcDbEntity
  8
0
  6
K5LT32768
 62
     7
370
    18
100
AcDbLine
 10
21.28464847858865
 20
35.10866747209202
 30
0.0
 11
21.63116769933403
 21
35.31949302393281
 31
0.0
  0
LINE
  5
12C
330
1F
100
AcDbEntity
  8
0
  6
K5LT32768
 62
     7
370
    18
100
AcDbLine
 10
20.93571332541048
 20
34.92571080773426
 30
0.0
 11
21.28464847858865
 21
35.10866747209202
 31
0.0
  0
LINE
  5
12D
330
1F
100
AcDbEntity
  8
0
  6
K5LT32768
 62
     7
370
    18
100
AcDbLine
 10
20.58566264226377
 20
34.77187158878792
 30
0.0
 11
20.93571332541048
 21
34.92571080773426
 31
0.0
  0
LINE
  5
12E
330
1F
100
AcDbEntity
  8
0
  6
K5LT32768
 62
     7
370
    18
100
AcDbLine
 10
20.23587750222504
 20
34.64903006132893
 30
0.0
 11
20.58566264226377
 21
34.77187158878792
 31
0.0
  0
LINE
  5
12F
330
1F
100
AcDbEntity
  8
0
  6
K5LT32768
 62
     7
370
    18
100
AcDbLine
 10
19.88791296749924
 20
34.5604025333726
 30
0.0
 11
20.23587750222504
 21
34.64903006132893
 31
0.0
  0
LINE
  5
130
330
1F
100
AcDbEntity
  8
0
  6
K5LT32768
 62
     7
370
    18
100
AcDbLine
 10
19.54382598395515
 20
34.51297469252909
 30
0.0
 11
19.88791296749924
 21
34.5604025333726
 31
0.0
  0
LINE
  5
131
330
1F
100
AcDbEntity
  8
0
  6
K5LT32768
 62
     7
370
    18
100
AcDbLine
 10
18.97681382342135
 20
34.29095710993819
 30
0.0
 11
19.54382598395515
 21
34.51297469252909
 31
0.0
  0
LINE
  5
132
330
1F
100
AcDbEntity
  8
0
  6
K5LT32768
 62
     7
370
    18
100
AcDbLine
 10
18.77084919602896
 20
33.92869337792932
 30
0.0
 11
18.97681382342135
 21
34.29095710993819
 31
0.0
  0
LINE
  5
133
330
1F
100
AcDbEntity
  8
0
  6
K5LT32768
 62
     7
370
    18
100
AcDbLine
 10
18.62777268163408
 20
33.329550992858
 30
0.0
 11
18.77084919602896
 21
33.92869337792932
 31
0.0
  0
LINE
  5
134
330
1F
100
AcDbEntity
  8
0
  6
K5LT32768
 62
     7
370
    18
100
AcDbLine
 10
18.76853422981741
 20
32.76762761125626
 30
0.0
 11
18.62777268163408
 21
33.329550992858
 31
0.0
  0
LINE
  5
135
330
1F
100
AcDbEntity
  8
0
  6
K5LT32768
 62
     7
370
    18
100
AcDbLine
 10
18.9772372882143
 20
32.40693456473154
 30
0.0
 11
18.76853422981741
 21
32.76762761125626
 31
0.0
  0
LINE
  5
136
330
1F
100
AcDbEntity
  8
0
  6
K5LT32768
 62
     7
370
    18
100
AcDbLine
 10
19.54591508626449
 20
32.18921876007713
 30
0.0
 11
18.9772372882143
 21
32.40693456473154
 31
0.0
  0
LINE
  5
137
330
1F
100
AcDbEntity
  8
0
  6
K5LT32768
 62
     7
370
    18
100
AcDbLine
 10
19.89035148764489
 20
32.14439892004706
 30
0.0
 11
19.54591508626449
 21
32.18921876007713
 31
0.0
  0
LINE
  5
138
330
1F
100
AcDbEntity
  8
0
  6
K5LT32768
 62
     7
370
    18
100
AcDbLine
 10
20.23897743813843
 20
32.05840995128946
 30
0.0
 11
19.89035148764489
 21
32.14439892004706
 31
0.0
  0
LINE
  5
139
330
1F
100
AcDbEntity
  8
0
  6
K5LT32768
 62
     7
370
    18
100
AcDbLine
 10
20.5896831315535
 20
31.93822175705972
 30
0.0
 11
20.23897743813843
 21
32.05840995128946
 31
0.0
  0
LINE
  5
13A
330
1F
100
AcDbEntity
  8
0
  6
K5LT32768
 62
     7
370
    18
100
AcDbLine
 10
20.94088918385687
 20
31.78703877226527
 30
0.0
 11
20.5896831315535
 21
31.93822175705972
 31
0.0
  0
LINE
  5
13B
330
1F
100
AcDbEntity
  8
0
  6
K5LT32768
 62
     7
370
    18
100
AcDbLine
 10
21.29120031895901
 20
31.60673071881136
 30
0.0
 11
20.94088918385687
 21
31.78703877226527
 31
0.0
  0
LINE
  5
13C
330
1F
100
AcDbEntity
  8
0
  6
K5LT32768
 62
     7
370
    18
100
AcDbLine
 10
21.63930671185774
 20
31.39853628356506
 30
0.0
 11
21.29120031895901
 21
31.60673071881136
 31
0.0
  0
LINE
  5
13D
330
1F
100
AcDbEntity
  8
0
  6
K5LT32768
 62
     7
370
    18
100
AcDbLine
 10
21.64339389783514
 20
30.31950797554815
 30
0.0
 11
21.63930671185774
 21
31.39853628356506
 31
0.0
  0
LINE
  5
13E
330
1F
100
AcDbEntity
  8
0
  6
K5LT32768
 62
     7
370
    18
100
AcDbLine
 10
21.29687467709
 20
30.10868242360737
 30
0.0
 11
21.64339389783514
 21
30.31950797554815
 31
0.0
  0
LINE
  5
13F
330
1F
100
AcDbEntity
  8
0
  6
K5LT32768
 62
     7
370
    18
100
AcDbLine
 10
20.94793952391183
 20
29.92572575924959
 30
0.0
 11
21.29687467709
 21
30.10868242360737
 31
0.0
  0
LINE
  5
140
330
1F
100
AcDbEntity
  8
0
  6
K5LT32768
 62
     7
370
    18
100
AcDbLine
 10
20.59788884076512
 20
29.77188654030326
 30
0.0
 11
20.94793952391183
 21
29.92572575924959
 31
0.0
  0
LINE
  5
141
330
1F
100
AcDbEntity
  8
0
  6
K5LT32768
 62
     7
370
    18
100
AcDbLine
 10
20.24810370072639
 20
29.64904501284426
 30
0.0
 11
20.59788884076512
 21
29.77188654030326
 31
0.0
  0
LINE
  5
142
330
1F
100
AcDbEntity
  8
0
  6
K5LT32768
 62
     7
370
    18
100
AcDbLine
 10
19.90013916600035
 20
29.56041748498794
 30
0.0
 11
20.24810370072639
 21
29.64904501284426
 31
0.0
  0
LINE
  5
143
330
1F
100
AcDbEntity
  8
0
  6
K5LT32768
 62
     7
370
    18
100
AcDbLine
 10
19.55605218245626
 20
29.51298964414442
 30
0.0
 11
19.90013916600035
 21
29.56041748498794
 31
0.0
  0
LINE
  5
144
330
1F
100
AcDbEntity
  8
0
  6
K5LT32768
 62
     7
370
    18
100
AcDbLine
 10
18.9890400219227
 20
29.29097206145353
 30
0.0
 11
19.55605218245626
 21
29.51298964414442
 31
0.0
  0
LINE
  5
145
330
1F
100
AcDbEntity
  8
0
  6
K5LT32768
 62
     7
370
    18
100
AcDbLine
 10
19.01049321329469
 20
20.51754701929038
 30
0.0
 11
18.9890400219227
 21
29.29097206145353
 31
0.0
  0
LINE
  5
146
330
1F
100
AcDbEntity
  8
0
  6
K5LT32768
 62
     7
370
    18
100
AcDbLine
 10
14.11718502673769
 20
76.27919962834633
 30
0.0
 11
14.26334544277386
 21
16.50592711193955
 31
0.0
  0
LINE
  5
147
330
1F
100
AcDbEntity
  8
0
  6
K5LT32768
 62
     7
370
    18
100
AcDbLine
 10
22.98829423992618
 20
79.30090065048171
 30
0.0
 11
17.10984033882254
 21
79.28652637864309
 31
0.0
  0
LINE
  5
148
330
1F
100
AcDbEntity
  8
0
  6
K5LT32768
 62
     7
370
    18
100
AcDbLine
 10
46.26324977547566
 20
16.58417478240298
 30
0.0
 11
46.11708935943949
 21
76.35744729880976
 31
0.0
  0
LINE
  5
149
330
1F
100
AcDbEntity
  8
0
  6
K5LT32768
 62
     7
370
    18
100
AcDbLine
 10
42.14879296859274
 20
63.38715536440107
 30
0.0
 11
42.25348077508001
 21
20.57438186518277
 31
0.0
  0
ARC
  5
14A
330
1F
100
AcDbEntity
  8
0
  6
K5LT32768
 62
     7
370
    18
100
AcDbCircle
 10
30.14882884382956
 20
63.35781248797728
 30
0.0
 40
12.00000000000001
100
AcDbArc
 50
102.7587412413379
 51
160.069126894738
  0
LINE
  5
14B
330
1F
100
AcDbEntity
  8
0
  6
K5LT32768
 62
     7
370
    18
100
AcDbLine
 10
43.10976260914275
 20
79.35010261089462
 30
0.0
 11
37.98824939588014
 21
79.33757924601144
 31
0.0
  0
ARC
  5
14C
330
1F
100
AcDbEntity
  8
0
  6
K5LT32768
 62
     7
370
    18
100
AcDbCircle
 10
30.14882884382956
 20
63.35781248797728
 30
0.0
 40
12.00000000000001
100
AcDbArc
 50
0.1401020544379543
 51
73.78800623293796
  0
ENDSEC
  0
SECTION
  2
OBJECTS
  0
DICTIONARY
  5
C
330
0
100
AcDbDictionary
281
     1
  3
ACAD_GROUP
350
D
  3
ACAD_LAYOUT
350
1A
  3
ACAD_MLEADERSTYLE
350
14E
  3
ACAD_MLINESTYLE
350
17
  3
ACAD_PLOTSETTINGS
350
19
  3
ACAD_PLOTSTYLENAME
350
E
  3
ACAD_TABLESTYLE
350
14D
  3
ACAD_VISUALSTYLE
350
2A
  0
DICTIONARY
  5
D
102
{ACAD_REACTORS
330
C
102
}
330
C
100
AcDbDictionary
281
     1
  0
DICTIONARY
  5
1A
102
{ACAD_REACTORS
330
C
102
}
330
C
100
AcDbDictionary
281
     1
  3
Layout1
350
1E
  3
Layout2
350
26
  3
Model
350
22
  0
DICTIONARY
  5
14E
102
{ACAD_REACTORS
330
C
102
}
330
C
100
AcDbDictionary
281
     1
  0
DICTIONARY
  5
17
102
{ACAD_REACTORS
330
C
102
}
330
C
100
AcDbDictionary
281
     1
  3
Standard
350
18
  0
DICTIONARY
  5
19
102
{ACAD_REACTORS
330
C
102
}
330
C
100
AcDbDictionary
281
     1
  0
ACDBDICTIONARYWDFLT
  5
E
102
{ACAD_REACTORS
330
C
102
}
330
C
100
AcDbDictionary
281
     1
  3
Normal
350
F
100
AcDbDictionaryWithDefault
340
F
  0
DICTIONARY
  5
14D
102
{ACAD_REACTORS
330
C
102
}
330
C
100
AcDbDictionary
281
     1
  0
DICTIONARY
  5
2A
102
{ACAD_REACTORS
330
C
102
}
330
C
100
AcDbDictionary
281
     1
  3
2dWireframe
350
2F
  3
3D Hidden
350
31
  3
3dWireframe
350
30
  3
Basic
350
32
  3
Brighten
350
36
  3
ColorChange
350
3A
  3
Conceptual
350
34
  3
Dim
350
35
  3
Facepattern
350
39
  3
Flat
350
2B
  3
FlatWithEdges
350
2C
  3
Gouraud
350
2D
  3
GouraudWithEdges
350
2E
  3
Linepattern
350
38
  3
Realistic
350
33
  3
Thicken
350
37
  0
LAYOUT
  5
1E
102
{ACAD_REACTORS
330
1A
102
}
330
1A
100
AcDbPlotSettings
  1

  2
none_device
  4

  6

 40
0.0
 41
0.0
 42
0.0
 43
0.0
 44
0.0
 45
0.0
 46
0.0
 47
0.0
 48
0.0
 49
0.0
140
0.0
141
0.0
142
1.0
143
1.0
 70
   688
 72
     0
 73
     0
 74
     5
  7

 75
    16
 76
     0
 77
     2
 78
   300
147
1.0
148
0.0
149
0.0
100
AcDbLayout
  1
Layout1
 70
     1
 71
     1
 10
0.0
 20
0.0
 11
420.0
 21
297.0
 12
0.0
 22
0.0
 32
0.0
 14
1.000000000000000E+20
 24
1.000000000000000E+20
 34
1.000000000000000E+20
 15
-1.000000000000000E+20
 25
-1.000000000000000E+20
 35
-1.000000000000000E+20
146
0.0
 13
0.0
 23
0.0
 33
0.0
 16
1.0
 26
0.0
 36
0.0
 17
0.0
 27
1.0
 37
0.0
 76
     0
330
1B
  0
LAYOUT
  5
26
102
{ACAD_REACTORS
330
1A
102
}
330
1A
100
AcDbPlotSettings
  1

  2
none_device
  4

  6

 40
0.0
 41
0.0
 42
0.0
 43
0.0
 44
0.0
 45
0.0
 46
0.0
 47
0.0
 48
0.0
 49
0.0
140
0.0
141
0.0
142
1.0
143
1.0
 70
   688
 72
     0
 73
     0
 74
     5
  7

 75
    16
 76
     0
 77
     2
 78
   300
147
1.0
148
0.0
149
0.0
100
AcDbLayout
  1
Layout2
 70
     1
 71
     2
 10
0.0
 20
0.0
 11
0.0
 21
0.0
 12
0.0
 22
0.0
 32
0.0
 14
0.0
 24
0.0
 34
0.0
 15
0.0
 25
0.0
 35
0.0
146
0.0
 13
0.0
 23
0.0
 33
0.0
 16
1.0
 26
0.0
 36
0.0
 17
0.0
 27
1.0
 37
0.0
 76
     0
330
23
  0
LAYOUT
  5
22
102
{ACAD_REACTORS
330
1A
102
}
330
1A
100
AcDbPlotSettings
  1

  2
none_device
  4

  6

 40
0.0
 41
0.0
 42
0.0
 43
0.0
 44
0.0
 45
0.0
 46
0.0
 47
0.0
 48
0.0
 49
0.0
140
0.0
141
0.0
142
1.0
143
1.0
 70
  1712
 72
     0
 73
     0
 74
     0
  7

 75
     0
 76
     0
 77
     2
 78
   300
147
1.0
148
0.0
149
0.0
100
AcDbLayout
  1
Model
 70
     1
 71
     0
 10
0.0
 20
0.0
 11
420.0
 21
297.0
 12
0.0
 22
0.0
 32
0.0
 14
1.000000000000000E+20
 24
1.000000000000000E+20
 34
1.000000000000000E+20
 15
-1.000000000000000E+20
 25
-1.000000000000000E+20
 35
-1.000000000000000E+20
146
0.0
 13
0.0
 23
0.0
 33
0.0
 16
1.0
 26
0.0
 36
0.0
 17
0.0
 27
1.0
 37
0.0
 76
     0
330
1F
331
29
  0
MLINESTYLE
  5
18
102
{ACAD_REACTORS
330
17
102
}
330
17
100
AcDbMlineStyle
  2
Standard
 70
     0
  3

 62
   256
 51
90.0
 52
90.0
 71
     2
 49
0.5
 62
   256
  6
BYLAYER
 49
-0.5
 62
   256
  6
BYLAYER
  0
ACDBPLACEHOLDER
  5
F
102
{ACAD_REACTORS
330
E
102
}
330
E
  0
VISUALSTYLE
  5
2F
102
{ACAD_REACTORS
330
2A
102
}
330
2A
100
AcDbVisualStyle
  2
2dWireframe
 70
     4
 71
     0
 72
     2
 73
     0
 90
        0
 40
-0.6
 41
-30.0
 62
     5
 63
     7
421
 16777215
 74
     1
 91
        4
 64
     7
 65
   257
 75
     1
175
     1
 42
1.0
 92
        0
 66
   257
 43
1.0
 76
     1
 77
     6
 78
     2
 67
     7
 79
     5
170
     0
171
     0
290
     0
174
     0
 93
        1
 44
0.0
173
     0
291
     0
 45
0.0
  0
VISUALSTYLE
  5
31
102
{ACAD_REACTORS
330
2A
102
}
330
2A
100
AcDbVisualStyle
  2
3D Hidden
 70
     6
 71
     1
 72
     2
 73
     2
 90
        0
 40
-0.6
 41
-30.0
 62
     5
 63
     7
421
 16777215
 74
     2
 91
        2
 64
     7
 65
   257
 75
     2
175
     1
 42
40.0
 92
        0
 66
   257
 43
1.0
 76
     1
 77
     6
 78
     2
 67
     7
 79
     3
170
     0
171
     0
290
     0
174
     0
 93
        1
 44
0.0
173
     0
291
     0
 45
0.0
  0
VISUALSTYLE
  5
30
102
{ACAD_REACTORS
330
2A
102
}
330
2A
100
AcDbVisualStyle
  2
3dWireframe
 70
     5
 71
     0
 72
     2
 73
     0
 90
        0
 40
-0.6
 41
-30.0
 62
     5
 63
     7
421
 16777215
 74
     1
 91
        4
 64
     7
 65
   257
 75
     1
175
     1
 42
1.0
 92
        0
 66
   257
 43
1.0
 76
     1
 77
     6
 78
     2
 67
     7
 79
     5
170
     0
171
     0
290
     0
174
     0
 93
        1
 44
0.0
173
     0
291
     0
 45
0.0
  0
VISUALSTYLE
  5
32
102
{ACAD_REACTORS
330
2A
102
}
330
2A
100
AcDbVisualStyle
  2
Basic
 70
     7
 71
     1
 72
     0
 73
     1
 90
        0
 40
-0.6
 41
-30.0
 62
     5
 63
     7
421
 16777215
 74
     0
 91
        4
 64
     7
 65
   257
 75
     1
175
     1
 42
1.0
 92
        8
 66
     7
 43
1.0
 76
     1
 77
     6
 78
     2
 67
     7
 79
     5
170
     0
171
     0
290
     0
174
     0
 93
        1
 44
0.0
173
     0
291
     1
 45
0.0
  0
VISUALSTYLE
  5
36
102
{ACAD_REACTORS
330
2A
102
}
330
2A
100
AcDbVisualStyle
  2
Brighten
 70
    12
 71
     2
 72
     2
 73
     0
 90
        0
 40
-0.6
 41
-30.0
 62
     5
 63
     7
421
 16777215
 74
     1
 91
        4
 64
     7
 65
   257
 75
     1
175
     1
 42
1.0
 92
        8
 66
     7
 43
1.0
 76
     1
 77
     6
 78
     2
 67
     7
 79
     5
170
     0
171
     0
290
     0
174
     0
 93
        1
 44
50.0
173
     0
291
     1
 45
0.0
  0
VISUALSTYLE
  5
3A
102
{ACAD_REACTORS
330
2A
102
}
330
2A
100
AcDbVisualStyle
  2
ColorChange
 70
    16
 71
     2
 72
     2
 73
     3
 90
        0
 40
-0.6
 41
-30.0
 62
     5
 63
     8
421
  8421504
 74
     1
 91
        4
 64
     7
 65
   257
 75
     1
175
     1
 42
1.0
 92
        8
 66
     8
424
  8421504
 43
1.0
 76
     1
 77
     6
 78
     2
 67
     7
 79
     5
170
     0
171
     0
290
     0
174
     0
 93
        1
 44
0.0
173
     0
291
     1
 45
0.0
  0
VISUALSTYLE
  5
34
102
{ACAD_REACTORS
330
2A
102
}
330
2A
100
AcDbVisualStyle
  2
Conceptual
 70
     9
 71
     3
 72
     2
 73
     0
 90
        0
 40
-0.6
 41
-30.0
 62
     5
 63
     7
421
 16777215
 74
     2
 91
        2
 64
     7
 65
   257
 75
     1
175
     1
 42
40.0
 92
        8
 66
     7
 43
1.0
 76
     1
 77
     6
 78
     2
 67
     7
 79
     3
170
     0
171
     0
290
     0
174
     0
 93
        1
 44
0.0
173
     0
291
     0
 45
0.0
  0
VISUALSTYLE
  5
35
102
{ACAD_REACTORS
330
2A
102
}
330
2A
100
AcDbVisualStyle
  2
Dim
 70
    11
 71
     2
 72
     2
 73
     0
 90
        0
 40
-0.6
 41
-30.0
 62
     5
 63
     7
421
 16777215
 74
     1
 91
        4
 64
     7
 65
   257
 75
     1
175
     1
 42
1.0
 92
        8
 66
     7
 43
1.0
 76
     1
 77
     6
 78
     2
 67
     7
 79
     5
170
     0
171
     0
290
     0
174
     0
 93
        1
 44
-50.0
173
     0
291
     1
 45
0.0
  0
VISUALSTYLE
  5
39
102
{ACAD_REACTORS
330
2A
102
}
330
2A
100
AcDbVisualStyle
  2
Facepattern
 70
    15
 71
     2
 72
     2
 73
     0
 90
        0
 40
-0.6
 41
-30.0
 62
     5
 63
     7
421
 16777215
 74
     1
 91
        4
 64
     7
 65
   257
 75
     1
175
     1
 42
1.0
 92
        8
 66
     7
 43
1.0
 76
     1
 77
     6
 78
     2
 67
     7
 79
     5
170
     0
171
     0
290
     0
174
     0
 93
        1
 44
0.0
173
     0
291
     1
 45
0.0
  0
VISUALSTYLE
  5
2B
102
{ACAD_REACTORS
330
2A
102
}
330
2A
100
AcDbVisualStyle
  2
Flat
 70
     0
 71
     2
 72
     1
 73
     1
 90
        2
 40
-0.6
 41
30.0
 62
     5
 63
     7
421
 16777215
 74
     0
 91
        4
 64
     7
 65
   257
 75
     1
175
     1
 42
1.0
 92
        8
 66
     7
 43
1.0
 76
     1
 77
     6
 78
     2
 67
     7
 79
     5
170
     0
171
     0
290
     0
174
     0
 93
       13
 44
0.0
173
     0
291
     1
 45
0.0
  0
VISUALSTYLE
  5
2C
102
{ACAD_REACTORS
330
2A
102
}
330
2A
100
AcDbVisualStyle
  2
FlatWithEdges
 70
     1
 71
     2
 72
     1
 73
     1
 90
        2
 40
-0.6
 41
30.0
 62
     5
 63
     7
421
 16777215
 74
     1
 91
        4
 64
     7
 65
   257
 75
     1
175
     1
 42
1.0
 92
        0
 66
   257
 43
1.0
 76
     1
 77
     6
 78
     2
 67
     7
 79
     5
170
     0
171
     0
290
     0
174
     0
 93
       13
 44
0.0
173
     0
291
     1
 45
0.0
  0
VISUALSTYLE
  5
2D
102
{ACAD_REACTORS
330
2A
102
}
330
2A
100
AcDbVisualStyle
  2
Gouraud
 70
     2
 71
     2
 72
     2
 73
     1
 90
        2
 40
-0.6
 41
30.0
 62
     5
 63
     7
421
 16777215
 74
     0
 91
        4
 64
     7
 65
   257
 75
     1
175
     1
 42
1.0
 92
        0
 66
     7
 43
1.0
 76
     1
 77
     6
 78
     2
 67
     7
 79
     5
170
     0
171
     0
290
     0
174
     0
 93
       13
 44
0.0
173
     0
291
     1
 45
0.0
  0
VISUALSTYLE
  5
2E
102
{ACAD_REACTORS
330
2A
102
}
330
2A
100
AcDbVisualStyle
  2
GouraudWithEdges
 70
     3
 71
     2
 72
     2
 73
     1
 90
        2
 40
-0.6
 41
30.0
 62
     5
 63
     7
421
 16777215
 74
     1
 91
        4
 64
     7
 65
   257
 75
     1
175
     1
 42
1.0
 92
        0
 66
   257
 43
1.0
 76
     1
 77
     6
 78
     2
 67
     7
 79
     5
170
     0
171
     0
290
     0
174
     0
 93
       13
 44
0.0
173
     0
291
     1
 45
0.0
  0
VISUALSTYLE
  5
38
102
{ACAD_REACTORS
330
2A
102
}
330
2A
100
AcDbVisualStyle
  2
Linepattern
 70
    14
 71
     2
 72
     2
 73
     0
 90
        0
 40
-0.6
 41
-30.0
 62
     5
 63
     7
421
 16777215
 74
     1
 91
        4
 64
     7
 65
   257
 75
     7
175
     7
 42
1.0
 92
        8
 66
     7
 43
1.0
 76
     1
 77
     6
 78
     2
 67
     7
 79
     5
170
     0
171
     0
290
     0
174
     0
 93
        1
 44
0.0
173
     0
291
     1
 45
0.0
  0
VISUALSTYLE
  5
33
102
{ACAD_REACTORS
330
2A
102
}
330
2A
100
AcDbVisualStyle
  2
Realistic
 70
     8
 71
     2
 72
     2
 73
     0
 90
        0
 40
-0.6
 41
-30.0
 62
     5
 63
     7
421
 16777215
 74
     1
 91
        0
 64
     7
 65
   257
 75
     1
175
     1
 42
1.0
 92
        8
 66
     8
424
  7895160
 43
1.0
 76
     1
 77
     6
 78
     2
 67
     7
 79
     5
170
     0
171
     0
290
     0
174
     0
 93
       13
 44
0.0
173
     0
291
     0
 45
0.0
  0
VISUALSTYLE
  5
37
102
{ACAD_REACTORS
330
2A
102
}
330
2A
100
AcDbVisualStyle
  2
Thicken
 70
    13
 71
     2
 72
     2
 73
     0
 90
        0
 40
-0.6
 41
-30.0
 62
     5
 63
     7
421
 16777215
 74
     1
 91
        4
 64
     7
 65
   257
 75
     1
175
     1
 42
1.0
 92
       12
 66
     7
 43
1.0
 76
     1
 77
     6
 78
     2
 67
     7
 79
     5
170
     0
171
     0
290
     0
174
     0
 93
        1
 44
0.0
173
     0
291
     1
 45
0.0
  0
ENDSEC
  0
SECTION
  2
THUMBNAILIMAGE
 90
    16364
310
28000000B40000005500000001000800000000000000000000000000000000000000000000000000FFFFFF00FF000000FFFF000000FF000000FFFF000000FF00FF00FF000000000080808000C0C0C000FF000000FF7F7F00A5000000A55252007F0000007F3F3F004C0000004C2626002600000026131300FF3F0000FF9F7F
310
00A5290000A56752007F1F00007F4F3F004C1300004C2F26002609000026171300FF7F0000FFBF7F00A5520000A57C52007F3F00007F5F3F004C2600004C39260026130000261C1300FFBF0000FFDF7F00A57C0000A59152007F5F00007F6F3F004C3900004C422600261C000026211300FFFF0000FFFF7F00A5A50000A5A5
310
52007F7F00007F7F3F004C4C00004C4C26002626000026261300BFFF0000DFFF7F007CA5000091A552005F7F00006F7F3F00394C0000424C26001C260000212613007FFF0000BFFF7F0052A500007CA552003F7F00005F7F3F00264C0000394C2600132600001C2613003FFF00009FFF7F0029A5000067A552001F7F00004F
310
7F3F00134C00002F4C2600092600001726130000FF00007FFF7F0000A5000052A55200007F00003F7F3F00004C0000264C2600002600001326130000FF3F007FFF9F0000A5290052A56700007F1F003F7F4F00004C1300264C2F00002609001326170000FF7F007FFFBF0000A5520052A57C00007F3F003F7F5F00004C2600
310
264C39000026130013261C0000FFBF007FFFDF0000A57C0052A59100007F5F003F7F6F00004C3900264C420000261C001326210000FFFF007FFFFF0000A5A50052A5A500007F7F003F7F7F00004C4C00264C4C00002626001326260000BFFF007FDFFF00007CA5005291A500005F7F003F6F7F0000394C0026424C00001C26
310
0013212600007FFF007FBFFF000052A500527CA500003F7F003F5F7F0000264C0026394C0000132600131C2600003FFF007F9FFF000029A5005267A500001F7F003F4F7F0000134C00262F4C0000092600131726000000FF007F7FFF000000A5005252A50000007F003F3F7F0000004C0026264C0000002600131326003F00
310
FF009F7FFF002900A5006752A5001F007F004F3F7F0013004C002F264C0009002600171326007F00FF00BF7FFF005200A5007C52A5003F007F005F3F7F0026004C0039264C00130026001C132600BF00FF00DF7FFF007C00A5009152A5005F007F006F3F7F0039004C0042264C001C00260021132600FF00FF00FF7FFF00A5
310
00A500A552A5007F007F007F3F7F004C004C004C264C002600260026132600FF00BF00FF7FDF00A5007C00A55291007F005F007F3F6F004C0039004C26420026001C0026132100FF007F00FF7FBF00A5005200A5527C007F003F007F3F5F004C0026004C2639002600130026131C00FF003F00FF7F9F00A5002900A5526700
310
7F001F007F3F4F004C0013004C262F002600090026131700000000002D2D2D005B5B5B0089898900B7B7B700B3B3B30000000000000000000000000000000000000000000000000000000000000000000000000000000000000000000000000000000000000000000000000000000000000000000000000000000000000000
310
00000000000000000000000000000000000000000000000000000000000000000000000000000000000000000000000000000000000000000000000000000000000000000000000000000000000000000000000000000000000000000000000000000000000000000000000000000000000000000000000000000000000000
310
00000000000000000000000000000000000000000000000000000000000000000000000000000000000000000000000707070707070707070707070707070707070707070707070707070707070707070707070000000000000000000000000000000000000000000000000000000000000000000000000000000000000000
310
00000000000000000000000000000000000000000000000000000000000000000000000000000000000000000000000000000000000000000000000000000000000000000000000000000000000000000000000000000000000000000000000000000707000000000000000000000000000000000000000000000000000000
310
00000000000000000007000000000000000000000000000000000000000000000000000000000000000000000000000000000000000000000000000000000000000000000000000000000000000000000000000000000000000000000000000000000000000000000000000000000000000000000000000000000000000000
310
00000000000000000000000000000000000000000000000007000000000000000000000000000000000000000000000000000000000000000000000000000700000000000000000000000000000000000000000000000000000000000000000000000000000000000000000000000000000000000000000000000000000000
310
00000000000000000000000000000000000000000000000000000000000000000000000000000000000000000000000000000000000000000000000000000000000000000000000000000000070000000000000000000000000000000000000000000000000000000000000000000000000000000700000000000000000000
310
00000000000000000000000000000000000000000000000000000000000000000000000000000000000000000000000000000000000000000000000000000000000000000000000000000000000000000000000000000000000000000000000000000000000000000000000000000000000000000000000000000000000000
310
00000700000000000000000000000000000000000000000000000000000000000000000000000000000007000000000000000000000000000000000000000000000000000000000000000000000000000000000000000000000000000000000000000000000000000000000000000000000000000000000000000000000000
310
00000000000000000000000000000000000000000000000000000000000000000000000000000000000000000000000000000000000000070000000000000000070707070707070707070707070707070707070707070707000000000000000700000000000000000000000000000000000000000000000000000000000000
310
00000000000000000000000000000000000000000000000000000000000000000000000000000000000000000000000000000000000000000000000000000000000000000000000000000000000000000000000000000000000000000000000000000000000000000000000007000000000000070700000000000000000000
310
00000000000000000000000000000707000000000007000000000000000000000000000000000000000000000000000000000000000000000000000000000000000000000000000000000000000000000000000000000000000000000000000000000000000000000000000000000000000000000000000000000000000000
310
00000000000000000000000000000000000000000000000000000000000000000000070000000000000700000000000000000000000000000000000000000000000000000700000000000700000000000000000000000000000000000000000000000000000000000000000000000000000000000000000000000000000000
310
00000000000000000000000000000000000000000000000000000000000000000000000000000000000000000000000000000000000000000000000000000000000000000000000000000000000000000000000000000007000000000007000000000000000000000000000000000000000000000000000000000700000000
310
07000000000000000000000000000000000000000000000000000000000000000000000000000000000000000000000000000000000000000000000000000000000000000000000000000000000000000000000000000000000000000000000000000000000000000000000000000000000000000000000000000000000000
310
00000000000000000000000000070000000000070000000000000000000000000000000000000000000000000000000007000000000700000000000000000000000000000000000000000000000000000000000000000000000000000000000000000000000000000000000000000000000000000000000000000000000000
310
00000000000000000000000000000000000000000000000000000000000000000000000000000000000000000000000000000000000000000000000000000000000007000000000007000000000000000000000000000000000000000000000000000000000700000000070000000000000000000000000000000000000000
310
00000000000000000000000000000000000000000000000000000000000000000000000000000000000000000000000000000000000000000000000000000000000000000000000000000000000000000000000000000000000000000000000000000000000000000000000000000000000000000000000700000000000700
310
00000000000000000000000000000000000000000000000000000007000000000700000000000000000000000000000000000000000000000000000000000000000000000000000000000000000000000000000000000000000000000000000000000000000000000000000000000000000000000000000000000000000000
310
00000000000000000000000000000000000000000000000000000000000000000000000000000000000000000007000000000007000000000000000000000000000000000000000000000000000000000700000000070000000000000000000000000000000000000000000000000000000000000000000000000000000000
310
00000000000000000000000000000000000000000000000000000000000000000000000000000000000000000000000000000000000000000000000000000000000000000000000000000000000000000000000000000000000000000000000000000700000000000700000000000000000000000000000000000000000000
310
00000000000007000000000700000000000000000000000000000000000000000000000000000000000000000000000000000000000000000000000000000000000000000000000000000000000000000000000000000000000000000000000000000000000000000000000000000000000000000000000000000000000000
310
00000000000000000000000000000000000000000000000007000000000007000000000000000000000000000000000000000000000000000000000700000000070000000000000000000000000000000000000000000000000000000000000000000000000000000000000000000000000000000000000000000000000000
310
00000000000000000000000000000000000000000000000000000000000000000000000000000000000000000000000000000000000000000000000000000000000000000000000000000000000700000000000700000000000000000000000000000000000000000000000000000000070000000007000000000000000000
310
00000000000000000000000000000000000000000000000000000000000000000000000000000000000000000000000000000000000000000000000000000000000000000000000000000000000000000000000000000000000000000000000000000000000000000000000000000000000000000000000000000000000000
310
00000007000000000007000000000000000000000000000000000000000000000000000000000700000000070000000000000000000000000000000000000000000000000000000000000000000000000000000000000000000000000000000000000000000000000000000000000000000000000000000000000000000000
310
00000000000000000000000000000000000000000000000000000000000000000000000000000000000000000000000000000000000000000700000000000700000000000000000000000000000000000000000000000000000000070000000007000000000000000000000000000000000000000000000000000000000000
310
00000000000000000000000000000000000000000000000000000000000000000000000000000000000000000000000000000000000000000000000000000000000000000000000000000000000000000000000000000000000000000000000000000000000000000000000000070000000000070000000000000000000000
310
00000000000000000000000000000000000700000000070000000000000000000000000000000000000000000000000000000000000000000000000000000000000000000000000000000000000000000000000000000000000000000000000000000000000000000000000000000000000000000000000000000000000000
310
00000000000000000000000000000000000000000000000000000000000000000000000700000000000700000000000000000000000000000000000000000000000000000000070000000007000000000000000000000000000000000000000000000000000000000000000000000000000000000000000000000000000000
310
00000000000000000000000000000000000000000000000000000000000000000000000000000000000000000000000000000000000000000000000000000000000000000000000000000000000000000000000000000000070000000000070707000000000000000000000000000000000000000000000000000007000000
310
00070000000000000000000000000000000000000000000000000000000000000000000000000000000000000000000000000000000000000000000000000000000000000000000000000000000000000000000000000000000000000000000000000000000000000000000000000000000000000000000000000000000000
310
00000000000000000000000000000700000000000000070700000000000000000000000000000000000000000000000000070000000007000000000000000000000000000000000000000000000000000000000000000000000000000000000000000000000000000000000000000000000000000000000000000000000000
310
00000000000000000000000000000000000000000000000000000000000000000000000000000000000000000000000000000000000000000000000000000000000000070000000000000000070000000000000000000000000000000000000000000000000007000000000700000000000000000000000000000000000000
310
00000000000000000000000000000000000000000000000000000000000000000000000000000000000000000000000000000000000000000000000000000000000000000000000000000000000000000000000000000000000000000000000000000000000000000000000000000000000000000000000007000000000000
310
07070700000000000000000000000000000000000000000000000000070000000007000000000000000000000000000000000000000000000000000000000000000000000000000000000000000000000000000000000000000000000000000000000000000000000000000000000000000000000000000000000000000000
310
00000000000000000000000000000000000000000000000000000000000000000000000000000000000000000000070000000000070000000000000000000000000000000000000000000000000000000007000000000700000000000000000000000000000000000000000000000000000000000000000000000000000000
310
00000000000000000000000000000000000000000000000000000000000000000000000000000000000000000000000000000000000000000000000000000000000000000000000000000000000000000000000000000000000000000000000000000007000000000700000000000000000000000000000000000000000000
310
00000000000000070000000007000000000000000000000000000000000000000000000000000000000000000000000000000000000000000000000000000000000000000000000000000000000000000000000000000000000000000000000000000000000000000000000000000000000000000000000000000000000000
310
00000000000000000000000000000000000000000000000000070000000000070700000000000000000000000000000000000000000000000000000007000000000700000000000000000000000000000000000000000000000000000000000000000000000000000000000000000000000000000000000000000000000000
310
00000000000000000000000000000000000000000000000000000000000000000000000000000000000000000000000000000000000000000000000000000000000000000000000000000000000007000000000000070707000000000000000000000000000000000000000000000000000700000000070000000000000000
310
00000000000000000000000000000000000000000000000000000000000000000000000000000000000000000000000000000000000000000000000000000000000000000000000000000000000000000000000000000000000000000000000000000000000000000000000000000000000000000000000000000000000000
310
00000000070000000000000000070000000000000000000000000000000000000000000000000007000000000700000000000000000000000000000000000000000000000000000000000000000000000000000000000000000000000000000000000000000000000000000000000000000000000000000000000000000000
310
00000000000000000000000000000000000000000000000000000000000000000000000000000000000000000000000000000000000000000007000000000000000707000000000000000000000000000000000000000000000000000700000000070000000000000000000000000000000000000000000000000000000000
310
00000000000000000000000000000000000000000000000000000000000000000000000000000000000000000000000000000000000000000000000000000000000000000000000000000000000000000000000000000000000000000000000000000000000000000000000000000700000000000707000000000000000000
310
00000000000000000000000000000000000007000000000700000000000000000000000000000000000000000000000000000000000000000000000000000000000000000000000000000000000000000000000000000000000000000000000000000000000000000000000000000000000000000000000000000000000000
310
00000000000000000000000000000000000000000000000000000000000000000000000007000000000707000000000000000000000000000000000000000000000000000000000700000000070000000000000000000000000000000000000000000000000000000000000000000000000000000000000000000000000000
310
00000000000000000000000000000000000000000000000000000000000000000000000000000000000000000000000000000000000000000000000000000000000000000000000000000000000000000000000000000000000700000000000700000000000000000000000000000000000000000000000000000000070000
310
00000700000000000000000000000000000000000000000000000000000000000000000000000000000000000000000000000000000000000000000000000000000000000000000000000000000000000000000000000000000000000000000000000000000000000000000000000000000000000000000000000000000000
310
00000000000000000000000000000007000000000000070707000000000000000000000000000000000000000000000000000700000000070000000000000000000000000000000000000000000000000000000000000000000000000000000000000000000000000000000000000000000000000000000000000000000000
310
00000000000000000000000000000000000000000000000000000000000000000000000000000000000000000000000000000000000000000000000000000000000000000700000000000000000700000000000000000000000000000000000000000000000000070000000007000000000000000000000000000000000000
310
00000000000000000000000000000000000000000000000000000000000000000000000000000000000000000000000000000000000000000000000000000000000000000000000000000000000000000000000000000000000000000000000000000000000000000000000000000000000000000000000000070000000000
310
00000007000000000000000000000000000000000000000000000000000700000000070000000000000000000000000000000000000000000000000000000000000000000000000000000000000000000000000000000000000000000000000000000000000000000000000000000000000000000000000000000000000000
310
00000000000000000000000000000000000000000000000000000000000000000000000000000000000000000000000700000000000707070000000000000000000000000000000000000000000000000000070000000007000000000000000000000000000000000000000000000000000000000000000000000000000000
310
00000000000000000000000000000000000000000000000000000000000000000000000000000000000000000000000000000000000000000000000000000000000000000000000000000000000000000000000000000000000000000000000000000000070000000000070000000000000000000000000000000000000000
310
00000000000000000700000000070000000000000000000000000000000000000000000000000000000000000000000000000000000000000000000000000000000000000000000000000000000000000000000000000000000000000000000000000000000000000000000000000000000000000000000000000000000000
310
00000000000000000000000000000000000000000000000000000700000000070700000000000000000000000000000000000000000000000000000000070000000007000000000000000000000000000000000000000000000000000000000000000000000000000000000000000000000000000000000000000000000000
310
00000000000000000000000000000000000000000000000000000000000000000000000000000000000000000000000000000000000000000000000000000000000000000000000000000000000000070000000000070707000000000000000000000000000000000000000000000000000007000000000700000000000000
310
00000000000000000000000000000000000000000000000000000000000000000000000000000000000000000000000000000000000000000000000000000000000000000000000000000000000000000000000000000000000000000000000000000000000000000000000000000000000000000000000000000000000000
310
00000000000700000000000000070700000000000000000000000000000000000000000000000000070000000007000000000000000000000000000000000000000000000000000000000000000000000000000000000000000000000000000000000000000000000000000000000000000000000000000000000000000000
310
00000000000000000000000000000000000000000000000000000000000000000000000000000000000000000000000000000000000000000000070000000000000000070000000000000000000000000000000000000000000000000007000000000700000000000000000000000000000000000000000000000000000000
310
00000000000000000000000000000000000000000000000000000000000000000000000000000000000000000000000000000000000000000000000000000000000000000000000000000000000000000000000000000000000000000000000000000000000000000000000000000007000000000007070707000000000000
310
00000000000000000000000000000000000000070000000007000000000000000000000000000000000000000000000000000000000000000000000000000000000000000000000000000000000000000000000000000000000000000000000000000000000000000000000000000000000000000000000000000000000000
310
00000000000000000000000000000000000000000000000000000000000000000000000000070000000007070000000000000000000000000000000000000000000000000000000007000000000700000000000000000000000000000000000000000000000000000000000000000000000000000000000000000000000000
310
00000000000000000000000000000000000000000000000000000000000000000000000000000000000000000000000000000000000000000000000000000000000000000000000000000000000000000000000000000000000007000000000700000000000000000000000000000000000000000000000000000000000700
310
00000007000000000000000000000000000000000000000000000000000000000000000000000000000000000000000000000000000000000000000000000000000000000000000000000000000000000000000000000000000000000000000000000000000000000000000000000000000000000000000000000000000000
310
00000000000000000000000000000000070000000007070700000000000000000000000000000000000000000000000000000007000000000700000000000000000000000000000000000000000000000000000000000000000000000000000000000000000000000000000000000000000000000000000000000000000000
310
00000000000000000000000000000000000000000000000000000000000000000000000000000000000000000000000000000000000000000000000000000000000000000007000000000000070707000000000000000000000000000000000000000000000000000700000000070000000000000000000000000000000000
310
00000000000000000000000000000000000000000000000000000000000000000000000000000000000000000000000000000000000000000000000000000000000000000000000000000000000000000000000000000000000000000000000000000000000000000000000000000000000000000000000000000700000000
310
00000000070000000000000000000000000000000000000000000000000007000000000700000000000000000000000000000000000000000000000000000000000000000000000000000000000000000000000000000000000000000000000000000000000000000000000000000000000000000000000000000000000000
310
00000000000000000000000000000000000000000000000000000000000000000000000000000000000000000000000007000000000000000707000000000000000000000000000000000000000000000000000700000000070000000000000000000000000000000000000000000000000000000000000000000000000000
310
00000000000000000000000000000000000000000000000000000000000000000000000000000000000000000000000000000000000000000000000000000000000000000000000000000000000000000000000000000000000000000000000000000000000700000000000707000000000000000000000000000000000000
310
00000000000000000007000000000700000000000000000000000000000000000000000000000000000000000000000000000000000000000000000000000000000000000000000000000000000000000000000000000000000000000000000000000000000000000000000000000000000000000000000000000000000000
310
00000000000000000000000000000000000000000000000000000007000000000700000000000000000000000000000000000000000000000000000000000700000000070000000000000000000000000000000000000000000000000000000000000000000000000000000000000000000000000000000000000000000000
310
00000000000000000000000000000000000000000000000000000000000000000000000000000000000000000000000000000000000000000000000000000000000000000000000000000000000000000700000000070700000000000000000000000000000000000000000000000000000000070000000007000000000000
310
00000000000000000000000000000000000000000000000000000000000000000000000000000000000000000000000000000000000000000000000000000000000000000000000000000000000000000000000000000000000000000000000000000000000000000000000000000000000000000000000000000000000000
310
00000000000007000000000007070707000000000000000000000000000000000000000000000000000700000000070000000000000000000000000000000000000000000000000000000000000000000000000000000000000000000000000000000000000000000000000000000000000000000000000000000000000000
310
00000000000000000000000000000000000000000000000000000000000000000000000000000000000000000000000000000000000000000000000700000000000000000700000000000000000000000000000000000000000000000000070000000007000000000000000000000000000000000000000000000000000000
310
00000000000000000000000000000000000000000000000000000000000000000000000000000000000000000000000000000000000000000000000000000000000000000000000000000000000000000000000000000000000000000000000000000000000000000000000000000000070000000000000000070000000000
310
00000000000000000000000000000000000000000700000000070000000000000000000000000000000000000000000000000000000000000000000000000000000000000000000000000000000000000000000000000000000000000000000000000000000000000000000000000000000000000000000000000000000000
310
00000000000000000000000000000000000000000000000000000000000000000000000000000700000000000707070000000000000000000000000000000000000000000000000000070000000007000000000000000000000000000000000000000000000000000000000000000000000000000000000000000000000000
310
00000000000000000000000000000000000000000000000000000000000000000000000000000000000000000000000000000000000000000000000000000000000000000000000000000000000000000000000000000000000000070000000007000000000000000000000000000000000000000000000000000000000007
310
00000000070000000000000000000000000000000000000000000000000000000000000000000000000000000000000000000000000000000000000000000000000000000000000000000000000000000000000000000000000000000000000000000000000000000000000000000000000000000000000000000000000000
310
00000000000000000000000000000000000700000000070000000000000000000000000000000000000000000000000000000000070000000007000000000000000000000000000000000000000000000000000000000000000000000000000000000000000000000000000000000000000000000000000000000000000000
310
00000000000000000000000000000000000000000000000000000000000000000000000000000000000000000000000000000000000000000000000000000000000000000000070000000000070707000000000000000000000000000000000000000000000000000007000000000700000000000000000000000000000000
310
00000000000000000000000000000000000000000000000000000000000000000000000000000000000000000000000000000000000000000000000000000000000000000000000000000000000000000000000000000000000000000000000000000000000000000000000000000000000000000000000000000007000000
310
00000000070700000000000000000000000000000000000000000000000000070000000007000000000000000000000000000000000000000000000000000000000000000000000000000000000000000000000000000000000000000000000000000000000000000000000000000000000000000000000000000000000000
310
00000000000000000000000000000000000000000000000000000000000000000000000000000000000000000000000000070000000000000000070000000000000000000000000000000000000000000000000007000000000700000000000000000000000000000000000000000000000000000000000000000000000000
310
00000000000000000000000000000000000000000000000000000000000000000000000000000000000000000000000000000000000000000000000000000000000000000000000000000000000000000000000000000000000000000000000000000000000007000000000007070707000000000000000000000000000000
310
00000000000000000000070000000007000000000000000000000000000000000000000000000000000000000000000000000000000000000000000000000000000000000000000000000000000000000000000000000000000000000000000000000000000000000000000000000000000000000000000000000000000000
310
00000000000000000000000000000000000000000000000000000000070000000007070000000000000000000000000000000000000000000000000000000007000000000700000000000000000000000000000000000000000000000000000000000000000000000000000000000000000000000000000000000000000000
310
00000000000000000000000000000000000000000000000000000000000000000000000000000000000000000000000000000000000000000000000000000000000000000000000000000000000000000007000000000700000000000000000000000000000000000000000000000000000000000700000000070000000000
310
00000000000000000000000000000000000000000000000000000000000000000000000000000000000000000000000000000000000000000000000000000000000000000000000000000000000000000000000000000000000000000000000000000000000000000000000000000000000000000000000000000000000000
310
00000000000000070000000007070700000000000000000000000000000000000000000000000000000007000000000700000000000000000000000000000000000000000000000000000000000000000000000000000000000000000000000000000000000000000000000000000000000000000000000000000000000000
310
00000000000000000000000000000000000000000000000000000000000000000000000000000000000000000000000000000000000000000000000007000000000000070707000000000000000000000000000000000000000000000000000700000000070000000000000000000000000000000000000000000000000000
310
00000000000000000000000000000000000000000000000000000000000000000000000000000000000000000000000000000000000000000000000000000000000000000000000000000000000000000000000000000000000000000000000000000000000000000000000000000000000700000000000000000700000000
310
00000000000000000000000000000000000000000007000000000700000000000000000000000000000000000000000000000000000000000000000000000000000000000000000000000000000000000000000000000000000000000000000000000000000000000000000000000000000000000000000000000000000000
310
00000000000000000000000000000000000000000000000000000000000000000000000000000007000000000000000707000000000000000000000000000000000000000000000000070000000000070000000000000000000000000000000000000000000000000000000000000000000000000000000000000000000000
310
00000000000000000000000000000000000000000000000000000000000000000000000000000000000000000000000000000000000000000000000000000000000000000000000000000000000000000000000000000000000000000700000000000707000000000000000000000000000000000000000000000000000007
310
00000000000700000000000000000000000000000000000000000000000000000000000000000000000000000000000000000000000000000000000000000000000000000000000000000000000000000000000000000000000000000000000000000000000000000000000000000000000000000000000000000000000000
310
00000000000000000000000000000000000007000000000000070000000000000000000000000000000000000000000000000000070000000000070000000000000000000000000000000000000000000000000000000000000000000000000000000000000000000000000000000000000000000000000000000000000000
310
00000000000000000000000000000000000000000000000000000000000000000000000000000000000000000000000000000000000000000000000000000000000000000000000700000000000007000000000000000000000000000000000000000000000000000700000000000007000000000000000000000000000000
310
00000000000000000000000000000000000000000000000000000000000000000000000000000000000000000000000000000000000000000000000000000000000000000000000000000000000000000000000000000000000000000000000000000000000000000000000000000000000000000000000000000000070000
310
00000000000700000000000000000000000000000000000000000000000700000000000000070000000000000000000000000000000000000000000000000000000000000000000000000000000000000000000000000000000000000000000000000000000000000000000000000000000000000000000000000000000000
310
00000000000000000000000000000000000000000000000000000000000000000000000000000000000000000000000000000700000000000000000700000000000000000000000000000000000000000000070000000000000007000000000000000000000000000000000000000000000000000000000000000000000000
310
00000000000000000000000000000000000000000000000000000000000000000000000000000000000000000000000000000000000000000000000000000000000000000000000000000000000000000000000000000000000000000000000000000000000000070000000000000000070000000000000000000000000000
310
00000000000000070000000000000000070000000000000000000000000000000000000000000000000000000000000000000000000000000000000000000000000000000000000000000000000000000000000000000000000000000000000000000000000000000000000000000000000000000000000000000000000000
310
00000000000000000000000000000000000000000000000000000000000700000000000000000007000000000000000000000000000000000000000700000000000000000007000000000000000000000000000000000000000000000000000000000000000000000000000000000000000000000000000000000000000000
310
00000000000000000000000000000000000000000000000000000000000000000000000000000000000000000000000000000000000000000000000000000000000000000000000000000000000000000000070000000000000000000007070000000000000000000000000000000707000000000000000000000700000000
310
00000000000000000000000000000000000000000000000000000000000000000000000000000000000000000000000000000000000000000000000000000000000000000000000000000000000000000000000000000000000000000000000000000000000000000000000000000000000000000000000000000000000000
310
00000000000000000700000000000000000000000007070000000000000000000000000700000000000000000000000007000000000000000000000000000000000000000000000000000000000000000000000000000000000000000000000000000000000000000000000000000000000000000000000000000000000000
310
00000000000000000000000000000000000000000000000000000000000000000000000000000000000000000000000000000000000000000000000000070000000000000000000000000000070700000000000000000707000000000000000000000000000700000000000000000000000000000000000000000000000000
310
00000000000000000000000000000000000000000000000000000000000000000000000000000000000000000000000000000000000000000000000000000000000000000000000000000000000000000000000000000000000000000000000000000000000000000000000000000000000007000000000000000000000000
310
00000000070000000000000700000000000000000000000000000007000000000000000000000000000000000000000000000000000000000000000000000000000000000000000000000000000000000000000000000000000000000000000000000000000000000000000000000000000000000000000000000000000000
310
00000000000000000000000000000000000000000000000000000000000000000000000000000000070000000000000000000007070707070707000000000000070707070707070000000000000000000700000000000000000000000000000000000000000000000000000000000000000000000000000000000000000000
310
00000000000000000000000000000000000000000000000000000000000000000000000000000000000000000000000000000000000000000000000000000000000000000000000000000000000000000000000000000000000000000007000000000000000000000700000000000000000000000000000000000007000000
310
00000000000007000000000000000000000000000000000000000000000000000000000000000000000000000000000000000000000000000000000000000000000000000000000000000000000000000000000000000000000000000000000000000000000000000000000000000000000000000000000000000000000000
310
00000000000000000000000000000000000000070000000000000000000007000000000000000000000000000000000000070000000000000000000700000000000000000000000000000000000000000000000000000000000000000000000000000000000000000000000000000000000000000000000000000000000000
310
00000000000000000000000000000000000000000000000000000000000000000000000000000000000000000000000000000000000000000000000000000000000000000000000000070000000000000000000700000000000000000000000000000000000007000000000000000007000000000000000000000000000000
310
00000000000000000000000000000000000000000000000000000000000000000000000000000000000000000000000000000000000000000000000000000000000000000000000000000000000000000000000000000000000000000000000000000000000000000000000000000000000000000000000000000000000000
310
070707070707070707070000000000000000000000000000000000000707070707070707070000000000000000000000000000000000000000000000000000000000000000000000000000000000000000000000000000000000000000000000000000000000000000000000
  0
ENDSEC
  0
EOF
